G04 #@! TF.GenerationSoftware,KiCad,Pcbnew,(6.0.8)*
G04 #@! TF.CreationDate,2022-10-23T10:36:42+02:00*
G04 #@! TF.ProjectId,ControlPanelESP,436f6e74-726f-46c5-9061-6e656c455350,rev?*
G04 #@! TF.SameCoordinates,Original*
G04 #@! TF.FileFunction,Soldermask,Bot*
G04 #@! TF.FilePolarity,Negative*
%FSLAX46Y46*%
G04 Gerber Fmt 4.6, Leading zero omitted, Abs format (unit mm)*
G04 Created by KiCad (PCBNEW (6.0.8)) date 2022-10-23 10:36:42*
%MOMM*%
%LPD*%
G01*
G04 APERTURE LIST*
%ADD10R,1.700000X1.700000*%
%ADD11O,1.700000X1.700000*%
%ADD12C,2.000000*%
%ADD13R,1.600000X1.600000*%
%ADD14C,1.600000*%
%ADD15C,3.800000*%
%ADD16O,1.600000X1.600000*%
%ADD17C,2.500000*%
%ADD18R,2.300000X2.300000*%
%ADD19C,2.300000*%
G04 APERTURE END LIST*
D10*
X45720000Y-87426800D03*
D11*
X48260000Y-87426800D03*
X50800000Y-87426800D03*
X53340000Y-87426800D03*
D12*
X139184000Y-91832000D03*
X134184000Y-86332000D03*
D13*
X116265888Y-81788000D03*
D14*
X118265888Y-81788000D03*
D15*
X77470000Y-104902000D03*
X112141000Y-104902000D03*
D10*
X124455000Y-80314800D03*
D11*
X126995000Y-80314800D03*
D13*
X124460000Y-84531200D03*
D14*
X126460000Y-84531200D03*
D15*
X112141000Y-91821000D03*
X134366000Y-95123000D03*
D10*
X43180000Y-83769200D03*
D11*
X45720000Y-83769200D03*
X48260000Y-83769200D03*
D10*
X66050000Y-99949000D03*
D11*
X68590000Y-99949000D03*
X71130000Y-99949000D03*
X73670000Y-99949000D03*
D15*
X77470000Y-91821000D03*
D13*
X117358000Y-95499000D03*
D16*
X117358000Y-98039000D03*
X124978000Y-98039000D03*
X124978000Y-95499000D03*
D10*
X117475000Y-101473000D03*
D11*
X114935000Y-101473000D03*
D17*
X140589000Y-80518000D03*
D18*
X130429000Y-80518000D03*
D19*
X132969000Y-80518000D03*
D17*
X148209000Y-80518000D03*
D10*
X123190000Y-101473000D03*
D11*
X120650000Y-101473000D03*
D15*
X52451000Y-92710000D03*
D10*
X43180000Y-80264000D03*
D11*
X45720000Y-80264000D03*
X48260000Y-80264000D03*
X50800000Y-80264000D03*
M02*
