M48
; DRILL file {KiCad (6.0.8)} date Sun Oct 23 10:36:40 2022
; FORMAT={-:-/ absolute / metric / decimal}
; #@! TF.CreationDate,2022-10-23T10:36:40+02:00
; #@! TF.GenerationSoftware,Kicad,Pcbnew,(6.0.8)
; #@! TF.FileFunction,Plated,1,4,PTH
FMAT,2
METRIC
; #@! TA.AperFunction,Plated,PTH,ViaDrill
T1C0.200
; #@! TA.AperFunction,Plated,PTH,ViaDrill
T2C0.400
; #@! TA.AperFunction,Plated,PTH,ComponentDrill
T3C0.800
; #@! TA.AperFunction,Plated,PTH,ComponentDrill
T4C1.000
; #@! TA.AperFunction,Plated,PTH,ComponentDrill
T5C1.250
; #@! TA.AperFunction,Plated,PTH,ComponentDrill
T6C1.400
; #@! TA.AperFunction,Plated,PTH,ComponentDrill
T7C1.600
; #@! TA.AperFunction,Plated,PTH,ComponentDrill
T8C2.200
%
G90
G05
T1
X40.894Y-81.28
X40.894Y-82.169
X41.783Y-81.28
X41.783Y-82.169
X43.053Y-85.852
X49.276Y-85.344
X49.911Y-91.186
X54.483Y-89.226
X54.53Y-85.725
X54.53Y-86.614
X54.737Y-82.042
X56.007Y-81.026
X57.023Y-95.504
X58.039Y-85.598
X58.928Y-85.598
X60.452Y-85.598
X61.341Y-85.598
X64.643Y-81.788
X67.183Y-95.504
X68.453Y-95.504
X68.834Y-82.042
X69.485Y-93.075
X69.596Y-102.934
X69.723Y-95.504
X70.993Y-95.504
X71.0Y-82.416
X71.501Y-85.344
X71.501Y-86.144
X71.501Y-86.943
X71.501Y-87.757
X75.184Y-88.9
X75.184Y-89.662
X75.565Y-86.069
X75.946Y-88.9
X75.946Y-89.662
X78.74Y-86.36
X81.28Y-81.026
X81.28Y-81.788
X81.28Y-82.55
X82.169Y-81.026
X82.169Y-81.788
X82.169Y-82.55
X83.058Y-81.026
X83.058Y-81.788
X83.058Y-82.55
X86.36Y-82.804
X98.806Y-83.82
X113.919Y-81.28
X113.919Y-82.042
X114.681Y-81.28
X114.681Y-82.042
X115.316Y-94.869
X120.015Y-79.502
X120.015Y-80.264
X120.777Y-79.502
X120.777Y-80.264
X122.428Y-94.488
X123.317Y-87.122
X123.317Y-87.884
X123.825Y-89.662
X124.079Y-87.122
X124.079Y-87.884
X126.746Y-91.694
X127.762Y-82.55
X128.27Y-95.631
X128.524Y-82.55
X128.524Y-83.312
X128.651Y-80.264
X129.286Y-98.298
X130.175Y-85.09
X131.191Y-83.312
T2
X70.539Y-103.034
X74.676Y-105.664
X75.719Y-99.722
T3
X116.266Y-81.788
X117.358Y-95.499
X117.358Y-98.039
X118.266Y-81.788
X124.46Y-84.531
X124.978Y-95.499
X124.978Y-98.039
X126.46Y-84.531
T4
X43.18Y-80.264
X43.18Y-83.769
X45.72Y-80.264
X45.72Y-83.769
X45.72Y-87.427
X48.26Y-80.264
X48.26Y-83.769
X48.26Y-87.427
X50.8Y-80.264
X50.8Y-87.427
X53.34Y-87.427
X66.05Y-99.949
X68.59Y-99.949
X71.13Y-99.949
X73.67Y-99.949
X114.935Y-101.473
X117.475Y-101.473
X120.65Y-101.473
X123.19Y-101.473
X124.455Y-80.315
X126.995Y-80.315
T5
X134.184Y-86.332
X139.184Y-91.832
T6
X130.429Y-80.518
X132.969Y-80.518
T7
X140.589Y-80.518
X148.209Y-80.518
T8
X52.451Y-92.71
X77.47Y-91.821
X77.47Y-104.902
X112.141Y-91.821
X112.141Y-104.902
X134.366Y-95.123
T0
M30
