G04 #@! TF.GenerationSoftware,KiCad,Pcbnew,(6.0.1)*
G04 #@! TF.CreationDate,2022-03-20T15:01:39+01:00*
G04 #@! TF.ProjectId,ControlPanelESP,436f6e74-726f-46c5-9061-6e656c455350,rev?*
G04 #@! TF.SameCoordinates,Original*
G04 #@! TF.FileFunction,Copper,L4,Bot*
G04 #@! TF.FilePolarity,Positive*
%FSLAX46Y46*%
G04 Gerber Fmt 4.6, Leading zero omitted, Abs format (unit mm)*
G04 Created by KiCad (PCBNEW (6.0.1)) date 2022-03-20 15:01:39*
%MOMM*%
%LPD*%
G01*
G04 APERTURE LIST*
G04 Aperture macros list*
%AMRoundRect*
0 Rectangle with rounded corners*
0 $1 Rounding radius*
0 $2 $3 $4 $5 $6 $7 $8 $9 X,Y pos of 4 corners*
0 Add a 4 corners polygon primitive as box body*
4,1,4,$2,$3,$4,$5,$6,$7,$8,$9,$2,$3,0*
0 Add four circle primitives for the rounded corners*
1,1,$1+$1,$2,$3*
1,1,$1+$1,$4,$5*
1,1,$1+$1,$6,$7*
1,1,$1+$1,$8,$9*
0 Add four rect primitives between the rounded corners*
20,1,$1+$1,$2,$3,$4,$5,0*
20,1,$1+$1,$4,$5,$6,$7,0*
20,1,$1+$1,$6,$7,$8,$9,0*
20,1,$1+$1,$8,$9,$2,$3,0*%
G04 Aperture macros list end*
G04 #@! TA.AperFunction,ComponentPad*
%ADD10RoundRect,0.250000X-0.600000X-0.725000X0.600000X-0.725000X0.600000X0.725000X-0.600000X0.725000X0*%
G04 #@! TD*
G04 #@! TA.AperFunction,ComponentPad*
%ADD11O,1.700000X1.950000*%
G04 #@! TD*
G04 #@! TA.AperFunction,ComponentPad*
%ADD12C,2.300000*%
G04 #@! TD*
G04 #@! TA.AperFunction,ComponentPad*
%ADD13R,2.000000X2.000000*%
G04 #@! TD*
G04 #@! TA.AperFunction,ComponentPad*
%ADD14C,3.800000*%
G04 #@! TD*
G04 #@! TA.AperFunction,ComponentPad*
%ADD15RoundRect,0.250000X-0.600000X-0.750000X0.600000X-0.750000X0.600000X0.750000X-0.600000X0.750000X0*%
G04 #@! TD*
G04 #@! TA.AperFunction,ComponentPad*
%ADD16O,1.700000X2.000000*%
G04 #@! TD*
G04 #@! TA.AperFunction,ComponentPad*
%ADD17R,1.600000X1.600000*%
G04 #@! TD*
G04 #@! TA.AperFunction,ComponentPad*
%ADD18C,1.600000*%
G04 #@! TD*
G04 #@! TA.AperFunction,ComponentPad*
%ADD19O,1.600000X1.600000*%
G04 #@! TD*
G04 #@! TA.AperFunction,ViaPad*
%ADD20C,0.800000*%
G04 #@! TD*
G04 #@! TA.AperFunction,ViaPad*
%ADD21C,0.600000*%
G04 #@! TD*
G04 #@! TA.AperFunction,Conductor*
%ADD22C,0.250000*%
G04 #@! TD*
G04 APERTURE END LIST*
D10*
X111606000Y-81517000D03*
D11*
X114106000Y-81517000D03*
X116606000Y-81517000D03*
X119106000Y-81517000D03*
X121606000Y-81517000D03*
X124106000Y-81517000D03*
D12*
X138824800Y-80503000D03*
D13*
X128664800Y-80503000D03*
D12*
X131204800Y-80503000D03*
X146444800Y-80503000D03*
D14*
X75819000Y-103251000D03*
D15*
X116860000Y-88375000D03*
D16*
X119360000Y-88375000D03*
D15*
X127294000Y-95250000D03*
D16*
X129794000Y-95250000D03*
D14*
X135255000Y-94488000D03*
D10*
X125556000Y-88392000D03*
D11*
X128056000Y-88392000D03*
X130556000Y-88392000D03*
D17*
X51689000Y-88392000D03*
D18*
X51689000Y-86392000D03*
D17*
X119883000Y-101082000D03*
D19*
X122423000Y-101082000D03*
X122423000Y-93462000D03*
X119883000Y-93462000D03*
D17*
X51689000Y-80832888D03*
D18*
X51689000Y-82832888D03*
D15*
X136652000Y-88392000D03*
D16*
X139152000Y-88392000D03*
D14*
X144272000Y-87122000D03*
X52451000Y-92710000D03*
D20*
X41656000Y-80137000D03*
X113538000Y-106515500D03*
X83693000Y-84681530D03*
X112776000Y-101189500D03*
X44704000Y-88265000D03*
X75184000Y-79502000D03*
X66802000Y-94615000D03*
X87899889Y-81460623D03*
X73533000Y-81534000D03*
X41910000Y-81915000D03*
X66040000Y-87630000D03*
X91059000Y-84963000D03*
X39116000Y-81915000D03*
X79248000Y-90424000D03*
X46609000Y-89662000D03*
X45085000Y-83566000D03*
X45085000Y-81932388D03*
D21*
X79756000Y-81153000D03*
D20*
X76708000Y-84681541D03*
X82931000Y-80009999D03*
X111252000Y-90297000D03*
X109347000Y-85090000D03*
X93472000Y-82333500D03*
X98298000Y-83947000D03*
X77851000Y-91059000D03*
X58040000Y-94870000D03*
X68707000Y-95377000D03*
X69850000Y-95250000D03*
X113030000Y-91186000D03*
X114808000Y-103124000D03*
X117316989Y-92452552D03*
X129032000Y-98679000D03*
X114046000Y-88138000D03*
X123825000Y-84582000D03*
X114046000Y-94107000D03*
X126492000Y-101219000D03*
X112141000Y-105791000D03*
X120223369Y-91113934D03*
X65659000Y-100330000D03*
X48768000Y-89789000D03*
X78740000Y-91567000D03*
X73896593Y-85254500D03*
X117856000Y-97028000D03*
X117729000Y-102870000D03*
X115443000Y-93599000D03*
X109982000Y-82423000D03*
X69850000Y-83820000D03*
X115559500Y-96774014D03*
X116840000Y-103505000D03*
X57575500Y-82030146D03*
X115559500Y-97773517D03*
X126365000Y-79883000D03*
X116078000Y-100711000D03*
X78867000Y-84836000D03*
X58928000Y-82931000D03*
X74803000Y-84681530D03*
X86047425Y-85115111D03*
X64008000Y-82550000D03*
X114137101Y-101884296D03*
D22*
X116840000Y-102870000D02*
X116840000Y-97155000D01*
X116459014Y-96774014D02*
X115559500Y-96774014D01*
X116840000Y-102870000D02*
X116840000Y-103505000D01*
X116840000Y-97155000D02*
X116459014Y-96774014D01*
X75084470Y-84681530D02*
X75946000Y-83820000D01*
X84752314Y-83820000D02*
X86047425Y-85115111D01*
X75946000Y-83820000D02*
X84752314Y-83820000D01*
X74803000Y-84681530D02*
X75084470Y-84681530D01*
G04 #@! TA.AperFunction,Conductor*
G36*
X152199086Y-79131949D02*
G01*
X152205433Y-79132437D01*
X152217382Y-79135784D01*
X152229705Y-79134303D01*
X152235528Y-79134751D01*
X152248470Y-79136424D01*
X152329209Y-79151151D01*
X152375123Y-79159527D01*
X152400150Y-79166835D01*
X152536092Y-79222353D01*
X152559079Y-79234654D01*
X152680692Y-79316967D01*
X152700644Y-79333727D01*
X152780056Y-79415872D01*
X152802716Y-79439312D01*
X152818800Y-79459832D01*
X152834069Y-79484122D01*
X152888861Y-79571288D01*
X152896947Y-79584152D01*
X152908464Y-79607540D01*
X152952128Y-79725733D01*
X152959354Y-79745294D01*
X152965809Y-79770551D01*
X152985052Y-79900891D01*
X152987257Y-79915823D01*
X152988376Y-79941869D01*
X152982161Y-80044078D01*
X152979463Y-80088452D01*
X152975196Y-80114172D01*
X152936309Y-80255771D01*
X152926840Y-80280063D01*
X152919563Y-80294202D01*
X152859639Y-80410632D01*
X152845373Y-80432455D01*
X152787753Y-80503329D01*
X152764178Y-80532326D01*
X152755429Y-80542016D01*
X152751282Y-80546156D01*
X152740956Y-80553042D01*
X152734052Y-80563355D01*
X152729945Y-80567455D01*
X152726453Y-80572083D01*
X152717192Y-80580338D01*
X152711795Y-80591509D01*
X152710845Y-80592768D01*
X152698668Y-80612458D01*
X152557129Y-80795694D01*
X151725067Y-81872879D01*
X151724498Y-81873615D01*
X151722744Y-81875833D01*
X150996185Y-82773733D01*
X150698073Y-83142147D01*
X150696256Y-83144341D01*
X150591780Y-83267649D01*
X149643299Y-84387095D01*
X149643236Y-84387169D01*
X149641393Y-84389295D01*
X148560523Y-85608044D01*
X148558665Y-85610092D01*
X147976310Y-86237576D01*
X147450533Y-86804097D01*
X147448572Y-86806163D01*
X146890649Y-87380717D01*
X146828843Y-87415653D01*
X146757961Y-87411629D01*
X146700506Y-87369921D01*
X146674722Y-87303772D01*
X146674504Y-87285027D01*
X146684512Y-87125957D01*
X146684512Y-87118042D01*
X146665985Y-86823564D01*
X146664992Y-86815703D01*
X146609704Y-86525872D01*
X146607733Y-86518195D01*
X146516554Y-86237576D01*
X146513639Y-86230213D01*
X146388007Y-85963230D01*
X146384195Y-85956297D01*
X146226091Y-85707165D01*
X146221437Y-85700759D01*
X146156479Y-85622239D01*
X146143960Y-85613783D01*
X146133222Y-85619989D01*
X144631210Y-87122000D01*
X144272000Y-87481210D01*
X142768925Y-88984286D01*
X142762313Y-88996394D01*
X142771141Y-89008013D01*
X142975970Y-89156830D01*
X142982650Y-89161070D01*
X143241234Y-89303228D01*
X143248369Y-89306585D01*
X143522746Y-89415219D01*
X143530237Y-89417653D01*
X143816059Y-89491039D01*
X143823830Y-89492521D01*
X144116570Y-89529503D01*
X144124460Y-89530000D01*
X144396712Y-89530000D01*
X144464833Y-89550002D01*
X144511326Y-89603658D01*
X144521430Y-89673932D01*
X144491936Y-89738512D01*
X144483053Y-89747767D01*
X143962320Y-90237649D01*
X143960246Y-90239556D01*
X142748853Y-91328636D01*
X142746760Y-91330476D01*
X142064851Y-91916216D01*
X141511060Y-92391906D01*
X141508879Y-92393737D01*
X140936473Y-92863360D01*
X140297925Y-93387248D01*
X140249548Y-93426938D01*
X140247344Y-93428705D01*
X138964911Y-94433242D01*
X138962721Y-94434918D01*
X137782786Y-95316877D01*
X137750465Y-95341036D01*
X137683927Y-95365798D01*
X137614564Y-95350657D01*
X137564398Y-95300418D01*
X137549357Y-95231033D01*
X137555196Y-95201177D01*
X137590733Y-95091805D01*
X137592704Y-95084128D01*
X137647992Y-94794297D01*
X137648985Y-94786436D01*
X137667512Y-94491958D01*
X137667512Y-94484042D01*
X137648985Y-94189564D01*
X137647992Y-94181703D01*
X137592704Y-93891872D01*
X137590733Y-93884195D01*
X137499554Y-93603576D01*
X137496639Y-93596213D01*
X137371007Y-93329230D01*
X137367195Y-93322297D01*
X137209091Y-93073165D01*
X137204437Y-93066759D01*
X137139479Y-92988239D01*
X137126960Y-92979783D01*
X137116222Y-92985989D01*
X135614210Y-94488000D01*
X135255000Y-94847210D01*
X133751925Y-96350286D01*
X133745313Y-96362394D01*
X133754141Y-96374013D01*
X133958970Y-96522830D01*
X133965650Y-96527070D01*
X134224234Y-96669228D01*
X134231369Y-96672585D01*
X134505746Y-96781219D01*
X134513237Y-96783653D01*
X134799059Y-96857039D01*
X134806830Y-96858521D01*
X135099570Y-96895503D01*
X135107460Y-96896000D01*
X135126583Y-96896000D01*
X135194704Y-96916002D01*
X135241197Y-96969658D01*
X135251301Y-97039932D01*
X135221807Y-97104512D01*
X135197384Y-97126227D01*
X134997539Y-97261974D01*
X134979386Y-97274305D01*
X134977012Y-97275879D01*
X133609183Y-98160497D01*
X133606775Y-98162016D01*
X133465328Y-98249025D01*
X132239950Y-99002798D01*
X132219302Y-99015499D01*
X132216871Y-99016956D01*
X131408532Y-99489353D01*
X130810475Y-99838860D01*
X130808000Y-99840269D01*
X129383406Y-100630170D01*
X129380900Y-100631523D01*
X129146786Y-100754500D01*
X127938762Y-101389057D01*
X127936307Y-101390311D01*
X127245042Y-101733720D01*
X127206762Y-101752737D01*
X127136856Y-101765131D01*
X127071346Y-101737763D01*
X127031032Y-101679322D01*
X127028713Y-101608364D01*
X127048380Y-101566371D01*
X127069755Y-101536624D01*
X127128842Y-101389641D01*
X127145537Y-101272335D01*
X127150581Y-101236891D01*
X127150581Y-101236888D01*
X127151162Y-101232807D01*
X127151307Y-101219000D01*
X127150452Y-101211930D01*
X127143100Y-101151177D01*
X127132276Y-101061733D01*
X127076280Y-100913546D01*
X127052641Y-100879151D01*
X126990855Y-100789251D01*
X126990854Y-100789249D01*
X126986553Y-100782992D01*
X126868275Y-100677611D01*
X126860889Y-100673700D01*
X126734988Y-100607039D01*
X126734989Y-100607039D01*
X126728274Y-100603484D01*
X126574633Y-100564892D01*
X126567034Y-100564852D01*
X126567033Y-100564852D01*
X126501181Y-100564507D01*
X126416221Y-100564062D01*
X126408841Y-100565834D01*
X126408839Y-100565834D01*
X126269563Y-100599271D01*
X126269560Y-100599272D01*
X126262184Y-100601043D01*
X126121414Y-100673700D01*
X126002039Y-100777838D01*
X125910950Y-100907444D01*
X125885403Y-100972970D01*
X125864908Y-101025537D01*
X125853406Y-101055037D01*
X125852414Y-101062570D01*
X125852414Y-101062571D01*
X125835160Y-101193634D01*
X125832729Y-101212096D01*
X125836175Y-101243309D01*
X125849074Y-101360141D01*
X125850113Y-101369553D01*
X125852723Y-101376684D01*
X125852723Y-101376686D01*
X125900564Y-101507418D01*
X125904553Y-101518319D01*
X125908789Y-101524622D01*
X125908789Y-101524623D01*
X125941690Y-101573584D01*
X125992908Y-101649805D01*
X125998527Y-101654918D01*
X125998528Y-101654919D01*
X126078700Y-101727869D01*
X126110076Y-101756419D01*
X126249293Y-101832008D01*
X126402522Y-101872207D01*
X126430561Y-101872647D01*
X126498358Y-101893715D01*
X126544004Y-101948093D01*
X126553004Y-102018517D01*
X126522501Y-102082627D01*
X126484651Y-102111469D01*
X126480824Y-102113370D01*
X126477403Y-102115070D01*
X126474882Y-102116288D01*
X126022082Y-102328611D01*
X124999964Y-102807894D01*
X124997372Y-102809073D01*
X124274905Y-103128134D01*
X123507268Y-103467143D01*
X123504716Y-103468236D01*
X122591459Y-103847128D01*
X122000114Y-104092465D01*
X121997472Y-104093527D01*
X121807835Y-104167226D01*
X120479064Y-104683628D01*
X120476483Y-104684597D01*
X119426924Y-105065417D01*
X118945195Y-105240207D01*
X118942507Y-105241148D01*
X117399084Y-105762001D01*
X117396376Y-105762881D01*
X115841588Y-106248718D01*
X115838861Y-106249537D01*
X114355570Y-106676488D01*
X114284574Y-106676109D01*
X114225054Y-106637407D01*
X114195906Y-106572670D01*
X114195975Y-106537648D01*
X114197162Y-106529307D01*
X114197307Y-106515500D01*
X114178276Y-106358233D01*
X114122280Y-106210046D01*
X114052575Y-106108624D01*
X114036855Y-106085751D01*
X114036854Y-106085749D01*
X114032553Y-106079492D01*
X113914275Y-105974111D01*
X113906889Y-105970200D01*
X113780988Y-105903539D01*
X113780989Y-105903539D01*
X113774274Y-105899984D01*
X113620633Y-105861392D01*
X113613034Y-105861352D01*
X113613033Y-105861352D01*
X113547181Y-105861007D01*
X113462221Y-105860562D01*
X113454841Y-105862334D01*
X113454839Y-105862334D01*
X113315563Y-105895771D01*
X113315560Y-105895772D01*
X113308184Y-105897543D01*
X113167414Y-105970200D01*
X113048039Y-106074338D01*
X112956950Y-106203944D01*
X112939325Y-106249150D01*
X112905768Y-106335220D01*
X112899406Y-106351537D01*
X112898414Y-106359070D01*
X112898414Y-106359071D01*
X112887102Y-106444999D01*
X112878729Y-106508596D01*
X112896113Y-106666053D01*
X112898723Y-106673184D01*
X112898723Y-106673186D01*
X112919838Y-106730884D01*
X112950553Y-106814819D01*
X112954788Y-106821122D01*
X112954791Y-106821127D01*
X112985338Y-106866586D01*
X113006730Y-106934283D01*
X112988126Y-107002799D01*
X112935433Y-107050380D01*
X112912864Y-107058701D01*
X112695521Y-107115976D01*
X112692795Y-107116662D01*
X111225857Y-107467978D01*
X111143027Y-107487815D01*
X111120064Y-107490847D01*
X111118537Y-107491195D01*
X111106132Y-107491535D01*
X111094803Y-107496596D01*
X111091450Y-107497359D01*
X111077660Y-107501818D01*
X111074493Y-107503163D01*
X111062346Y-107505693D01*
X111052090Y-107512680D01*
X111050684Y-107513277D01*
X111036486Y-107518329D01*
X110942031Y-107545695D01*
X110912339Y-107550557D01*
X110854569Y-107553022D01*
X110800314Y-107555337D01*
X110770316Y-107553022D01*
X110753631Y-107549697D01*
X110660341Y-107531104D01*
X110631748Y-107521743D01*
X110621970Y-107517186D01*
X110530109Y-107474378D01*
X110504550Y-107458504D01*
X110417036Y-107388391D01*
X110395973Y-107366914D01*
X110327573Y-107278047D01*
X110312208Y-107252198D01*
X110266825Y-107149644D01*
X110258024Y-107120879D01*
X110240684Y-107024081D01*
X110238919Y-107009115D01*
X110238831Y-107007586D01*
X110240547Y-106995299D01*
X110237430Y-106983289D01*
X110236716Y-106970899D01*
X110237172Y-106970873D01*
X110236000Y-106961694D01*
X110236000Y-105784096D01*
X111481729Y-105784096D01*
X111490171Y-105860562D01*
X111494524Y-105899984D01*
X111499113Y-105941553D01*
X111501723Y-105948684D01*
X111501723Y-105948686D01*
X111549979Y-106080552D01*
X111553553Y-106090319D01*
X111641908Y-106221805D01*
X111647527Y-106226918D01*
X111647528Y-106226919D01*
X111658903Y-106237269D01*
X111759076Y-106328419D01*
X111898293Y-106404008D01*
X112051522Y-106444207D01*
X112135477Y-106445526D01*
X112202319Y-106446576D01*
X112202322Y-106446576D01*
X112209916Y-106446695D01*
X112364332Y-106411329D01*
X112454911Y-106365773D01*
X112499072Y-106343563D01*
X112499075Y-106343561D01*
X112505855Y-106340151D01*
X112511626Y-106335222D01*
X112511629Y-106335220D01*
X112620536Y-106242204D01*
X112620536Y-106242203D01*
X112626314Y-106237269D01*
X112718755Y-106108624D01*
X112777842Y-105961641D01*
X112792115Y-105861352D01*
X112799581Y-105808891D01*
X112799581Y-105808888D01*
X112800162Y-105804807D01*
X112800307Y-105791000D01*
X112781276Y-105633733D01*
X112725280Y-105485546D01*
X112635553Y-105354992D01*
X112517275Y-105249611D01*
X112509889Y-105245700D01*
X112383988Y-105179039D01*
X112383989Y-105179039D01*
X112377274Y-105175484D01*
X112223633Y-105136892D01*
X112216034Y-105136852D01*
X112216033Y-105136852D01*
X112150181Y-105136507D01*
X112065221Y-105136062D01*
X112057841Y-105137834D01*
X112057839Y-105137834D01*
X111918563Y-105171271D01*
X111918560Y-105171272D01*
X111911184Y-105173043D01*
X111770414Y-105245700D01*
X111651039Y-105349838D01*
X111559950Y-105479444D01*
X111502406Y-105627037D01*
X111501414Y-105634570D01*
X111501414Y-105634571D01*
X111484578Y-105762458D01*
X111481729Y-105784096D01*
X110236000Y-105784096D01*
X110236000Y-101764425D01*
X110238421Y-101739844D01*
X110238555Y-101739170D01*
X110240976Y-101727000D01*
X110238555Y-101714828D01*
X110238555Y-101702421D01*
X110239411Y-101702421D01*
X110238778Y-101691706D01*
X110241208Y-101660827D01*
X110250858Y-101538212D01*
X110253951Y-101518685D01*
X110256725Y-101507131D01*
X110295845Y-101344184D01*
X110301953Y-101325385D01*
X110302524Y-101324008D01*
X110350828Y-101207391D01*
X110370626Y-101159595D01*
X110379602Y-101141979D01*
X110473367Y-100988967D01*
X110484989Y-100972970D01*
X110504327Y-100950329D01*
X110601535Y-100836513D01*
X110615514Y-100822534D01*
X110751974Y-100705986D01*
X110767967Y-100694367D01*
X110920979Y-100600602D01*
X110938595Y-100591626D01*
X111046242Y-100547037D01*
X111104390Y-100522951D01*
X111123184Y-100516845D01*
X111297686Y-100474951D01*
X111317212Y-100471858D01*
X111470706Y-100459778D01*
X111481421Y-100460411D01*
X111481421Y-100459555D01*
X111493828Y-100459555D01*
X111506000Y-100461976D01*
X111518847Y-100459421D01*
X111543425Y-100457000D01*
X111595575Y-100457000D01*
X111620153Y-100459421D01*
X111633000Y-100461976D01*
X111636038Y-100461372D01*
X111978627Y-100443417D01*
X112320466Y-100389275D01*
X112394753Y-100369370D01*
X112465730Y-100371060D01*
X112524525Y-100410854D01*
X112552473Y-100476119D01*
X112540699Y-100546132D01*
X112492943Y-100598666D01*
X112485154Y-100603043D01*
X112405414Y-100644200D01*
X112286039Y-100748338D01*
X112194950Y-100877944D01*
X112180688Y-100914524D01*
X112146121Y-101003185D01*
X112137406Y-101025537D01*
X112136414Y-101033070D01*
X112136414Y-101033071D01*
X112126078Y-101111586D01*
X112116729Y-101182596D01*
X112123432Y-101243309D01*
X112133150Y-101331329D01*
X112134113Y-101340053D01*
X112136723Y-101347184D01*
X112136723Y-101347186D01*
X112182881Y-101473318D01*
X112188553Y-101488819D01*
X112192789Y-101495122D01*
X112192789Y-101495123D01*
X112244946Y-101572740D01*
X112276908Y-101620305D01*
X112282527Y-101625418D01*
X112282528Y-101625419D01*
X112355377Y-101691706D01*
X112394076Y-101726919D01*
X112533293Y-101802508D01*
X112686522Y-101842707D01*
X112770477Y-101844026D01*
X112837319Y-101845076D01*
X112837322Y-101845076D01*
X112844916Y-101845195D01*
X112999332Y-101809829D01*
X113089609Y-101764425D01*
X113134072Y-101742063D01*
X113134075Y-101742061D01*
X113140855Y-101738651D01*
X113146626Y-101733722D01*
X113146629Y-101733720D01*
X113255536Y-101640704D01*
X113255536Y-101640703D01*
X113261314Y-101635769D01*
X113274635Y-101617231D01*
X113330630Y-101573584D01*
X113401334Y-101567140D01*
X113464298Y-101599943D01*
X113499531Y-101661581D01*
X113499024Y-101719006D01*
X113498507Y-101720333D01*
X113497515Y-101727869D01*
X113481524Y-101849334D01*
X113477830Y-101877392D01*
X113485369Y-101945674D01*
X113493411Y-102018517D01*
X113495214Y-102034849D01*
X113497824Y-102041980D01*
X113497824Y-102041982D01*
X113534195Y-102141370D01*
X113549654Y-102183615D01*
X113553890Y-102189918D01*
X113553890Y-102189919D01*
X113570786Y-102215062D01*
X113638009Y-102315101D01*
X113643628Y-102320214D01*
X113643629Y-102320215D01*
X113749561Y-102416605D01*
X113755177Y-102421715D01*
X113894394Y-102497304D01*
X114047623Y-102537503D01*
X114114119Y-102538547D01*
X114178170Y-102539554D01*
X114245968Y-102560623D01*
X114291613Y-102615003D01*
X114300611Y-102685427D01*
X114279278Y-102737989D01*
X114226950Y-102812444D01*
X114224190Y-102819524D01*
X114172320Y-102952564D01*
X114169406Y-102960037D01*
X114168414Y-102967570D01*
X114168414Y-102967571D01*
X114156398Y-103058846D01*
X114148729Y-103117096D01*
X114155737Y-103180571D01*
X114164927Y-103263810D01*
X114166113Y-103274553D01*
X114168723Y-103281684D01*
X114168723Y-103281686D01*
X114187852Y-103333957D01*
X114220553Y-103423319D01*
X114224789Y-103429622D01*
X114224789Y-103429623D01*
X114250379Y-103467704D01*
X114308908Y-103554805D01*
X114314527Y-103559918D01*
X114314528Y-103559919D01*
X114419629Y-103655553D01*
X114426076Y-103661419D01*
X114565293Y-103737008D01*
X114718522Y-103777207D01*
X114802477Y-103778526D01*
X114869319Y-103779576D01*
X114869322Y-103779576D01*
X114876916Y-103779695D01*
X115031332Y-103744329D01*
X115101742Y-103708917D01*
X115166072Y-103676563D01*
X115166075Y-103676561D01*
X115172855Y-103673151D01*
X115178626Y-103668222D01*
X115178629Y-103668220D01*
X115287536Y-103575204D01*
X115287536Y-103575203D01*
X115293314Y-103570269D01*
X115385755Y-103441624D01*
X115444842Y-103294641D01*
X115467162Y-103137807D01*
X115467307Y-103124000D01*
X115448276Y-102966733D01*
X115392280Y-102818546D01*
X115302553Y-102687992D01*
X115184275Y-102582611D01*
X115176889Y-102578700D01*
X115050988Y-102512039D01*
X115050989Y-102512039D01*
X115044274Y-102508484D01*
X114890633Y-102469892D01*
X114883034Y-102469852D01*
X114883033Y-102469852D01*
X114767795Y-102469248D01*
X114699780Y-102448889D01*
X114653570Y-102394991D01*
X114643834Y-102324665D01*
X114666132Y-102269727D01*
X114714856Y-102201920D01*
X114773943Y-102054937D01*
X114789493Y-101945674D01*
X114795682Y-101902187D01*
X114795682Y-101902184D01*
X114796263Y-101898103D01*
X114796408Y-101884296D01*
X114777377Y-101727029D01*
X114721381Y-101578842D01*
X114693458Y-101538213D01*
X114635956Y-101454547D01*
X114635955Y-101454545D01*
X114631654Y-101448288D01*
X114513376Y-101342907D01*
X114505990Y-101338996D01*
X114408236Y-101287238D01*
X114373375Y-101268780D01*
X114219734Y-101230188D01*
X114212135Y-101230148D01*
X114212134Y-101230148D01*
X114146282Y-101229803D01*
X114061322Y-101229358D01*
X114053942Y-101231130D01*
X114053940Y-101231130D01*
X113914664Y-101264567D01*
X113914661Y-101264568D01*
X113907285Y-101266339D01*
X113766515Y-101338996D01*
X113647140Y-101443134D01*
X113642773Y-101449348D01*
X113642770Y-101449351D01*
X113639806Y-101453568D01*
X113584269Y-101497797D01*
X113513637Y-101504980D01*
X113450334Y-101472836D01*
X113414459Y-101411570D01*
X113414914Y-101360436D01*
X113412842Y-101360141D01*
X113434581Y-101207391D01*
X113434581Y-101207388D01*
X113435162Y-101203307D01*
X113435307Y-101189500D01*
X113416276Y-101032233D01*
X113360280Y-100884046D01*
X113318004Y-100822534D01*
X113274855Y-100759751D01*
X113274854Y-100759749D01*
X113270553Y-100753492D01*
X113152275Y-100648111D01*
X113144889Y-100644200D01*
X113067157Y-100603043D01*
X113012274Y-100573984D01*
X112858633Y-100535392D01*
X112851034Y-100535352D01*
X112851033Y-100535352D01*
X112721808Y-100534675D01*
X112653793Y-100514317D01*
X112607582Y-100460418D01*
X112597846Y-100390092D01*
X112627677Y-100325667D01*
X112677313Y-100291046D01*
X112974811Y-100176847D01*
X112974815Y-100176845D01*
X112977887Y-100175666D01*
X112980815Y-100174174D01*
X112980822Y-100174171D01*
X113142832Y-100091623D01*
X113286266Y-100018540D01*
X113576530Y-99830040D01*
X113845501Y-99612231D01*
X114090231Y-99367501D01*
X114308040Y-99098530D01*
X114496540Y-98808266D01*
X114605279Y-98594853D01*
X114652171Y-98502822D01*
X114652174Y-98502815D01*
X114653666Y-98499887D01*
X114777698Y-98176774D01*
X114778551Y-98173591D01*
X114778558Y-98173569D01*
X114781291Y-98163368D01*
X114818243Y-98102745D01*
X114882104Y-98071724D01*
X114952598Y-98080154D01*
X115007579Y-98125704D01*
X115018976Y-98142664D01*
X115031980Y-98162016D01*
X115060408Y-98204322D01*
X115066027Y-98209435D01*
X115066028Y-98209436D01*
X115123408Y-98261647D01*
X115177576Y-98310936D01*
X115316793Y-98386525D01*
X115470022Y-98426724D01*
X115553977Y-98428043D01*
X115620819Y-98429093D01*
X115620822Y-98429093D01*
X115628416Y-98429212D01*
X115782832Y-98393846D01*
X115853242Y-98358434D01*
X115917572Y-98326080D01*
X115917575Y-98326078D01*
X115924355Y-98322668D01*
X115930126Y-98317739D01*
X115930129Y-98317737D01*
X116039036Y-98224721D01*
X116039036Y-98224720D01*
X116044814Y-98219786D01*
X116137255Y-98091141D01*
X116196342Y-97944158D01*
X116209757Y-97849896D01*
X116239157Y-97785273D01*
X116252920Y-97776401D01*
X116251988Y-97775975D01*
X116213604Y-97716249D01*
X116209413Y-97695888D01*
X116199776Y-97616250D01*
X116143780Y-97468063D01*
X116063243Y-97350880D01*
X116041143Y-97283412D01*
X116059028Y-97214705D01*
X116111220Y-97166574D01*
X116167083Y-97153514D01*
X116249630Y-97153514D01*
X116317751Y-97173516D01*
X116338725Y-97190419D01*
X116423595Y-97275289D01*
X116457621Y-97337601D01*
X116460500Y-97364384D01*
X116460500Y-97680751D01*
X116440498Y-97748872D01*
X116411897Y-97773655D01*
X116429606Y-97785000D01*
X116459192Y-97849539D01*
X116460500Y-97867649D01*
X116460500Y-99970650D01*
X116440498Y-100038771D01*
X116386842Y-100085264D01*
X116316568Y-100095368D01*
X116303805Y-100092854D01*
X116168004Y-100058743D01*
X116168000Y-100058743D01*
X116160633Y-100056892D01*
X116153034Y-100056852D01*
X116153033Y-100056852D01*
X116087181Y-100056507D01*
X116002221Y-100056062D01*
X115994841Y-100057834D01*
X115994839Y-100057834D01*
X115855563Y-100091271D01*
X115855560Y-100091272D01*
X115848184Y-100093043D01*
X115707414Y-100165700D01*
X115588039Y-100269838D01*
X115496950Y-100399444D01*
X115479806Y-100443417D01*
X115443225Y-100537243D01*
X115439406Y-100547037D01*
X115438414Y-100554570D01*
X115438414Y-100554571D01*
X115420010Y-100694367D01*
X115418729Y-100704096D01*
X115436113Y-100861553D01*
X115438723Y-100868684D01*
X115438723Y-100868686D01*
X115480632Y-100983207D01*
X115490553Y-101010319D01*
X115494789Y-101016622D01*
X115494789Y-101016623D01*
X115558602Y-101111586D01*
X115578908Y-101141805D01*
X115584527Y-101146918D01*
X115584528Y-101146919D01*
X115683407Y-101236891D01*
X115696076Y-101248419D01*
X115835293Y-101324008D01*
X115988522Y-101364207D01*
X116072477Y-101365526D01*
X116139319Y-101366576D01*
X116139322Y-101366576D01*
X116146916Y-101366695D01*
X116301332Y-101331329D01*
X116301758Y-101333188D01*
X116362683Y-101329527D01*
X116424604Y-101364260D01*
X116457918Y-101426955D01*
X116460500Y-101452335D01*
X116460500Y-102910187D01*
X116440498Y-102978308D01*
X116417330Y-103005135D01*
X116350039Y-103063838D01*
X116258950Y-103193444D01*
X116230271Y-103267003D01*
X116209139Y-103321204D01*
X116201406Y-103341037D01*
X116200414Y-103348570D01*
X116200414Y-103348571D01*
X116181752Y-103490329D01*
X116180729Y-103498096D01*
X116198113Y-103655553D01*
X116200723Y-103662684D01*
X116200723Y-103662686D01*
X116242632Y-103777207D01*
X116252553Y-103804319D01*
X116340908Y-103935805D01*
X116346527Y-103940918D01*
X116346528Y-103940919D01*
X116357903Y-103951269D01*
X116458076Y-104042419D01*
X116597293Y-104118008D01*
X116750522Y-104158207D01*
X116834477Y-104159526D01*
X116901319Y-104160576D01*
X116901322Y-104160576D01*
X116908916Y-104160695D01*
X117063332Y-104125329D01*
X117133742Y-104089917D01*
X117198072Y-104057563D01*
X117198075Y-104057561D01*
X117204855Y-104054151D01*
X117210626Y-104049222D01*
X117210629Y-104049220D01*
X117319536Y-103956204D01*
X117319536Y-103956203D01*
X117325314Y-103951269D01*
X117417755Y-103822624D01*
X117476842Y-103675641D01*
X117483700Y-103627453D01*
X117513101Y-103562830D01*
X117572772Y-103524361D01*
X117625538Y-103520371D01*
X117632177Y-103521280D01*
X117639522Y-103523207D01*
X117718719Y-103524451D01*
X117790319Y-103525576D01*
X117790322Y-103525576D01*
X117797916Y-103525695D01*
X117952332Y-103490329D01*
X118049172Y-103441624D01*
X118087072Y-103422563D01*
X118087075Y-103422561D01*
X118093855Y-103419151D01*
X118099626Y-103414222D01*
X118099629Y-103414220D01*
X118208536Y-103321204D01*
X118208536Y-103321203D01*
X118214314Y-103316269D01*
X118306755Y-103187624D01*
X118365842Y-103040641D01*
X118388162Y-102883807D01*
X118388307Y-102870000D01*
X118369276Y-102712733D01*
X118313280Y-102564546D01*
X118264576Y-102493681D01*
X118227855Y-102440251D01*
X118227854Y-102440249D01*
X118223553Y-102433992D01*
X118209774Y-102421715D01*
X118110946Y-102333664D01*
X118105275Y-102328611D01*
X118097889Y-102324700D01*
X117971988Y-102258039D01*
X117971989Y-102258039D01*
X117965274Y-102254484D01*
X117811633Y-102215892D01*
X117804034Y-102215852D01*
X117804033Y-102215852D01*
X117738181Y-102215507D01*
X117653221Y-102215062D01*
X117645841Y-102216834D01*
X117645839Y-102216834D01*
X117506563Y-102250271D01*
X117506560Y-102250272D01*
X117499184Y-102252043D01*
X117403289Y-102301538D01*
X117333583Y-102315007D01*
X117267659Y-102288652D01*
X117226450Y-102230840D01*
X117219500Y-102189572D01*
X117219500Y-100256933D01*
X118828500Y-100256933D01*
X118828501Y-101907066D01*
X118843266Y-101981301D01*
X118850161Y-101991620D01*
X118850162Y-101991622D01*
X118851647Y-101993844D01*
X118899516Y-102065484D01*
X118983699Y-102121734D01*
X119057933Y-102136500D01*
X119882866Y-102136500D01*
X120708066Y-102136499D01*
X120743818Y-102129388D01*
X120770126Y-102124156D01*
X120770128Y-102124155D01*
X120782301Y-102121734D01*
X120792621Y-102114839D01*
X120792622Y-102114838D01*
X120856168Y-102072377D01*
X120866484Y-102065484D01*
X120922734Y-101981301D01*
X120937500Y-101907067D01*
X120937499Y-101067206D01*
X121363501Y-101067206D01*
X121364675Y-101081186D01*
X121379704Y-101260151D01*
X121380806Y-101273278D01*
X121437807Y-101472066D01*
X121440625Y-101477548D01*
X121440626Y-101477552D01*
X121529514Y-101650509D01*
X121529517Y-101650513D01*
X121532334Y-101655995D01*
X121660786Y-101818061D01*
X121665479Y-101822055D01*
X121665480Y-101822056D01*
X121758095Y-101900877D01*
X121818271Y-101952091D01*
X121998789Y-102052980D01*
X122195466Y-102116884D01*
X122400809Y-102141370D01*
X122406944Y-102140898D01*
X122406946Y-102140898D01*
X122600856Y-102125977D01*
X122600860Y-102125976D01*
X122606998Y-102125504D01*
X122806178Y-102069892D01*
X122811682Y-102067112D01*
X122811684Y-102067111D01*
X122985262Y-101979431D01*
X122985264Y-101979430D01*
X122990763Y-101976652D01*
X123153722Y-101849334D01*
X123157748Y-101844670D01*
X123157751Y-101844667D01*
X123284819Y-101697457D01*
X123284820Y-101697455D01*
X123288848Y-101692789D01*
X123353579Y-101578842D01*
X123387950Y-101518340D01*
X123387952Y-101518336D01*
X123390995Y-101512979D01*
X123439696Y-101366576D01*
X123454325Y-101322601D01*
X123454326Y-101322598D01*
X123456270Y-101316753D01*
X123482189Y-101111586D01*
X123482602Y-101082000D01*
X123462422Y-100876189D01*
X123402651Y-100678217D01*
X123354108Y-100586921D01*
X123308459Y-100501067D01*
X123308457Y-100501064D01*
X123305565Y-100495625D01*
X123301674Y-100490855D01*
X123301672Y-100490851D01*
X123178758Y-100340143D01*
X123178755Y-100340140D01*
X123174863Y-100335368D01*
X123169155Y-100330646D01*
X123020271Y-100207478D01*
X123020266Y-100207475D01*
X123015522Y-100203550D01*
X123010103Y-100200620D01*
X123010100Y-100200618D01*
X122839032Y-100108122D01*
X122839027Y-100108120D01*
X122833612Y-100105192D01*
X122636063Y-100044040D01*
X122629938Y-100043396D01*
X122629937Y-100043396D01*
X122436526Y-100023068D01*
X122436524Y-100023068D01*
X122430397Y-100022424D01*
X122329028Y-100031649D01*
X122230591Y-100040607D01*
X122230590Y-100040607D01*
X122224450Y-100041166D01*
X122026066Y-100099554D01*
X122020601Y-100102411D01*
X121848261Y-100192508D01*
X121848257Y-100192511D01*
X121842801Y-100195363D01*
X121681635Y-100324943D01*
X121548708Y-100483360D01*
X121449082Y-100664578D01*
X121386553Y-100861696D01*
X121385867Y-100867813D01*
X121385866Y-100867817D01*
X121364866Y-101055037D01*
X121363501Y-101067206D01*
X120937499Y-101067206D01*
X120937499Y-100256934D01*
X120930388Y-100221182D01*
X120925156Y-100194874D01*
X120925155Y-100194872D01*
X120922734Y-100182699D01*
X120911376Y-100165700D01*
X120873377Y-100108832D01*
X120866484Y-100098516D01*
X120782301Y-100042266D01*
X120708067Y-100027500D01*
X119883134Y-100027500D01*
X119057934Y-100027501D01*
X119022182Y-100034612D01*
X118995874Y-100039844D01*
X118995872Y-100039845D01*
X118983699Y-100042266D01*
X118973379Y-100049161D01*
X118973378Y-100049162D01*
X118948468Y-100065807D01*
X118899516Y-100098516D01*
X118892623Y-100108832D01*
X118854625Y-100165700D01*
X118843266Y-100182699D01*
X118828500Y-100256933D01*
X117219500Y-100256933D01*
X117219500Y-98672096D01*
X128372729Y-98672096D01*
X128381421Y-98750824D01*
X128388069Y-98811036D01*
X128390113Y-98829553D01*
X128392723Y-98836684D01*
X128392723Y-98836686D01*
X128400941Y-98859141D01*
X128444553Y-98978319D01*
X128448789Y-98984622D01*
X128448789Y-98984623D01*
X128525332Y-99098530D01*
X128532908Y-99109805D01*
X128538527Y-99114918D01*
X128538528Y-99114919D01*
X128549903Y-99125269D01*
X128650076Y-99216419D01*
X128789293Y-99292008D01*
X128942522Y-99332207D01*
X129026477Y-99333526D01*
X129093319Y-99334576D01*
X129093322Y-99334576D01*
X129100916Y-99334695D01*
X129255332Y-99299329D01*
X129325742Y-99263917D01*
X129390072Y-99231563D01*
X129390075Y-99231561D01*
X129396855Y-99228151D01*
X129402626Y-99223222D01*
X129402629Y-99223220D01*
X129511536Y-99130204D01*
X129511536Y-99130203D01*
X129517314Y-99125269D01*
X129609755Y-98996624D01*
X129668842Y-98849641D01*
X129691162Y-98692807D01*
X129691307Y-98679000D01*
X129672276Y-98521733D01*
X129616280Y-98373546D01*
X129577924Y-98317737D01*
X129530855Y-98249251D01*
X129530854Y-98249249D01*
X129526553Y-98242992D01*
X129408275Y-98137611D01*
X129400889Y-98133700D01*
X129285937Y-98072836D01*
X129268274Y-98063484D01*
X129114633Y-98024892D01*
X129107034Y-98024852D01*
X129107033Y-98024852D01*
X129041181Y-98024507D01*
X128956221Y-98024062D01*
X128948841Y-98025834D01*
X128948839Y-98025834D01*
X128809563Y-98059271D01*
X128809560Y-98059272D01*
X128802184Y-98061043D01*
X128661414Y-98133700D01*
X128542039Y-98237838D01*
X128450950Y-98367444D01*
X128427838Y-98426724D01*
X128399313Y-98499887D01*
X128393406Y-98515037D01*
X128392414Y-98522570D01*
X128392414Y-98522571D01*
X128374299Y-98660173D01*
X128372729Y-98672096D01*
X117219500Y-98672096D01*
X117219500Y-97618779D01*
X117239502Y-97550658D01*
X117293158Y-97504165D01*
X117363432Y-97494061D01*
X117430297Y-97525584D01*
X117474076Y-97565419D01*
X117613293Y-97641008D01*
X117766522Y-97681207D01*
X117850477Y-97682526D01*
X117917319Y-97683576D01*
X117917322Y-97683576D01*
X117924916Y-97683695D01*
X118079332Y-97648329D01*
X118156428Y-97609554D01*
X118214072Y-97580563D01*
X118214075Y-97580561D01*
X118220855Y-97577151D01*
X118226626Y-97572222D01*
X118226629Y-97572220D01*
X118335536Y-97479204D01*
X118335536Y-97479203D01*
X118341314Y-97474269D01*
X118433755Y-97345624D01*
X118492842Y-97198641D01*
X118508853Y-97086141D01*
X118514581Y-97045891D01*
X118514581Y-97045888D01*
X118515162Y-97041807D01*
X118515307Y-97028000D01*
X118496276Y-96870733D01*
X118440280Y-96722546D01*
X118350553Y-96591992D01*
X118232275Y-96486611D01*
X118224889Y-96482700D01*
X118164039Y-96450482D01*
X118092274Y-96412484D01*
X117938633Y-96373892D01*
X117931034Y-96373852D01*
X117931033Y-96373852D01*
X117865181Y-96373507D01*
X117780221Y-96373062D01*
X117772841Y-96374834D01*
X117772839Y-96374834D01*
X117633563Y-96408271D01*
X117633560Y-96408272D01*
X117626184Y-96410043D01*
X117485414Y-96482700D01*
X117366039Y-96586838D01*
X117274950Y-96716444D01*
X117269802Y-96729649D01*
X117250545Y-96779039D01*
X117207164Y-96835240D01*
X117140284Y-96859066D01*
X117071140Y-96842952D01*
X117044057Y-96822363D01*
X116765492Y-96543798D01*
X116750350Y-96525050D01*
X116749235Y-96523825D01*
X116743585Y-96515074D01*
X116735407Y-96508627D01*
X116735405Y-96508625D01*
X116717214Y-96494285D01*
X116712773Y-96490339D01*
X116712711Y-96490412D01*
X116708747Y-96487053D01*
X116705070Y-96483376D01*
X116689322Y-96472122D01*
X116684652Y-96468616D01*
X116644367Y-96436858D01*
X116635733Y-96433826D01*
X116628280Y-96428500D01*
X116579164Y-96413811D01*
X116573522Y-96411978D01*
X116532647Y-96397624D01*
X116532646Y-96397624D01*
X116525163Y-96394996D01*
X116519598Y-96394514D01*
X116516890Y-96394514D01*
X116514256Y-96394400D01*
X116514158Y-96394371D01*
X116514165Y-96394207D01*
X116513461Y-96394163D01*
X116507236Y-96392301D01*
X116453379Y-96394417D01*
X116448432Y-96394514D01*
X116159182Y-96394514D01*
X116091061Y-96374512D01*
X116064614Y-96348874D01*
X116063378Y-96349963D01*
X116058355Y-96344265D01*
X116054053Y-96338006D01*
X115935775Y-96232625D01*
X115928389Y-96228714D01*
X115815762Y-96169081D01*
X115795774Y-96158498D01*
X115642133Y-96119906D01*
X115634534Y-96119866D01*
X115634533Y-96119866D01*
X115568681Y-96119521D01*
X115483721Y-96119076D01*
X115476341Y-96120848D01*
X115476339Y-96120848D01*
X115337063Y-96154285D01*
X115337060Y-96154286D01*
X115329684Y-96156057D01*
X115188914Y-96228714D01*
X115069539Y-96332852D01*
X115065172Y-96339066D01*
X115065169Y-96339069D01*
X115051995Y-96357814D01*
X114996461Y-96402046D01*
X114925829Y-96409232D01*
X114862525Y-96377091D01*
X114827201Y-96317975D01*
X114822211Y-96299350D01*
X114777698Y-96133226D01*
X114744889Y-96047756D01*
X126189500Y-96047756D01*
X126196202Y-96109448D01*
X126198974Y-96116841D01*
X126198974Y-96116843D01*
X126200816Y-96121757D01*
X126246929Y-96244764D01*
X126252309Y-96251943D01*
X126252311Y-96251946D01*
X126290785Y-96303281D01*
X126333596Y-96360404D01*
X126340776Y-96365785D01*
X126442054Y-96441689D01*
X126442057Y-96441691D01*
X126449236Y-96447071D01*
X126533922Y-96478818D01*
X126577157Y-96495026D01*
X126577159Y-96495026D01*
X126584552Y-96497798D01*
X126592402Y-96498651D01*
X126592403Y-96498651D01*
X126593149Y-96498732D01*
X126646244Y-96504500D01*
X127941756Y-96504500D01*
X127994851Y-96498732D01*
X127995597Y-96498651D01*
X127995598Y-96498651D01*
X128003448Y-96497798D01*
X128010841Y-96495026D01*
X128010843Y-96495026D01*
X128054078Y-96478818D01*
X128138764Y-96447071D01*
X128145943Y-96441691D01*
X128145946Y-96441689D01*
X128247224Y-96365785D01*
X128254404Y-96360404D01*
X128297215Y-96303281D01*
X128335689Y-96251946D01*
X128335691Y-96251943D01*
X128341071Y-96244764D01*
X128387184Y-96121757D01*
X128389026Y-96116843D01*
X128389026Y-96116841D01*
X128391798Y-96109448D01*
X128398500Y-96047756D01*
X128398500Y-95452659D01*
X128689500Y-95452659D01*
X128704493Y-95609806D01*
X128763823Y-95812042D01*
X128770550Y-95825103D01*
X128856474Y-95991934D01*
X128860324Y-95999410D01*
X128884609Y-96030326D01*
X128986808Y-96160432D01*
X128986812Y-96160436D01*
X128990514Y-96165149D01*
X128995044Y-96169080D01*
X128995045Y-96169081D01*
X129145165Y-96299350D01*
X129145170Y-96299354D01*
X129149696Y-96303281D01*
X129332126Y-96408819D01*
X129531222Y-96477957D01*
X129537155Y-96478817D01*
X129537158Y-96478818D01*
X129733860Y-96507338D01*
X129733863Y-96507338D01*
X129739800Y-96508199D01*
X129950333Y-96498455D01*
X129956157Y-96497051D01*
X129956160Y-96497051D01*
X130149393Y-96450482D01*
X130149395Y-96450481D01*
X130155226Y-96449076D01*
X130160684Y-96446594D01*
X130160688Y-96446593D01*
X130313548Y-96377091D01*
X130347084Y-96361843D01*
X130518986Y-96239904D01*
X130664728Y-96087660D01*
X130700295Y-96032576D01*
X130775800Y-95915640D01*
X130775801Y-95915637D01*
X130779052Y-95910603D01*
X130857834Y-95715122D01*
X130894464Y-95527553D01*
X130897361Y-95512717D01*
X130897361Y-95512714D01*
X130898229Y-95508271D01*
X130898500Y-95502730D01*
X130898500Y-95047341D01*
X130883507Y-94890194D01*
X130878796Y-94874134D01*
X130825868Y-94693722D01*
X130824177Y-94687958D01*
X130773415Y-94589397D01*
X130730422Y-94505921D01*
X130730420Y-94505918D01*
X130727676Y-94500590D01*
X130720895Y-94491958D01*
X132842488Y-94491958D01*
X132861015Y-94786436D01*
X132862008Y-94794297D01*
X132917296Y-95084128D01*
X132919267Y-95091805D01*
X133010446Y-95372424D01*
X133013361Y-95379787D01*
X133138993Y-95646770D01*
X133142805Y-95653703D01*
X133300909Y-95902835D01*
X133305563Y-95909241D01*
X133370521Y-95987761D01*
X133383040Y-95996217D01*
X133393778Y-95990011D01*
X134882980Y-94500810D01*
X134890592Y-94486869D01*
X134890461Y-94485034D01*
X134886210Y-94478420D01*
X133394881Y-92987092D01*
X133381619Y-92979850D01*
X133371515Y-92987038D01*
X133305563Y-93066759D01*
X133300909Y-93073165D01*
X133142805Y-93322297D01*
X133138993Y-93329230D01*
X133013361Y-93596213D01*
X133010446Y-93603576D01*
X132919267Y-93884195D01*
X132917296Y-93891872D01*
X132862008Y-94181703D01*
X132861015Y-94189564D01*
X132842488Y-94484042D01*
X132842488Y-94491958D01*
X130720895Y-94491958D01*
X130675442Y-94434093D01*
X130601192Y-94339568D01*
X130601188Y-94339564D01*
X130597486Y-94334851D01*
X130592955Y-94330919D01*
X130442835Y-94200650D01*
X130442830Y-94200646D01*
X130438304Y-94196719D01*
X130255874Y-94091181D01*
X130056778Y-94022043D01*
X130050845Y-94021183D01*
X130050842Y-94021182D01*
X129854140Y-93992662D01*
X129854137Y-93992662D01*
X129848200Y-93991801D01*
X129637667Y-94001545D01*
X129631843Y-94002949D01*
X129631840Y-94002949D01*
X129438607Y-94049518D01*
X129438605Y-94049519D01*
X129432774Y-94050924D01*
X129427316Y-94053406D01*
X129427312Y-94053407D01*
X129327503Y-94098788D01*
X129240916Y-94138157D01*
X129131330Y-94215892D01*
X129080367Y-94252043D01*
X129069014Y-94260096D01*
X129009434Y-94322334D01*
X128940498Y-94394346D01*
X128923272Y-94412340D01*
X128920021Y-94417375D01*
X128820408Y-94571649D01*
X128808948Y-94589397D01*
X128730166Y-94784878D01*
X128716362Y-94855565D01*
X128697412Y-94952604D01*
X128689771Y-94991729D01*
X128689500Y-94997270D01*
X128689500Y-95452659D01*
X128398500Y-95452659D01*
X128398500Y-94452244D01*
X128396081Y-94429974D01*
X128392651Y-94398403D01*
X128392651Y-94398402D01*
X128391798Y-94390552D01*
X128380132Y-94359431D01*
X128368385Y-94328098D01*
X128341071Y-94255236D01*
X128335691Y-94248057D01*
X128335689Y-94248054D01*
X128259785Y-94146776D01*
X128254404Y-94139596D01*
X128214004Y-94109318D01*
X128145946Y-94058311D01*
X128145943Y-94058309D01*
X128138764Y-94052929D01*
X128049046Y-94019296D01*
X128010843Y-94004974D01*
X128010841Y-94004974D01*
X128003448Y-94002202D01*
X127995598Y-94001349D01*
X127995597Y-94001349D01*
X127945153Y-93995869D01*
X127945152Y-93995869D01*
X127941756Y-93995500D01*
X126646244Y-93995500D01*
X126642848Y-93995869D01*
X126642847Y-93995869D01*
X126592403Y-94001349D01*
X126592402Y-94001349D01*
X126584552Y-94002202D01*
X126577159Y-94004974D01*
X126577157Y-94004974D01*
X126538954Y-94019296D01*
X126449236Y-94052929D01*
X126442057Y-94058309D01*
X126442054Y-94058311D01*
X126373996Y-94109318D01*
X126333596Y-94139596D01*
X126328215Y-94146776D01*
X126252311Y-94248054D01*
X126252309Y-94248057D01*
X126246929Y-94255236D01*
X126219615Y-94328098D01*
X126207869Y-94359431D01*
X126196202Y-94390552D01*
X126195349Y-94398402D01*
X126195349Y-94398403D01*
X126191919Y-94429974D01*
X126189500Y-94452244D01*
X126189500Y-96047756D01*
X114744889Y-96047756D01*
X114694174Y-95915640D01*
X114654847Y-95813189D01*
X114654845Y-95813185D01*
X114653666Y-95810113D01*
X114651712Y-95806278D01*
X114498039Y-95504676D01*
X114498035Y-95504669D01*
X114496540Y-95501735D01*
X114486917Y-95486916D01*
X114309842Y-95214245D01*
X114308040Y-95211470D01*
X114200799Y-95079039D01*
X114098414Y-94952604D01*
X114071088Y-94887077D01*
X114083528Y-94817179D01*
X114131782Y-94765102D01*
X114168204Y-94750490D01*
X114207392Y-94741515D01*
X114261928Y-94729025D01*
X114261930Y-94729024D01*
X114269332Y-94727329D01*
X114358229Y-94682619D01*
X114404072Y-94659563D01*
X114404075Y-94659561D01*
X114410855Y-94656151D01*
X114416626Y-94651222D01*
X114416629Y-94651220D01*
X114525536Y-94558204D01*
X114525536Y-94558203D01*
X114531314Y-94553269D01*
X114623755Y-94424624D01*
X114682842Y-94277641D01*
X114692200Y-94211885D01*
X114704581Y-94124891D01*
X114704581Y-94124888D01*
X114705162Y-94120807D01*
X114705237Y-94113655D01*
X114705264Y-94111134D01*
X114705264Y-94111128D01*
X114705307Y-94107000D01*
X114704558Y-94100811D01*
X114704661Y-94100192D01*
X114704584Y-94098788D01*
X114704898Y-94098771D01*
X114716231Y-94030782D01*
X114763912Y-93978179D01*
X114832463Y-93959706D01*
X114900119Y-93981226D01*
X114934227Y-94015399D01*
X114938692Y-94022043D01*
X114943908Y-94029805D01*
X114949527Y-94034918D01*
X114949528Y-94034919D01*
X115046835Y-94123461D01*
X115061076Y-94136419D01*
X115200293Y-94212008D01*
X115353522Y-94252207D01*
X115437477Y-94253526D01*
X115504319Y-94254576D01*
X115504322Y-94254576D01*
X115511916Y-94254695D01*
X115666332Y-94219329D01*
X115741144Y-94181703D01*
X115801072Y-94151563D01*
X115801075Y-94151561D01*
X115807855Y-94148151D01*
X115813626Y-94143222D01*
X115813629Y-94143220D01*
X115922536Y-94050204D01*
X115922536Y-94050203D01*
X115928314Y-94045269D01*
X116020755Y-93916624D01*
X116079842Y-93769641D01*
X116092991Y-93677251D01*
X116101581Y-93616891D01*
X116101581Y-93616888D01*
X116102162Y-93612807D01*
X116102307Y-93599000D01*
X116083938Y-93447206D01*
X118823501Y-93447206D01*
X118826932Y-93488062D01*
X118837859Y-93618179D01*
X118840806Y-93653278D01*
X118897807Y-93852066D01*
X118900625Y-93857548D01*
X118900626Y-93857552D01*
X118989514Y-94030509D01*
X118989517Y-94030513D01*
X118992334Y-94035995D01*
X119120786Y-94198061D01*
X119125479Y-94202055D01*
X119125480Y-94202056D01*
X119270004Y-94325055D01*
X119278271Y-94332091D01*
X119458789Y-94432980D01*
X119655466Y-94496884D01*
X119860809Y-94521370D01*
X119866944Y-94520898D01*
X119866946Y-94520898D01*
X120060856Y-94505977D01*
X120060860Y-94505976D01*
X120066998Y-94505504D01*
X120266178Y-94449892D01*
X120271682Y-94447112D01*
X120271684Y-94447111D01*
X120445262Y-94359431D01*
X120445264Y-94359430D01*
X120450763Y-94356652D01*
X120613722Y-94229334D01*
X120617748Y-94224670D01*
X120617751Y-94224667D01*
X120744819Y-94077457D01*
X120744820Y-94077455D01*
X120748848Y-94072789D01*
X120807363Y-93969784D01*
X120847950Y-93898340D01*
X120847952Y-93898336D01*
X120850995Y-93892979D01*
X120908289Y-93720746D01*
X120914325Y-93702601D01*
X120914326Y-93702598D01*
X120916270Y-93696753D01*
X120942189Y-93491586D01*
X120942602Y-93462000D01*
X120941151Y-93447206D01*
X121363501Y-93447206D01*
X121366932Y-93488062D01*
X121377859Y-93618179D01*
X121380806Y-93653278D01*
X121437807Y-93852066D01*
X121440625Y-93857548D01*
X121440626Y-93857552D01*
X121529514Y-94030509D01*
X121529517Y-94030513D01*
X121532334Y-94035995D01*
X121660786Y-94198061D01*
X121665479Y-94202055D01*
X121665480Y-94202056D01*
X121810004Y-94325055D01*
X121818271Y-94332091D01*
X121998789Y-94432980D01*
X122195466Y-94496884D01*
X122400809Y-94521370D01*
X122406944Y-94520898D01*
X122406946Y-94520898D01*
X122600856Y-94505977D01*
X122600860Y-94505976D01*
X122606998Y-94505504D01*
X122806178Y-94449892D01*
X122811682Y-94447112D01*
X122811684Y-94447111D01*
X122985262Y-94359431D01*
X122985264Y-94359430D01*
X122990763Y-94356652D01*
X123153722Y-94229334D01*
X123157748Y-94224670D01*
X123157751Y-94224667D01*
X123284819Y-94077457D01*
X123284820Y-94077455D01*
X123288848Y-94072789D01*
X123347363Y-93969784D01*
X123387950Y-93898340D01*
X123387952Y-93898336D01*
X123390995Y-93892979D01*
X123448289Y-93720746D01*
X123454325Y-93702601D01*
X123454326Y-93702598D01*
X123456270Y-93696753D01*
X123482189Y-93491586D01*
X123482602Y-93462000D01*
X123462422Y-93256189D01*
X123402651Y-93058217D01*
X123314616Y-92892647D01*
X123308459Y-92881067D01*
X123308457Y-92881064D01*
X123305565Y-92875625D01*
X123301674Y-92870855D01*
X123301672Y-92870851D01*
X123178758Y-92720143D01*
X123178755Y-92720140D01*
X123174863Y-92715368D01*
X123170114Y-92711439D01*
X123051338Y-92613179D01*
X133745347Y-92613179D01*
X133752251Y-92626040D01*
X135242190Y-94115980D01*
X135256131Y-94123592D01*
X135257966Y-94123461D01*
X135264580Y-94119210D01*
X136758073Y-92625716D01*
X136764686Y-92613606D01*
X136755857Y-92601986D01*
X136551030Y-92453170D01*
X136544350Y-92448930D01*
X136285766Y-92306772D01*
X136278631Y-92303415D01*
X136004254Y-92194781D01*
X135996763Y-92192347D01*
X135710941Y-92118961D01*
X135703170Y-92117479D01*
X135410430Y-92080497D01*
X135402540Y-92080000D01*
X135107460Y-92080000D01*
X135099570Y-92080497D01*
X134806830Y-92117479D01*
X134799059Y-92118961D01*
X134513237Y-92192347D01*
X134505746Y-92194781D01*
X134231369Y-92303415D01*
X134224234Y-92306772D01*
X133965650Y-92448930D01*
X133958970Y-92453170D01*
X133753770Y-92602256D01*
X133745347Y-92613179D01*
X123051338Y-92613179D01*
X123020271Y-92587478D01*
X123020266Y-92587475D01*
X123015522Y-92583550D01*
X123010103Y-92580620D01*
X123010100Y-92580618D01*
X122839032Y-92488122D01*
X122839027Y-92488120D01*
X122833612Y-92485192D01*
X122636063Y-92424040D01*
X122629938Y-92423396D01*
X122629937Y-92423396D01*
X122436526Y-92403068D01*
X122436524Y-92403068D01*
X122430397Y-92402424D01*
X122329962Y-92411564D01*
X122230591Y-92420607D01*
X122230590Y-92420607D01*
X122224450Y-92421166D01*
X122026066Y-92479554D01*
X122020601Y-92482411D01*
X121848261Y-92572508D01*
X121848257Y-92572511D01*
X121842801Y-92575363D01*
X121681635Y-92704943D01*
X121548708Y-92863360D01*
X121449082Y-93044578D01*
X121386553Y-93241696D01*
X121385867Y-93247813D01*
X121385866Y-93247817D01*
X121364866Y-93435037D01*
X121363501Y-93447206D01*
X120941151Y-93447206D01*
X120922422Y-93256189D01*
X120862651Y-93058217D01*
X120774616Y-92892647D01*
X120768459Y-92881067D01*
X120768457Y-92881064D01*
X120765565Y-92875625D01*
X120761674Y-92870855D01*
X120761672Y-92870851D01*
X120638758Y-92720143D01*
X120638755Y-92720140D01*
X120634863Y-92715368D01*
X120630114Y-92711439D01*
X120480271Y-92587478D01*
X120480266Y-92587475D01*
X120475522Y-92583550D01*
X120470103Y-92580620D01*
X120470100Y-92580618D01*
X120299032Y-92488122D01*
X120299027Y-92488120D01*
X120293612Y-92485192D01*
X120096063Y-92424040D01*
X120089938Y-92423396D01*
X120089937Y-92423396D01*
X119896526Y-92403068D01*
X119896524Y-92403068D01*
X119890397Y-92402424D01*
X119789962Y-92411564D01*
X119690591Y-92420607D01*
X119690590Y-92420607D01*
X119684450Y-92421166D01*
X119486066Y-92479554D01*
X119480601Y-92482411D01*
X119308261Y-92572508D01*
X119308257Y-92572511D01*
X119302801Y-92575363D01*
X119141635Y-92704943D01*
X119008708Y-92863360D01*
X118909082Y-93044578D01*
X118846553Y-93241696D01*
X118845867Y-93247813D01*
X118845866Y-93247817D01*
X118824866Y-93435037D01*
X118823501Y-93447206D01*
X116083938Y-93447206D01*
X116083276Y-93441733D01*
X116027280Y-93293546D01*
X115997549Y-93250287D01*
X115941855Y-93169251D01*
X115941854Y-93169249D01*
X115937553Y-93162992D01*
X115819275Y-93057611D01*
X115811889Y-93053700D01*
X115720128Y-93005115D01*
X115679274Y-92983484D01*
X115525633Y-92944892D01*
X115518034Y-92944852D01*
X115518033Y-92944852D01*
X115452181Y-92944507D01*
X115367221Y-92944062D01*
X115359841Y-92945834D01*
X115359839Y-92945834D01*
X115220563Y-92979271D01*
X115220560Y-92979272D01*
X115213184Y-92981043D01*
X115072414Y-93053700D01*
X114953039Y-93157838D01*
X114861950Y-93287444D01*
X114833178Y-93361240D01*
X114807564Y-93426938D01*
X114804406Y-93435037D01*
X114803414Y-93442570D01*
X114803414Y-93442571D01*
X114786551Y-93570664D01*
X114783729Y-93592096D01*
X114785599Y-93609030D01*
X114773195Y-93678932D01*
X114724966Y-93731033D01*
X114656226Y-93748789D01*
X114588798Y-93726563D01*
X114556520Y-93694224D01*
X114544855Y-93677251D01*
X114544854Y-93677249D01*
X114540553Y-93670992D01*
X114422275Y-93565611D01*
X114414889Y-93561700D01*
X114323120Y-93513111D01*
X114282274Y-93491484D01*
X114128633Y-93452892D01*
X114121034Y-93452852D01*
X114121033Y-93452852D01*
X114055181Y-93452507D01*
X113970221Y-93452062D01*
X113962841Y-93453834D01*
X113962839Y-93453834D01*
X113823563Y-93487271D01*
X113823560Y-93487272D01*
X113816184Y-93489043D01*
X113675414Y-93561700D01*
X113556039Y-93665838D01*
X113464950Y-93795444D01*
X113443506Y-93850445D01*
X113415772Y-93921580D01*
X113407406Y-93943037D01*
X113406414Y-93950570D01*
X113406414Y-93950571D01*
X113387903Y-94091181D01*
X113386729Y-94100096D01*
X113388226Y-94113655D01*
X113389478Y-94124998D01*
X113377072Y-94194902D01*
X113328842Y-94247002D01*
X113260101Y-94264756D01*
X113207038Y-94251091D01*
X113086283Y-94189564D01*
X112980822Y-94135829D01*
X112980815Y-94135826D01*
X112977887Y-94134334D01*
X112974815Y-94133155D01*
X112974811Y-94133153D01*
X112817557Y-94072789D01*
X112654774Y-94010302D01*
X112320466Y-93920725D01*
X111978627Y-93866583D01*
X111636038Y-93848628D01*
X111633000Y-93848024D01*
X111620153Y-93850579D01*
X111595575Y-93853000D01*
X111543425Y-93853000D01*
X111518847Y-93850579D01*
X111506000Y-93848024D01*
X111493828Y-93850445D01*
X111481421Y-93850445D01*
X111481421Y-93849589D01*
X111470707Y-93850222D01*
X111297346Y-93836578D01*
X111277818Y-93833485D01*
X111254242Y-93827825D01*
X111083939Y-93786939D01*
X111065145Y-93780833D01*
X110880933Y-93704529D01*
X110863322Y-93695555D01*
X110693315Y-93591374D01*
X110677327Y-93579759D01*
X110525710Y-93450266D01*
X110511732Y-93436288D01*
X110508000Y-93431918D01*
X110382241Y-93284673D01*
X110370626Y-93268685D01*
X110266445Y-93098678D01*
X110257471Y-93081067D01*
X110181167Y-92896855D01*
X110175059Y-92878056D01*
X110174476Y-92875625D01*
X110128515Y-92684181D01*
X110125422Y-92664654D01*
X110111778Y-92491294D01*
X110112411Y-92480579D01*
X110111555Y-92480579D01*
X110111555Y-92468172D01*
X110113976Y-92456000D01*
X110111917Y-92445648D01*
X116657718Y-92445648D01*
X116662758Y-92491294D01*
X116673377Y-92587478D01*
X116675102Y-92603105D01*
X116677712Y-92610236D01*
X116677712Y-92610238D01*
X116714220Y-92710000D01*
X116729542Y-92751871D01*
X116733778Y-92758174D01*
X116733778Y-92758175D01*
X116804460Y-92863360D01*
X116817897Y-92883357D01*
X116823516Y-92888470D01*
X116823517Y-92888471D01*
X116925253Y-92981043D01*
X116935065Y-92989971D01*
X117074282Y-93065560D01*
X117227511Y-93105759D01*
X117311466Y-93107078D01*
X117378308Y-93108128D01*
X117378311Y-93108128D01*
X117385905Y-93108247D01*
X117540321Y-93072881D01*
X117652827Y-93016297D01*
X117675061Y-93005115D01*
X117675064Y-93005113D01*
X117681844Y-93001703D01*
X117687615Y-92996774D01*
X117687618Y-92996772D01*
X117796525Y-92903756D01*
X117796525Y-92903755D01*
X117802303Y-92898821D01*
X117894744Y-92770176D01*
X117953831Y-92623193D01*
X117966589Y-92533550D01*
X117975570Y-92470443D01*
X117975570Y-92470440D01*
X117976151Y-92466359D01*
X117976296Y-92452552D01*
X117957265Y-92295285D01*
X117901269Y-92147098D01*
X117881931Y-92118961D01*
X117815844Y-92022803D01*
X117815843Y-92022801D01*
X117811542Y-92016544D01*
X117693264Y-91911163D01*
X117685878Y-91907252D01*
X117562062Y-91841695D01*
X117553263Y-91837036D01*
X117399622Y-91798444D01*
X117392023Y-91798404D01*
X117392022Y-91798404D01*
X117326170Y-91798059D01*
X117241210Y-91797614D01*
X117233830Y-91799386D01*
X117233828Y-91799386D01*
X117094552Y-91832823D01*
X117094549Y-91832824D01*
X117087173Y-91834595D01*
X116946403Y-91907252D01*
X116827028Y-92011390D01*
X116735939Y-92140996D01*
X116678395Y-92288589D01*
X116677403Y-92296122D01*
X116677403Y-92296123D01*
X116659649Y-92430983D01*
X116657718Y-92445648D01*
X110111917Y-92445648D01*
X110111421Y-92443153D01*
X110109000Y-92418575D01*
X110109000Y-91179096D01*
X112370729Y-91179096D01*
X112374879Y-91216686D01*
X112387237Y-91328616D01*
X112388113Y-91336553D01*
X112390723Y-91343684D01*
X112390723Y-91343686D01*
X112425139Y-91437732D01*
X112442553Y-91485319D01*
X112446789Y-91491622D01*
X112446789Y-91491623D01*
X112509463Y-91584891D01*
X112530908Y-91616805D01*
X112536527Y-91621918D01*
X112536528Y-91621919D01*
X112638439Y-91714650D01*
X112648076Y-91723419D01*
X112787293Y-91799008D01*
X112940522Y-91839207D01*
X113024477Y-91840526D01*
X113091319Y-91841576D01*
X113091322Y-91841576D01*
X113098916Y-91841695D01*
X113253332Y-91806329D01*
X113323742Y-91770917D01*
X113388072Y-91738563D01*
X113388075Y-91738561D01*
X113394855Y-91735151D01*
X113400626Y-91730222D01*
X113400629Y-91730220D01*
X113509536Y-91637204D01*
X113509536Y-91637203D01*
X113515314Y-91632269D01*
X113607755Y-91503624D01*
X113666842Y-91356641D01*
X113680376Y-91261546D01*
X113688581Y-91203891D01*
X113688581Y-91203888D01*
X113689162Y-91199807D01*
X113689307Y-91186000D01*
X113679751Y-91107030D01*
X119564098Y-91107030D01*
X119567435Y-91137251D01*
X119576205Y-91216686D01*
X119581482Y-91264487D01*
X119584092Y-91271618D01*
X119584092Y-91271620D01*
X119617787Y-91363695D01*
X119635922Y-91413253D01*
X119640158Y-91419556D01*
X119640158Y-91419557D01*
X119700798Y-91509798D01*
X119724277Y-91544739D01*
X119729896Y-91549852D01*
X119729897Y-91549853D01*
X119820472Y-91632269D01*
X119841445Y-91651353D01*
X119980662Y-91726942D01*
X120133891Y-91767141D01*
X120217846Y-91768460D01*
X120284688Y-91769510D01*
X120284691Y-91769510D01*
X120292285Y-91769629D01*
X120446701Y-91734263D01*
X120517111Y-91698851D01*
X120581441Y-91666497D01*
X120581444Y-91666495D01*
X120588224Y-91663085D01*
X120593995Y-91658156D01*
X120593998Y-91658154D01*
X120702905Y-91565138D01*
X120702905Y-91565137D01*
X120708683Y-91560203D01*
X120801124Y-91431558D01*
X120860211Y-91284575D01*
X120872862Y-91195682D01*
X120881950Y-91131825D01*
X120881950Y-91131822D01*
X120882531Y-91127741D01*
X120882676Y-91113934D01*
X120863645Y-90956667D01*
X120807649Y-90808480D01*
X120768180Y-90751052D01*
X120722224Y-90684185D01*
X120722223Y-90684183D01*
X120717922Y-90677926D01*
X120599644Y-90572545D01*
X120592258Y-90568634D01*
X120521372Y-90531102D01*
X120459643Y-90498418D01*
X120306002Y-90459826D01*
X120298403Y-90459786D01*
X120298402Y-90459786D01*
X120232550Y-90459441D01*
X120147590Y-90458996D01*
X120140210Y-90460768D01*
X120140208Y-90460768D01*
X120000932Y-90494205D01*
X120000929Y-90494206D01*
X119993553Y-90495977D01*
X119852783Y-90568634D01*
X119733408Y-90672772D01*
X119642319Y-90802378D01*
X119616645Y-90868228D01*
X119595159Y-90923338D01*
X119584775Y-90949971D01*
X119583783Y-90957504D01*
X119583783Y-90957505D01*
X119572322Y-91044565D01*
X119564098Y-91107030D01*
X113679751Y-91107030D01*
X113670276Y-91028733D01*
X113614280Y-90880546D01*
X113556285Y-90796162D01*
X113528855Y-90756251D01*
X113528854Y-90756249D01*
X113524553Y-90749992D01*
X113514717Y-90741228D01*
X113435815Y-90670930D01*
X113406275Y-90644611D01*
X113398889Y-90640700D01*
X113272988Y-90574039D01*
X113272989Y-90574039D01*
X113266274Y-90570484D01*
X113112633Y-90531892D01*
X113105034Y-90531852D01*
X113105033Y-90531852D01*
X113039181Y-90531507D01*
X112954221Y-90531062D01*
X112946841Y-90532834D01*
X112946839Y-90532834D01*
X112807563Y-90566271D01*
X112807560Y-90566272D01*
X112800184Y-90568043D01*
X112659414Y-90640700D01*
X112540039Y-90744838D01*
X112448950Y-90874444D01*
X112433960Y-90912892D01*
X112419103Y-90950999D01*
X112391406Y-91022037D01*
X112390414Y-91029570D01*
X112390414Y-91029571D01*
X112379223Y-91114580D01*
X112370729Y-91179096D01*
X110109000Y-91179096D01*
X110109000Y-90290096D01*
X110592729Y-90290096D01*
X110596175Y-90321309D01*
X110609199Y-90439271D01*
X110610113Y-90447553D01*
X110612723Y-90454684D01*
X110612723Y-90454686D01*
X110656400Y-90574039D01*
X110664553Y-90596319D01*
X110668789Y-90602622D01*
X110668789Y-90602623D01*
X110723597Y-90684185D01*
X110752908Y-90727805D01*
X110758527Y-90732918D01*
X110758528Y-90732919D01*
X110774491Y-90747444D01*
X110870076Y-90834419D01*
X111009293Y-90910008D01*
X111162522Y-90950207D01*
X111246477Y-90951526D01*
X111313319Y-90952576D01*
X111313322Y-90952576D01*
X111320916Y-90952695D01*
X111475332Y-90917329D01*
X111560600Y-90874444D01*
X111610072Y-90849563D01*
X111610075Y-90849561D01*
X111616855Y-90846151D01*
X111622626Y-90841222D01*
X111622629Y-90841220D01*
X111731536Y-90748204D01*
X111731536Y-90748203D01*
X111737314Y-90743269D01*
X111829755Y-90614624D01*
X111888842Y-90467641D01*
X111908940Y-90326419D01*
X111910581Y-90314891D01*
X111910581Y-90314888D01*
X111911162Y-90310807D01*
X111911231Y-90304265D01*
X111911264Y-90301134D01*
X111911264Y-90301128D01*
X111911307Y-90297000D01*
X111910565Y-90290864D01*
X111902584Y-90224919D01*
X111892276Y-90139733D01*
X111836280Y-89991546D01*
X111746553Y-89860992D01*
X111628275Y-89755611D01*
X111620889Y-89751700D01*
X111582565Y-89731409D01*
X111488274Y-89681484D01*
X111334633Y-89642892D01*
X111327034Y-89642852D01*
X111327033Y-89642852D01*
X111261181Y-89642507D01*
X111176221Y-89642062D01*
X111168841Y-89643834D01*
X111168839Y-89643834D01*
X111029563Y-89677271D01*
X111029560Y-89677272D01*
X111022184Y-89679043D01*
X110881414Y-89751700D01*
X110762039Y-89855838D01*
X110670950Y-89985444D01*
X110613406Y-90133037D01*
X110612414Y-90140570D01*
X110612414Y-90140571D01*
X110599634Y-90237649D01*
X110592729Y-90290096D01*
X110109000Y-90290096D01*
X110109000Y-89172756D01*
X115755500Y-89172756D01*
X115762202Y-89234448D01*
X115764974Y-89241841D01*
X115764974Y-89241843D01*
X115768575Y-89251448D01*
X115812929Y-89369764D01*
X115818309Y-89376943D01*
X115818311Y-89376946D01*
X115870438Y-89446499D01*
X115899596Y-89485404D01*
X115906776Y-89490785D01*
X116008054Y-89566689D01*
X116008057Y-89566691D01*
X116015236Y-89572071D01*
X116078582Y-89595818D01*
X116143157Y-89620026D01*
X116143159Y-89620026D01*
X116150552Y-89622798D01*
X116158402Y-89623651D01*
X116158403Y-89623651D01*
X116172653Y-89625199D01*
X116212244Y-89629500D01*
X117507756Y-89629500D01*
X117547347Y-89625199D01*
X117561597Y-89623651D01*
X117561598Y-89623651D01*
X117569448Y-89622798D01*
X117576841Y-89620026D01*
X117576843Y-89620026D01*
X117641418Y-89595818D01*
X117704764Y-89572071D01*
X117711943Y-89566691D01*
X117711946Y-89566689D01*
X117813224Y-89490785D01*
X117820404Y-89485404D01*
X117849562Y-89446499D01*
X117901689Y-89376946D01*
X117901691Y-89376943D01*
X117907071Y-89369764D01*
X117957798Y-89234448D01*
X117960320Y-89235393D01*
X117989085Y-89185026D01*
X118052036Y-89152197D01*
X118122742Y-89158614D01*
X118180982Y-89205440D01*
X118294850Y-89374575D01*
X118301519Y-89382870D01*
X118453228Y-89541900D01*
X118461186Y-89548941D01*
X118637525Y-89680141D01*
X118646562Y-89685745D01*
X118842484Y-89785357D01*
X118852335Y-89789357D01*
X119062240Y-89854534D01*
X119072624Y-89856817D01*
X119088043Y-89858861D01*
X119102207Y-89856665D01*
X119106000Y-89843478D01*
X119106000Y-89841192D01*
X119614000Y-89841192D01*
X119617973Y-89854723D01*
X119628580Y-89856248D01*
X119746421Y-89831523D01*
X119756617Y-89828463D01*
X119961029Y-89747737D01*
X119970561Y-89743006D01*
X120158462Y-89628984D01*
X120167052Y-89622720D01*
X120333052Y-89478673D01*
X120340472Y-89471042D01*
X120479826Y-89301089D01*
X120485850Y-89292322D01*
X120558465Y-89164756D01*
X124451500Y-89164756D01*
X124458202Y-89226448D01*
X124460974Y-89233841D01*
X124460974Y-89233843D01*
X124466540Y-89248689D01*
X124508929Y-89361764D01*
X124514309Y-89368943D01*
X124514311Y-89368946D01*
X124568575Y-89441350D01*
X124595596Y-89477404D01*
X124612261Y-89489894D01*
X124704054Y-89558689D01*
X124704057Y-89558691D01*
X124711236Y-89564071D01*
X124795922Y-89595818D01*
X124839157Y-89612026D01*
X124839159Y-89612026D01*
X124846552Y-89614798D01*
X124854402Y-89615651D01*
X124854403Y-89615651D01*
X124901966Y-89620818D01*
X124908244Y-89621500D01*
X126203756Y-89621500D01*
X126210034Y-89620818D01*
X126257597Y-89615651D01*
X126257598Y-89615651D01*
X126265448Y-89614798D01*
X126272841Y-89612026D01*
X126272843Y-89612026D01*
X126316078Y-89595818D01*
X126400764Y-89564071D01*
X126407943Y-89558691D01*
X126407946Y-89558689D01*
X126499739Y-89489894D01*
X126516404Y-89477404D01*
X126543425Y-89441350D01*
X126597689Y-89368946D01*
X126597691Y-89368943D01*
X126603071Y-89361764D01*
X126645460Y-89248689D01*
X126651026Y-89233843D01*
X126651026Y-89233841D01*
X126653798Y-89226448D01*
X126660500Y-89164756D01*
X126660500Y-88569659D01*
X126951500Y-88569659D01*
X126966493Y-88726806D01*
X127025823Y-88929042D01*
X127028573Y-88934381D01*
X127079180Y-89032640D01*
X127122324Y-89116410D01*
X127150435Y-89152197D01*
X127248808Y-89277432D01*
X127248812Y-89277436D01*
X127252514Y-89282149D01*
X127257044Y-89286080D01*
X127257045Y-89286081D01*
X127407165Y-89416350D01*
X127407170Y-89416354D01*
X127411696Y-89420281D01*
X127594126Y-89525819D01*
X127793222Y-89594957D01*
X127799155Y-89595817D01*
X127799158Y-89595818D01*
X127995860Y-89624338D01*
X127995863Y-89624338D01*
X128001800Y-89625199D01*
X128212333Y-89615455D01*
X128218157Y-89614051D01*
X128218160Y-89614051D01*
X128411393Y-89567482D01*
X128411395Y-89567481D01*
X128417226Y-89566076D01*
X128422684Y-89563594D01*
X128422688Y-89563593D01*
X128554100Y-89503843D01*
X128609084Y-89478843D01*
X128750739Y-89378360D01*
X128776100Y-89360370D01*
X128776101Y-89360369D01*
X128780986Y-89356904D01*
X128926728Y-89204660D01*
X128954874Y-89161070D01*
X129037800Y-89032640D01*
X129037801Y-89032637D01*
X129041052Y-89027603D01*
X129119834Y-88832122D01*
X129151434Y-88670309D01*
X129159361Y-88629717D01*
X129159361Y-88629714D01*
X129160229Y-88625271D01*
X129160500Y-88619730D01*
X129160500Y-88569659D01*
X129451500Y-88569659D01*
X129466493Y-88726806D01*
X129525823Y-88929042D01*
X129528573Y-88934381D01*
X129579180Y-89032640D01*
X129622324Y-89116410D01*
X129650435Y-89152197D01*
X129748808Y-89277432D01*
X129748812Y-89277436D01*
X129752514Y-89282149D01*
X129757044Y-89286080D01*
X129757045Y-89286081D01*
X129907165Y-89416350D01*
X129907170Y-89416354D01*
X129911696Y-89420281D01*
X130094126Y-89525819D01*
X130293222Y-89594957D01*
X130299155Y-89595817D01*
X130299158Y-89595818D01*
X130495860Y-89624338D01*
X130495863Y-89624338D01*
X130501800Y-89625199D01*
X130712333Y-89615455D01*
X130718157Y-89614051D01*
X130718160Y-89614051D01*
X130911393Y-89567482D01*
X130911395Y-89567481D01*
X130917226Y-89566076D01*
X130922684Y-89563594D01*
X130922688Y-89563593D01*
X131054100Y-89503843D01*
X131109084Y-89478843D01*
X131250739Y-89378360D01*
X131276100Y-89360370D01*
X131276101Y-89360369D01*
X131280986Y-89356904D01*
X131426728Y-89204660D01*
X131436351Y-89189756D01*
X135547500Y-89189756D01*
X135547869Y-89193152D01*
X135547869Y-89193153D01*
X135553159Y-89241843D01*
X135554202Y-89251448D01*
X135604929Y-89386764D01*
X135610309Y-89393943D01*
X135610311Y-89393946D01*
X135668092Y-89471042D01*
X135691596Y-89502404D01*
X135698776Y-89507785D01*
X135800054Y-89583689D01*
X135800057Y-89583691D01*
X135807236Y-89589071D01*
X135896954Y-89622704D01*
X135935157Y-89637026D01*
X135935159Y-89637026D01*
X135942552Y-89639798D01*
X135950402Y-89640651D01*
X135950403Y-89640651D01*
X136000847Y-89646131D01*
X136004244Y-89646500D01*
X137299756Y-89646500D01*
X137303153Y-89646131D01*
X137353597Y-89640651D01*
X137353598Y-89640651D01*
X137361448Y-89639798D01*
X137368841Y-89637026D01*
X137368843Y-89637026D01*
X137407046Y-89622704D01*
X137496764Y-89589071D01*
X137503943Y-89583691D01*
X137503946Y-89583689D01*
X137605224Y-89507785D01*
X137612404Y-89502404D01*
X137635908Y-89471042D01*
X137693689Y-89393946D01*
X137693691Y-89393943D01*
X137699071Y-89386764D01*
X137749798Y-89251448D01*
X137750842Y-89241843D01*
X137756131Y-89193153D01*
X137756131Y-89193152D01*
X137756500Y-89189756D01*
X137756500Y-88594659D01*
X138047500Y-88594659D01*
X138062493Y-88751806D01*
X138064183Y-88757566D01*
X138064183Y-88757567D01*
X138086055Y-88832122D01*
X138121823Y-88954042D01*
X138124573Y-88959381D01*
X138214540Y-89134062D01*
X138218324Y-89141410D01*
X138245615Y-89176153D01*
X138344808Y-89302432D01*
X138344812Y-89302436D01*
X138348514Y-89307149D01*
X138353044Y-89311080D01*
X138353045Y-89311081D01*
X138503165Y-89441350D01*
X138503170Y-89441354D01*
X138507696Y-89445281D01*
X138690126Y-89550819D01*
X138889222Y-89619957D01*
X138895155Y-89620817D01*
X138895158Y-89620818D01*
X139091860Y-89649338D01*
X139091863Y-89649338D01*
X139097800Y-89650199D01*
X139308333Y-89640455D01*
X139314157Y-89639051D01*
X139314160Y-89639051D01*
X139507393Y-89592482D01*
X139507395Y-89592481D01*
X139513226Y-89591076D01*
X139518684Y-89588594D01*
X139518688Y-89588593D01*
X139652422Y-89527787D01*
X139705084Y-89503843D01*
X139876986Y-89381904D01*
X140017240Y-89235393D01*
X140018583Y-89233990D01*
X140022728Y-89229660D01*
X140060195Y-89171634D01*
X140133800Y-89057640D01*
X140133801Y-89057637D01*
X140137052Y-89052603D01*
X140155023Y-89008013D01*
X140213592Y-88862685D01*
X140215834Y-88857122D01*
X140249990Y-88682220D01*
X140255361Y-88654717D01*
X140255361Y-88654714D01*
X140256229Y-88650271D01*
X140256500Y-88644730D01*
X140256500Y-88189341D01*
X140241507Y-88032194D01*
X140238871Y-88023207D01*
X140183868Y-87835722D01*
X140182177Y-87829958D01*
X140131415Y-87731397D01*
X140088422Y-87647921D01*
X140088420Y-87647918D01*
X140085676Y-87642590D01*
X140031109Y-87573123D01*
X139959192Y-87481568D01*
X139959188Y-87481564D01*
X139955486Y-87476851D01*
X139933387Y-87457674D01*
X139800835Y-87342650D01*
X139800830Y-87342646D01*
X139796304Y-87338719D01*
X139613874Y-87233181D01*
X139414778Y-87164043D01*
X139408845Y-87163183D01*
X139408842Y-87163182D01*
X139212140Y-87134662D01*
X139212137Y-87134662D01*
X139206200Y-87133801D01*
X138995667Y-87143545D01*
X138989843Y-87144949D01*
X138989840Y-87144949D01*
X138796607Y-87191518D01*
X138796605Y-87191519D01*
X138790774Y-87192924D01*
X138785316Y-87195406D01*
X138785312Y-87195407D01*
X138702234Y-87233181D01*
X138598916Y-87280157D01*
X138427014Y-87402096D01*
X138382198Y-87448911D01*
X138311768Y-87522484D01*
X138281272Y-87554340D01*
X138278021Y-87559375D01*
X138170559Y-87725805D01*
X138166948Y-87731397D01*
X138088166Y-87926878D01*
X138047771Y-88133729D01*
X138047500Y-88139270D01*
X138047500Y-88594659D01*
X137756500Y-88594659D01*
X137756500Y-87594244D01*
X137754653Y-87577244D01*
X137750651Y-87540403D01*
X137750651Y-87540402D01*
X137749798Y-87532552D01*
X137744445Y-87518271D01*
X137710265Y-87427096D01*
X137699071Y-87397236D01*
X137693691Y-87390057D01*
X137693689Y-87390054D01*
X137617785Y-87288776D01*
X137612404Y-87281596D01*
X137581161Y-87258181D01*
X137503946Y-87200311D01*
X137503943Y-87200309D01*
X137496764Y-87194929D01*
X137398527Y-87158102D01*
X137368843Y-87146974D01*
X137368841Y-87146974D01*
X137361448Y-87144202D01*
X137353598Y-87143349D01*
X137353597Y-87143349D01*
X137303153Y-87137869D01*
X137303152Y-87137869D01*
X137299756Y-87137500D01*
X136004244Y-87137500D01*
X136000848Y-87137869D01*
X136000847Y-87137869D01*
X135950403Y-87143349D01*
X135950402Y-87143349D01*
X135942552Y-87144202D01*
X135935159Y-87146974D01*
X135935157Y-87146974D01*
X135905473Y-87158102D01*
X135807236Y-87194929D01*
X135800057Y-87200309D01*
X135800054Y-87200311D01*
X135722839Y-87258181D01*
X135691596Y-87281596D01*
X135686215Y-87288776D01*
X135610311Y-87390054D01*
X135610309Y-87390057D01*
X135604929Y-87397236D01*
X135593735Y-87427096D01*
X135559556Y-87518271D01*
X135554202Y-87532552D01*
X135553349Y-87540402D01*
X135553349Y-87540403D01*
X135549347Y-87577244D01*
X135547500Y-87594244D01*
X135547500Y-89189756D01*
X131436351Y-89189756D01*
X131454874Y-89161070D01*
X131537800Y-89032640D01*
X131537801Y-89032637D01*
X131541052Y-89027603D01*
X131619834Y-88832122D01*
X131651434Y-88670309D01*
X131659361Y-88629717D01*
X131659361Y-88629714D01*
X131660229Y-88625271D01*
X131660500Y-88619730D01*
X131660500Y-88214341D01*
X131645507Y-88057194D01*
X131623322Y-87981571D01*
X131587868Y-87860722D01*
X131586177Y-87854958D01*
X131546265Y-87777465D01*
X131492422Y-87672921D01*
X131492420Y-87672918D01*
X131489676Y-87667590D01*
X131430849Y-87592700D01*
X131363192Y-87506568D01*
X131363188Y-87506564D01*
X131359486Y-87501851D01*
X131354955Y-87497919D01*
X131204835Y-87367650D01*
X131204830Y-87367646D01*
X131200304Y-87363719D01*
X131017874Y-87258181D01*
X130818778Y-87189043D01*
X130812845Y-87188183D01*
X130812842Y-87188182D01*
X130616140Y-87159662D01*
X130616137Y-87159662D01*
X130610200Y-87158801D01*
X130399667Y-87168545D01*
X130393843Y-87169949D01*
X130393840Y-87169949D01*
X130200607Y-87216518D01*
X130200605Y-87216519D01*
X130194774Y-87217924D01*
X130189316Y-87220406D01*
X130189312Y-87220407D01*
X130099622Y-87261187D01*
X130002916Y-87305157D01*
X129914817Y-87367650D01*
X129860158Y-87406423D01*
X129831014Y-87427096D01*
X129685272Y-87579340D01*
X129682021Y-87584375D01*
X129590343Y-87726360D01*
X129570948Y-87756397D01*
X129492166Y-87951878D01*
X129475314Y-88038171D01*
X129459701Y-88118124D01*
X129451771Y-88158729D01*
X129451500Y-88164270D01*
X129451500Y-88569659D01*
X129160500Y-88569659D01*
X129160500Y-88214341D01*
X129145507Y-88057194D01*
X129123322Y-87981571D01*
X129087868Y-87860722D01*
X129086177Y-87854958D01*
X129046265Y-87777465D01*
X128992422Y-87672921D01*
X128992420Y-87672918D01*
X128989676Y-87667590D01*
X128930849Y-87592700D01*
X128863192Y-87506568D01*
X128863188Y-87506564D01*
X128859486Y-87501851D01*
X128854955Y-87497919D01*
X128704835Y-87367650D01*
X128704830Y-87367646D01*
X128700304Y-87363719D01*
X128517874Y-87258181D01*
X128318778Y-87189043D01*
X128312845Y-87188183D01*
X128312842Y-87188182D01*
X128116140Y-87159662D01*
X128116137Y-87159662D01*
X128110200Y-87158801D01*
X127899667Y-87168545D01*
X127893843Y-87169949D01*
X127893840Y-87169949D01*
X127700607Y-87216518D01*
X127700605Y-87216519D01*
X127694774Y-87217924D01*
X127689316Y-87220406D01*
X127689312Y-87220407D01*
X127599622Y-87261187D01*
X127502916Y-87305157D01*
X127414817Y-87367650D01*
X127360158Y-87406423D01*
X127331014Y-87427096D01*
X127185272Y-87579340D01*
X127182021Y-87584375D01*
X127090343Y-87726360D01*
X127070948Y-87756397D01*
X126992166Y-87951878D01*
X126975314Y-88038171D01*
X126959701Y-88118124D01*
X126951771Y-88158729D01*
X126951500Y-88164270D01*
X126951500Y-88569659D01*
X126660500Y-88569659D01*
X126660500Y-87619244D01*
X126656712Y-87584375D01*
X126654651Y-87565403D01*
X126654651Y-87565402D01*
X126653798Y-87557552D01*
X126647450Y-87540617D01*
X126626878Y-87485743D01*
X126603071Y-87422236D01*
X126597691Y-87415057D01*
X126597689Y-87415054D01*
X126521785Y-87313776D01*
X126516404Y-87306596D01*
X126492627Y-87288776D01*
X126407946Y-87225311D01*
X126407943Y-87225309D01*
X126400764Y-87219929D01*
X126280325Y-87174779D01*
X126272843Y-87171974D01*
X126272841Y-87171974D01*
X126265448Y-87169202D01*
X126257598Y-87168349D01*
X126257597Y-87168349D01*
X126207153Y-87162869D01*
X126207152Y-87162869D01*
X126203756Y-87162500D01*
X124908244Y-87162500D01*
X124904848Y-87162869D01*
X124904847Y-87162869D01*
X124854403Y-87168349D01*
X124854402Y-87168349D01*
X124846552Y-87169202D01*
X124839159Y-87171974D01*
X124839157Y-87171974D01*
X124831675Y-87174779D01*
X124711236Y-87219929D01*
X124704057Y-87225309D01*
X124704054Y-87225311D01*
X124619373Y-87288776D01*
X124595596Y-87306596D01*
X124590215Y-87313776D01*
X124514311Y-87415054D01*
X124514309Y-87415057D01*
X124508929Y-87422236D01*
X124485122Y-87485743D01*
X124464551Y-87540617D01*
X124458202Y-87557552D01*
X124457349Y-87565402D01*
X124457349Y-87565403D01*
X124455288Y-87584375D01*
X124451500Y-87619244D01*
X124451500Y-89164756D01*
X120558465Y-89164756D01*
X120594576Y-89101318D01*
X120599041Y-89091654D01*
X120674031Y-88885059D01*
X120676802Y-88874792D01*
X120716123Y-88657345D01*
X120717056Y-88649116D01*
X120717268Y-88644624D01*
X120713525Y-88631876D01*
X120712135Y-88630671D01*
X120704452Y-88629000D01*
X119632115Y-88629000D01*
X119616876Y-88633475D01*
X119615671Y-88634865D01*
X119614000Y-88642548D01*
X119614000Y-89841192D01*
X119106000Y-89841192D01*
X119106000Y-88102885D01*
X119614000Y-88102885D01*
X119618475Y-88118124D01*
X119619865Y-88119329D01*
X119627548Y-88121000D01*
X120695970Y-88121000D01*
X120710648Y-88116690D01*
X120712711Y-88104807D01*
X120703876Y-88000675D01*
X120702086Y-87990203D01*
X120646870Y-87777465D01*
X120643335Y-87767425D01*
X120553063Y-87567030D01*
X120547894Y-87557744D01*
X120425150Y-87375425D01*
X120418481Y-87367130D01*
X120266772Y-87208100D01*
X120258814Y-87201059D01*
X120157875Y-87125958D01*
X141859488Y-87125958D01*
X141878015Y-87420436D01*
X141879008Y-87428297D01*
X141934296Y-87718128D01*
X141936267Y-87725805D01*
X142027446Y-88006424D01*
X142030361Y-88013787D01*
X142155993Y-88280770D01*
X142159805Y-88287703D01*
X142317909Y-88536835D01*
X142322563Y-88543241D01*
X142387521Y-88621761D01*
X142400040Y-88630217D01*
X142410778Y-88624011D01*
X143899980Y-87134810D01*
X143907592Y-87120869D01*
X143907461Y-87119034D01*
X143903210Y-87112420D01*
X142411881Y-85621092D01*
X142398619Y-85613850D01*
X142388515Y-85621038D01*
X142322563Y-85700759D01*
X142317909Y-85707165D01*
X142159805Y-85956297D01*
X142155993Y-85963230D01*
X142030361Y-86230213D01*
X142027446Y-86237576D01*
X141936267Y-86518195D01*
X141934296Y-86525872D01*
X141879008Y-86815703D01*
X141878015Y-86823564D01*
X141859488Y-87118042D01*
X141859488Y-87125958D01*
X120157875Y-87125958D01*
X120082475Y-87069859D01*
X120073438Y-87064255D01*
X119877516Y-86964643D01*
X119867665Y-86960643D01*
X119657760Y-86895466D01*
X119647376Y-86893183D01*
X119631957Y-86891139D01*
X119617793Y-86893335D01*
X119614000Y-86906522D01*
X119614000Y-88102885D01*
X119106000Y-88102885D01*
X119106000Y-86908808D01*
X119102027Y-86895277D01*
X119091420Y-86893752D01*
X118973579Y-86918477D01*
X118963383Y-86921537D01*
X118758971Y-87002263D01*
X118749439Y-87006994D01*
X118561538Y-87121016D01*
X118552948Y-87127280D01*
X118386948Y-87271327D01*
X118379528Y-87278958D01*
X118240174Y-87448911D01*
X118234152Y-87457674D01*
X118186939Y-87540617D01*
X118135856Y-87589924D01*
X118066226Y-87603786D01*
X118000155Y-87577803D01*
X117958620Y-87520224D01*
X117958122Y-87518532D01*
X117957798Y-87515552D01*
X117907071Y-87380236D01*
X117901691Y-87373057D01*
X117901689Y-87373054D01*
X117825785Y-87271776D01*
X117820404Y-87264596D01*
X117760805Y-87219929D01*
X117711946Y-87183311D01*
X117711943Y-87183309D01*
X117704764Y-87177929D01*
X117597903Y-87137869D01*
X117576843Y-87129974D01*
X117576841Y-87129974D01*
X117569448Y-87127202D01*
X117561598Y-87126349D01*
X117561597Y-87126349D01*
X117511153Y-87120869D01*
X117511152Y-87120869D01*
X117507756Y-87120500D01*
X116212244Y-87120500D01*
X116208848Y-87120869D01*
X116208847Y-87120869D01*
X116158403Y-87126349D01*
X116158402Y-87126349D01*
X116150552Y-87127202D01*
X116143159Y-87129974D01*
X116143157Y-87129974D01*
X116122097Y-87137869D01*
X116015236Y-87177929D01*
X116008057Y-87183309D01*
X116008054Y-87183311D01*
X115959195Y-87219929D01*
X115899596Y-87264596D01*
X115894215Y-87271776D01*
X115818311Y-87373054D01*
X115818309Y-87373057D01*
X115812929Y-87380236D01*
X115799652Y-87415653D01*
X115766206Y-87504872D01*
X115762202Y-87515552D01*
X115761349Y-87523402D01*
X115761349Y-87523403D01*
X115761063Y-87526039D01*
X115755500Y-87577244D01*
X115755500Y-89172756D01*
X110109000Y-89172756D01*
X110109000Y-88131096D01*
X113386729Y-88131096D01*
X113390392Y-88164270D01*
X113403254Y-88280770D01*
X113404113Y-88288553D01*
X113458553Y-88437319D01*
X113462789Y-88443622D01*
X113462789Y-88443623D01*
X113529730Y-88543241D01*
X113546908Y-88568805D01*
X113552527Y-88573918D01*
X113552528Y-88573919D01*
X113644213Y-88657345D01*
X113664076Y-88675419D01*
X113803293Y-88751008D01*
X113956522Y-88791207D01*
X114040477Y-88792526D01*
X114107319Y-88793576D01*
X114107322Y-88793576D01*
X114114916Y-88793695D01*
X114269332Y-88758329D01*
X114343893Y-88720829D01*
X114404072Y-88690563D01*
X114404075Y-88690561D01*
X114410855Y-88687151D01*
X114416626Y-88682222D01*
X114416629Y-88682220D01*
X114525536Y-88589204D01*
X114525536Y-88589203D01*
X114531314Y-88584269D01*
X114623755Y-88455624D01*
X114682842Y-88308641D01*
X114688965Y-88265615D01*
X114704581Y-88155891D01*
X114704581Y-88155888D01*
X114705162Y-88151807D01*
X114705307Y-88138000D01*
X114686276Y-87980733D01*
X114630280Y-87832546D01*
X114581768Y-87761960D01*
X114544855Y-87708251D01*
X114544854Y-87708249D01*
X114540553Y-87701992D01*
X114422275Y-87596611D01*
X114414889Y-87592700D01*
X114288988Y-87526039D01*
X114288989Y-87526039D01*
X114282274Y-87522484D01*
X114128633Y-87483892D01*
X114121034Y-87483852D01*
X114121033Y-87483852D01*
X114055181Y-87483507D01*
X113970221Y-87483062D01*
X113962841Y-87484834D01*
X113962839Y-87484834D01*
X113823563Y-87518271D01*
X113823560Y-87518272D01*
X113816184Y-87520043D01*
X113675414Y-87592700D01*
X113556039Y-87696838D01*
X113464950Y-87826444D01*
X113453833Y-87854958D01*
X113413751Y-87957764D01*
X113407406Y-87974037D01*
X113406414Y-87981570D01*
X113406414Y-87981571D01*
X113388437Y-88118124D01*
X113386729Y-88131096D01*
X110109000Y-88131096D01*
X110109000Y-86651425D01*
X110111421Y-86626844D01*
X110111555Y-86626170D01*
X110113976Y-86614000D01*
X110112887Y-86608525D01*
X110095935Y-86414762D01*
X110044171Y-86221578D01*
X109995656Y-86117537D01*
X109961974Y-86045304D01*
X109961971Y-86045299D01*
X109959648Y-86040317D01*
X109947670Y-86023210D01*
X109848092Y-85880998D01*
X109848090Y-85880995D01*
X109844933Y-85876487D01*
X109752006Y-85783560D01*
X109717980Y-85721248D01*
X109723045Y-85650433D01*
X109759271Y-85598654D01*
X109826532Y-85541208D01*
X109826535Y-85541205D01*
X109832314Y-85536269D01*
X109924755Y-85407624D01*
X109983842Y-85260641D01*
X109985758Y-85247179D01*
X142762347Y-85247179D01*
X142769251Y-85260040D01*
X144259190Y-86749980D01*
X144273131Y-86757592D01*
X144274966Y-86757461D01*
X144281580Y-86753210D01*
X145775073Y-85259716D01*
X145781686Y-85247606D01*
X145772857Y-85235986D01*
X145568030Y-85087170D01*
X145561350Y-85082930D01*
X145302766Y-84940772D01*
X145295631Y-84937415D01*
X145021254Y-84828781D01*
X145013763Y-84826347D01*
X144727941Y-84752961D01*
X144720170Y-84751479D01*
X144427430Y-84714497D01*
X144419540Y-84714000D01*
X144124460Y-84714000D01*
X144116570Y-84714497D01*
X143823830Y-84751479D01*
X143816059Y-84752961D01*
X143530237Y-84826347D01*
X143522746Y-84828781D01*
X143248369Y-84937415D01*
X143241234Y-84940772D01*
X142982650Y-85082930D01*
X142975970Y-85087170D01*
X142770770Y-85236256D01*
X142762347Y-85247179D01*
X109985758Y-85247179D01*
X110002972Y-85126220D01*
X110005581Y-85107891D01*
X110005581Y-85107888D01*
X110006162Y-85103807D01*
X110006307Y-85090000D01*
X110005452Y-85082930D01*
X109998837Y-85028269D01*
X109987276Y-84932733D01*
X109931280Y-84784546D01*
X109872783Y-84699432D01*
X109845855Y-84660251D01*
X109845854Y-84660249D01*
X109841553Y-84653992D01*
X109833350Y-84646683D01*
X109781319Y-84600326D01*
X109753001Y-84575096D01*
X123165729Y-84575096D01*
X123172513Y-84636543D01*
X123182173Y-84724038D01*
X123183113Y-84732553D01*
X123185723Y-84739684D01*
X123185723Y-84739686D01*
X123233423Y-84870032D01*
X123237553Y-84881319D01*
X123241789Y-84887622D01*
X123241789Y-84887623D01*
X123320884Y-85005328D01*
X123325908Y-85012805D01*
X123331527Y-85017918D01*
X123331528Y-85017919D01*
X123428374Y-85106041D01*
X123443076Y-85119419D01*
X123582293Y-85195008D01*
X123735522Y-85235207D01*
X123819477Y-85236526D01*
X123886319Y-85237576D01*
X123886322Y-85237576D01*
X123893916Y-85237695D01*
X124048332Y-85202329D01*
X124145172Y-85153624D01*
X124183072Y-85134563D01*
X124183075Y-85134561D01*
X124189855Y-85131151D01*
X124195626Y-85126222D01*
X124195629Y-85126220D01*
X124304536Y-85033204D01*
X124304536Y-85033203D01*
X124310314Y-85028269D01*
X124402755Y-84899624D01*
X124461842Y-84752641D01*
X124468520Y-84705719D01*
X124483581Y-84599891D01*
X124483581Y-84599888D01*
X124484162Y-84595807D01*
X124484307Y-84582000D01*
X124465276Y-84424733D01*
X124409280Y-84276546D01*
X124396239Y-84257571D01*
X124323855Y-84152251D01*
X124323854Y-84152249D01*
X124319553Y-84145992D01*
X124201275Y-84040611D01*
X124193889Y-84036700D01*
X124067988Y-83970039D01*
X124067989Y-83970039D01*
X124061274Y-83966484D01*
X123907633Y-83927892D01*
X123900034Y-83927852D01*
X123900033Y-83927852D01*
X123834181Y-83927507D01*
X123749221Y-83927062D01*
X123741841Y-83928834D01*
X123741839Y-83928834D01*
X123602563Y-83962271D01*
X123602560Y-83962272D01*
X123595184Y-83964043D01*
X123454414Y-84036700D01*
X123335039Y-84140838D01*
X123243950Y-84270444D01*
X123215493Y-84343432D01*
X123194139Y-84398204D01*
X123186406Y-84418037D01*
X123185414Y-84425570D01*
X123185414Y-84425571D01*
X123166752Y-84567329D01*
X123165729Y-84575096D01*
X109753001Y-84575096D01*
X109723275Y-84548611D01*
X109715889Y-84544700D01*
X109663897Y-84517172D01*
X109583274Y-84474484D01*
X109429633Y-84435892D01*
X109422034Y-84435852D01*
X109422033Y-84435852D01*
X109356181Y-84435507D01*
X109271221Y-84435062D01*
X109263841Y-84436834D01*
X109263839Y-84436834D01*
X109124563Y-84470271D01*
X109124560Y-84470272D01*
X109117184Y-84472043D01*
X108976414Y-84544700D01*
X108857039Y-84648838D01*
X108765950Y-84778444D01*
X108746202Y-84829096D01*
X108720927Y-84893923D01*
X108708406Y-84926037D01*
X108707414Y-84933570D01*
X108707414Y-84933571D01*
X108689770Y-85067596D01*
X108687729Y-85083096D01*
X108693239Y-85133002D01*
X108703480Y-85225761D01*
X108705113Y-85240553D01*
X108707723Y-85247684D01*
X108707723Y-85247686D01*
X108727489Y-85301699D01*
X108732115Y-85372545D01*
X108697705Y-85434645D01*
X108635183Y-85468284D01*
X108609163Y-85471000D01*
X86796249Y-85471000D01*
X86728128Y-85450998D01*
X86681635Y-85397342D01*
X86671531Y-85327068D01*
X86679341Y-85298006D01*
X86684267Y-85285752D01*
X86692103Y-85230692D01*
X86706006Y-85133002D01*
X86706006Y-85132999D01*
X86706587Y-85128918D01*
X86706656Y-85122376D01*
X86706689Y-85119245D01*
X86706689Y-85119239D01*
X86706732Y-85115111D01*
X86705635Y-85106041D01*
X86702421Y-85079483D01*
X86687701Y-84957844D01*
X86631705Y-84809657D01*
X86625173Y-84800153D01*
X86546280Y-84685362D01*
X86546279Y-84685360D01*
X86541978Y-84679103D01*
X86528501Y-84667095D01*
X86456085Y-84602576D01*
X86423700Y-84573722D01*
X86412072Y-84567565D01*
X86330309Y-84524274D01*
X86283699Y-84499595D01*
X86130058Y-84461003D01*
X86122459Y-84460963D01*
X86122458Y-84460963D01*
X86062051Y-84460647D01*
X85980760Y-84460221D01*
X85912746Y-84439863D01*
X85892326Y-84423318D01*
X85409104Y-83940096D01*
X97638729Y-83940096D01*
X97656113Y-84097553D01*
X97658723Y-84104684D01*
X97658723Y-84104686D01*
X97701099Y-84220484D01*
X97710553Y-84246319D01*
X97714789Y-84252622D01*
X97714789Y-84252623D01*
X97794517Y-84371270D01*
X97798908Y-84377805D01*
X97804527Y-84382918D01*
X97804528Y-84382919D01*
X97906488Y-84475695D01*
X97916076Y-84484419D01*
X98055293Y-84560008D01*
X98208522Y-84600207D01*
X98292477Y-84601526D01*
X98359319Y-84602576D01*
X98359322Y-84602576D01*
X98366916Y-84602695D01*
X98521332Y-84567329D01*
X98606600Y-84524444D01*
X98656072Y-84499563D01*
X98656075Y-84499561D01*
X98662855Y-84496151D01*
X98668626Y-84491222D01*
X98668629Y-84491220D01*
X98777536Y-84398204D01*
X98777536Y-84398203D01*
X98783314Y-84393269D01*
X98875755Y-84264624D01*
X98934842Y-84117641D01*
X98942789Y-84061801D01*
X98956581Y-83964891D01*
X98956581Y-83964888D01*
X98957162Y-83960807D01*
X98957307Y-83947000D01*
X98938276Y-83789733D01*
X98882280Y-83641546D01*
X98844500Y-83586576D01*
X98796855Y-83517251D01*
X98796854Y-83517249D01*
X98792553Y-83510992D01*
X98782717Y-83502228D01*
X98726486Y-83452129D01*
X98674275Y-83405611D01*
X98666889Y-83401700D01*
X98540988Y-83335039D01*
X98540989Y-83335039D01*
X98534274Y-83331484D01*
X98380633Y-83292892D01*
X98373034Y-83292852D01*
X98373033Y-83292852D01*
X98307181Y-83292507D01*
X98222221Y-83292062D01*
X98214841Y-83293834D01*
X98214839Y-83293834D01*
X98075563Y-83327271D01*
X98075560Y-83327272D01*
X98068184Y-83329043D01*
X97927414Y-83401700D01*
X97808039Y-83505838D01*
X97716950Y-83635444D01*
X97659406Y-83783037D01*
X97658414Y-83790570D01*
X97658414Y-83790571D01*
X97640212Y-83928834D01*
X97638729Y-83940096D01*
X85409104Y-83940096D01*
X85058792Y-83589784D01*
X85043650Y-83571036D01*
X85042535Y-83569811D01*
X85036885Y-83561060D01*
X85028707Y-83554613D01*
X85028705Y-83554611D01*
X85010514Y-83540271D01*
X85006073Y-83536325D01*
X85006011Y-83536398D01*
X85002047Y-83533039D01*
X84998370Y-83529362D01*
X84982622Y-83518108D01*
X84977952Y-83514602D01*
X84937667Y-83482844D01*
X84929033Y-83479812D01*
X84921580Y-83474486D01*
X84872464Y-83459797D01*
X84866822Y-83457964D01*
X84825947Y-83443610D01*
X84825946Y-83443610D01*
X84818463Y-83440982D01*
X84812898Y-83440500D01*
X84810190Y-83440500D01*
X84807556Y-83440386D01*
X84807458Y-83440357D01*
X84807465Y-83440193D01*
X84806761Y-83440149D01*
X84800536Y-83438287D01*
X84746679Y-83440403D01*
X84741732Y-83440500D01*
X75999920Y-83440500D01*
X75975973Y-83437951D01*
X75974307Y-83437872D01*
X75964124Y-83435680D01*
X75953782Y-83436904D01*
X75953779Y-83436904D01*
X75930787Y-83439626D01*
X75924846Y-83439977D01*
X75924854Y-83440072D01*
X75919674Y-83440500D01*
X75914476Y-83440500D01*
X75909354Y-83441353D01*
X75909349Y-83441353D01*
X75895427Y-83443671D01*
X75889550Y-83444508D01*
X75883049Y-83445277D01*
X75848997Y-83449307D01*
X75848995Y-83449308D01*
X75838659Y-83450531D01*
X75830410Y-83454492D01*
X75821374Y-83455996D01*
X75812205Y-83460943D01*
X75812203Y-83460944D01*
X75776240Y-83480348D01*
X75770951Y-83483043D01*
X75757936Y-83489293D01*
X75724768Y-83505220D01*
X75720492Y-83508814D01*
X75718552Y-83510754D01*
X75716641Y-83512507D01*
X75716551Y-83512556D01*
X75716439Y-83512433D01*
X75715904Y-83512905D01*
X75710186Y-83515990D01*
X75703119Y-83523635D01*
X75673584Y-83555586D01*
X75670154Y-83559152D01*
X75186044Y-84043262D01*
X75123732Y-84077288D01*
X75051792Y-84071797D01*
X75045988Y-84069569D01*
X75039274Y-84066014D01*
X74885633Y-84027422D01*
X74878034Y-84027382D01*
X74878033Y-84027382D01*
X74812181Y-84027037D01*
X74727221Y-84026592D01*
X74719841Y-84028364D01*
X74719839Y-84028364D01*
X74580563Y-84061801D01*
X74580560Y-84061802D01*
X74573184Y-84063573D01*
X74432414Y-84136230D01*
X74313039Y-84240368D01*
X74221950Y-84369974D01*
X74164406Y-84517567D01*
X74164107Y-84519834D01*
X74128949Y-84578896D01*
X74065416Y-84610583D01*
X74012528Y-84608757D01*
X73988395Y-84602695D01*
X73979226Y-84600392D01*
X73971627Y-84600352D01*
X73971626Y-84600352D01*
X73905774Y-84600007D01*
X73820814Y-84599562D01*
X73813434Y-84601334D01*
X73813432Y-84601334D01*
X73674156Y-84634771D01*
X73674153Y-84634772D01*
X73666777Y-84636543D01*
X73526007Y-84709200D01*
X73406632Y-84813338D01*
X73315543Y-84942944D01*
X73296378Y-84992099D01*
X73260965Y-85082930D01*
X73257999Y-85090537D01*
X73257007Y-85098070D01*
X73257007Y-85098071D01*
X73238405Y-85239371D01*
X73237322Y-85247596D01*
X73242887Y-85298002D01*
X73253855Y-85397342D01*
X73254706Y-85405053D01*
X73257316Y-85412184D01*
X73257316Y-85412186D01*
X73303413Y-85538152D01*
X73309146Y-85553819D01*
X73313382Y-85560122D01*
X73313382Y-85560123D01*
X73391869Y-85676923D01*
X73397501Y-85685305D01*
X73403120Y-85690418D01*
X73403121Y-85690419D01*
X73509053Y-85786809D01*
X73514669Y-85791919D01*
X73653886Y-85867508D01*
X73807115Y-85907707D01*
X73891070Y-85909026D01*
X73957912Y-85910076D01*
X73957915Y-85910076D01*
X73965509Y-85910195D01*
X74119925Y-85874829D01*
X74190335Y-85839417D01*
X74254665Y-85807063D01*
X74254668Y-85807061D01*
X74261448Y-85803651D01*
X74267219Y-85798722D01*
X74267222Y-85798720D01*
X74376129Y-85705704D01*
X74376129Y-85705703D01*
X74381907Y-85700769D01*
X74474348Y-85572124D01*
X74520897Y-85456329D01*
X74530601Y-85432191D01*
X74530601Y-85432190D01*
X74533435Y-85425141D01*
X74534506Y-85417618D01*
X74534571Y-85417374D01*
X74571522Y-85356751D01*
X74635383Y-85325729D01*
X74688249Y-85328108D01*
X74706165Y-85332808D01*
X74706174Y-85332809D01*
X74713522Y-85334737D01*
X74797477Y-85336056D01*
X74864319Y-85337106D01*
X74864322Y-85337106D01*
X74871916Y-85337225D01*
X75026332Y-85301859D01*
X75113400Y-85258069D01*
X75161072Y-85234093D01*
X75161075Y-85234091D01*
X75167855Y-85230681D01*
X75173626Y-85225752D01*
X75173629Y-85225750D01*
X75282536Y-85132734D01*
X75282536Y-85132733D01*
X75288314Y-85127799D01*
X75380755Y-84999154D01*
X75383589Y-84992105D01*
X75383592Y-84992099D01*
X75423058Y-84893923D01*
X75450870Y-84851824D01*
X75850042Y-84452652D01*
X75912354Y-84418626D01*
X75983169Y-84423691D01*
X76040005Y-84466238D01*
X76064816Y-84532758D01*
X76064059Y-84558193D01*
X76049722Y-84667095D01*
X76048729Y-84674637D01*
X76052161Y-84705719D01*
X76064951Y-84821565D01*
X76066113Y-84832094D01*
X76068723Y-84839225D01*
X76068723Y-84839227D01*
X76114890Y-84965384D01*
X76120553Y-84980860D01*
X76124789Y-84987163D01*
X76124789Y-84987164D01*
X76199316Y-85098071D01*
X76208908Y-85112346D01*
X76214527Y-85117459D01*
X76214528Y-85117460D01*
X76309661Y-85204024D01*
X76326076Y-85218960D01*
X76465293Y-85294549D01*
X76618522Y-85334748D01*
X76702477Y-85336067D01*
X76769319Y-85337117D01*
X76769322Y-85337117D01*
X76776916Y-85337236D01*
X76931332Y-85301870D01*
X77009635Y-85262488D01*
X77066072Y-85234104D01*
X77066075Y-85234102D01*
X77072855Y-85230692D01*
X77078626Y-85225763D01*
X77078629Y-85225761D01*
X77187536Y-85132745D01*
X77187536Y-85132744D01*
X77193314Y-85127810D01*
X77285755Y-84999165D01*
X77344842Y-84852182D01*
X77367162Y-84695348D01*
X77367231Y-84688806D01*
X77367264Y-84685675D01*
X77367264Y-84685669D01*
X77367307Y-84681541D01*
X77348276Y-84524274D01*
X77292280Y-84376087D01*
X77293670Y-84375562D01*
X77281489Y-84314234D01*
X77307501Y-84248175D01*
X77365099Y-84206665D01*
X77406984Y-84199500D01*
X78271764Y-84199500D01*
X78339885Y-84219502D01*
X78386378Y-84273158D01*
X78396482Y-84343432D01*
X78374851Y-84397951D01*
X78285950Y-84524444D01*
X78274558Y-84553664D01*
X78237411Y-84648941D01*
X78228406Y-84672037D01*
X78227414Y-84679570D01*
X78227414Y-84679571D01*
X78209804Y-84813338D01*
X78207729Y-84829096D01*
X78211057Y-84859236D01*
X78223697Y-84973726D01*
X78225113Y-84986553D01*
X78227723Y-84993684D01*
X78227723Y-84993686D01*
X78274546Y-85121636D01*
X78279553Y-85135319D01*
X78283789Y-85141622D01*
X78283789Y-85141623D01*
X78362038Y-85258069D01*
X78367908Y-85266805D01*
X78373527Y-85271918D01*
X78373528Y-85271919D01*
X78443435Y-85335529D01*
X78485076Y-85373419D01*
X78624293Y-85449008D01*
X78777522Y-85489207D01*
X78861477Y-85490526D01*
X78928319Y-85491576D01*
X78928322Y-85491576D01*
X78935916Y-85491695D01*
X79090332Y-85456329D01*
X79174896Y-85413798D01*
X79225072Y-85388563D01*
X79225075Y-85388561D01*
X79231855Y-85385151D01*
X79237626Y-85380222D01*
X79237629Y-85380220D01*
X79346536Y-85287204D01*
X79346536Y-85287203D01*
X79352314Y-85282269D01*
X79444755Y-85153624D01*
X79503842Y-85006641D01*
X79526162Y-84849807D01*
X79526307Y-84836000D01*
X79525434Y-84828781D01*
X79520199Y-84785524D01*
X79507276Y-84678733D01*
X79451280Y-84530546D01*
X79361553Y-84399992D01*
X79363404Y-84398720D01*
X79338079Y-84344498D01*
X79347581Y-84274140D01*
X79393613Y-84220089D01*
X79462638Y-84199500D01*
X82994052Y-84199500D01*
X83062173Y-84219502D01*
X83108666Y-84273158D01*
X83118770Y-84343432D01*
X83111446Y-84371268D01*
X83093369Y-84417631D01*
X83062756Y-84496151D01*
X83054406Y-84517567D01*
X83053414Y-84525100D01*
X83053414Y-84525101D01*
X83035002Y-84664957D01*
X83033729Y-84674626D01*
X83040912Y-84739686D01*
X83049952Y-84821565D01*
X83051113Y-84832083D01*
X83053723Y-84839214D01*
X83053723Y-84839216D01*
X83099894Y-84965384D01*
X83105553Y-84980849D01*
X83109789Y-84987152D01*
X83109789Y-84987153D01*
X83185406Y-85099682D01*
X83193908Y-85112335D01*
X83199527Y-85117448D01*
X83199528Y-85117449D01*
X83305460Y-85213839D01*
X83311076Y-85218949D01*
X83338968Y-85234093D01*
X83339292Y-85234269D01*
X83389613Y-85284351D01*
X83404870Y-85353689D01*
X83380218Y-85420269D01*
X83323483Y-85462950D01*
X83279170Y-85471000D01*
X80936425Y-85471000D01*
X80911847Y-85468579D01*
X80899000Y-85466024D01*
X80893525Y-85467113D01*
X80699762Y-85484065D01*
X80694449Y-85485489D01*
X80694447Y-85485489D01*
X80511888Y-85534406D01*
X80511886Y-85534407D01*
X80506578Y-85535829D01*
X80501597Y-85538152D01*
X80501596Y-85538152D01*
X80330304Y-85618026D01*
X80330299Y-85618029D01*
X80325317Y-85620352D01*
X80320810Y-85623508D01*
X80320808Y-85623509D01*
X80165998Y-85731908D01*
X80165995Y-85731910D01*
X80161487Y-85735067D01*
X80020067Y-85876487D01*
X80016910Y-85880995D01*
X80016908Y-85880998D01*
X79917330Y-86023210D01*
X79905352Y-86040317D01*
X79903029Y-86045299D01*
X79903026Y-86045304D01*
X79869344Y-86117537D01*
X79820829Y-86221578D01*
X79769065Y-86414762D01*
X79752113Y-86608525D01*
X79751024Y-86614000D01*
X79753445Y-86626170D01*
X79753579Y-86626844D01*
X79756000Y-86651425D01*
X79756000Y-92521142D01*
X79753579Y-92545720D01*
X79751024Y-92558567D01*
X79753445Y-92570739D01*
X79753445Y-92583146D01*
X79752589Y-92583146D01*
X79753222Y-92593860D01*
X79743283Y-92720143D01*
X79739578Y-92767221D01*
X79736485Y-92786748D01*
X79690127Y-92979850D01*
X79689941Y-92980623D01*
X79683833Y-92999422D01*
X79607529Y-93183634D01*
X79598555Y-93201245D01*
X79494374Y-93371252D01*
X79482759Y-93387240D01*
X79353268Y-93538855D01*
X79339290Y-93552833D01*
X79187673Y-93682326D01*
X79171685Y-93693941D01*
X79001678Y-93798122D01*
X78984067Y-93807096D01*
X78799855Y-93883400D01*
X78781061Y-93889506D01*
X78587578Y-93935957D01*
X78587182Y-93936052D01*
X78567654Y-93939145D01*
X78394293Y-93952789D01*
X78383572Y-93952156D01*
X78383572Y-93953012D01*
X78371169Y-93953011D01*
X78359000Y-93950591D01*
X78355906Y-93951206D01*
X78170365Y-93961127D01*
X78021862Y-93969067D01*
X78021856Y-93969068D01*
X78018502Y-93969247D01*
X78015184Y-93969783D01*
X78015178Y-93969784D01*
X77685221Y-94023120D01*
X77685217Y-94023121D01*
X77681888Y-94023659D01*
X77352994Y-94113655D01*
X77349850Y-94114889D01*
X77349849Y-94114889D01*
X77048522Y-94233128D01*
X77035573Y-94238209D01*
X77032583Y-94239768D01*
X77032582Y-94239769D01*
X77004370Y-94254484D01*
X76733243Y-94395902D01*
X76449453Y-94584934D01*
X76446867Y-94587088D01*
X76446864Y-94587090D01*
X76190025Y-94800996D01*
X76190020Y-94801000D01*
X76187438Y-94803151D01*
X76081362Y-94912652D01*
X75957377Y-95040641D01*
X75950187Y-95048063D01*
X75740405Y-95316877D01*
X75738632Y-95319731D01*
X75738628Y-95319737D01*
X75562256Y-95603675D01*
X75560483Y-95606530D01*
X75559024Y-95609557D01*
X75559024Y-95609558D01*
X75416340Y-95905695D01*
X75412475Y-95913716D01*
X75298067Y-96234934D01*
X75297283Y-96238202D01*
X75297282Y-96238207D01*
X75252373Y-96425515D01*
X75218565Y-96566521D01*
X75174875Y-96904694D01*
X75174802Y-96908065D01*
X75168512Y-97198641D01*
X75167495Y-97245598D01*
X75167782Y-97248956D01*
X75167782Y-97248964D01*
X75196222Y-97581988D01*
X75196509Y-97585346D01*
X75261587Y-97920062D01*
X75293885Y-98024892D01*
X75359525Y-98237941D01*
X75361986Y-98245930D01*
X75363313Y-98249018D01*
X75363315Y-98249025D01*
X75396413Y-98326080D01*
X75496561Y-98559235D01*
X75498208Y-98562161D01*
X75498208Y-98562162D01*
X75659975Y-98849641D01*
X75663779Y-98856402D01*
X75861731Y-99134044D01*
X75945311Y-99228151D01*
X76085924Y-99386476D01*
X76085931Y-99386483D01*
X76088161Y-99388994D01*
X76340487Y-99618345D01*
X76420555Y-99676834D01*
X76574725Y-99789454D01*
X76615831Y-99819482D01*
X76618750Y-99821169D01*
X76618756Y-99821173D01*
X76766990Y-99906847D01*
X76911052Y-99990110D01*
X77222786Y-100128285D01*
X77225987Y-100129312D01*
X77225993Y-100129314D01*
X77544273Y-100231403D01*
X77544279Y-100231405D01*
X77547476Y-100232430D01*
X77881421Y-100301358D01*
X77884762Y-100301682D01*
X77884768Y-100301683D01*
X78207413Y-100332983D01*
X78217724Y-100333983D01*
X78220792Y-100334733D01*
X78226416Y-100333865D01*
X78232000Y-100334976D01*
X78243919Y-100332605D01*
X78244574Y-100332555D01*
X78256581Y-100332555D01*
X78256581Y-100333198D01*
X78267326Y-100332527D01*
X78457971Y-100346162D01*
X78475765Y-100348720D01*
X78688335Y-100394962D01*
X78705582Y-100400026D01*
X78807495Y-100438038D01*
X78909411Y-100476051D01*
X78925759Y-100483517D01*
X78939191Y-100490851D01*
X79116691Y-100587774D01*
X79131814Y-100597493D01*
X79305964Y-100727860D01*
X79319550Y-100739633D01*
X79473367Y-100893450D01*
X79485140Y-100907036D01*
X79615507Y-101081186D01*
X79625226Y-101096309D01*
X79676113Y-101189500D01*
X79725095Y-101279203D01*
X79729482Y-101287238D01*
X79736949Y-101303589D01*
X79768820Y-101389036D01*
X79812974Y-101507418D01*
X79818038Y-101524665D01*
X79828680Y-101573584D01*
X79864280Y-101737235D01*
X79866838Y-101755029D01*
X79880473Y-101945674D01*
X79879802Y-101956419D01*
X79880445Y-101956419D01*
X79880445Y-101968829D01*
X79878024Y-101981000D01*
X79880445Y-101993170D01*
X79880579Y-101993844D01*
X79883000Y-102018425D01*
X79883000Y-106902957D01*
X79880579Y-106927535D01*
X79878024Y-106940382D01*
X79880446Y-106952556D01*
X79880446Y-106955972D01*
X79879654Y-106970079D01*
X79875415Y-107007705D01*
X79868668Y-107067579D01*
X79862389Y-107095085D01*
X79848146Y-107135791D01*
X79827665Y-107194323D01*
X79824804Y-107202498D01*
X79812562Y-107227919D01*
X79752015Y-107324279D01*
X79734423Y-107346338D01*
X79653956Y-107426805D01*
X79631897Y-107444397D01*
X79541854Y-107500975D01*
X79535537Y-107504944D01*
X79510116Y-107517186D01*
X79402703Y-107554771D01*
X79375197Y-107561050D01*
X79334722Y-107565611D01*
X79277697Y-107572036D01*
X79263590Y-107572828D01*
X79260174Y-107572828D01*
X79248000Y-107570406D01*
X79235829Y-107572827D01*
X79230011Y-107572827D01*
X79212233Y-107574339D01*
X79018110Y-107569164D01*
X78992139Y-107565748D01*
X78965871Y-107559461D01*
X77440242Y-107194315D01*
X77437542Y-107193636D01*
X75860118Y-106778155D01*
X75857447Y-106777419D01*
X74289823Y-106326366D01*
X74287094Y-106325547D01*
X72730163Y-105839179D01*
X72727452Y-105838299D01*
X72123630Y-105634571D01*
X71181797Y-105316798D01*
X71179198Y-105315888D01*
X70654119Y-105125394D01*
X74309314Y-105125394D01*
X74318143Y-105137014D01*
X74522970Y-105285830D01*
X74529650Y-105290070D01*
X74788234Y-105432228D01*
X74795369Y-105435585D01*
X75069746Y-105544219D01*
X75077237Y-105546653D01*
X75363059Y-105620039D01*
X75370830Y-105621521D01*
X75663570Y-105658503D01*
X75671460Y-105659000D01*
X75966540Y-105659000D01*
X75974430Y-105658503D01*
X76267170Y-105621521D01*
X76274941Y-105620039D01*
X76560763Y-105546653D01*
X76568254Y-105544219D01*
X76842631Y-105435585D01*
X76849766Y-105432228D01*
X77108350Y-105290070D01*
X77115030Y-105285830D01*
X77320230Y-105136744D01*
X77328653Y-105125821D01*
X77321749Y-105112960D01*
X75831810Y-103623020D01*
X75817869Y-103615408D01*
X75816034Y-103615539D01*
X75809420Y-103619790D01*
X74315927Y-105113284D01*
X74309314Y-105125394D01*
X70654119Y-105125394D01*
X69645798Y-104759584D01*
X69643130Y-104758582D01*
X68763371Y-104416703D01*
X68122691Y-104167731D01*
X68120136Y-104166705D01*
X66613357Y-103541577D01*
X66610862Y-103540509D01*
X65964303Y-103254958D01*
X73406488Y-103254958D01*
X73425015Y-103549436D01*
X73426008Y-103557297D01*
X73481296Y-103847128D01*
X73483267Y-103854805D01*
X73574446Y-104135424D01*
X73577361Y-104142787D01*
X73702993Y-104409770D01*
X73706805Y-104416703D01*
X73864909Y-104665835D01*
X73869563Y-104672241D01*
X73934521Y-104750761D01*
X73947040Y-104759217D01*
X73957778Y-104753011D01*
X75446980Y-103263810D01*
X75453357Y-103252131D01*
X76183408Y-103252131D01*
X76183539Y-103253966D01*
X76187790Y-103260580D01*
X77679119Y-104751908D01*
X77692381Y-104759150D01*
X77702485Y-104751962D01*
X77768437Y-104672241D01*
X77773091Y-104665835D01*
X77931195Y-104416703D01*
X77935007Y-104409770D01*
X78060639Y-104142787D01*
X78063554Y-104135424D01*
X78154733Y-103854805D01*
X78156704Y-103847128D01*
X78211992Y-103557297D01*
X78212985Y-103549436D01*
X78231512Y-103254958D01*
X78231512Y-103247042D01*
X78212985Y-102952564D01*
X78211992Y-102944703D01*
X78156704Y-102654872D01*
X78154733Y-102647195D01*
X78063554Y-102366576D01*
X78060639Y-102359213D01*
X77935007Y-102092230D01*
X77931195Y-102085297D01*
X77773091Y-101836165D01*
X77768437Y-101829759D01*
X77703479Y-101751239D01*
X77690960Y-101742783D01*
X77680222Y-101748989D01*
X76191020Y-103238190D01*
X76183408Y-103252131D01*
X75453357Y-103252131D01*
X75454592Y-103249869D01*
X75454461Y-103248034D01*
X75450210Y-103241420D01*
X73958881Y-101750092D01*
X73945619Y-101742850D01*
X73935515Y-101750038D01*
X73869563Y-101829759D01*
X73864909Y-101836165D01*
X73706805Y-102085297D01*
X73702993Y-102092230D01*
X73577361Y-102359213D01*
X73574446Y-102366576D01*
X73483267Y-102647195D01*
X73481296Y-102654872D01*
X73426008Y-102944703D01*
X73425015Y-102952564D01*
X73406488Y-103247042D01*
X73406488Y-103254958D01*
X65964303Y-103254958D01*
X65118652Y-102881479D01*
X65116102Y-102880318D01*
X64240914Y-102469892D01*
X63639261Y-102187742D01*
X63636694Y-102186503D01*
X62175883Y-101460695D01*
X62173345Y-101459398D01*
X62014948Y-101376179D01*
X74309347Y-101376179D01*
X74316251Y-101389040D01*
X75806190Y-102878980D01*
X75820131Y-102886592D01*
X75821966Y-102886461D01*
X75828580Y-102882210D01*
X77322073Y-101388716D01*
X77328686Y-101376606D01*
X77319857Y-101364986D01*
X77115030Y-101216170D01*
X77108350Y-101211930D01*
X76849766Y-101069772D01*
X76842631Y-101066415D01*
X76568254Y-100957781D01*
X76560763Y-100955347D01*
X76274941Y-100881961D01*
X76267170Y-100880479D01*
X75974430Y-100843497D01*
X75966540Y-100843000D01*
X75671460Y-100843000D01*
X75663570Y-100843497D01*
X75370830Y-100880479D01*
X75363059Y-100881961D01*
X75077237Y-100955347D01*
X75069746Y-100957781D01*
X74795369Y-101066415D01*
X74788234Y-101069772D01*
X74529650Y-101211930D01*
X74522970Y-101216170D01*
X74317770Y-101365256D01*
X74309347Y-101376179D01*
X62014948Y-101376179D01*
X60729322Y-100700733D01*
X60726815Y-100699379D01*
X60089928Y-100346162D01*
X60048338Y-100323096D01*
X64999729Y-100323096D01*
X65007126Y-100390092D01*
X65016239Y-100472636D01*
X65017113Y-100480553D01*
X65019723Y-100487684D01*
X65019723Y-100487686D01*
X65063400Y-100607039D01*
X65071553Y-100629319D01*
X65075789Y-100635622D01*
X65075789Y-100635623D01*
X65154198Y-100752307D01*
X65159908Y-100760805D01*
X65165527Y-100765918D01*
X65165528Y-100765919D01*
X65264332Y-100855823D01*
X65277076Y-100867419D01*
X65416293Y-100943008D01*
X65569522Y-100983207D01*
X65653477Y-100984526D01*
X65720319Y-100985576D01*
X65720322Y-100985576D01*
X65727916Y-100985695D01*
X65882332Y-100950329D01*
X65967600Y-100907444D01*
X66017072Y-100882563D01*
X66017075Y-100882561D01*
X66023855Y-100879151D01*
X66029626Y-100874222D01*
X66029629Y-100874220D01*
X66138536Y-100781204D01*
X66138536Y-100781203D01*
X66144314Y-100776269D01*
X66236755Y-100647624D01*
X66295842Y-100500641D01*
X66311813Y-100388420D01*
X66317581Y-100347891D01*
X66317581Y-100347888D01*
X66318162Y-100343807D01*
X66318255Y-100334976D01*
X66318264Y-100334134D01*
X66318264Y-100334128D01*
X66318307Y-100330000D01*
X66299276Y-100172733D01*
X66243280Y-100024546D01*
X66218452Y-99988421D01*
X66157855Y-99900251D01*
X66157854Y-99900249D01*
X66153553Y-99893992D01*
X66035275Y-99788611D01*
X66027889Y-99784700D01*
X65989565Y-99764409D01*
X65895274Y-99714484D01*
X65741633Y-99675892D01*
X65734034Y-99675852D01*
X65734033Y-99675852D01*
X65668181Y-99675507D01*
X65583221Y-99675062D01*
X65575841Y-99676834D01*
X65575839Y-99676834D01*
X65436563Y-99710271D01*
X65436560Y-99710272D01*
X65429184Y-99712043D01*
X65288414Y-99784700D01*
X65169039Y-99888838D01*
X65077950Y-100018444D01*
X65062960Y-100056892D01*
X65034724Y-100129314D01*
X65020406Y-100166037D01*
X65019414Y-100173570D01*
X65019414Y-100173571D01*
X65002591Y-100301358D01*
X64999729Y-100323096D01*
X60048338Y-100323096D01*
X59300329Y-99908251D01*
X59297864Y-99906847D01*
X59286581Y-99900251D01*
X57889659Y-99083668D01*
X57887215Y-99082202D01*
X56497991Y-98227383D01*
X56495580Y-98225862D01*
X56353124Y-98133700D01*
X55126004Y-97339813D01*
X55123641Y-97338246D01*
X55122557Y-97337509D01*
X54415485Y-96857039D01*
X53774468Y-96421454D01*
X53772129Y-96419825D01*
X53299270Y-96082625D01*
X52444074Y-95472777D01*
X52441804Y-95471119D01*
X52273025Y-95344906D01*
X52230450Y-95288092D01*
X52225349Y-95217279D01*
X52259342Y-95154950D01*
X52321637Y-95120893D01*
X52348483Y-95118000D01*
X52598540Y-95118000D01*
X52606430Y-95117503D01*
X52899170Y-95080521D01*
X52906941Y-95079039D01*
X53192763Y-95005653D01*
X53200254Y-95003219D01*
X53474631Y-94894585D01*
X53481766Y-94891228D01*
X53532938Y-94863096D01*
X57380729Y-94863096D01*
X57383721Y-94890194D01*
X57395714Y-94998822D01*
X57398113Y-95020553D01*
X57400723Y-95027684D01*
X57400723Y-95027686D01*
X57447295Y-95154950D01*
X57452553Y-95169319D01*
X57456789Y-95175622D01*
X57456789Y-95175623D01*
X57498464Y-95237641D01*
X57540908Y-95300805D01*
X57546527Y-95305918D01*
X57546528Y-95305919D01*
X57652460Y-95402309D01*
X57658076Y-95407419D01*
X57797293Y-95483008D01*
X57950522Y-95523207D01*
X58034477Y-95524526D01*
X58101319Y-95525576D01*
X58101322Y-95525576D01*
X58108916Y-95525695D01*
X58263332Y-95490329D01*
X58344182Y-95449666D01*
X58398072Y-95422563D01*
X58398075Y-95422561D01*
X58404855Y-95419151D01*
X58410626Y-95414222D01*
X58410629Y-95414220D01*
X58462291Y-95370096D01*
X68047729Y-95370096D01*
X68053522Y-95422563D01*
X68062263Y-95501735D01*
X68065113Y-95527553D01*
X68067723Y-95534684D01*
X68067723Y-95534686D01*
X68111277Y-95653703D01*
X68119553Y-95676319D01*
X68123789Y-95682622D01*
X68123789Y-95682623D01*
X68145628Y-95715122D01*
X68207908Y-95807805D01*
X68213527Y-95812918D01*
X68213528Y-95812919D01*
X68315488Y-95905695D01*
X68325076Y-95914419D01*
X68464293Y-95990008D01*
X68617522Y-96030207D01*
X68701477Y-96031526D01*
X68768319Y-96032576D01*
X68768322Y-96032576D01*
X68775916Y-96032695D01*
X68930332Y-95997329D01*
X69000742Y-95961917D01*
X69065072Y-95929563D01*
X69065075Y-95929561D01*
X69071855Y-95926151D01*
X69077626Y-95921222D01*
X69077629Y-95921220D01*
X69186536Y-95828204D01*
X69186536Y-95828203D01*
X69192314Y-95823269D01*
X69234390Y-95764714D01*
X69290384Y-95721068D01*
X69361087Y-95714622D01*
X69421510Y-95745048D01*
X69443124Y-95764715D01*
X69468076Y-95787419D01*
X69607293Y-95863008D01*
X69760522Y-95903207D01*
X69844477Y-95904526D01*
X69911319Y-95905576D01*
X69911322Y-95905576D01*
X69918916Y-95905695D01*
X70073332Y-95870329D01*
X70163255Y-95825103D01*
X70208072Y-95802563D01*
X70208075Y-95802561D01*
X70214855Y-95799151D01*
X70220626Y-95794222D01*
X70220629Y-95794220D01*
X70329536Y-95701204D01*
X70329536Y-95701203D01*
X70335314Y-95696269D01*
X70427755Y-95567624D01*
X70486842Y-95420641D01*
X70498171Y-95341036D01*
X70508581Y-95267891D01*
X70508581Y-95267888D01*
X70509162Y-95263807D01*
X70509307Y-95250000D01*
X70507812Y-95237641D01*
X70500905Y-95180571D01*
X70490276Y-95092733D01*
X70434280Y-94944546D01*
X70392966Y-94884433D01*
X70348855Y-94820251D01*
X70348854Y-94820249D01*
X70344553Y-94813992D01*
X70329967Y-94800996D01*
X70285619Y-94761484D01*
X70226275Y-94708611D01*
X70218889Y-94704700D01*
X70092988Y-94638039D01*
X70092989Y-94638039D01*
X70086274Y-94634484D01*
X69932633Y-94595892D01*
X69925034Y-94595852D01*
X69925033Y-94595852D01*
X69859181Y-94595507D01*
X69774221Y-94595062D01*
X69766841Y-94596834D01*
X69766839Y-94596834D01*
X69627563Y-94630271D01*
X69627560Y-94630272D01*
X69620184Y-94632043D01*
X69479414Y-94704700D01*
X69360039Y-94808838D01*
X69355672Y-94815052D01*
X69355669Y-94815055D01*
X69323214Y-94861234D01*
X69267680Y-94905466D01*
X69197048Y-94912652D01*
X69136309Y-94882861D01*
X69088951Y-94840667D01*
X69088945Y-94840663D01*
X69083275Y-94835611D01*
X69075889Y-94831700D01*
X68949988Y-94765039D01*
X68949989Y-94765039D01*
X68943274Y-94761484D01*
X68789633Y-94722892D01*
X68782034Y-94722852D01*
X68782033Y-94722852D01*
X68716181Y-94722507D01*
X68631221Y-94722062D01*
X68623841Y-94723834D01*
X68623839Y-94723834D01*
X68484563Y-94757271D01*
X68484560Y-94757272D01*
X68477184Y-94759043D01*
X68336414Y-94831700D01*
X68217039Y-94935838D01*
X68125950Y-95065444D01*
X68068406Y-95213037D01*
X68067414Y-95220570D01*
X68067414Y-95220571D01*
X68051555Y-95341036D01*
X68047729Y-95370096D01*
X58462291Y-95370096D01*
X58519536Y-95321204D01*
X58519536Y-95321203D01*
X58525314Y-95316269D01*
X58617755Y-95187624D01*
X58676842Y-95040641D01*
X58691386Y-94938444D01*
X58698581Y-94887891D01*
X58698581Y-94887888D01*
X58699162Y-94883807D01*
X58699307Y-94870000D01*
X58680276Y-94712733D01*
X58624280Y-94564546D01*
X58580476Y-94500810D01*
X58538855Y-94440251D01*
X58538854Y-94440249D01*
X58534553Y-94433992D01*
X58416275Y-94328611D01*
X58408889Y-94324700D01*
X58295045Y-94264423D01*
X58276274Y-94254484D01*
X58122633Y-94215892D01*
X58115034Y-94215852D01*
X58115033Y-94215852D01*
X58049181Y-94215507D01*
X57964221Y-94215062D01*
X57956841Y-94216834D01*
X57956839Y-94216834D01*
X57817563Y-94250271D01*
X57817560Y-94250272D01*
X57810184Y-94252043D01*
X57669414Y-94324700D01*
X57550039Y-94428838D01*
X57458950Y-94558444D01*
X57443628Y-94597743D01*
X57408455Y-94687958D01*
X57401406Y-94706037D01*
X57400414Y-94713570D01*
X57400414Y-94713571D01*
X57383682Y-94840667D01*
X57380729Y-94863096D01*
X53532938Y-94863096D01*
X53740350Y-94749070D01*
X53747030Y-94744830D01*
X53952230Y-94595744D01*
X53960653Y-94584821D01*
X53953749Y-94571960D01*
X52092921Y-92711131D01*
X52815408Y-92711131D01*
X52815539Y-92712966D01*
X52819790Y-92719580D01*
X54311119Y-94210908D01*
X54324381Y-94218150D01*
X54334485Y-94210962D01*
X54400437Y-94131241D01*
X54405091Y-94124835D01*
X54563195Y-93875703D01*
X54567007Y-93868770D01*
X54692639Y-93601787D01*
X54695554Y-93594424D01*
X54786733Y-93313805D01*
X54788704Y-93306128D01*
X54843992Y-93016297D01*
X54844985Y-93008436D01*
X54863512Y-92713958D01*
X54863512Y-92706042D01*
X54844985Y-92411564D01*
X54843992Y-92403703D01*
X54788704Y-92113872D01*
X54786733Y-92106195D01*
X54695554Y-91825576D01*
X54692639Y-91818213D01*
X54567007Y-91551230D01*
X54563195Y-91544297D01*
X54405091Y-91295165D01*
X54400437Y-91288759D01*
X54335479Y-91210239D01*
X54322960Y-91201783D01*
X54312222Y-91207989D01*
X52823020Y-92697190D01*
X52815408Y-92711131D01*
X52092921Y-92711131D01*
X52091790Y-92710000D01*
X50590879Y-91209090D01*
X50577619Y-91201849D01*
X50567516Y-91209037D01*
X50501563Y-91288759D01*
X50496909Y-91295165D01*
X50338805Y-91544297D01*
X50334993Y-91551230D01*
X50209361Y-91818213D01*
X50206446Y-91825576D01*
X50115267Y-92106195D01*
X50113296Y-92113872D01*
X50058008Y-92403703D01*
X50057015Y-92411564D01*
X50038488Y-92706042D01*
X50038488Y-92713958D01*
X50057015Y-93008436D01*
X50058008Y-93016297D01*
X50113296Y-93306128D01*
X50115266Y-93313800D01*
X50153645Y-93431918D01*
X50155673Y-93502886D01*
X50119010Y-93563684D01*
X50055298Y-93595009D01*
X49984764Y-93586917D01*
X49956091Y-93570029D01*
X49849311Y-93486347D01*
X49847088Y-93484564D01*
X48586282Y-92449619D01*
X48584100Y-92447786D01*
X47347052Y-91384612D01*
X47344911Y-91382730D01*
X46736223Y-90835179D01*
X50941347Y-90835179D01*
X50948251Y-90848040D01*
X52438190Y-92337980D01*
X52452131Y-92345592D01*
X52453966Y-92345461D01*
X52460580Y-92341210D01*
X53749693Y-91052096D01*
X77191729Y-91052096D01*
X77192563Y-91059646D01*
X77207582Y-91195682D01*
X77209113Y-91209553D01*
X77211723Y-91216684D01*
X77211723Y-91216686D01*
X77260185Y-91349115D01*
X77263553Y-91358319D01*
X77267789Y-91364622D01*
X77267789Y-91364623D01*
X77344100Y-91478185D01*
X77351908Y-91489805D01*
X77357527Y-91494918D01*
X77357528Y-91494919D01*
X77456407Y-91584891D01*
X77469076Y-91596419D01*
X77608293Y-91672008D01*
X77761522Y-91712207D01*
X77845477Y-91713526D01*
X77912319Y-91714576D01*
X77912322Y-91714576D01*
X77919916Y-91714695D01*
X77975088Y-91702059D01*
X78045954Y-91706348D01*
X78103252Y-91748270D01*
X78121543Y-91781579D01*
X78149941Y-91859183D01*
X78149943Y-91859187D01*
X78152553Y-91866319D01*
X78240908Y-91997805D01*
X78246527Y-92002918D01*
X78246528Y-92002919D01*
X78331240Y-92080000D01*
X78358076Y-92104419D01*
X78497293Y-92180008D01*
X78650522Y-92220207D01*
X78734477Y-92221526D01*
X78801319Y-92222576D01*
X78801322Y-92222576D01*
X78808916Y-92222695D01*
X78963332Y-92187329D01*
X79055766Y-92140840D01*
X79098072Y-92119563D01*
X79098075Y-92119561D01*
X79104855Y-92116151D01*
X79110626Y-92111222D01*
X79110629Y-92111220D01*
X79219536Y-92018204D01*
X79219536Y-92018203D01*
X79225314Y-92013269D01*
X79317755Y-91884624D01*
X79376842Y-91737641D01*
X79389122Y-91651353D01*
X79398581Y-91584891D01*
X79398581Y-91584888D01*
X79399162Y-91580807D01*
X79399307Y-91567000D01*
X79398485Y-91560203D01*
X79390584Y-91494919D01*
X79380276Y-91409733D01*
X79324280Y-91261546D01*
X79288192Y-91209037D01*
X79238855Y-91137251D01*
X79238854Y-91137249D01*
X79234553Y-91130992D01*
X79216133Y-91114580D01*
X79146001Y-91052096D01*
X79116275Y-91025611D01*
X78976274Y-90951484D01*
X78822633Y-90912892D01*
X78815034Y-90912852D01*
X78815033Y-90912852D01*
X78749181Y-90912507D01*
X78664221Y-90912062D01*
X78656841Y-90913834D01*
X78656839Y-90913834D01*
X78617253Y-90923338D01*
X78546345Y-90919791D01*
X78488611Y-90878471D01*
X78469973Y-90845357D01*
X78437964Y-90760649D01*
X78435280Y-90753546D01*
X78423974Y-90737095D01*
X78349855Y-90629251D01*
X78349854Y-90629249D01*
X78345553Y-90622992D01*
X78227275Y-90517611D01*
X78219889Y-90513700D01*
X78118684Y-90460115D01*
X78087274Y-90443484D01*
X77933633Y-90404892D01*
X77926034Y-90404852D01*
X77926033Y-90404852D01*
X77860181Y-90404507D01*
X77775221Y-90404062D01*
X77767841Y-90405834D01*
X77767839Y-90405834D01*
X77628563Y-90439271D01*
X77628560Y-90439272D01*
X77621184Y-90441043D01*
X77480414Y-90513700D01*
X77361039Y-90617838D01*
X77269950Y-90747444D01*
X77264802Y-90760649D01*
X77218056Y-90880546D01*
X77212406Y-90895037D01*
X77211414Y-90902570D01*
X77211414Y-90902571D01*
X77194551Y-91030664D01*
X77191729Y-91052096D01*
X53749693Y-91052096D01*
X53954073Y-90847716D01*
X53960686Y-90835606D01*
X53951857Y-90823986D01*
X53747030Y-90675170D01*
X53740350Y-90670930D01*
X53481766Y-90528772D01*
X53474631Y-90525415D01*
X53200254Y-90416781D01*
X53192763Y-90414347D01*
X52906941Y-90340961D01*
X52899170Y-90339479D01*
X52606430Y-90302497D01*
X52598540Y-90302000D01*
X52303460Y-90302000D01*
X52295570Y-90302497D01*
X52002830Y-90339479D01*
X51995059Y-90340961D01*
X51709237Y-90414347D01*
X51701746Y-90416781D01*
X51427369Y-90525415D01*
X51420234Y-90528772D01*
X51161650Y-90670930D01*
X51154970Y-90675170D01*
X50949770Y-90824256D01*
X50941347Y-90835179D01*
X46736223Y-90835179D01*
X46132186Y-90291811D01*
X46130089Y-90289881D01*
X45681124Y-89867251D01*
X45590663Y-89782096D01*
X48108729Y-89782096D01*
X48116747Y-89854723D01*
X48118131Y-89867251D01*
X48126113Y-89939553D01*
X48128723Y-89946684D01*
X48128723Y-89946686D01*
X48145140Y-89991546D01*
X48180553Y-90088319D01*
X48268908Y-90219805D01*
X48274527Y-90224918D01*
X48274528Y-90224919D01*
X48373407Y-90314891D01*
X48386076Y-90326419D01*
X48525293Y-90402008D01*
X48678522Y-90442207D01*
X48762477Y-90443526D01*
X48829319Y-90444576D01*
X48829322Y-90444576D01*
X48836916Y-90444695D01*
X48991332Y-90409329D01*
X49061742Y-90373917D01*
X49126072Y-90341563D01*
X49126075Y-90341561D01*
X49132855Y-90338151D01*
X49138626Y-90333222D01*
X49138629Y-90333220D01*
X49247536Y-90240204D01*
X49247536Y-90240203D01*
X49253314Y-90235269D01*
X49345755Y-90106624D01*
X49404842Y-89959641D01*
X49417991Y-89867251D01*
X49426581Y-89806891D01*
X49426581Y-89806888D01*
X49427162Y-89802807D01*
X49427307Y-89789000D01*
X49408276Y-89631733D01*
X49352280Y-89483546D01*
X49279016Y-89376946D01*
X49266855Y-89359251D01*
X49266854Y-89359249D01*
X49262553Y-89352992D01*
X49144275Y-89247611D01*
X49136889Y-89243700D01*
X49063155Y-89204660D01*
X49004274Y-89173484D01*
X48850633Y-89134892D01*
X48843034Y-89134852D01*
X48843033Y-89134852D01*
X48777181Y-89134507D01*
X48692221Y-89134062D01*
X48684841Y-89135834D01*
X48684839Y-89135834D01*
X48545563Y-89169271D01*
X48545560Y-89169272D01*
X48538184Y-89171043D01*
X48397414Y-89243700D01*
X48278039Y-89347838D01*
X48186950Y-89477444D01*
X48167322Y-89527787D01*
X48134479Y-89612026D01*
X48129406Y-89625037D01*
X48128414Y-89632570D01*
X48128414Y-89632571D01*
X48111551Y-89760664D01*
X48108729Y-89782096D01*
X45590663Y-89782096D01*
X44942344Y-89171804D01*
X44940351Y-89169885D01*
X44143846Y-88385372D01*
X43778199Y-88025230D01*
X43776191Y-88023207D01*
X42640256Y-86852590D01*
X42638294Y-86850522D01*
X42218144Y-86397475D01*
X50376483Y-86397475D01*
X50395472Y-86614519D01*
X50397375Y-86625312D01*
X50453764Y-86835761D01*
X50457510Y-86846053D01*
X50549586Y-87043511D01*
X50555069Y-87053007D01*
X50680028Y-87231467D01*
X50687084Y-87239875D01*
X50693237Y-87246028D01*
X50727263Y-87308340D01*
X50722198Y-87379155D01*
X50703986Y-87407493D01*
X50705516Y-87408516D01*
X50649266Y-87492699D01*
X50634500Y-87566933D01*
X50634501Y-89217066D01*
X50639869Y-89244055D01*
X50646508Y-89277432D01*
X50649266Y-89291301D01*
X50656161Y-89301620D01*
X50656162Y-89301622D01*
X50683708Y-89342846D01*
X50705516Y-89375484D01*
X50733146Y-89393946D01*
X50766676Y-89416350D01*
X50789699Y-89431734D01*
X50863933Y-89446500D01*
X51688866Y-89446500D01*
X52514066Y-89446499D01*
X52549818Y-89439388D01*
X52576126Y-89434156D01*
X52576128Y-89434155D01*
X52588301Y-89431734D01*
X52598621Y-89424839D01*
X52598622Y-89424838D01*
X52662168Y-89382377D01*
X52672484Y-89375484D01*
X52728734Y-89291301D01*
X52743500Y-89217067D01*
X52743499Y-87566934D01*
X52733820Y-87518271D01*
X52731156Y-87504874D01*
X52731155Y-87504872D01*
X52728734Y-87492699D01*
X52721297Y-87481568D01*
X52672484Y-87408516D01*
X52675198Y-87406702D01*
X52650737Y-87361906D01*
X52655802Y-87291091D01*
X52684763Y-87246028D01*
X52690916Y-87239875D01*
X52697972Y-87231467D01*
X52822931Y-87053007D01*
X52828414Y-87043511D01*
X52920490Y-86846053D01*
X52924236Y-86835761D01*
X52980625Y-86625312D01*
X52982528Y-86614519D01*
X53001517Y-86397475D01*
X53001517Y-86386525D01*
X52982528Y-86169481D01*
X52980625Y-86158688D01*
X52924236Y-85948239D01*
X52920490Y-85937947D01*
X52828414Y-85740489D01*
X52822931Y-85730994D01*
X52786491Y-85678952D01*
X52776012Y-85670576D01*
X52762566Y-85677644D01*
X51778095Y-86662115D01*
X51715783Y-86696141D01*
X51644968Y-86691076D01*
X51599905Y-86662115D01*
X50614713Y-85676923D01*
X50602938Y-85670493D01*
X50590923Y-85679789D01*
X50555069Y-85730994D01*
X50549586Y-85740489D01*
X50457510Y-85937947D01*
X50453764Y-85948239D01*
X50397375Y-86158688D01*
X50395472Y-86169481D01*
X50376483Y-86386525D01*
X50376483Y-86397475D01*
X42218144Y-86397475D01*
X41529125Y-85654507D01*
X41527211Y-85652396D01*
X41219349Y-85304988D01*
X50967576Y-85304988D01*
X50974644Y-85318434D01*
X51676188Y-86019978D01*
X51690132Y-86027592D01*
X51691965Y-86027461D01*
X51698580Y-86023210D01*
X52404077Y-85317713D01*
X52410507Y-85305938D01*
X52401211Y-85293923D01*
X52350006Y-85258069D01*
X52340511Y-85252586D01*
X52143053Y-85160510D01*
X52132761Y-85156764D01*
X51922312Y-85100375D01*
X51911519Y-85098472D01*
X51694475Y-85079483D01*
X51683525Y-85079483D01*
X51466481Y-85098472D01*
X51455688Y-85100375D01*
X51245239Y-85156764D01*
X51234947Y-85160510D01*
X51037489Y-85252586D01*
X51027994Y-85258069D01*
X50975952Y-85294509D01*
X50967576Y-85304988D01*
X41219349Y-85304988D01*
X40445358Y-84431577D01*
X40443492Y-84429422D01*
X39795143Y-83663571D01*
X39706697Y-83559096D01*
X44425729Y-83559096D01*
X44428515Y-83584326D01*
X44437264Y-83663571D01*
X44443113Y-83716553D01*
X44445723Y-83723684D01*
X44445723Y-83723686D01*
X44482482Y-83824134D01*
X44497553Y-83865319D01*
X44501789Y-83871622D01*
X44501789Y-83871623D01*
X44576709Y-83983115D01*
X44585908Y-83996805D01*
X44591527Y-84001918D01*
X44591528Y-84001919D01*
X44696629Y-84097553D01*
X44703076Y-84103419D01*
X44842293Y-84179008D01*
X44995522Y-84219207D01*
X45079477Y-84220526D01*
X45146319Y-84221576D01*
X45146322Y-84221576D01*
X45153916Y-84221695D01*
X45308332Y-84186329D01*
X45407944Y-84136230D01*
X45443072Y-84118563D01*
X45443075Y-84118561D01*
X45449855Y-84115151D01*
X45455626Y-84110222D01*
X45455629Y-84110220D01*
X45564536Y-84017204D01*
X45564536Y-84017203D01*
X45570314Y-84012269D01*
X45637371Y-83918950D01*
X50967493Y-83918950D01*
X50976789Y-83930965D01*
X51027994Y-83966819D01*
X51037489Y-83972302D01*
X51234947Y-84064378D01*
X51245239Y-84068124D01*
X51455688Y-84124513D01*
X51466481Y-84126416D01*
X51683525Y-84145405D01*
X51694475Y-84145405D01*
X51911519Y-84126416D01*
X51922312Y-84124513D01*
X52132761Y-84068124D01*
X52143053Y-84064378D01*
X52340511Y-83972302D01*
X52350006Y-83966819D01*
X52402048Y-83930379D01*
X52410424Y-83919900D01*
X52403356Y-83906454D01*
X52309998Y-83813096D01*
X69190729Y-83813096D01*
X69195707Y-83858185D01*
X69207199Y-83962271D01*
X69208113Y-83970553D01*
X69210723Y-83977684D01*
X69210723Y-83977686D01*
X69259185Y-84110115D01*
X69262553Y-84119319D01*
X69266789Y-84125622D01*
X69266789Y-84125623D01*
X69343895Y-84240368D01*
X69350908Y-84250805D01*
X69356527Y-84255918D01*
X69356528Y-84255919D01*
X69372491Y-84270444D01*
X69468076Y-84357419D01*
X69607293Y-84433008D01*
X69760522Y-84473207D01*
X69844477Y-84474526D01*
X69911319Y-84475576D01*
X69911322Y-84475576D01*
X69918916Y-84475695D01*
X70073332Y-84440329D01*
X70163782Y-84394838D01*
X70208072Y-84372563D01*
X70208075Y-84372561D01*
X70214855Y-84369151D01*
X70220626Y-84364222D01*
X70220629Y-84364220D01*
X70329536Y-84271204D01*
X70329536Y-84271203D01*
X70335314Y-84266269D01*
X70427755Y-84137624D01*
X70486842Y-83990641D01*
X70509162Y-83833807D01*
X70509307Y-83820000D01*
X70490276Y-83662733D01*
X70434280Y-83514546D01*
X70412071Y-83482231D01*
X70348855Y-83390251D01*
X70348854Y-83390249D01*
X70344553Y-83383992D01*
X70226275Y-83278611D01*
X70218889Y-83274700D01*
X70092988Y-83208039D01*
X70092989Y-83208039D01*
X70086274Y-83204484D01*
X69932633Y-83165892D01*
X69925034Y-83165852D01*
X69925033Y-83165852D01*
X69859181Y-83165507D01*
X69774221Y-83165062D01*
X69766841Y-83166834D01*
X69766839Y-83166834D01*
X69627563Y-83200271D01*
X69627560Y-83200272D01*
X69620184Y-83202043D01*
X69479414Y-83274700D01*
X69360039Y-83378838D01*
X69268950Y-83508444D01*
X69242735Y-83575682D01*
X69217056Y-83641546D01*
X69211406Y-83656037D01*
X69210414Y-83663570D01*
X69210414Y-83663571D01*
X69193805Y-83789733D01*
X69190729Y-83813096D01*
X52309998Y-83813096D01*
X51701812Y-83204910D01*
X51687868Y-83197296D01*
X51686035Y-83197427D01*
X51679420Y-83201678D01*
X50973923Y-83907175D01*
X50967493Y-83918950D01*
X45637371Y-83918950D01*
X45662755Y-83883624D01*
X45721842Y-83736641D01*
X45744162Y-83579807D01*
X45744307Y-83566000D01*
X45743265Y-83557385D01*
X45738084Y-83514574D01*
X45725276Y-83408733D01*
X45669280Y-83260546D01*
X45630750Y-83204484D01*
X45583855Y-83136251D01*
X45583854Y-83136249D01*
X45579553Y-83129992D01*
X45461275Y-83024611D01*
X45453889Y-83020700D01*
X45365055Y-82973665D01*
X45321274Y-82950484D01*
X45167633Y-82911892D01*
X45160034Y-82911852D01*
X45160033Y-82911852D01*
X45094181Y-82911507D01*
X45009221Y-82911062D01*
X45001841Y-82912834D01*
X45001839Y-82912834D01*
X44862563Y-82946271D01*
X44862560Y-82946272D01*
X44855184Y-82948043D01*
X44714414Y-83020700D01*
X44595039Y-83124838D01*
X44503950Y-83254444D01*
X44488960Y-83292892D01*
X44454139Y-83382204D01*
X44446406Y-83402037D01*
X44445414Y-83409570D01*
X44445414Y-83409571D01*
X44426752Y-83551329D01*
X44425729Y-83559096D01*
X39706697Y-83559096D01*
X39389544Y-83184464D01*
X39387747Y-83182292D01*
X39378076Y-83170329D01*
X39109693Y-82838363D01*
X50376483Y-82838363D01*
X50395472Y-83055407D01*
X50397375Y-83066200D01*
X50453764Y-83276649D01*
X50457510Y-83286941D01*
X50549586Y-83484399D01*
X50555069Y-83493894D01*
X50591509Y-83545936D01*
X50601988Y-83554312D01*
X50615434Y-83547244D01*
X51599905Y-82562773D01*
X51662217Y-82528747D01*
X51733032Y-82533812D01*
X51778095Y-82562773D01*
X52763287Y-83547965D01*
X52775062Y-83554395D01*
X52787077Y-83545099D01*
X52822931Y-83493894D01*
X52828414Y-83484399D01*
X52920490Y-83286941D01*
X52924236Y-83276649D01*
X52980625Y-83066200D01*
X52982528Y-83055407D01*
X52994016Y-82924096D01*
X58268729Y-82924096D01*
X58286113Y-83081553D01*
X58288723Y-83088684D01*
X58288723Y-83088686D01*
X58332400Y-83208039D01*
X58340553Y-83230319D01*
X58344789Y-83236622D01*
X58344789Y-83236623D01*
X58382043Y-83292062D01*
X58428908Y-83361805D01*
X58434527Y-83366918D01*
X58434528Y-83366919D01*
X58532423Y-83455996D01*
X58546076Y-83468419D01*
X58685293Y-83544008D01*
X58838522Y-83584207D01*
X58922477Y-83585526D01*
X58989319Y-83586576D01*
X58989322Y-83586576D01*
X58996916Y-83586695D01*
X59151332Y-83551329D01*
X59224468Y-83514546D01*
X59286072Y-83483563D01*
X59286075Y-83483561D01*
X59292855Y-83480151D01*
X59298626Y-83475222D01*
X59298629Y-83475220D01*
X59407536Y-83382204D01*
X59407536Y-83382203D01*
X59413314Y-83377269D01*
X59505755Y-83248624D01*
X59564842Y-83101641D01*
X59574698Y-83032385D01*
X59586581Y-82948891D01*
X59586581Y-82948888D01*
X59587162Y-82944807D01*
X59587307Y-82931000D01*
X59568276Y-82773733D01*
X59512280Y-82625546D01*
X59490352Y-82593641D01*
X59455614Y-82543096D01*
X63348729Y-82543096D01*
X63354484Y-82595224D01*
X63365222Y-82692482D01*
X63366113Y-82700553D01*
X63368723Y-82707684D01*
X63368723Y-82707686D01*
X63416544Y-82838363D01*
X63420553Y-82849319D01*
X63424789Y-82855622D01*
X63424789Y-82855623D01*
X63493713Y-82958192D01*
X63508908Y-82980805D01*
X63514527Y-82985918D01*
X63514528Y-82985919D01*
X63616488Y-83078695D01*
X63626076Y-83087419D01*
X63765293Y-83163008D01*
X63918522Y-83203207D01*
X64002477Y-83204526D01*
X64069319Y-83205576D01*
X64069322Y-83205576D01*
X64076916Y-83205695D01*
X64231332Y-83170329D01*
X64321782Y-83124838D01*
X64366072Y-83102563D01*
X64366075Y-83102561D01*
X64372855Y-83099151D01*
X64378626Y-83094222D01*
X64378629Y-83094220D01*
X64487536Y-83001204D01*
X64487536Y-83001203D01*
X64493314Y-82996269D01*
X64585755Y-82867624D01*
X64644842Y-82720641D01*
X64655207Y-82647813D01*
X64666581Y-82567891D01*
X64666581Y-82567888D01*
X64667162Y-82563807D01*
X64667307Y-82550000D01*
X64666312Y-82541773D01*
X64659022Y-82481539D01*
X64648276Y-82392733D01*
X64623285Y-82326596D01*
X92812729Y-82326596D01*
X92818510Y-82378957D01*
X92829270Y-82476415D01*
X92830113Y-82484053D01*
X92832723Y-82491184D01*
X92832723Y-82491186D01*
X92879659Y-82619444D01*
X92884553Y-82632819D01*
X92888789Y-82639122D01*
X92888789Y-82639123D01*
X92962851Y-82749338D01*
X92972908Y-82764305D01*
X92978527Y-82769418D01*
X92978528Y-82769419D01*
X93081477Y-82863095D01*
X93090076Y-82870919D01*
X93229293Y-82946508D01*
X93382522Y-82986707D01*
X93466477Y-82988026D01*
X93533319Y-82989076D01*
X93533322Y-82989076D01*
X93540916Y-82989195D01*
X93695332Y-82953829D01*
X93780286Y-82911102D01*
X93830072Y-82886063D01*
X93830075Y-82886061D01*
X93836855Y-82882651D01*
X93842626Y-82877722D01*
X93842629Y-82877720D01*
X93951536Y-82784704D01*
X93951536Y-82784703D01*
X93957314Y-82779769D01*
X94049755Y-82651124D01*
X94108842Y-82504141D01*
X94121372Y-82416096D01*
X109322729Y-82416096D01*
X109323563Y-82423646D01*
X109338923Y-82562773D01*
X109340113Y-82573553D01*
X109342723Y-82580684D01*
X109342723Y-82580686D01*
X109391185Y-82713115D01*
X109394553Y-82722319D01*
X109398789Y-82728622D01*
X109398789Y-82728623D01*
X109475100Y-82842185D01*
X109482908Y-82853805D01*
X109488527Y-82858918D01*
X109488528Y-82858919D01*
X109593064Y-82954039D01*
X109600076Y-82960419D01*
X109739293Y-83036008D01*
X109892522Y-83076207D01*
X109976477Y-83077526D01*
X110043319Y-83078576D01*
X110043322Y-83078576D01*
X110050916Y-83078695D01*
X110205332Y-83043329D01*
X110289089Y-83001204D01*
X110340072Y-82975563D01*
X110340075Y-82975561D01*
X110346855Y-82972151D01*
X110352626Y-82967222D01*
X110352629Y-82967220D01*
X110461536Y-82874204D01*
X110461536Y-82874203D01*
X110467314Y-82869269D01*
X110559755Y-82740624D01*
X110562591Y-82733570D01*
X110566248Y-82726918D01*
X110568331Y-82728063D01*
X110605108Y-82681438D01*
X110672233Y-82658315D01*
X110741204Y-82675154D01*
X110753606Y-82683353D01*
X110761236Y-82689071D01*
X110845450Y-82720641D01*
X110889157Y-82737026D01*
X110889159Y-82737026D01*
X110896552Y-82739798D01*
X110904402Y-82740651D01*
X110904403Y-82740651D01*
X110905149Y-82740732D01*
X110958244Y-82746500D01*
X112253756Y-82746500D01*
X112306851Y-82740732D01*
X112307597Y-82740651D01*
X112307598Y-82740651D01*
X112315448Y-82739798D01*
X112322841Y-82737026D01*
X112322843Y-82737026D01*
X112366550Y-82720641D01*
X112450764Y-82689071D01*
X112457944Y-82683690D01*
X112457946Y-82683689D01*
X112545977Y-82617713D01*
X112566404Y-82602404D01*
X112603642Y-82552717D01*
X112647689Y-82493946D01*
X112647691Y-82493943D01*
X112653071Y-82486764D01*
X112703798Y-82351448D01*
X112706320Y-82352393D01*
X112735085Y-82302026D01*
X112798036Y-82269197D01*
X112868742Y-82275614D01*
X112926982Y-82322440D01*
X113040850Y-82491575D01*
X113047519Y-82499870D01*
X113199228Y-82658900D01*
X113207186Y-82665941D01*
X113383525Y-82797141D01*
X113392562Y-82802745D01*
X113588484Y-82902357D01*
X113598335Y-82906357D01*
X113808240Y-82971534D01*
X113818624Y-82973817D01*
X113834043Y-82975861D01*
X113848207Y-82973665D01*
X113852000Y-82960478D01*
X113852000Y-82958192D01*
X114360000Y-82958192D01*
X114363973Y-82971723D01*
X114374580Y-82973248D01*
X114492421Y-82948523D01*
X114502617Y-82945463D01*
X114707029Y-82864737D01*
X114716561Y-82860006D01*
X114904462Y-82745984D01*
X114913052Y-82739720D01*
X115079052Y-82595673D01*
X115086472Y-82588042D01*
X115225826Y-82418089D01*
X115231850Y-82409322D01*
X115340576Y-82218318D01*
X115345041Y-82208655D01*
X115374966Y-82126212D01*
X115417010Y-82069004D01*
X115483309Y-82043608D01*
X115552814Y-82058088D01*
X115605421Y-82111510D01*
X115672324Y-82241410D01*
X115701650Y-82278743D01*
X115798808Y-82402432D01*
X115798812Y-82402436D01*
X115802514Y-82407149D01*
X115807044Y-82411080D01*
X115807045Y-82411081D01*
X115957165Y-82541350D01*
X115957170Y-82541354D01*
X115961696Y-82545281D01*
X116144126Y-82650819D01*
X116343222Y-82719957D01*
X116349155Y-82720817D01*
X116349158Y-82720818D01*
X116545860Y-82749338D01*
X116545863Y-82749338D01*
X116551800Y-82750199D01*
X116762333Y-82740455D01*
X116768157Y-82739051D01*
X116768160Y-82739051D01*
X116961393Y-82692482D01*
X116961395Y-82692481D01*
X116967226Y-82691076D01*
X116972684Y-82688594D01*
X116972688Y-82688593D01*
X117111351Y-82625546D01*
X117159084Y-82603843D01*
X117314010Y-82493946D01*
X117326100Y-82485370D01*
X117326101Y-82485369D01*
X117330986Y-82481904D01*
X117459835Y-82347307D01*
X117472583Y-82333990D01*
X117476728Y-82329660D01*
X117522329Y-82259037D01*
X117587800Y-82157640D01*
X117587801Y-82157637D01*
X117591052Y-82152603D01*
X117608649Y-82108941D01*
X117667592Y-81962685D01*
X117669834Y-81957122D01*
X117699879Y-81803271D01*
X117709361Y-81754717D01*
X117709361Y-81754714D01*
X117710229Y-81750271D01*
X117710500Y-81744730D01*
X117710500Y-81694659D01*
X118001500Y-81694659D01*
X118016493Y-81851806D01*
X118018183Y-81857566D01*
X118018183Y-81857567D01*
X118061452Y-82005055D01*
X118075823Y-82054042D01*
X118090707Y-82082941D01*
X118167327Y-82231707D01*
X118172324Y-82241410D01*
X118201650Y-82278743D01*
X118298808Y-82402432D01*
X118298812Y-82402436D01*
X118302514Y-82407149D01*
X118307044Y-82411080D01*
X118307045Y-82411081D01*
X118457165Y-82541350D01*
X118457170Y-82541354D01*
X118461696Y-82545281D01*
X118644126Y-82650819D01*
X118843222Y-82719957D01*
X118849155Y-82720817D01*
X118849158Y-82720818D01*
X119045860Y-82749338D01*
X119045863Y-82749338D01*
X119051800Y-82750199D01*
X119262333Y-82740455D01*
X119268157Y-82739051D01*
X119268160Y-82739051D01*
X119461393Y-82692482D01*
X119461395Y-82692481D01*
X119467226Y-82691076D01*
X119472684Y-82688594D01*
X119472688Y-82688593D01*
X119611351Y-82625546D01*
X119659084Y-82603843D01*
X119814010Y-82493946D01*
X119826100Y-82485370D01*
X119826101Y-82485369D01*
X119830986Y-82481904D01*
X119959835Y-82347307D01*
X119972583Y-82333990D01*
X119976728Y-82329660D01*
X120022329Y-82259037D01*
X120087800Y-82157640D01*
X120087801Y-82157637D01*
X120091052Y-82152603D01*
X120108649Y-82108941D01*
X120167592Y-81962685D01*
X120169834Y-81957122D01*
X120199879Y-81803271D01*
X120209361Y-81754717D01*
X120209361Y-81754714D01*
X120210229Y-81750271D01*
X120210500Y-81744730D01*
X120210500Y-81694659D01*
X120501500Y-81694659D01*
X120516493Y-81851806D01*
X120518183Y-81857566D01*
X120518183Y-81857567D01*
X120561452Y-82005055D01*
X120575823Y-82054042D01*
X120590707Y-82082941D01*
X120667327Y-82231707D01*
X120672324Y-82241410D01*
X120701650Y-82278743D01*
X120798808Y-82402432D01*
X120798812Y-82402436D01*
X120802514Y-82407149D01*
X120807044Y-82411080D01*
X120807045Y-82411081D01*
X120957165Y-82541350D01*
X120957170Y-82541354D01*
X120961696Y-82545281D01*
X121144126Y-82650819D01*
X121343222Y-82719957D01*
X121349155Y-82720817D01*
X121349158Y-82720818D01*
X121545860Y-82749338D01*
X121545863Y-82749338D01*
X121551800Y-82750199D01*
X121762333Y-82740455D01*
X121768157Y-82739051D01*
X121768160Y-82739051D01*
X121961393Y-82692482D01*
X121961395Y-82692481D01*
X121967226Y-82691076D01*
X121972684Y-82688594D01*
X121972688Y-82688593D01*
X122111351Y-82625546D01*
X122159084Y-82603843D01*
X122314010Y-82493946D01*
X122326100Y-82485370D01*
X122326101Y-82485369D01*
X122330986Y-82481904D01*
X122459835Y-82347307D01*
X122472583Y-82333990D01*
X122476728Y-82329660D01*
X122522329Y-82259037D01*
X122587800Y-82157640D01*
X122587801Y-82157637D01*
X122591052Y-82152603D01*
X122608649Y-82108941D01*
X122667592Y-81962685D01*
X122669834Y-81957122D01*
X122699879Y-81803271D01*
X122709361Y-81754717D01*
X122709361Y-81754714D01*
X122710229Y-81750271D01*
X122710500Y-81744730D01*
X122710500Y-81694659D01*
X123001500Y-81694659D01*
X123016493Y-81851806D01*
X123018183Y-81857566D01*
X123018183Y-81857567D01*
X123061452Y-82005055D01*
X123075823Y-82054042D01*
X123090707Y-82082941D01*
X123167327Y-82231707D01*
X123172324Y-82241410D01*
X123201650Y-82278743D01*
X123298808Y-82402432D01*
X123298812Y-82402436D01*
X123302514Y-82407149D01*
X123307044Y-82411080D01*
X123307045Y-82411081D01*
X123457165Y-82541350D01*
X123457170Y-82541354D01*
X123461696Y-82545281D01*
X123644126Y-82650819D01*
X123843222Y-82719957D01*
X123849155Y-82720817D01*
X123849158Y-82720818D01*
X124045860Y-82749338D01*
X124045863Y-82749338D01*
X124051800Y-82750199D01*
X124262333Y-82740455D01*
X124268157Y-82739051D01*
X124268160Y-82739051D01*
X124461393Y-82692482D01*
X124461395Y-82692481D01*
X124467226Y-82691076D01*
X124472684Y-82688594D01*
X124472688Y-82688593D01*
X124611351Y-82625546D01*
X124659084Y-82603843D01*
X124814010Y-82493946D01*
X124826100Y-82485370D01*
X124826101Y-82485369D01*
X124830986Y-82481904D01*
X124959835Y-82347307D01*
X124972583Y-82333990D01*
X124976728Y-82329660D01*
X125022329Y-82259037D01*
X125087800Y-82157640D01*
X125087801Y-82157637D01*
X125091052Y-82152603D01*
X125108649Y-82108941D01*
X125167592Y-81962685D01*
X125169834Y-81957122D01*
X125199879Y-81803271D01*
X125209361Y-81754717D01*
X125209361Y-81754714D01*
X125210229Y-81750271D01*
X125210500Y-81744730D01*
X125210500Y-81339341D01*
X125195507Y-81182194D01*
X125189345Y-81161188D01*
X125137868Y-80985722D01*
X125136177Y-80979958D01*
X125085203Y-80880986D01*
X125042422Y-80797921D01*
X125042420Y-80797918D01*
X125039676Y-80792590D01*
X124970238Y-80704191D01*
X124913192Y-80631568D01*
X124913188Y-80631564D01*
X124909486Y-80626851D01*
X124896879Y-80615911D01*
X124754835Y-80492650D01*
X124754830Y-80492646D01*
X124750304Y-80488719D01*
X124567874Y-80383181D01*
X124368778Y-80314043D01*
X124362845Y-80313183D01*
X124362842Y-80313182D01*
X124166140Y-80284662D01*
X124166137Y-80284662D01*
X124160200Y-80283801D01*
X123949667Y-80293545D01*
X123943843Y-80294949D01*
X123943840Y-80294949D01*
X123750607Y-80341518D01*
X123750605Y-80341519D01*
X123744774Y-80342924D01*
X123739316Y-80345406D01*
X123739312Y-80345407D01*
X123674007Y-80375100D01*
X123552916Y-80430157D01*
X123449763Y-80503329D01*
X123394648Y-80542425D01*
X123381014Y-80552096D01*
X123235272Y-80704340D01*
X123232021Y-80709375D01*
X123126139Y-80873358D01*
X123120948Y-80881397D01*
X123042166Y-81076878D01*
X123001771Y-81283729D01*
X123001500Y-81289270D01*
X123001500Y-81694659D01*
X122710500Y-81694659D01*
X122710500Y-81339341D01*
X122695507Y-81182194D01*
X122689345Y-81161188D01*
X122637868Y-80985722D01*
X122636177Y-80979958D01*
X122585203Y-80880986D01*
X122542422Y-80797921D01*
X122542420Y-80797918D01*
X122539676Y-80792590D01*
X122470238Y-80704191D01*
X122413192Y-80631568D01*
X122413188Y-80631564D01*
X122409486Y-80626851D01*
X122396879Y-80615911D01*
X122254835Y-80492650D01*
X122254830Y-80492646D01*
X122250304Y-80488719D01*
X122067874Y-80383181D01*
X121868778Y-80314043D01*
X121862845Y-80313183D01*
X121862842Y-80313182D01*
X121666140Y-80284662D01*
X121666137Y-80284662D01*
X121660200Y-80283801D01*
X121449667Y-80293545D01*
X121443843Y-80294949D01*
X121443840Y-80294949D01*
X121250607Y-80341518D01*
X121250605Y-80341519D01*
X121244774Y-80342924D01*
X121239316Y-80345406D01*
X121239312Y-80345407D01*
X121174007Y-80375100D01*
X121052916Y-80430157D01*
X120949763Y-80503329D01*
X120894648Y-80542425D01*
X120881014Y-80552096D01*
X120735272Y-80704340D01*
X120732021Y-80709375D01*
X120626139Y-80873358D01*
X120620948Y-80881397D01*
X120542166Y-81076878D01*
X120501771Y-81283729D01*
X120501500Y-81289270D01*
X120501500Y-81694659D01*
X120210500Y-81694659D01*
X120210500Y-81339341D01*
X120195507Y-81182194D01*
X120189345Y-81161188D01*
X120137868Y-80985722D01*
X120136177Y-80979958D01*
X120085203Y-80880986D01*
X120042422Y-80797921D01*
X120042420Y-80797918D01*
X120039676Y-80792590D01*
X119970238Y-80704191D01*
X119913192Y-80631568D01*
X119913188Y-80631564D01*
X119909486Y-80626851D01*
X119896879Y-80615911D01*
X119754835Y-80492650D01*
X119754830Y-80492646D01*
X119750304Y-80488719D01*
X119567874Y-80383181D01*
X119368778Y-80314043D01*
X119362845Y-80313183D01*
X119362842Y-80313182D01*
X119166140Y-80284662D01*
X119166137Y-80284662D01*
X119160200Y-80283801D01*
X118949667Y-80293545D01*
X118943843Y-80294949D01*
X118943840Y-80294949D01*
X118750607Y-80341518D01*
X118750605Y-80341519D01*
X118744774Y-80342924D01*
X118739316Y-80345406D01*
X118739312Y-80345407D01*
X118674007Y-80375100D01*
X118552916Y-80430157D01*
X118449763Y-80503329D01*
X118394648Y-80542425D01*
X118381014Y-80552096D01*
X118235272Y-80704340D01*
X118232021Y-80709375D01*
X118126139Y-80873358D01*
X118120948Y-80881397D01*
X118042166Y-81076878D01*
X118001771Y-81283729D01*
X118001500Y-81289270D01*
X118001500Y-81694659D01*
X117710500Y-81694659D01*
X117710500Y-81339341D01*
X117695507Y-81182194D01*
X117689345Y-81161188D01*
X117637868Y-80985722D01*
X117636177Y-80979958D01*
X117585203Y-80880986D01*
X117542422Y-80797921D01*
X117542420Y-80797918D01*
X117539676Y-80792590D01*
X117470238Y-80704191D01*
X117413192Y-80631568D01*
X117413188Y-80631564D01*
X117409486Y-80626851D01*
X117396879Y-80615911D01*
X117254835Y-80492650D01*
X117254830Y-80492646D01*
X117250304Y-80488719D01*
X117067874Y-80383181D01*
X116868778Y-80314043D01*
X116862845Y-80313183D01*
X116862842Y-80313182D01*
X116666140Y-80284662D01*
X116666137Y-80284662D01*
X116660200Y-80283801D01*
X116449667Y-80293545D01*
X116443843Y-80294949D01*
X116443840Y-80294949D01*
X116250607Y-80341518D01*
X116250605Y-80341519D01*
X116244774Y-80342924D01*
X116239316Y-80345406D01*
X116239312Y-80345407D01*
X116174007Y-80375100D01*
X116052916Y-80430157D01*
X115949763Y-80503329D01*
X115894648Y-80542425D01*
X115881014Y-80552096D01*
X115735272Y-80704340D01*
X115732021Y-80709375D01*
X115626139Y-80873358D01*
X115620948Y-80881397D01*
X115618705Y-80886963D01*
X115610720Y-80906774D01*
X115566704Y-80962479D01*
X115499558Y-80985544D01*
X115430602Y-80968646D01*
X115378973Y-80911424D01*
X115299063Y-80734030D01*
X115293894Y-80724744D01*
X115171150Y-80542425D01*
X115164481Y-80534130D01*
X115012772Y-80375100D01*
X115004814Y-80368059D01*
X114828475Y-80236859D01*
X114819438Y-80231255D01*
X114623516Y-80131643D01*
X114613665Y-80127643D01*
X114403760Y-80062466D01*
X114393376Y-80060183D01*
X114377957Y-80058139D01*
X114363793Y-80060335D01*
X114360000Y-80073522D01*
X114360000Y-82958192D01*
X113852000Y-82958192D01*
X113852000Y-80075808D01*
X113848027Y-80062277D01*
X113837420Y-80060752D01*
X113719579Y-80085477D01*
X113709383Y-80088537D01*
X113504971Y-80169263D01*
X113495439Y-80173994D01*
X113307538Y-80288016D01*
X113298948Y-80294280D01*
X113132948Y-80438327D01*
X113125528Y-80445958D01*
X112986174Y-80615911D01*
X112980152Y-80624674D01*
X112932939Y-80707617D01*
X112881856Y-80756924D01*
X112812226Y-80770786D01*
X112746155Y-80744803D01*
X112704620Y-80687224D01*
X112704122Y-80685532D01*
X112703798Y-80682552D01*
X112653071Y-80547236D01*
X112647691Y-80540057D01*
X112647689Y-80540054D01*
X112571785Y-80438776D01*
X112566404Y-80431596D01*
X112499178Y-80381213D01*
X112457946Y-80350311D01*
X112457943Y-80350309D01*
X112450764Y-80344929D01*
X112359022Y-80310537D01*
X112322843Y-80296974D01*
X112322841Y-80296974D01*
X112315448Y-80294202D01*
X112307598Y-80293349D01*
X112307597Y-80293349D01*
X112257153Y-80287869D01*
X112257152Y-80287869D01*
X112253756Y-80287500D01*
X110958244Y-80287500D01*
X110954848Y-80287869D01*
X110954847Y-80287869D01*
X110904403Y-80293349D01*
X110904402Y-80293349D01*
X110896552Y-80294202D01*
X110889159Y-80296974D01*
X110889157Y-80296974D01*
X110852978Y-80310537D01*
X110761236Y-80344929D01*
X110754057Y-80350309D01*
X110754054Y-80350311D01*
X110712822Y-80381213D01*
X110645596Y-80431596D01*
X110640215Y-80438776D01*
X110564311Y-80540054D01*
X110564309Y-80540057D01*
X110558929Y-80547236D01*
X110531882Y-80619384D01*
X110511531Y-80673673D01*
X110508202Y-80682552D01*
X110501500Y-80744244D01*
X110501500Y-81748160D01*
X110481498Y-81816281D01*
X110427842Y-81862774D01*
X110357568Y-81872878D01*
X110316541Y-81859514D01*
X110290695Y-81845829D01*
X110218274Y-81807484D01*
X110064633Y-81768892D01*
X110057034Y-81768852D01*
X110057033Y-81768852D01*
X109991181Y-81768507D01*
X109906221Y-81768062D01*
X109898841Y-81769834D01*
X109898839Y-81769834D01*
X109759563Y-81803271D01*
X109759560Y-81803272D01*
X109752184Y-81805043D01*
X109611414Y-81877700D01*
X109492039Y-81981838D01*
X109400950Y-82111444D01*
X109387072Y-82147040D01*
X109346925Y-82250012D01*
X109343406Y-82259037D01*
X109342414Y-82266570D01*
X109342414Y-82266571D01*
X109323907Y-82407149D01*
X109322729Y-82416096D01*
X94121372Y-82416096D01*
X94124988Y-82390689D01*
X94130581Y-82351391D01*
X94130581Y-82351388D01*
X94131162Y-82347307D01*
X94131307Y-82333500D01*
X94129956Y-82322331D01*
X94127102Y-82298754D01*
X94112276Y-82176233D01*
X94056280Y-82028046D01*
X94028793Y-81988052D01*
X93970855Y-81903751D01*
X93970854Y-81903749D01*
X93966553Y-81897492D01*
X93955213Y-81887388D01*
X93930260Y-81865156D01*
X93848275Y-81792111D01*
X93840889Y-81788200D01*
X93754595Y-81742510D01*
X93708274Y-81717984D01*
X93554633Y-81679392D01*
X93547034Y-81679352D01*
X93547033Y-81679352D01*
X93481181Y-81679007D01*
X93396221Y-81678562D01*
X93388841Y-81680334D01*
X93388839Y-81680334D01*
X93249563Y-81713771D01*
X93249560Y-81713772D01*
X93242184Y-81715543D01*
X93101414Y-81788200D01*
X92982039Y-81892338D01*
X92890950Y-82021944D01*
X92882504Y-82043608D01*
X92857072Y-82108838D01*
X92833406Y-82169537D01*
X92832414Y-82177070D01*
X92832414Y-82177071D01*
X92813724Y-82319039D01*
X92812729Y-82326596D01*
X64623285Y-82326596D01*
X64592280Y-82244546D01*
X64567613Y-82208655D01*
X64506855Y-82120251D01*
X64506854Y-82120249D01*
X64502553Y-82113992D01*
X64492717Y-82105228D01*
X64435266Y-82054042D01*
X64384275Y-82008611D01*
X64376889Y-82004700D01*
X64297536Y-81962685D01*
X64244274Y-81934484D01*
X64090633Y-81895892D01*
X64083034Y-81895852D01*
X64083033Y-81895852D01*
X64017181Y-81895507D01*
X63932221Y-81895062D01*
X63924841Y-81896834D01*
X63924839Y-81896834D01*
X63785563Y-81930271D01*
X63785560Y-81930272D01*
X63778184Y-81932043D01*
X63637414Y-82004700D01*
X63518039Y-82108838D01*
X63426950Y-82238444D01*
X63398556Y-82311271D01*
X63376319Y-82368307D01*
X63369406Y-82386037D01*
X63368414Y-82393570D01*
X63368414Y-82393571D01*
X63352929Y-82511195D01*
X63348729Y-82543096D01*
X59455614Y-82543096D01*
X59426855Y-82501251D01*
X59426854Y-82501249D01*
X59422553Y-82494992D01*
X59411754Y-82485370D01*
X59334001Y-82416096D01*
X59304275Y-82389611D01*
X59296889Y-82385700D01*
X59206108Y-82337634D01*
X59164274Y-82315484D01*
X59010633Y-82276892D01*
X59003034Y-82276852D01*
X59003033Y-82276852D01*
X58937181Y-82276507D01*
X58852221Y-82276062D01*
X58844841Y-82277834D01*
X58844839Y-82277834D01*
X58705563Y-82311271D01*
X58705560Y-82311272D01*
X58698184Y-82313043D01*
X58557414Y-82385700D01*
X58438039Y-82489838D01*
X58346950Y-82619444D01*
X58331795Y-82658315D01*
X58296307Y-82749338D01*
X58289406Y-82767037D01*
X58288414Y-82774570D01*
X58288414Y-82774571D01*
X58270212Y-82912834D01*
X58268729Y-82924096D01*
X52994016Y-82924096D01*
X53001517Y-82838363D01*
X53001517Y-82827413D01*
X52982528Y-82610369D01*
X52980625Y-82599576D01*
X52924236Y-82389127D01*
X52920490Y-82378835D01*
X52828414Y-82181377D01*
X52822931Y-82171881D01*
X52718853Y-82023242D01*
X56916229Y-82023242D01*
X56922820Y-82082941D01*
X56932381Y-82169537D01*
X56933613Y-82180699D01*
X56936223Y-82187830D01*
X56936223Y-82187832D01*
X56984238Y-82319039D01*
X56988053Y-82329465D01*
X56992289Y-82335768D01*
X56992289Y-82335769D01*
X57046267Y-82416096D01*
X57076408Y-82460951D01*
X57082027Y-82466064D01*
X57082028Y-82466065D01*
X57187960Y-82562455D01*
X57193576Y-82567565D01*
X57332793Y-82643154D01*
X57486022Y-82683353D01*
X57569977Y-82684672D01*
X57636819Y-82685722D01*
X57636822Y-82685722D01*
X57644416Y-82685841D01*
X57798832Y-82650475D01*
X57878575Y-82610369D01*
X57933572Y-82582709D01*
X57933575Y-82582707D01*
X57940355Y-82579297D01*
X57946126Y-82574368D01*
X57946129Y-82574366D01*
X58055036Y-82481350D01*
X58055036Y-82481349D01*
X58060814Y-82476415D01*
X58153255Y-82347770D01*
X58212342Y-82200787D01*
X58224049Y-82118524D01*
X58234081Y-82048037D01*
X58234081Y-82048034D01*
X58234662Y-82043953D01*
X58234731Y-82037411D01*
X58234764Y-82034280D01*
X58234764Y-82034274D01*
X58234807Y-82030146D01*
X58233815Y-82021944D01*
X58220372Y-81910863D01*
X58215776Y-81872879D01*
X58159780Y-81724692D01*
X58138258Y-81693377D01*
X58074355Y-81600397D01*
X58074354Y-81600395D01*
X58070053Y-81594138D01*
X57951775Y-81488757D01*
X57944389Y-81484846D01*
X57848348Y-81433995D01*
X57811774Y-81414630D01*
X57658133Y-81376038D01*
X57650534Y-81375998D01*
X57650533Y-81375998D01*
X57584681Y-81375653D01*
X57499721Y-81375208D01*
X57492341Y-81376980D01*
X57492339Y-81376980D01*
X57353063Y-81410417D01*
X57353060Y-81410418D01*
X57345684Y-81412189D01*
X57204914Y-81484846D01*
X57199195Y-81489835D01*
X57197482Y-81491329D01*
X57085539Y-81588984D01*
X56994450Y-81718590D01*
X56973876Y-81771360D01*
X56940336Y-81857386D01*
X56936906Y-81866183D01*
X56935914Y-81873716D01*
X56935914Y-81873717D01*
X56917490Y-82013664D01*
X56916229Y-82023242D01*
X52718853Y-82023242D01*
X52697972Y-81993421D01*
X52690916Y-81985013D01*
X52684763Y-81978860D01*
X52650737Y-81916548D01*
X52655802Y-81845733D01*
X52674014Y-81817395D01*
X52672484Y-81816372D01*
X52721839Y-81742508D01*
X52728734Y-81732189D01*
X52743500Y-81657955D01*
X52743500Y-81153000D01*
X79196715Y-81153000D01*
X79197793Y-81161188D01*
X79214504Y-81288119D01*
X79215772Y-81297754D01*
X79271645Y-81432642D01*
X79360526Y-81548474D01*
X79367076Y-81553500D01*
X79367079Y-81553503D01*
X79469804Y-81632327D01*
X79476357Y-81637355D01*
X79611246Y-81693228D01*
X79619434Y-81694306D01*
X79683623Y-81702756D01*
X79756000Y-81712285D01*
X79764188Y-81711207D01*
X79892566Y-81694306D01*
X79900754Y-81693228D01*
X80035643Y-81637355D01*
X80042196Y-81632327D01*
X80144921Y-81553503D01*
X80144924Y-81553500D01*
X80151474Y-81548474D01*
X80240355Y-81432642D01*
X80296228Y-81297754D01*
X80297497Y-81288119D01*
X80314207Y-81161188D01*
X80315285Y-81153000D01*
X80306038Y-81082764D01*
X80297306Y-81016432D01*
X80297305Y-81016430D01*
X80296228Y-81008246D01*
X80256123Y-80911424D01*
X80243515Y-80880986D01*
X80243514Y-80880984D01*
X80240355Y-80873358D01*
X80151474Y-80757526D01*
X80144924Y-80752500D01*
X80144921Y-80752497D01*
X80042196Y-80673673D01*
X80042194Y-80673672D01*
X80035643Y-80668645D01*
X79900754Y-80612772D01*
X79756000Y-80593715D01*
X79747812Y-80594793D01*
X79619432Y-80611694D01*
X79619430Y-80611695D01*
X79611246Y-80612772D01*
X79565869Y-80631568D01*
X79483986Y-80665485D01*
X79483984Y-80665486D01*
X79476358Y-80668645D01*
X79403248Y-80724744D01*
X79382263Y-80740847D01*
X79360526Y-80757526D01*
X79271645Y-80873358D01*
X79268486Y-80880984D01*
X79268485Y-80880986D01*
X79255877Y-80911424D01*
X79215772Y-81008246D01*
X79214695Y-81016430D01*
X79214694Y-81016432D01*
X79205962Y-81082764D01*
X79196715Y-81153000D01*
X52743500Y-81153000D01*
X52743499Y-80007822D01*
X52728734Y-79933587D01*
X52716865Y-79915823D01*
X52679377Y-79859720D01*
X52672484Y-79849404D01*
X52588301Y-79793154D01*
X52514067Y-79778388D01*
X51689134Y-79778388D01*
X50863934Y-79778389D01*
X50828182Y-79785500D01*
X50801874Y-79790732D01*
X50801872Y-79790733D01*
X50789699Y-79793154D01*
X50779379Y-79800049D01*
X50779378Y-79800050D01*
X50741374Y-79825444D01*
X50705516Y-79849404D01*
X50649266Y-79933587D01*
X50634500Y-80007821D01*
X50634501Y-81657954D01*
X50640888Y-81690068D01*
X50646648Y-81719024D01*
X50649266Y-81732189D01*
X50656161Y-81742508D01*
X50656162Y-81742510D01*
X50705516Y-81816372D01*
X50702802Y-81818186D01*
X50727263Y-81862982D01*
X50722198Y-81933797D01*
X50693237Y-81978860D01*
X50687084Y-81985013D01*
X50680028Y-81993421D01*
X50555069Y-82171881D01*
X50549586Y-82181377D01*
X50457510Y-82378835D01*
X50453764Y-82389127D01*
X50397375Y-82599576D01*
X50395472Y-82610369D01*
X50376483Y-82827413D01*
X50376483Y-82838363D01*
X39109693Y-82838363D01*
X38893691Y-82571188D01*
X38371663Y-81925484D01*
X44425729Y-81925484D01*
X44428572Y-81951236D01*
X44438809Y-82043953D01*
X44443113Y-82082941D01*
X44445723Y-82090072D01*
X44445723Y-82090074D01*
X44477253Y-82176233D01*
X44497553Y-82231707D01*
X44501789Y-82238010D01*
X44501789Y-82238011D01*
X44578651Y-82352393D01*
X44585908Y-82363193D01*
X44591527Y-82368306D01*
X44591528Y-82368307D01*
X44644048Y-82416096D01*
X44703076Y-82469807D01*
X44842293Y-82545396D01*
X44995522Y-82585595D01*
X45079477Y-82586914D01*
X45146319Y-82587964D01*
X45146322Y-82587964D01*
X45153916Y-82588083D01*
X45308332Y-82552717D01*
X45413408Y-82499870D01*
X45443072Y-82484951D01*
X45443075Y-82484949D01*
X45449855Y-82481539D01*
X45455626Y-82476610D01*
X45455629Y-82476608D01*
X45564536Y-82383592D01*
X45564536Y-82383591D01*
X45570314Y-82378657D01*
X45662755Y-82250012D01*
X45721842Y-82103029D01*
X45731626Y-82034280D01*
X45743581Y-81950279D01*
X45743581Y-81950276D01*
X45744162Y-81946195D01*
X45744307Y-81932388D01*
X45740554Y-81901370D01*
X45739473Y-81892441D01*
X45725276Y-81775121D01*
X45669280Y-81626934D01*
X45634126Y-81575784D01*
X45583855Y-81502639D01*
X45583854Y-81502637D01*
X45579553Y-81496380D01*
X45566608Y-81484846D01*
X45499452Y-81425013D01*
X45461275Y-81390999D01*
X45453889Y-81387088D01*
X45363552Y-81339257D01*
X45321274Y-81316872D01*
X45167633Y-81278280D01*
X45160034Y-81278240D01*
X45160033Y-81278240D01*
X45094181Y-81277895D01*
X45009221Y-81277450D01*
X45001841Y-81279222D01*
X45001839Y-81279222D01*
X44862563Y-81312659D01*
X44862560Y-81312660D01*
X44855184Y-81314431D01*
X44714414Y-81387088D01*
X44595039Y-81491226D01*
X44503950Y-81620832D01*
X44480751Y-81680334D01*
X44451137Y-81756291D01*
X44446406Y-81768425D01*
X44445414Y-81775958D01*
X44445414Y-81775959D01*
X44427267Y-81913805D01*
X44425729Y-81925484D01*
X38371663Y-81925484D01*
X38362221Y-81913805D01*
X38360455Y-81911569D01*
X37415598Y-80687224D01*
X37385508Y-80648234D01*
X37373346Y-80628549D01*
X37372394Y-80627285D01*
X37367000Y-80616108D01*
X37357739Y-80607845D01*
X37357736Y-80607841D01*
X37336979Y-80589320D01*
X37326786Y-80578923D01*
X37321084Y-80568785D01*
X37311326Y-80561120D01*
X37305699Y-80554556D01*
X37298351Y-80545111D01*
X37268921Y-80503329D01*
X37229893Y-80447919D01*
X37218047Y-80427165D01*
X37216639Y-80424042D01*
X37160577Y-80299741D01*
X37152863Y-80277129D01*
X37120483Y-80141132D01*
X37118942Y-80130096D01*
X40996729Y-80130096D01*
X41001576Y-80173994D01*
X41012487Y-80272822D01*
X41014113Y-80287553D01*
X41016723Y-80294684D01*
X41016723Y-80294686D01*
X41065391Y-80427677D01*
X41068553Y-80436319D01*
X41072789Y-80442622D01*
X41072789Y-80442623D01*
X41149260Y-80556423D01*
X41156908Y-80567805D01*
X41162527Y-80572918D01*
X41162528Y-80572919D01*
X41264487Y-80665694D01*
X41274076Y-80674419D01*
X41413293Y-80750008D01*
X41566522Y-80790207D01*
X41650477Y-80791526D01*
X41717319Y-80792576D01*
X41717322Y-80792576D01*
X41724916Y-80792695D01*
X41879332Y-80757329D01*
X41974679Y-80709375D01*
X42014072Y-80689563D01*
X42014075Y-80689561D01*
X42020855Y-80686151D01*
X42026626Y-80681222D01*
X42026629Y-80681220D01*
X42135536Y-80588204D01*
X42135536Y-80588203D01*
X42141314Y-80583269D01*
X42233755Y-80454624D01*
X42292842Y-80307641D01*
X42309780Y-80188623D01*
X42314581Y-80154891D01*
X42314581Y-80154888D01*
X42315162Y-80150807D01*
X42315307Y-80137000D01*
X42296276Y-79979733D01*
X42240280Y-79831546D01*
X42220397Y-79802616D01*
X42154855Y-79707251D01*
X42154854Y-79707249D01*
X42150553Y-79700992D01*
X42032275Y-79595611D01*
X42024889Y-79591700D01*
X41898988Y-79525039D01*
X41898989Y-79525039D01*
X41892274Y-79521484D01*
X41738633Y-79482892D01*
X41731034Y-79482852D01*
X41731033Y-79482852D01*
X41665181Y-79482507D01*
X41580221Y-79482062D01*
X41572841Y-79483834D01*
X41572839Y-79483834D01*
X41433563Y-79517271D01*
X41433560Y-79517272D01*
X41426184Y-79519043D01*
X41285414Y-79591700D01*
X41166039Y-79695838D01*
X41074950Y-79825444D01*
X41061371Y-79860272D01*
X41031700Y-79936376D01*
X41017406Y-79973037D01*
X41016414Y-79980570D01*
X41016414Y-79980571D01*
X40998392Y-80117467D01*
X40996729Y-80130096D01*
X37118942Y-80130096D01*
X37117178Y-80117467D01*
X37111058Y-79977814D01*
X37112280Y-79953948D01*
X37129207Y-79838956D01*
X37132639Y-79815641D01*
X37138346Y-79792437D01*
X37184450Y-79660470D01*
X37194435Y-79638760D01*
X37205120Y-79620359D01*
X37264631Y-79517867D01*
X37278532Y-79498438D01*
X37370295Y-79392969D01*
X37387616Y-79376513D01*
X37497630Y-79290275D01*
X37517752Y-79277381D01*
X37642077Y-79213463D01*
X37664271Y-79204601D01*
X37798424Y-79165308D01*
X37821892Y-79160796D01*
X37940226Y-79149523D01*
X37952175Y-79148955D01*
X37960829Y-79148955D01*
X37973000Y-79151376D01*
X37985875Y-79148815D01*
X38010429Y-79146395D01*
X63305437Y-79143113D01*
X82683939Y-79140598D01*
X82752062Y-79160591D01*
X82798562Y-79214241D01*
X82808675Y-79284513D01*
X82779190Y-79349098D01*
X82713366Y-79389117D01*
X82708567Y-79390269D01*
X82708563Y-79390270D01*
X82701184Y-79392042D01*
X82560414Y-79464699D01*
X82554695Y-79469688D01*
X82551709Y-79472293D01*
X82441039Y-79568837D01*
X82349950Y-79698443D01*
X82331684Y-79745294D01*
X82304256Y-79815643D01*
X82292406Y-79846036D01*
X82291414Y-79853569D01*
X82291414Y-79853570D01*
X82274805Y-79979733D01*
X82271729Y-80003095D01*
X82279757Y-80075808D01*
X82287582Y-80146682D01*
X82289113Y-80160552D01*
X82291723Y-80167683D01*
X82291723Y-80167685D01*
X82339036Y-80296974D01*
X82343553Y-80309318D01*
X82347789Y-80315621D01*
X82347789Y-80315622D01*
X82426298Y-80432455D01*
X82431908Y-80440804D01*
X82437527Y-80445917D01*
X82437528Y-80445918D01*
X82539359Y-80538576D01*
X82549076Y-80547418D01*
X82688293Y-80623007D01*
X82841522Y-80663206D01*
X82925477Y-80664525D01*
X82992319Y-80665575D01*
X82992322Y-80665575D01*
X82999916Y-80665694D01*
X83154332Y-80630328D01*
X83227130Y-80593715D01*
X83289072Y-80562562D01*
X83289075Y-80562560D01*
X83295855Y-80559150D01*
X83301626Y-80554221D01*
X83301629Y-80554219D01*
X83410536Y-80461203D01*
X83410536Y-80461202D01*
X83416314Y-80456268D01*
X83508755Y-80327623D01*
X83567842Y-80180640D01*
X83576833Y-80117467D01*
X83589581Y-80027890D01*
X83589581Y-80027887D01*
X83590162Y-80023806D01*
X83590307Y-80009999D01*
X83586645Y-79979733D01*
X83580234Y-79926760D01*
X83571276Y-79852732D01*
X83515280Y-79704545D01*
X83473060Y-79643114D01*
X83429855Y-79580250D01*
X83429854Y-79580248D01*
X83425553Y-79573991D01*
X83307275Y-79468610D01*
X83299889Y-79464699D01*
X83173988Y-79398038D01*
X83173989Y-79398038D01*
X83167274Y-79394483D01*
X83159911Y-79392634D01*
X83159907Y-79392632D01*
X83144403Y-79388738D01*
X83083207Y-79352743D01*
X83051186Y-79289378D01*
X83058506Y-79218760D01*
X83102844Y-79163310D01*
X83175082Y-79140534D01*
X87318653Y-79139996D01*
X125890661Y-79134990D01*
X125958783Y-79154983D01*
X126005283Y-79208633D01*
X126015396Y-79278905D01*
X125985911Y-79343490D01*
X125973506Y-79355939D01*
X125967502Y-79361177D01*
X125875039Y-79441838D01*
X125783950Y-79571444D01*
X125757705Y-79638760D01*
X125729287Y-79711648D01*
X125726406Y-79719037D01*
X125725414Y-79726570D01*
X125725414Y-79726571D01*
X125707169Y-79865159D01*
X125705729Y-79876096D01*
X125714324Y-79953948D01*
X125722037Y-80023806D01*
X125723113Y-80033553D01*
X125725723Y-80040684D01*
X125725723Y-80040686D01*
X125774507Y-80173994D01*
X125777553Y-80182319D01*
X125781789Y-80188622D01*
X125781789Y-80188623D01*
X125856709Y-80300115D01*
X125865908Y-80313805D01*
X125871527Y-80318918D01*
X125871528Y-80318919D01*
X125900113Y-80344929D01*
X125983076Y-80420419D01*
X126122293Y-80496008D01*
X126275522Y-80536207D01*
X126359477Y-80537526D01*
X126426319Y-80538576D01*
X126426322Y-80538576D01*
X126433916Y-80538695D01*
X126588332Y-80503329D01*
X126672896Y-80460798D01*
X126723072Y-80435563D01*
X126723075Y-80435561D01*
X126729855Y-80432151D01*
X126735626Y-80427222D01*
X126735629Y-80427220D01*
X126844536Y-80334204D01*
X126844536Y-80334203D01*
X126850314Y-80329269D01*
X126942755Y-80200624D01*
X127001842Y-80053641D01*
X127009036Y-80003095D01*
X127023581Y-79900891D01*
X127023581Y-79900888D01*
X127024162Y-79896807D01*
X127024307Y-79883000D01*
X127005276Y-79725733D01*
X126949280Y-79577546D01*
X126894134Y-79497308D01*
X126863855Y-79453251D01*
X126863854Y-79453249D01*
X126859553Y-79446992D01*
X126824627Y-79415874D01*
X126756240Y-79354944D01*
X126718684Y-79294693D01*
X126719664Y-79223704D01*
X126758869Y-79164513D01*
X126823850Y-79135914D01*
X126840041Y-79134867D01*
X126969424Y-79134850D01*
X127368995Y-79134799D01*
X127437118Y-79154792D01*
X127483618Y-79208442D01*
X127493731Y-79278715D01*
X127473775Y-79330802D01*
X127431961Y-79393379D01*
X127431960Y-79393381D01*
X127425066Y-79403699D01*
X127410300Y-79477933D01*
X127410301Y-81528066D01*
X127413057Y-81541923D01*
X127422438Y-81589087D01*
X127425066Y-81602301D01*
X127431961Y-81612620D01*
X127431962Y-81612622D01*
X127462253Y-81657954D01*
X127481316Y-81686484D01*
X127565499Y-81742734D01*
X127639733Y-81757500D01*
X128664634Y-81757500D01*
X129689866Y-81757499D01*
X129726207Y-81750271D01*
X129751926Y-81745156D01*
X129751928Y-81745155D01*
X129764101Y-81742734D01*
X129774421Y-81735839D01*
X129774422Y-81735838D01*
X129837968Y-81693377D01*
X129848284Y-81686484D01*
X129904534Y-81602301D01*
X129919300Y-81528067D01*
X129919300Y-81502116D01*
X129939302Y-81433995D01*
X129992958Y-81387502D01*
X130063232Y-81377398D01*
X130127812Y-81406892D01*
X130140531Y-81419612D01*
X130218755Y-81509916D01*
X130315371Y-81590128D01*
X130368260Y-81634037D01*
X130396451Y-81657442D01*
X130400903Y-81660044D01*
X130400908Y-81660047D01*
X130574259Y-81761345D01*
X130595856Y-81773965D01*
X130811614Y-81856355D01*
X130816680Y-81857386D01*
X130816681Y-81857386D01*
X130859920Y-81866183D01*
X131037932Y-81902400D01*
X131168123Y-81907174D01*
X131263567Y-81910674D01*
X131263571Y-81910674D01*
X131268731Y-81910863D01*
X131273851Y-81910207D01*
X131273853Y-81910207D01*
X131344888Y-81901107D01*
X131497813Y-81881517D01*
X131502761Y-81880032D01*
X131502768Y-81880031D01*
X131714076Y-81816635D01*
X131714075Y-81816635D01*
X131719026Y-81815150D01*
X131926429Y-81713544D01*
X131930634Y-81710544D01*
X131930640Y-81710541D01*
X132110249Y-81582427D01*
X132110251Y-81582425D01*
X132114453Y-81579428D01*
X132278047Y-81416404D01*
X132292672Y-81396052D01*
X132409800Y-81233050D01*
X132412818Y-81228850D01*
X132515147Y-81021803D01*
X132533171Y-80962479D01*
X132580782Y-80805775D01*
X132580783Y-80805769D01*
X132582286Y-80800823D01*
X132599025Y-80673673D01*
X132611994Y-80575167D01*
X132611994Y-80575161D01*
X132612431Y-80571845D01*
X132613208Y-80540054D01*
X132614032Y-80506364D01*
X132614032Y-80506360D01*
X132614114Y-80503000D01*
X132595190Y-80272822D01*
X132538926Y-80048826D01*
X132446833Y-79837028D01*
X132379711Y-79733273D01*
X132324193Y-79647454D01*
X132324191Y-79647451D01*
X132321385Y-79643114D01*
X132165950Y-79472293D01*
X132161896Y-79469091D01*
X132161895Y-79469090D01*
X132022580Y-79359066D01*
X131981517Y-79301149D01*
X131978285Y-79230226D01*
X132013910Y-79168814D01*
X132077082Y-79136412D01*
X132100656Y-79134184D01*
X133075537Y-79134058D01*
X137931894Y-79133428D01*
X138000017Y-79153421D01*
X138046517Y-79207071D01*
X138056630Y-79277344D01*
X138027145Y-79341928D01*
X138007565Y-79360186D01*
X137965137Y-79392042D01*
X137898678Y-79441941D01*
X137889119Y-79449118D01*
X137839581Y-79500957D01*
X137752865Y-79591700D01*
X137729557Y-79616090D01*
X137599409Y-79806881D01*
X137597235Y-79811565D01*
X137597233Y-79811568D01*
X137504825Y-80010645D01*
X137502169Y-80016366D01*
X137440449Y-80238921D01*
X137415907Y-80468567D01*
X137416204Y-80473720D01*
X137416204Y-80473723D01*
X137425305Y-80631568D01*
X137429201Y-80699139D01*
X137430338Y-80704185D01*
X137430339Y-80704191D01*
X137449199Y-80787875D01*
X137479976Y-80924442D01*
X137566866Y-81138428D01*
X137687540Y-81335349D01*
X137690924Y-81339255D01*
X137690925Y-81339257D01*
X137722067Y-81375208D01*
X137838755Y-81509916D01*
X137935371Y-81590128D01*
X137988260Y-81634037D01*
X138016451Y-81657442D01*
X138020903Y-81660044D01*
X138020908Y-81660047D01*
X138194259Y-81761345D01*
X138215856Y-81773965D01*
X138431614Y-81856355D01*
X138436680Y-81857386D01*
X138436681Y-81857386D01*
X138479920Y-81866183D01*
X138657932Y-81902400D01*
X138788123Y-81907174D01*
X138883567Y-81910674D01*
X138883571Y-81910674D01*
X138888731Y-81910863D01*
X138893851Y-81910207D01*
X138893853Y-81910207D01*
X138964888Y-81901107D01*
X139117813Y-81881517D01*
X139122761Y-81880032D01*
X139122768Y-81880031D01*
X139334076Y-81816635D01*
X139334075Y-81816635D01*
X139339026Y-81815150D01*
X139546429Y-81713544D01*
X139550634Y-81710544D01*
X139550640Y-81710541D01*
X139730249Y-81582427D01*
X139730251Y-81582425D01*
X139734453Y-81579428D01*
X139898047Y-81416404D01*
X139912672Y-81396052D01*
X140029800Y-81233050D01*
X140032818Y-81228850D01*
X140135147Y-81021803D01*
X140153171Y-80962479D01*
X140200782Y-80805775D01*
X140200783Y-80805769D01*
X140202286Y-80800823D01*
X140219025Y-80673673D01*
X140231994Y-80575167D01*
X140231994Y-80575161D01*
X140232431Y-80571845D01*
X140233208Y-80540054D01*
X140234032Y-80506364D01*
X140234032Y-80506360D01*
X140234114Y-80503000D01*
X140215190Y-80272822D01*
X140158926Y-80048826D01*
X140066833Y-79837028D01*
X139999711Y-79733273D01*
X139944193Y-79647454D01*
X139944191Y-79647451D01*
X139941385Y-79643114D01*
X139785950Y-79472293D01*
X139781896Y-79469091D01*
X139781895Y-79469090D01*
X139641328Y-79358077D01*
X139600265Y-79300160D01*
X139597033Y-79229237D01*
X139632658Y-79167825D01*
X139695830Y-79135423D01*
X139719400Y-79133195D01*
X145553213Y-79132438D01*
X145621335Y-79152431D01*
X145667835Y-79206081D01*
X145677948Y-79276353D01*
X145648463Y-79340938D01*
X145628881Y-79359198D01*
X145518678Y-79441941D01*
X145509119Y-79449118D01*
X145459581Y-79500957D01*
X145372865Y-79591700D01*
X145349557Y-79616090D01*
X145219409Y-79806881D01*
X145217235Y-79811565D01*
X145217233Y-79811568D01*
X145124825Y-80010645D01*
X145122169Y-80016366D01*
X145060449Y-80238921D01*
X145035907Y-80468567D01*
X145036204Y-80473720D01*
X145036204Y-80473723D01*
X145045305Y-80631568D01*
X145049201Y-80699139D01*
X145050338Y-80704185D01*
X145050339Y-80704191D01*
X145069199Y-80787875D01*
X145099976Y-80924442D01*
X145186866Y-81138428D01*
X145307540Y-81335349D01*
X145310924Y-81339255D01*
X145310925Y-81339257D01*
X145342067Y-81375208D01*
X145458755Y-81509916D01*
X145555371Y-81590128D01*
X145608260Y-81634037D01*
X145636451Y-81657442D01*
X145640903Y-81660044D01*
X145640908Y-81660047D01*
X145814259Y-81761345D01*
X145835856Y-81773965D01*
X146051614Y-81856355D01*
X146056680Y-81857386D01*
X146056681Y-81857386D01*
X146099920Y-81866183D01*
X146277932Y-81902400D01*
X146408123Y-81907174D01*
X146503567Y-81910674D01*
X146503571Y-81910674D01*
X146508731Y-81910863D01*
X146513851Y-81910207D01*
X146513853Y-81910207D01*
X146584888Y-81901107D01*
X146737813Y-81881517D01*
X146742761Y-81880032D01*
X146742768Y-81880031D01*
X146954076Y-81816635D01*
X146954075Y-81816635D01*
X146959026Y-81815150D01*
X147166429Y-81713544D01*
X147170634Y-81710544D01*
X147170640Y-81710541D01*
X147350249Y-81582427D01*
X147350251Y-81582425D01*
X147354453Y-81579428D01*
X147518047Y-81416404D01*
X147532672Y-81396052D01*
X147649800Y-81233050D01*
X147652818Y-81228850D01*
X147755147Y-81021803D01*
X147773171Y-80962479D01*
X147820782Y-80805775D01*
X147820783Y-80805769D01*
X147822286Y-80800823D01*
X147839025Y-80673673D01*
X147851994Y-80575167D01*
X147851994Y-80575161D01*
X147852431Y-80571845D01*
X147853208Y-80540054D01*
X147854032Y-80506364D01*
X147854032Y-80506360D01*
X147854114Y-80503000D01*
X147835190Y-80272822D01*
X147778926Y-80048826D01*
X147686833Y-79837028D01*
X147619711Y-79733273D01*
X147564193Y-79647454D01*
X147564191Y-79647451D01*
X147561385Y-79643114D01*
X147405950Y-79472293D01*
X147260076Y-79357088D01*
X147219013Y-79299172D01*
X147215781Y-79228249D01*
X147251406Y-79166837D01*
X147314577Y-79134435D01*
X147338152Y-79132207D01*
X152189410Y-79131578D01*
X152199086Y-79131949D01*
G37*
G04 #@! TD.AperFunction*
M02*
