G04 #@! TF.GenerationSoftware,KiCad,Pcbnew,(6.0.1)*
G04 #@! TF.CreationDate,2022-03-20T15:01:40+01:00*
G04 #@! TF.ProjectId,ControlPanelESP,436f6e74-726f-46c5-9061-6e656c455350,rev?*
G04 #@! TF.SameCoordinates,Original*
G04 #@! TF.FileFunction,Soldermask,Top*
G04 #@! TF.FilePolarity,Negative*
%FSLAX46Y46*%
G04 Gerber Fmt 4.6, Leading zero omitted, Abs format (unit mm)*
G04 Created by KiCad (PCBNEW (6.0.1)) date 2022-03-20 15:01:40*
%MOMM*%
%LPD*%
G01*
G04 APERTURE LIST*
G04 Aperture macros list*
%AMRoundRect*
0 Rectangle with rounded corners*
0 $1 Rounding radius*
0 $2 $3 $4 $5 $6 $7 $8 $9 X,Y pos of 4 corners*
0 Add a 4 corners polygon primitive as box body*
4,1,4,$2,$3,$4,$5,$6,$7,$8,$9,$2,$3,0*
0 Add four circle primitives for the rounded corners*
1,1,$1+$1,$2,$3*
1,1,$1+$1,$4,$5*
1,1,$1+$1,$6,$7*
1,1,$1+$1,$8,$9*
0 Add four rect primitives between the rounded corners*
20,1,$1+$1,$2,$3,$4,$5,0*
20,1,$1+$1,$4,$5,$6,$7,0*
20,1,$1+$1,$6,$7,$8,$9,0*
20,1,$1+$1,$8,$9,$2,$3,0*%
G04 Aperture macros list end*
%ADD10RoundRect,0.150000X0.150000X-0.587500X0.150000X0.587500X-0.150000X0.587500X-0.150000X-0.587500X0*%
%ADD11RoundRect,0.250000X-0.337500X-0.475000X0.337500X-0.475000X0.337500X0.475000X-0.337500X0.475000X0*%
%ADD12RoundRect,0.250000X-0.600000X-0.725000X0.600000X-0.725000X0.600000X0.725000X-0.600000X0.725000X0*%
%ADD13O,1.700000X1.950000*%
%ADD14C,2.300000*%
%ADD15R,2.000000X2.000000*%
%ADD16RoundRect,0.250000X-0.350000X-0.450000X0.350000X-0.450000X0.350000X0.450000X-0.350000X0.450000X0*%
%ADD17RoundRect,0.250000X0.450000X-0.350000X0.450000X0.350000X-0.450000X0.350000X-0.450000X-0.350000X0*%
%ADD18R,1.550000X1.300000*%
%ADD19C,3.800000*%
%ADD20RoundRect,0.250000X-0.600000X-0.750000X0.600000X-0.750000X0.600000X0.750000X-0.600000X0.750000X0*%
%ADD21O,1.700000X2.000000*%
%ADD22RoundRect,0.250000X-0.475000X0.337500X-0.475000X-0.337500X0.475000X-0.337500X0.475000X0.337500X0*%
%ADD23RoundRect,0.150000X-0.587500X-0.150000X0.587500X-0.150000X0.587500X0.150000X-0.587500X0.150000X0*%
%ADD24RoundRect,0.250000X0.325000X0.450000X-0.325000X0.450000X-0.325000X-0.450000X0.325000X-0.450000X0*%
%ADD25R,0.900000X2.000000*%
%ADD26R,2.000000X0.900000*%
%ADD27R,5.000000X5.000000*%
%ADD28RoundRect,0.250000X0.337500X0.475000X-0.337500X0.475000X-0.337500X-0.475000X0.337500X-0.475000X0*%
%ADD29R,1.600000X1.600000*%
%ADD30C,1.600000*%
%ADD31O,1.600000X1.600000*%
%ADD32R,1.500000X2.000000*%
%ADD33R,3.800000X2.000000*%
%ADD34RoundRect,0.250000X0.350000X0.450000X-0.350000X0.450000X-0.350000X-0.450000X0.350000X-0.450000X0*%
G04 APERTURE END LIST*
D10*
X111064000Y-88440500D03*
X112964000Y-88440500D03*
X112014000Y-86565500D03*
X115509000Y-99235500D03*
X117409000Y-99235500D03*
X116459000Y-97360500D03*
D11*
X84793000Y-80010000D03*
X86868000Y-80010000D03*
D12*
X111606000Y-81517000D03*
D13*
X114106000Y-81517000D03*
X116606000Y-81517000D03*
X119106000Y-81517000D03*
X121606000Y-81517000D03*
X124106000Y-81517000D03*
D14*
X138824800Y-80503000D03*
D15*
X128664800Y-80503000D03*
D14*
X131204800Y-80503000D03*
X146444800Y-80503000D03*
D16*
X76867000Y-88900000D03*
X78867000Y-88900000D03*
D10*
X115509000Y-95298500D03*
X117409000Y-95298500D03*
X116459000Y-93423500D03*
D17*
X80772000Y-81883000D03*
X80772000Y-79883000D03*
D16*
X115189000Y-104775000D03*
X117189000Y-104775000D03*
X119142000Y-103251000D03*
X121142000Y-103251000D03*
D18*
X107353000Y-80300000D03*
X99403000Y-80300000D03*
X99403000Y-84800000D03*
X107353000Y-84800000D03*
D16*
X84852000Y-84582000D03*
X86852000Y-84582000D03*
D18*
X96939000Y-80300000D03*
X88989000Y-80300000D03*
X96939000Y-84800000D03*
X88989000Y-84800000D03*
D19*
X75819000Y-103251000D03*
D20*
X116860000Y-88375000D03*
D21*
X119360000Y-88375000D03*
D20*
X127294000Y-95250000D03*
D21*
X129794000Y-95250000D03*
D19*
X135255000Y-94488000D03*
D22*
X78740000Y-79861500D03*
X78740000Y-81936500D03*
D23*
X76708000Y-91826000D03*
X76708000Y-93726000D03*
X78583000Y-92776000D03*
D22*
X40513000Y-80010000D03*
X40513000Y-82085000D03*
D24*
X69088000Y-100711000D03*
X67038000Y-100711000D03*
D16*
X111014000Y-104521000D03*
X113014000Y-104521000D03*
D25*
X73540000Y-80130000D03*
X72270000Y-80130000D03*
X71000000Y-80130000D03*
X69730000Y-80130000D03*
X68460000Y-80130000D03*
X67190000Y-80130000D03*
X65920000Y-80130000D03*
X64650000Y-80130000D03*
X63380000Y-80130000D03*
X62110000Y-80130000D03*
X60840000Y-80130000D03*
X59570000Y-80130000D03*
X58300000Y-80130000D03*
X57030000Y-80130000D03*
D26*
X56030000Y-82915000D03*
X56030000Y-84185000D03*
X56030000Y-85455000D03*
X56030000Y-86725000D03*
X56030000Y-87995000D03*
X56030000Y-89265000D03*
X56030000Y-90535000D03*
X56030000Y-91805000D03*
X56030000Y-93075000D03*
X56030000Y-94345000D03*
D25*
X57030000Y-97130000D03*
X58300000Y-97130000D03*
X59570000Y-97130000D03*
X60840000Y-97130000D03*
X62110000Y-97130000D03*
X63380000Y-97130000D03*
X64650000Y-97130000D03*
X65920000Y-97130000D03*
X67190000Y-97130000D03*
X68460000Y-97130000D03*
X69730000Y-97130000D03*
X71000000Y-97130000D03*
X72270000Y-97130000D03*
X73540000Y-97130000D03*
D27*
X66040000Y-87630000D03*
D16*
X125222000Y-100330000D03*
X127222000Y-100330000D03*
D12*
X125556000Y-88392000D03*
D13*
X128056000Y-88392000D03*
X130556000Y-88392000D03*
D28*
X78867000Y-86868000D03*
X76792000Y-86868000D03*
D16*
X111014000Y-102489000D03*
X113014000Y-102489000D03*
D29*
X51689000Y-88392000D03*
D30*
X51689000Y-86392000D03*
D29*
X119883000Y-101082000D03*
D31*
X122423000Y-101082000D03*
X122423000Y-93462000D03*
X119883000Y-93462000D03*
D29*
X51689000Y-80832888D03*
D30*
X51689000Y-82832888D03*
D20*
X136652000Y-88392000D03*
D21*
X139152000Y-88392000D03*
D10*
X111064000Y-92426000D03*
X112964000Y-92426000D03*
X112014000Y-90551000D03*
D22*
X76708000Y-79861500D03*
X76708000Y-81936500D03*
D19*
X144272000Y-87122000D03*
X52451000Y-92710000D03*
D28*
X48133000Y-88392000D03*
X46058000Y-88392000D03*
D11*
X84814500Y-82042000D03*
X86889500Y-82042000D03*
D16*
X115332000Y-101346000D03*
X117332000Y-101346000D03*
D32*
X47385000Y-80035000D03*
X45085000Y-80035000D03*
D33*
X45085000Y-86335000D03*
D32*
X42785000Y-80035000D03*
D34*
X49784000Y-90805000D03*
X47784000Y-90805000D03*
X82391000Y-84582000D03*
X80391000Y-84582000D03*
M02*
