M48
; DRILL file {KiCad (6.0.1)} date Sun Mar 20 15:01:41 2022
; FORMAT={-:-/ absolute / metric / decimal}
; #@! TF.CreationDate,2022-03-20T15:01:41+01:00
; #@! TF.GenerationSoftware,Kicad,Pcbnew,(6.0.1)
; #@! TF.FileFunction,Plated,1,4,PTH
FMAT,2
METRIC
; #@! TA.AperFunction,Plated,PTH,ViaDrill
T1C0.300
; #@! TA.AperFunction,Plated,PTH,ViaDrill
T2C0.400
; #@! TA.AperFunction,Plated,PTH,ComponentDrill
T3C0.800
; #@! TA.AperFunction,Plated,PTH,ComponentDrill
T4C0.950
; #@! TA.AperFunction,Plated,PTH,ComponentDrill
T5C1.000
; #@! TA.AperFunction,Plated,PTH,ComponentDrill
T6C1.200
; #@! TA.AperFunction,Plated,PTH,ComponentDrill
T7C1.400
; #@! TA.AperFunction,Plated,PTH,ComponentDrill
T8C2.200
%
G90
G05
T1
X79.756Y-81.153
T2
X39.116Y-81.915
X41.656Y-80.137
X41.91Y-81.915
X44.704Y-88.265
X45.085Y-81.932
X45.085Y-83.566
X46.609Y-89.662
X48.768Y-89.789
X57.575Y-82.03
X58.04Y-94.87
X58.928Y-82.931
X64.008Y-82.55
X65.659Y-100.33
X66.04Y-87.63
X66.802Y-94.615
X68.707Y-95.377
X69.85Y-83.82
X69.85Y-95.25
X73.533Y-81.534
X73.897Y-85.254
X74.803Y-84.682
X75.184Y-79.502
X76.708Y-84.682
X77.851Y-91.059
X78.74Y-91.567
X78.867Y-84.836
X79.248Y-90.424
X82.931Y-80.01
X83.693Y-84.682
X86.047Y-85.115
X87.9Y-81.461
X91.059Y-84.963
X93.472Y-82.334
X98.298Y-83.947
X109.347Y-85.09
X109.982Y-82.423
X111.252Y-90.297
X112.141Y-105.791
X112.776Y-101.189
X113.03Y-91.186
X113.538Y-106.515
X114.046Y-88.138
X114.046Y-94.107
X114.137Y-101.884
X114.808Y-103.124
X115.443Y-93.599
X115.559Y-96.774
X115.559Y-97.774
X116.078Y-100.711
X116.84Y-103.505
X117.317Y-92.453
X117.729Y-102.87
X117.856Y-97.028
X120.223Y-91.114
X123.825Y-84.582
X126.365Y-79.883
X126.492Y-101.219
X129.032Y-98.679
T3
X51.689Y-80.833
X51.689Y-82.833
X51.689Y-86.392
X51.689Y-88.392
X119.883Y-93.462
X119.883Y-101.082
X122.423Y-93.462
X122.423Y-101.082
T4
X111.606Y-81.517
X114.106Y-81.517
X116.606Y-81.517
X119.106Y-81.517
X121.606Y-81.517
X124.106Y-81.517
X125.556Y-88.392
X128.056Y-88.392
X130.556Y-88.392
T5
X116.86Y-88.375
X119.36Y-88.375
X127.294Y-95.25
X129.794Y-95.25
X136.652Y-88.392
X139.152Y-88.392
T6
X128.665Y-80.503
X131.205Y-80.503
T7
X138.825Y-80.503
X146.445Y-80.503
T8
X52.451Y-92.71
X75.819Y-103.251
X135.255Y-94.488
X144.272Y-87.122
T0
M30
