G04 #@! TF.GenerationSoftware,KiCad,Pcbnew,(6.0.1)*
G04 #@! TF.CreationDate,2022-03-20T15:01:39+01:00*
G04 #@! TF.ProjectId,ControlPanelESP,436f6e74-726f-46c5-9061-6e656c455350,rev?*
G04 #@! TF.SameCoordinates,Original*
G04 #@! TF.FileFunction,Copper,L3,Inr*
G04 #@! TF.FilePolarity,Positive*
%FSLAX46Y46*%
G04 Gerber Fmt 4.6, Leading zero omitted, Abs format (unit mm)*
G04 Created by KiCad (PCBNEW (6.0.1)) date 2022-03-20 15:01:39*
%MOMM*%
%LPD*%
G01*
G04 APERTURE LIST*
G04 Aperture macros list*
%AMRoundRect*
0 Rectangle with rounded corners*
0 $1 Rounding radius*
0 $2 $3 $4 $5 $6 $7 $8 $9 X,Y pos of 4 corners*
0 Add a 4 corners polygon primitive as box body*
4,1,4,$2,$3,$4,$5,$6,$7,$8,$9,$2,$3,0*
0 Add four circle primitives for the rounded corners*
1,1,$1+$1,$2,$3*
1,1,$1+$1,$4,$5*
1,1,$1+$1,$6,$7*
1,1,$1+$1,$8,$9*
0 Add four rect primitives between the rounded corners*
20,1,$1+$1,$2,$3,$4,$5,0*
20,1,$1+$1,$4,$5,$6,$7,0*
20,1,$1+$1,$6,$7,$8,$9,0*
20,1,$1+$1,$8,$9,$2,$3,0*%
G04 Aperture macros list end*
G04 #@! TA.AperFunction,ComponentPad*
%ADD10RoundRect,0.250000X-0.600000X-0.725000X0.600000X-0.725000X0.600000X0.725000X-0.600000X0.725000X0*%
G04 #@! TD*
G04 #@! TA.AperFunction,ComponentPad*
%ADD11O,1.700000X1.950000*%
G04 #@! TD*
G04 #@! TA.AperFunction,ComponentPad*
%ADD12C,2.300000*%
G04 #@! TD*
G04 #@! TA.AperFunction,ComponentPad*
%ADD13R,2.000000X2.000000*%
G04 #@! TD*
G04 #@! TA.AperFunction,ComponentPad*
%ADD14C,3.800000*%
G04 #@! TD*
G04 #@! TA.AperFunction,ComponentPad*
%ADD15RoundRect,0.250000X-0.600000X-0.750000X0.600000X-0.750000X0.600000X0.750000X-0.600000X0.750000X0*%
G04 #@! TD*
G04 #@! TA.AperFunction,ComponentPad*
%ADD16O,1.700000X2.000000*%
G04 #@! TD*
G04 #@! TA.AperFunction,ComponentPad*
%ADD17R,1.600000X1.600000*%
G04 #@! TD*
G04 #@! TA.AperFunction,ComponentPad*
%ADD18C,1.600000*%
G04 #@! TD*
G04 #@! TA.AperFunction,ComponentPad*
%ADD19O,1.600000X1.600000*%
G04 #@! TD*
G04 #@! TA.AperFunction,ViaPad*
%ADD20C,0.800000*%
G04 #@! TD*
G04 #@! TA.AperFunction,ViaPad*
%ADD21C,0.600000*%
G04 #@! TD*
G04 #@! TA.AperFunction,Conductor*
%ADD22C,0.250000*%
G04 #@! TD*
G04 #@! TA.AperFunction,Conductor*
%ADD23C,1.000000*%
G04 #@! TD*
G04 APERTURE END LIST*
D10*
X111606000Y-81517000D03*
D11*
X114106000Y-81517000D03*
X116606000Y-81517000D03*
X119106000Y-81517000D03*
X121606000Y-81517000D03*
X124106000Y-81517000D03*
D12*
X138824800Y-80503000D03*
D13*
X128664800Y-80503000D03*
D12*
X131204800Y-80503000D03*
X146444800Y-80503000D03*
D14*
X75819000Y-103251000D03*
D15*
X116860000Y-88375000D03*
D16*
X119360000Y-88375000D03*
D15*
X127294000Y-95250000D03*
D16*
X129794000Y-95250000D03*
D14*
X135255000Y-94488000D03*
D10*
X125556000Y-88392000D03*
D11*
X128056000Y-88392000D03*
X130556000Y-88392000D03*
D17*
X51689000Y-88392000D03*
D18*
X51689000Y-86392000D03*
D17*
X119883000Y-101082000D03*
D19*
X122423000Y-101082000D03*
X122423000Y-93462000D03*
X119883000Y-93462000D03*
D17*
X51689000Y-80832888D03*
D18*
X51689000Y-82832888D03*
D15*
X136652000Y-88392000D03*
D16*
X139152000Y-88392000D03*
D14*
X144272000Y-87122000D03*
X52451000Y-92710000D03*
D20*
X41656000Y-80137000D03*
X113538000Y-106515500D03*
X83693000Y-84681530D03*
X112776000Y-101189500D03*
X44704000Y-88265000D03*
X75184000Y-79502000D03*
X66802000Y-94615000D03*
X87899889Y-81460623D03*
X73533000Y-81534000D03*
X41910000Y-81915000D03*
X66040000Y-87630000D03*
X91059000Y-84963000D03*
X39116000Y-81915000D03*
X79248000Y-90424000D03*
X46609000Y-89662000D03*
X45085000Y-83566000D03*
X45085000Y-81932388D03*
D21*
X79756000Y-81153000D03*
D20*
X76708000Y-84681541D03*
X82931000Y-80009999D03*
X111252000Y-90297000D03*
X109347000Y-85090000D03*
X93472000Y-82333500D03*
X98298000Y-83947000D03*
X77851000Y-91059000D03*
X58040000Y-94870000D03*
X68707000Y-95377000D03*
X69850000Y-95250000D03*
X113030000Y-91186000D03*
X114808000Y-103124000D03*
X117316989Y-92452552D03*
X129032000Y-98679000D03*
X114046000Y-88138000D03*
X123825000Y-84582000D03*
X114046000Y-94107000D03*
X126492000Y-101219000D03*
X112141000Y-105791000D03*
X120223369Y-91113934D03*
X65659000Y-100330000D03*
X48768000Y-89789000D03*
X78740000Y-91567000D03*
X73896593Y-85254500D03*
X117856000Y-97028000D03*
X117729000Y-102870000D03*
X115443000Y-93599000D03*
X109982000Y-82423000D03*
X69850000Y-83820000D03*
X115559500Y-96774014D03*
X116840000Y-103505000D03*
X57575500Y-82030146D03*
X115559500Y-97773517D03*
X126365000Y-79883000D03*
X116078000Y-100711000D03*
X78867000Y-84836000D03*
X58928000Y-82931000D03*
X74803000Y-84681530D03*
X86047425Y-85115111D03*
X64008000Y-82550000D03*
X114137101Y-101884296D03*
D22*
X111416489Y-106091103D02*
X111416489Y-102549011D01*
X111416489Y-102549011D02*
X112776000Y-101189500D01*
X111840886Y-106515500D02*
X111416489Y-106091103D01*
X113538000Y-106515500D02*
X111840886Y-106515500D01*
D23*
X73533000Y-81534000D02*
X69850000Y-81534000D01*
X69850000Y-81534000D02*
X66040000Y-85344000D01*
X66040000Y-87630000D02*
X66040000Y-93853000D01*
X66040000Y-93853000D02*
X66802000Y-94615000D01*
X66040000Y-85344000D02*
X66040000Y-87630000D01*
X79756000Y-81153000D02*
X74848377Y-81153000D01*
X60833000Y-88392000D02*
X51689000Y-88392000D01*
X74848377Y-81153000D02*
X73959377Y-80264000D01*
X68961000Y-80264000D02*
X60833000Y-88392000D01*
X73959377Y-80264000D02*
X68961000Y-80264000D01*
D22*
X111252000Y-90297000D02*
X111252000Y-86106000D01*
X111252000Y-86106000D02*
X110617000Y-85471000D01*
X91604500Y-82333500D02*
X89281000Y-80010000D01*
X89281000Y-80010000D02*
X82931000Y-80009999D01*
X110236000Y-85090000D02*
X109347000Y-85090000D01*
X110617000Y-85471000D02*
X110236000Y-85090000D01*
X93472000Y-82333500D02*
X91604500Y-82333500D01*
X114879511Y-83243489D02*
X108263193Y-83243489D01*
X68707000Y-88772282D02*
X68707000Y-95377000D01*
X108263193Y-83243489D02*
X107792692Y-82772988D01*
X97186012Y-82772988D02*
X96451490Y-83507510D01*
X116606000Y-81517000D02*
X114879511Y-83243489D01*
X73971772Y-83507510D02*
X68707000Y-88772282D01*
X96451490Y-83507510D02*
X73971772Y-83507510D01*
X107792692Y-82772988D02*
X97186012Y-82772988D01*
X97372205Y-83222499D02*
X96637674Y-83957030D01*
X107606499Y-83222499D02*
X97372205Y-83222499D01*
X96637674Y-83957030D02*
X74157970Y-83957030D01*
X69850000Y-88265000D02*
X69850000Y-95250000D01*
X116930000Y-83693000D02*
X108077000Y-83693000D01*
X119106000Y-81517000D02*
X116930000Y-83693000D01*
X108077000Y-83693000D02*
X107606499Y-83222499D01*
X74157970Y-83957030D02*
X69850000Y-88265000D01*
X121606000Y-81517000D02*
X121606000Y-82864000D01*
X114681000Y-85598000D02*
X114046000Y-86233000D01*
X113030000Y-87249000D02*
X113030000Y-91186000D01*
X118872000Y-85598000D02*
X117602000Y-85598000D01*
X121606000Y-82864000D02*
X119507000Y-84963000D01*
X117602000Y-85598000D02*
X114681000Y-85598000D01*
X114046000Y-86233000D02*
X113030000Y-87249000D01*
X119507000Y-84963000D02*
X118872000Y-85598000D01*
X122555000Y-84582000D02*
X123825000Y-84582000D01*
X124106000Y-83031000D02*
X124106000Y-81517000D01*
X122555000Y-84582000D02*
X124106000Y-83031000D01*
X114046000Y-88138000D02*
X116078000Y-86106000D01*
X116078000Y-86106000D02*
X121031000Y-86106000D01*
X121031000Y-86106000D02*
X122555000Y-84582000D01*
X118999000Y-103378000D02*
X120904000Y-103378000D01*
X121285000Y-92175565D02*
X120223369Y-91113934D01*
X121285000Y-102997000D02*
X121285000Y-92175565D01*
X120904000Y-103378000D02*
X121285000Y-102997000D01*
X116586000Y-105791000D02*
X118999000Y-103378000D01*
X112141000Y-105791000D02*
X116586000Y-105791000D01*
X77724000Y-89916000D02*
X73896593Y-86088593D01*
X78740000Y-91567000D02*
X78575511Y-91402511D01*
X78575511Y-90758897D02*
X77732614Y-89916000D01*
X73896593Y-86088593D02*
X73896593Y-85254500D01*
X77732614Y-89916000D02*
X77724000Y-89916000D01*
X78575511Y-91402511D02*
X78575511Y-90758897D01*
X121920704Y-88392000D02*
X118491000Y-91821704D01*
X125556000Y-88392000D02*
X121920704Y-88392000D01*
X118491000Y-91821704D02*
X118491000Y-96393000D01*
X118491000Y-96393000D02*
X117856000Y-97028000D01*
X109982000Y-82423000D02*
X108078422Y-82423000D01*
X76073000Y-83058000D02*
X76072990Y-83057990D01*
X96901000Y-82296000D02*
X96139000Y-83058000D01*
X96139000Y-83058000D02*
X76073000Y-83058000D01*
X108078422Y-82423000D02*
X107951422Y-82296000D01*
X73785574Y-83057990D02*
X73023564Y-83820000D01*
X76072990Y-83057990D02*
X73785574Y-83057990D01*
X107951422Y-82296000D02*
X96901000Y-82296000D01*
X73023564Y-83820000D02*
X69850000Y-83820000D01*
X125476000Y-84201000D02*
X126365000Y-83312000D01*
X118041489Y-95316625D02*
X118041489Y-91635511D01*
X118041489Y-91635511D02*
X125476000Y-84201000D01*
X115559500Y-97773517D02*
X115584597Y-97773517D01*
X126365000Y-83312000D02*
X126365000Y-79883000D01*
X115584597Y-97773517D02*
X118041489Y-95316625D01*
X119883000Y-96025600D02*
X119883000Y-93462000D01*
X116078000Y-99830600D02*
X119883000Y-96025600D01*
X116078000Y-100711000D02*
X116078000Y-99830600D01*
X119883000Y-101082000D02*
X118833000Y-101082000D01*
X118030704Y-101884296D02*
X114137101Y-101884296D01*
X118833000Y-101082000D02*
X118030704Y-101884296D01*
G04 #@! TA.AperFunction,Conductor*
G36*
X80206107Y-79160921D02*
G01*
X80252607Y-79214571D01*
X80264000Y-79266928D01*
X80264000Y-81662000D01*
X80243998Y-81730121D01*
X80190342Y-81776614D01*
X80138000Y-81788000D01*
X74728190Y-81788000D01*
X74660069Y-81767998D01*
X74639095Y-81751095D01*
X74301282Y-81413282D01*
X74266197Y-81345525D01*
X74262969Y-81326739D01*
X74262969Y-81326738D01*
X74261729Y-81319523D01*
X74192844Y-81157632D01*
X74088563Y-81015929D01*
X73954480Y-80902018D01*
X73908172Y-80878372D01*
X73804305Y-80825334D01*
X73804300Y-80825332D01*
X73797788Y-80822007D01*
X73790682Y-80820268D01*
X73790679Y-80820267D01*
X73696553Y-80797235D01*
X73626892Y-80780189D01*
X73621290Y-80779841D01*
X73621287Y-80779841D01*
X73617725Y-80779620D01*
X73617716Y-80779620D01*
X73615786Y-80779500D01*
X69916765Y-80779500D01*
X69897815Y-80778067D01*
X69883745Y-80775926D01*
X69883741Y-80775926D01*
X69876511Y-80774826D01*
X69869220Y-80775419D01*
X69869217Y-80775419D01*
X69824152Y-80779085D01*
X69813937Y-80779500D01*
X69805947Y-80779500D01*
X69800038Y-80780189D01*
X69777887Y-80782771D01*
X69773513Y-80783204D01*
X69708451Y-80788496D01*
X69708448Y-80788497D01*
X69701153Y-80789090D01*
X69694191Y-80791345D01*
X69688323Y-80792518D01*
X69682517Y-80793890D01*
X69675246Y-80794738D01*
X69606968Y-80819522D01*
X69602846Y-80820936D01*
X69570211Y-80831509D01*
X69540745Y-80841054D01*
X69540742Y-80841055D01*
X69533779Y-80843311D01*
X69527520Y-80847109D01*
X69522073Y-80849603D01*
X69516746Y-80852271D01*
X69509866Y-80854768D01*
X69481934Y-80873081D01*
X69473864Y-80878372D01*
X69404779Y-80899000D01*
X69342000Y-80899000D01*
X61250905Y-88990095D01*
X61188593Y-89024121D01*
X61161810Y-89027000D01*
X48182263Y-89027000D01*
X48114142Y-89006998D01*
X48096800Y-88993585D01*
X48093020Y-88990095D01*
X46482000Y-87503000D01*
X43324700Y-87503000D01*
X43256579Y-87482998D01*
X43234275Y-87464746D01*
X43088575Y-87314597D01*
X43055491Y-87251780D01*
X43053000Y-87226851D01*
X43053000Y-86377206D01*
X50629501Y-86377206D01*
X50646806Y-86583278D01*
X50703807Y-86782066D01*
X50706625Y-86787548D01*
X50706626Y-86787552D01*
X50795514Y-86960509D01*
X50795517Y-86960513D01*
X50798334Y-86965995D01*
X50926786Y-87128061D01*
X50931479Y-87132055D01*
X50931480Y-87132056D01*
X51072156Y-87251780D01*
X51084271Y-87262091D01*
X51264789Y-87362980D01*
X51461466Y-87426884D01*
X51666809Y-87451370D01*
X51672944Y-87450898D01*
X51672946Y-87450898D01*
X51866856Y-87435977D01*
X51866860Y-87435976D01*
X51872998Y-87435504D01*
X52072178Y-87379892D01*
X52077682Y-87377112D01*
X52077684Y-87377111D01*
X52251262Y-87289431D01*
X52251264Y-87289430D01*
X52256763Y-87286652D01*
X52419722Y-87159334D01*
X52423748Y-87154670D01*
X52423751Y-87154667D01*
X52550819Y-87007457D01*
X52550820Y-87007455D01*
X52554848Y-87002789D01*
X52656995Y-86822979D01*
X52689633Y-86724866D01*
X52720325Y-86632601D01*
X52720326Y-86632598D01*
X52722270Y-86626753D01*
X52748189Y-86421586D01*
X52748602Y-86392000D01*
X52728422Y-86186189D01*
X52668651Y-85988217D01*
X52571565Y-85805625D01*
X52567674Y-85800855D01*
X52567672Y-85800851D01*
X52444758Y-85650143D01*
X52444755Y-85650140D01*
X52440863Y-85645368D01*
X52433966Y-85639662D01*
X52286271Y-85517478D01*
X52286266Y-85517475D01*
X52281522Y-85513550D01*
X52276103Y-85510620D01*
X52276100Y-85510618D01*
X52105032Y-85418122D01*
X52105027Y-85418120D01*
X52099612Y-85415192D01*
X51902063Y-85354040D01*
X51895938Y-85353396D01*
X51895937Y-85353396D01*
X51702526Y-85333068D01*
X51702524Y-85333068D01*
X51696397Y-85332424D01*
X51570229Y-85343906D01*
X51496591Y-85350607D01*
X51496590Y-85350607D01*
X51490450Y-85351166D01*
X51292066Y-85409554D01*
X51286601Y-85412411D01*
X51114261Y-85502508D01*
X51114257Y-85502511D01*
X51108801Y-85505363D01*
X50947635Y-85634943D01*
X50814708Y-85793360D01*
X50715082Y-85974578D01*
X50652553Y-86171696D01*
X50651867Y-86177813D01*
X50651866Y-86177817D01*
X50642542Y-86260942D01*
X50629501Y-86377206D01*
X43053000Y-86377206D01*
X43053000Y-82818094D01*
X50629501Y-82818094D01*
X50646806Y-83024166D01*
X50703807Y-83222954D01*
X50706625Y-83228436D01*
X50706626Y-83228440D01*
X50795514Y-83401397D01*
X50795517Y-83401401D01*
X50798334Y-83406883D01*
X50926786Y-83568949D01*
X50931479Y-83572943D01*
X50931480Y-83572944D01*
X50967023Y-83603193D01*
X51084271Y-83702979D01*
X51264789Y-83803868D01*
X51461466Y-83867772D01*
X51666809Y-83892258D01*
X51672944Y-83891786D01*
X51672946Y-83891786D01*
X51866856Y-83876865D01*
X51866860Y-83876864D01*
X51872998Y-83876392D01*
X52072178Y-83820780D01*
X52077682Y-83818000D01*
X52077684Y-83817999D01*
X52251262Y-83730319D01*
X52251264Y-83730318D01*
X52256763Y-83727540D01*
X52419722Y-83600222D01*
X52423748Y-83595558D01*
X52423751Y-83595555D01*
X52550819Y-83448345D01*
X52550820Y-83448343D01*
X52554848Y-83443677D01*
X52605921Y-83353772D01*
X52653950Y-83269228D01*
X52653952Y-83269224D01*
X52656995Y-83263867D01*
X52702137Y-83128165D01*
X52720325Y-83073489D01*
X52720326Y-83073486D01*
X52722270Y-83067641D01*
X52740404Y-82924096D01*
X58268729Y-82924096D01*
X58286113Y-83081553D01*
X58288723Y-83088684D01*
X58288723Y-83088686D01*
X58337858Y-83222954D01*
X58340553Y-83230319D01*
X58344789Y-83236622D01*
X58344789Y-83236623D01*
X58424140Y-83354709D01*
X58428908Y-83361805D01*
X58434527Y-83366918D01*
X58434528Y-83366919D01*
X58445903Y-83377269D01*
X58546076Y-83468419D01*
X58685293Y-83544008D01*
X58838522Y-83584207D01*
X58922477Y-83585526D01*
X58989319Y-83586576D01*
X58989322Y-83586576D01*
X58996916Y-83586695D01*
X59151332Y-83551329D01*
X59221742Y-83515917D01*
X59286072Y-83483563D01*
X59286075Y-83483561D01*
X59292855Y-83480151D01*
X59298626Y-83475222D01*
X59298629Y-83475220D01*
X59407536Y-83382204D01*
X59407536Y-83382203D01*
X59413314Y-83377269D01*
X59505755Y-83248624D01*
X59564842Y-83101641D01*
X59587162Y-82944807D01*
X59587307Y-82931000D01*
X59568276Y-82773733D01*
X59512280Y-82625546D01*
X59503814Y-82613228D01*
X59455614Y-82543096D01*
X63348729Y-82543096D01*
X63355752Y-82606711D01*
X63364489Y-82685841D01*
X63366113Y-82700553D01*
X63368723Y-82707684D01*
X63368723Y-82707686D01*
X63415823Y-82836393D01*
X63420553Y-82849319D01*
X63424789Y-82855622D01*
X63424789Y-82855623D01*
X63487463Y-82948891D01*
X63508908Y-82980805D01*
X63514527Y-82985918D01*
X63514528Y-82985919D01*
X63619629Y-83081553D01*
X63626076Y-83087419D01*
X63765293Y-83163008D01*
X63918522Y-83203207D01*
X64002477Y-83204526D01*
X64069319Y-83205576D01*
X64069322Y-83205576D01*
X64076916Y-83205695D01*
X64231332Y-83170329D01*
X64301742Y-83134917D01*
X64366072Y-83102563D01*
X64366075Y-83102561D01*
X64372855Y-83099151D01*
X64378626Y-83094222D01*
X64378629Y-83094220D01*
X64487536Y-83001204D01*
X64487536Y-83001203D01*
X64493314Y-82996269D01*
X64585755Y-82867624D01*
X64644842Y-82720641D01*
X64654828Y-82650475D01*
X64666581Y-82567891D01*
X64666581Y-82567888D01*
X64667162Y-82563807D01*
X64667307Y-82550000D01*
X64648276Y-82392733D01*
X64592280Y-82244546D01*
X64570759Y-82213232D01*
X64506855Y-82120251D01*
X64506854Y-82120249D01*
X64502553Y-82113992D01*
X64384275Y-82008611D01*
X64376889Y-82004700D01*
X64250988Y-81938039D01*
X64250989Y-81938039D01*
X64244274Y-81934484D01*
X64090633Y-81895892D01*
X64083034Y-81895852D01*
X64083033Y-81895852D01*
X64017181Y-81895507D01*
X63932221Y-81895062D01*
X63924841Y-81896834D01*
X63924839Y-81896834D01*
X63785563Y-81930271D01*
X63785560Y-81930272D01*
X63778184Y-81932043D01*
X63637414Y-82004700D01*
X63518039Y-82108838D01*
X63426950Y-82238444D01*
X63411960Y-82276892D01*
X63381919Y-82353944D01*
X63369406Y-82386037D01*
X63368414Y-82393570D01*
X63368414Y-82393571D01*
X63356398Y-82484846D01*
X63348729Y-82543096D01*
X59455614Y-82543096D01*
X59426855Y-82501251D01*
X59426854Y-82501249D01*
X59422553Y-82494992D01*
X59407242Y-82481350D01*
X59327233Y-82410066D01*
X59304275Y-82389611D01*
X59296889Y-82385700D01*
X59211931Y-82340717D01*
X59164274Y-82315484D01*
X59010633Y-82276892D01*
X59003034Y-82276852D01*
X59003033Y-82276852D01*
X58937181Y-82276507D01*
X58852221Y-82276062D01*
X58844841Y-82277834D01*
X58844839Y-82277834D01*
X58705563Y-82311271D01*
X58705560Y-82311272D01*
X58698184Y-82313043D01*
X58557414Y-82385700D01*
X58438039Y-82489838D01*
X58346950Y-82619444D01*
X58337706Y-82643154D01*
X58294497Y-82753980D01*
X58289406Y-82767037D01*
X58288414Y-82774570D01*
X58288414Y-82774571D01*
X58271217Y-82905199D01*
X58268729Y-82924096D01*
X52740404Y-82924096D01*
X52748189Y-82862474D01*
X52748602Y-82832888D01*
X52728422Y-82627077D01*
X52668651Y-82429105D01*
X52606940Y-82313043D01*
X52574459Y-82251955D01*
X52574457Y-82251952D01*
X52571565Y-82246513D01*
X52567674Y-82241743D01*
X52567672Y-82241739D01*
X52443932Y-82090019D01*
X52416378Y-82024587D01*
X52416613Y-82023242D01*
X56916229Y-82023242D01*
X56933613Y-82180699D01*
X56936223Y-82187830D01*
X56936223Y-82187832D01*
X56984238Y-82319039D01*
X56988053Y-82329465D01*
X56992289Y-82335768D01*
X56992289Y-82335769D01*
X57042215Y-82410066D01*
X57076408Y-82460951D01*
X57082027Y-82466064D01*
X57082028Y-82466065D01*
X57187960Y-82562455D01*
X57193576Y-82567565D01*
X57332793Y-82643154D01*
X57486022Y-82683353D01*
X57569977Y-82684672D01*
X57636819Y-82685722D01*
X57636822Y-82685722D01*
X57644416Y-82685841D01*
X57798832Y-82650475D01*
X57885848Y-82606711D01*
X57933572Y-82582709D01*
X57933575Y-82582707D01*
X57940355Y-82579297D01*
X57946126Y-82574368D01*
X57946129Y-82574366D01*
X58055036Y-82481350D01*
X58055036Y-82481349D01*
X58060814Y-82476415D01*
X58153255Y-82347770D01*
X58212342Y-82200787D01*
X58224300Y-82116766D01*
X58234081Y-82048037D01*
X58234081Y-82048034D01*
X58234662Y-82043953D01*
X58234807Y-82030146D01*
X58232332Y-82009689D01*
X58228943Y-81981688D01*
X58215776Y-81872879D01*
X58159780Y-81724692D01*
X58118085Y-81664025D01*
X58074355Y-81600397D01*
X58074354Y-81600395D01*
X58070053Y-81594138D01*
X57951775Y-81488757D01*
X57944389Y-81484846D01*
X57818488Y-81418185D01*
X57818489Y-81418185D01*
X57811774Y-81414630D01*
X57658133Y-81376038D01*
X57650534Y-81375998D01*
X57650533Y-81375998D01*
X57584681Y-81375653D01*
X57499721Y-81375208D01*
X57492341Y-81376980D01*
X57492339Y-81376980D01*
X57353063Y-81410417D01*
X57353060Y-81410418D01*
X57345684Y-81412189D01*
X57204914Y-81484846D01*
X57085539Y-81588984D01*
X56994450Y-81718590D01*
X56936906Y-81866183D01*
X56935914Y-81873716D01*
X56935914Y-81873717D01*
X56917490Y-82013664D01*
X56916229Y-82023242D01*
X52416613Y-82023242D01*
X52428574Y-81954645D01*
X52476646Y-81902400D01*
X52516995Y-81886804D01*
X52537410Y-81882744D01*
X52576126Y-81875044D01*
X52576128Y-81875043D01*
X52588301Y-81872622D01*
X52598621Y-81865727D01*
X52598622Y-81865726D01*
X52662168Y-81823265D01*
X52672484Y-81816372D01*
X52728734Y-81732189D01*
X52743500Y-81657955D01*
X52743499Y-80007822D01*
X52732636Y-79953204D01*
X52731156Y-79945762D01*
X52731155Y-79945760D01*
X52728734Y-79933587D01*
X52672484Y-79849404D01*
X52588301Y-79793154D01*
X52514067Y-79778388D01*
X51689134Y-79778388D01*
X50863934Y-79778389D01*
X50828182Y-79785500D01*
X50801874Y-79790732D01*
X50801872Y-79790733D01*
X50789699Y-79793154D01*
X50779379Y-79800049D01*
X50779378Y-79800050D01*
X50750084Y-79819624D01*
X50705516Y-79849404D01*
X50649266Y-79933587D01*
X50634500Y-80007821D01*
X50634501Y-81657954D01*
X50649266Y-81732189D01*
X50656161Y-81742508D01*
X50656162Y-81742510D01*
X50673193Y-81767998D01*
X50705516Y-81816372D01*
X50789699Y-81872622D01*
X50860997Y-81886804D01*
X50862415Y-81887086D01*
X50925325Y-81919993D01*
X50960457Y-81981688D01*
X50956657Y-82052583D01*
X50934356Y-82091656D01*
X50910362Y-82120251D01*
X50814708Y-82234248D01*
X50715082Y-82415466D01*
X50652553Y-82612584D01*
X50651867Y-82618701D01*
X50651866Y-82618705D01*
X50635228Y-82767037D01*
X50629501Y-82818094D01*
X43053000Y-82818094D01*
X43053000Y-79271725D01*
X43073002Y-79203604D01*
X43126658Y-79157111D01*
X43178984Y-79145725D01*
X74437588Y-79141668D01*
X74505711Y-79161661D01*
X74552211Y-79215311D01*
X74562324Y-79285583D01*
X74554998Y-79313434D01*
X74545406Y-79338037D01*
X74524729Y-79495096D01*
X74542113Y-79652553D01*
X74544723Y-79659684D01*
X74544723Y-79659686D01*
X74592679Y-79790732D01*
X74596553Y-79801319D01*
X74684908Y-79932805D01*
X74690527Y-79937918D01*
X74690528Y-79937919D01*
X74701903Y-79948269D01*
X74802076Y-80039419D01*
X74941293Y-80115008D01*
X75094522Y-80155207D01*
X75178477Y-80156526D01*
X75245319Y-80157576D01*
X75245322Y-80157576D01*
X75252916Y-80157695D01*
X75407332Y-80122329D01*
X75477742Y-80086917D01*
X75542072Y-80054563D01*
X75542075Y-80054561D01*
X75548855Y-80051151D01*
X75554626Y-80046222D01*
X75554629Y-80046220D01*
X75663536Y-79953204D01*
X75663536Y-79953203D01*
X75669314Y-79948269D01*
X75761755Y-79819624D01*
X75820842Y-79672641D01*
X75843162Y-79515807D01*
X75843307Y-79502000D01*
X75824276Y-79344733D01*
X75819072Y-79330961D01*
X75811912Y-79312011D01*
X75806544Y-79241218D01*
X75840302Y-79178760D01*
X75902468Y-79144469D01*
X75929761Y-79141474D01*
X80137984Y-79140928D01*
X80206107Y-79160921D01*
G37*
G04 #@! TD.AperFunction*
M02*
