G04 #@! TF.GenerationSoftware,KiCad,Pcbnew,(6.0.8)*
G04 #@! TF.CreationDate,2022-10-23T10:36:42+02:00*
G04 #@! TF.ProjectId,ControlPanelESP,436f6e74-726f-46c5-9061-6e656c455350,rev?*
G04 #@! TF.SameCoordinates,Original*
G04 #@! TF.FileFunction,Profile,NP*
%FSLAX46Y46*%
G04 Gerber Fmt 4.6, Leading zero omitted, Abs format (unit mm)*
G04 Created by KiCad (PCBNEW (6.0.8)) date 2022-10-23 10:36:42*
%MOMM*%
%LPD*%
G01*
G04 APERTURE LIST*
G04 #@! TA.AperFunction,Profile*
%ADD10C,0.100000*%
G04 #@! TD*
G04 #@! TA.AperFunction,Profile*
%ADD11C,0.050000*%
G04 #@! TD*
G04 APERTURE END LIST*
D10*
X78359000Y-94209600D02*
G75*
G03*
X80010000Y-92558567I0J1651000D01*
G01*
D11*
X152923935Y-80736341D02*
G75*
G03*
X152237244Y-78877571I-770335J771641D01*
G01*
X111163600Y-107744058D02*
G75*
G03*
X152923920Y-80736326I-16078010J70649908D01*
G01*
D10*
X109855000Y-86614000D02*
G75*
G03*
X108966000Y-85725000I-889000J0D01*
G01*
X152237244Y-78877571D02*
X37973000Y-78892400D01*
X111633000Y-100203000D02*
X111506000Y-100203000D01*
X80137000Y-101981000D02*
X80137000Y-106807000D01*
X109855000Y-86614000D02*
X109855000Y-92202000D01*
X108966000Y-85725000D02*
X108585000Y-85725000D01*
D11*
X37160201Y-80771999D02*
G75*
G03*
X78971712Y-107822017I57886799J43636999D01*
G01*
D10*
X111506000Y-100203008D02*
G75*
G03*
X109855000Y-101727000I0J-1656292D01*
G01*
X80137000Y-101981000D02*
G75*
G03*
X78232000Y-100076000I-1905000J0D01*
G01*
X78359000Y-94209571D02*
G75*
G03*
X78232000Y-100076000I0J-2934589D01*
G01*
D11*
X37160200Y-80772000D02*
X37124455Y-80737324D01*
D10*
X111633000Y-94107000D02*
X111506000Y-94107000D01*
X80899000Y-85725000D02*
G75*
G03*
X80010000Y-86614000I0J-889000D01*
G01*
X79248000Y-107829400D02*
G75*
G03*
X80137000Y-106940382I0J889000D01*
G01*
X80010000Y-86614000D02*
X80010000Y-92558567D01*
X109855000Y-101727000D02*
X109855000Y-107010201D01*
X109855000Y-92456000D02*
G75*
G03*
X111506000Y-94107000I1651000J0D01*
G01*
X79248000Y-107829382D02*
X78971712Y-107822017D01*
X111633000Y-100203000D02*
G75*
G03*
X111633000Y-94107000I0J3048000D01*
G01*
D11*
X37973000Y-78892400D02*
G75*
G03*
X37124455Y-80737324I0J-1117600D01*
G01*
D10*
X109855000Y-92202000D02*
X109855000Y-92456000D01*
X80137000Y-106940382D02*
X80137000Y-106807000D01*
X80899000Y-85725000D02*
X108585000Y-85725000D01*
D11*
X109854988Y-107010203D02*
G75*
G03*
X111163599Y-107744055I937912J138803D01*
G01*
M02*
