G04 #@! TF.GenerationSoftware,KiCad,Pcbnew,(6.0.1)*
G04 #@! TF.CreationDate,2022-03-20T15:01:40+01:00*
G04 #@! TF.ProjectId,ControlPanelESP,436f6e74-726f-46c5-9061-6e656c455350,rev?*
G04 #@! TF.SameCoordinates,Original*
G04 #@! TF.FileFunction,Legend,Top*
G04 #@! TF.FilePolarity,Positive*
%FSLAX46Y46*%
G04 Gerber Fmt 4.6, Leading zero omitted, Abs format (unit mm)*
G04 Created by KiCad (PCBNEW (6.0.1)) date 2022-03-20 15:01:40*
%MOMM*%
%LPD*%
G01*
G04 APERTURE LIST*
G04 Aperture macros list*
%AMRoundRect*
0 Rectangle with rounded corners*
0 $1 Rounding radius*
0 $2 $3 $4 $5 $6 $7 $8 $9 X,Y pos of 4 corners*
0 Add a 4 corners polygon primitive as box body*
4,1,4,$2,$3,$4,$5,$6,$7,$8,$9,$2,$3,0*
0 Add four circle primitives for the rounded corners*
1,1,$1+$1,$2,$3*
1,1,$1+$1,$4,$5*
1,1,$1+$1,$6,$7*
1,1,$1+$1,$8,$9*
0 Add four rect primitives between the rounded corners*
20,1,$1+$1,$2,$3,$4,$5,0*
20,1,$1+$1,$4,$5,$6,$7,0*
20,1,$1+$1,$6,$7,$8,$9,0*
20,1,$1+$1,$8,$9,$2,$3,0*%
G04 Aperture macros list end*
%ADD10C,0.150000*%
%ADD11C,0.100000*%
%ADD12C,0.120000*%
%ADD13RoundRect,0.150000X0.150000X-0.587500X0.150000X0.587500X-0.150000X0.587500X-0.150000X-0.587500X0*%
%ADD14RoundRect,0.250000X-0.337500X-0.475000X0.337500X-0.475000X0.337500X0.475000X-0.337500X0.475000X0*%
%ADD15RoundRect,0.250000X-0.600000X-0.725000X0.600000X-0.725000X0.600000X0.725000X-0.600000X0.725000X0*%
%ADD16O,1.700000X1.950000*%
%ADD17C,2.300000*%
%ADD18R,2.000000X2.000000*%
%ADD19RoundRect,0.250000X-0.350000X-0.450000X0.350000X-0.450000X0.350000X0.450000X-0.350000X0.450000X0*%
%ADD20RoundRect,0.250000X0.450000X-0.350000X0.450000X0.350000X-0.450000X0.350000X-0.450000X-0.350000X0*%
%ADD21R,1.550000X1.300000*%
%ADD22C,3.800000*%
%ADD23RoundRect,0.250000X-0.600000X-0.750000X0.600000X-0.750000X0.600000X0.750000X-0.600000X0.750000X0*%
%ADD24O,1.700000X2.000000*%
%ADD25RoundRect,0.250000X-0.475000X0.337500X-0.475000X-0.337500X0.475000X-0.337500X0.475000X0.337500X0*%
%ADD26RoundRect,0.150000X-0.587500X-0.150000X0.587500X-0.150000X0.587500X0.150000X-0.587500X0.150000X0*%
%ADD27RoundRect,0.250000X0.325000X0.450000X-0.325000X0.450000X-0.325000X-0.450000X0.325000X-0.450000X0*%
%ADD28R,0.900000X2.000000*%
%ADD29R,2.000000X0.900000*%
%ADD30R,5.000000X5.000000*%
%ADD31RoundRect,0.250000X0.337500X0.475000X-0.337500X0.475000X-0.337500X-0.475000X0.337500X-0.475000X0*%
%ADD32R,1.600000X1.600000*%
%ADD33C,1.600000*%
%ADD34O,1.600000X1.600000*%
%ADD35R,1.500000X2.000000*%
%ADD36R,3.800000X2.000000*%
%ADD37RoundRect,0.250000X0.350000X0.450000X-0.350000X0.450000X-0.350000X-0.450000X0.350000X-0.450000X0*%
G04 APERTURE END LIST*
D10*
X115697000Y-84097714D02*
X115697000Y-82669142D01*
X118364095Y-83018380D02*
X118935523Y-83018380D01*
X118649809Y-84018380D02*
X118649809Y-83018380D01*
X119173619Y-83018380D02*
X119840285Y-84018380D01*
X119840285Y-83018380D02*
X119173619Y-84018380D01*
X120142000Y-84097714D02*
X120142000Y-82669142D01*
D11*
X96788231Y-83638478D02*
X96823945Y-83531335D01*
X96859660Y-83495621D01*
X96931088Y-83459906D01*
X97038231Y-83459906D01*
X97109660Y-83495621D01*
X97145374Y-83531335D01*
X97181088Y-83602763D01*
X97181088Y-83888478D01*
X96431088Y-83888478D01*
X96431088Y-83638478D01*
X96466803Y-83567049D01*
X96502517Y-83531335D01*
X96573945Y-83495621D01*
X96645374Y-83495621D01*
X96716803Y-83531335D01*
X96752517Y-83567049D01*
X96788231Y-83638478D01*
X96788231Y-83888478D01*
X96431088Y-82995621D02*
X96431088Y-82852763D01*
X96466803Y-82781335D01*
X96538231Y-82709906D01*
X96681088Y-82674192D01*
X96931088Y-82674192D01*
X97073945Y-82709906D01*
X97145374Y-82781335D01*
X97181088Y-82852763D01*
X97181088Y-82995621D01*
X97145374Y-83067049D01*
X97073945Y-83138478D01*
X96931088Y-83174192D01*
X96681088Y-83174192D01*
X96538231Y-83138478D01*
X96466803Y-83067049D01*
X96431088Y-82995621D01*
X96431088Y-82209906D02*
X96431088Y-82067049D01*
X96466803Y-81995621D01*
X96538231Y-81924192D01*
X96681088Y-81888478D01*
X96931088Y-81888478D01*
X97073945Y-81924192D01*
X97145374Y-81995621D01*
X97181088Y-82067049D01*
X97181088Y-82209906D01*
X97145374Y-82281335D01*
X97073945Y-82352763D01*
X96931088Y-82388478D01*
X96681088Y-82388478D01*
X96538231Y-82352763D01*
X96466803Y-82281335D01*
X96431088Y-82209906D01*
X96431088Y-81674192D02*
X96431088Y-81245621D01*
X97181088Y-81459906D02*
X96431088Y-81459906D01*
D10*
X112522000Y-84097714D02*
X112522000Y-82669142D01*
X123063000Y-84097714D02*
X123063000Y-82669142D01*
D11*
X114121714Y-92045285D02*
X113764571Y-92045285D01*
X113728857Y-92402428D01*
X113764571Y-92366714D01*
X113836000Y-92331000D01*
X114014571Y-92331000D01*
X114086000Y-92366714D01*
X114121714Y-92402428D01*
X114157428Y-92473857D01*
X114157428Y-92652428D01*
X114121714Y-92723857D01*
X114086000Y-92759571D01*
X114014571Y-92795285D01*
X113836000Y-92795285D01*
X113764571Y-92759571D01*
X113728857Y-92723857D01*
X114371714Y-92045285D02*
X114621714Y-92795285D01*
X114871714Y-92045285D01*
X115693142Y-92795285D02*
X115693142Y-92045285D01*
X115978857Y-92045285D01*
X116050285Y-92081000D01*
X116086000Y-92116714D01*
X116121714Y-92188142D01*
X116121714Y-92295285D01*
X116086000Y-92366714D01*
X116050285Y-92402428D01*
X115978857Y-92438142D01*
X115693142Y-92438142D01*
X116371714Y-92045285D02*
X116550285Y-92795285D01*
X116693142Y-92259571D01*
X116836000Y-92795285D01*
X117014571Y-92045285D01*
X117728857Y-92795285D02*
X117478857Y-92438142D01*
X117300285Y-92795285D02*
X117300285Y-92045285D01*
X117586000Y-92045285D01*
X117657428Y-92081000D01*
X117693142Y-92116714D01*
X117728857Y-92188142D01*
X117728857Y-92295285D01*
X117693142Y-92366714D01*
X117657428Y-92402428D01*
X117586000Y-92438142D01*
X117300285Y-92438142D01*
X118621714Y-92795285D02*
X118621714Y-92045285D01*
X118978857Y-92795285D02*
X118978857Y-92045285D01*
X119407428Y-92795285D01*
X119407428Y-92045285D01*
X127408857Y-85290428D02*
X127158857Y-85290428D01*
X127158857Y-85683285D02*
X127158857Y-84933285D01*
X127516000Y-84933285D01*
X127766000Y-85469000D02*
X128123142Y-85469000D01*
X127694571Y-85683285D02*
X127944571Y-84933285D01*
X128194571Y-85683285D01*
X128444571Y-85683285D02*
X128444571Y-84933285D01*
X128873142Y-85683285D01*
X128873142Y-84933285D01*
D10*
X121118380Y-84018380D02*
X120785047Y-83542190D01*
X120546952Y-84018380D02*
X120546952Y-83018380D01*
X120927904Y-83018380D01*
X121023142Y-83066000D01*
X121070761Y-83113619D01*
X121118380Y-83208857D01*
X121118380Y-83351714D01*
X121070761Y-83446952D01*
X121023142Y-83494571D01*
X120927904Y-83542190D01*
X120546952Y-83542190D01*
X121404095Y-83018380D02*
X121975523Y-83018380D01*
X121689809Y-84018380D02*
X121689809Y-83018380D01*
X122261238Y-83970761D02*
X122404095Y-84018380D01*
X122642190Y-84018380D01*
X122737428Y-83970761D01*
X122785047Y-83923142D01*
X122832666Y-83827904D01*
X122832666Y-83732666D01*
X122785047Y-83637428D01*
X122737428Y-83589809D01*
X122642190Y-83542190D01*
X122451714Y-83494571D01*
X122356476Y-83446952D01*
X122308857Y-83399333D01*
X122261238Y-83304095D01*
X122261238Y-83208857D01*
X122308857Y-83113619D01*
X122356476Y-83066000D01*
X122451714Y-83018380D01*
X122689809Y-83018380D01*
X122832666Y-83066000D01*
X117983000Y-84097714D02*
X117983000Y-82669142D01*
X113411095Y-83066000D02*
X113315857Y-83018380D01*
X113173000Y-83018380D01*
X113030142Y-83066000D01*
X112934904Y-83161238D01*
X112887285Y-83256476D01*
X112839666Y-83446952D01*
X112839666Y-83589809D01*
X112887285Y-83780285D01*
X112934904Y-83875523D01*
X113030142Y-83970761D01*
X113173000Y-84018380D01*
X113268238Y-84018380D01*
X113411095Y-83970761D01*
X113458714Y-83923142D01*
X113458714Y-83589809D01*
X113268238Y-83589809D01*
X113887285Y-84018380D02*
X113887285Y-83018380D01*
X114458714Y-84018380D01*
X114458714Y-83018380D01*
X114934904Y-84018380D02*
X114934904Y-83018380D01*
X115173000Y-83018380D01*
X115315857Y-83066000D01*
X115411095Y-83161238D01*
X115458714Y-83256476D01*
X115506333Y-83446952D01*
X115506333Y-83589809D01*
X115458714Y-83780285D01*
X115411095Y-83875523D01*
X115315857Y-83970761D01*
X115173000Y-84018380D01*
X114934904Y-84018380D01*
X123317142Y-84018380D02*
X123317142Y-83018380D01*
X123555238Y-83018380D01*
X123698095Y-83066000D01*
X123793333Y-83161238D01*
X123840952Y-83256476D01*
X123888571Y-83446952D01*
X123888571Y-83589809D01*
X123840952Y-83780285D01*
X123793333Y-83875523D01*
X123698095Y-83970761D01*
X123555238Y-84018380D01*
X123317142Y-84018380D01*
X124174285Y-83018380D02*
X124745714Y-83018380D01*
X124460000Y-84018380D02*
X124460000Y-83018380D01*
X125650476Y-84018380D02*
X125317142Y-83542190D01*
X125079047Y-84018380D02*
X125079047Y-83018380D01*
X125460000Y-83018380D01*
X125555238Y-83066000D01*
X125602857Y-83113619D01*
X125650476Y-83208857D01*
X125650476Y-83351714D01*
X125602857Y-83446952D01*
X125555238Y-83494571D01*
X125460000Y-83542190D01*
X125079047Y-83542190D01*
X133675380Y-98226428D02*
X132675380Y-98226428D01*
X132675380Y-97988333D01*
X132723000Y-97845476D01*
X132818238Y-97750238D01*
X132913476Y-97702619D01*
X133103952Y-97655000D01*
X133246809Y-97655000D01*
X133437285Y-97702619D01*
X133532523Y-97750238D01*
X133627761Y-97845476D01*
X133675380Y-97988333D01*
X133675380Y-98226428D01*
X133675380Y-97226428D02*
X132675380Y-97226428D01*
X133675380Y-96750238D02*
X132675380Y-96750238D01*
X133389666Y-96416904D01*
X132675380Y-96083571D01*
X133675380Y-96083571D01*
D11*
X136672000Y-85004714D02*
X136707714Y-84969000D01*
X136779142Y-84933285D01*
X136957714Y-84933285D01*
X137029142Y-84969000D01*
X137064857Y-85004714D01*
X137100571Y-85076142D01*
X137100571Y-85147571D01*
X137064857Y-85254714D01*
X136636285Y-85683285D01*
X137100571Y-85683285D01*
X137350571Y-84933285D02*
X137814857Y-84933285D01*
X137564857Y-85219000D01*
X137672000Y-85219000D01*
X137743428Y-85254714D01*
X137779142Y-85290428D01*
X137814857Y-85361857D01*
X137814857Y-85540428D01*
X137779142Y-85611857D01*
X137743428Y-85647571D01*
X137672000Y-85683285D01*
X137457714Y-85683285D01*
X137386285Y-85647571D01*
X137350571Y-85611857D01*
X138279142Y-84933285D02*
X138350571Y-84933285D01*
X138422000Y-84969000D01*
X138457714Y-85004714D01*
X138493428Y-85076142D01*
X138529142Y-85219000D01*
X138529142Y-85397571D01*
X138493428Y-85540428D01*
X138457714Y-85611857D01*
X138422000Y-85647571D01*
X138350571Y-85683285D01*
X138279142Y-85683285D01*
X138207714Y-85647571D01*
X138172000Y-85611857D01*
X138136285Y-85540428D01*
X138100571Y-85397571D01*
X138100571Y-85219000D01*
X138136285Y-85076142D01*
X138172000Y-85004714D01*
X138207714Y-84969000D01*
X138279142Y-84933285D01*
X138743428Y-84933285D02*
X138993428Y-85683285D01*
X139243428Y-84933285D01*
X107781285Y-82960714D02*
X107424142Y-83210714D01*
X107781285Y-83389285D02*
X107031285Y-83389285D01*
X107031285Y-83103571D01*
X107067000Y-83032142D01*
X107102714Y-82996428D01*
X107174142Y-82960714D01*
X107281285Y-82960714D01*
X107352714Y-82996428D01*
X107388428Y-83032142D01*
X107424142Y-83103571D01*
X107424142Y-83389285D01*
X107745571Y-82675000D02*
X107781285Y-82567857D01*
X107781285Y-82389285D01*
X107745571Y-82317857D01*
X107709857Y-82282142D01*
X107638428Y-82246428D01*
X107567000Y-82246428D01*
X107495571Y-82282142D01*
X107459857Y-82317857D01*
X107424142Y-82389285D01*
X107388428Y-82532142D01*
X107352714Y-82603571D01*
X107317000Y-82639285D01*
X107245571Y-82675000D01*
X107174142Y-82675000D01*
X107102714Y-82639285D01*
X107067000Y-82603571D01*
X107031285Y-82532142D01*
X107031285Y-82353571D01*
X107067000Y-82246428D01*
X107031285Y-82032142D02*
X107031285Y-81603571D01*
X107781285Y-81817857D02*
X107031285Y-81817857D01*
D10*
X116546333Y-84018380D02*
X116213000Y-83542190D01*
X115974904Y-84018380D02*
X115974904Y-83018380D01*
X116355857Y-83018380D01*
X116451095Y-83066000D01*
X116498714Y-83113619D01*
X116546333Y-83208857D01*
X116546333Y-83351714D01*
X116498714Y-83446952D01*
X116451095Y-83494571D01*
X116355857Y-83542190D01*
X115974904Y-83542190D01*
X116879666Y-83018380D02*
X117546333Y-84018380D01*
X117546333Y-83018380D02*
X116879666Y-84018380D01*
X111315523Y-83018380D02*
X110839333Y-83018380D01*
X110791714Y-83494571D01*
X110839333Y-83446952D01*
X110934571Y-83399333D01*
X111172666Y-83399333D01*
X111267904Y-83446952D01*
X111315523Y-83494571D01*
X111363142Y-83589809D01*
X111363142Y-83827904D01*
X111315523Y-83923142D01*
X111267904Y-83970761D01*
X111172666Y-84018380D01*
X110934571Y-84018380D01*
X110839333Y-83970761D01*
X110791714Y-83923142D01*
X111648857Y-83018380D02*
X111982190Y-84018380D01*
X112315523Y-83018380D01*
D11*
X113440714Y-86177428D02*
X113405000Y-86248857D01*
X113333571Y-86320285D01*
X113226428Y-86427428D01*
X113190714Y-86498857D01*
X113190714Y-86570285D01*
X113369285Y-86534571D02*
X113333571Y-86606000D01*
X113262142Y-86677428D01*
X113119285Y-86713142D01*
X112869285Y-86713142D01*
X112726428Y-86677428D01*
X112655000Y-86606000D01*
X112619285Y-86534571D01*
X112619285Y-86391714D01*
X112655000Y-86320285D01*
X112726428Y-86248857D01*
X112869285Y-86213142D01*
X113119285Y-86213142D01*
X113262142Y-86248857D01*
X113333571Y-86320285D01*
X113369285Y-86391714D01*
X113369285Y-86534571D01*
X112690714Y-85927428D02*
X112655000Y-85891714D01*
X112619285Y-85820285D01*
X112619285Y-85641714D01*
X112655000Y-85570285D01*
X112690714Y-85534571D01*
X112762142Y-85498857D01*
X112833571Y-85498857D01*
X112940714Y-85534571D01*
X113369285Y-85963142D01*
X113369285Y-85498857D01*
X115980714Y-97353428D02*
X115945000Y-97424857D01*
X115873571Y-97496285D01*
X115766428Y-97603428D01*
X115730714Y-97674857D01*
X115730714Y-97746285D01*
X115909285Y-97710571D02*
X115873571Y-97782000D01*
X115802142Y-97853428D01*
X115659285Y-97889142D01*
X115409285Y-97889142D01*
X115266428Y-97853428D01*
X115195000Y-97782000D01*
X115159285Y-97710571D01*
X115159285Y-97567714D01*
X115195000Y-97496285D01*
X115266428Y-97424857D01*
X115409285Y-97389142D01*
X115659285Y-97389142D01*
X115802142Y-97424857D01*
X115873571Y-97496285D01*
X115909285Y-97567714D01*
X115909285Y-97710571D01*
X115409285Y-96746285D02*
X115909285Y-96746285D01*
X115123571Y-96924857D02*
X115659285Y-97103428D01*
X115659285Y-96639142D01*
X83833857Y-80262000D02*
X83869571Y-80297714D01*
X83905285Y-80404857D01*
X83905285Y-80476285D01*
X83869571Y-80583428D01*
X83798142Y-80654857D01*
X83726714Y-80690571D01*
X83583857Y-80726285D01*
X83476714Y-80726285D01*
X83333857Y-80690571D01*
X83262428Y-80654857D01*
X83191000Y-80583428D01*
X83155285Y-80476285D01*
X83155285Y-80404857D01*
X83191000Y-80297714D01*
X83226714Y-80262000D01*
X83155285Y-80012000D02*
X83155285Y-79547714D01*
X83441000Y-79797714D01*
X83441000Y-79690571D01*
X83476714Y-79619142D01*
X83512428Y-79583428D01*
X83583857Y-79547714D01*
X83762428Y-79547714D01*
X83833857Y-79583428D01*
X83869571Y-79619142D01*
X83905285Y-79690571D01*
X83905285Y-79904857D01*
X83869571Y-79976285D01*
X83833857Y-80012000D01*
X109732000Y-80234285D02*
X109732000Y-80770000D01*
X109696285Y-80877142D01*
X109624857Y-80948571D01*
X109517714Y-80984285D01*
X109446285Y-80984285D01*
X110053428Y-80305714D02*
X110089142Y-80270000D01*
X110160571Y-80234285D01*
X110339142Y-80234285D01*
X110410571Y-80270000D01*
X110446285Y-80305714D01*
X110482000Y-80377142D01*
X110482000Y-80448571D01*
X110446285Y-80555714D01*
X110017714Y-80984285D01*
X110482000Y-80984285D01*
X148671428Y-80730285D02*
X148671428Y-79980285D01*
X149100000Y-80730285D02*
X148778571Y-80301714D01*
X149100000Y-79980285D02*
X148671428Y-80408857D01*
X149814285Y-80730285D02*
X149385714Y-80730285D01*
X149600000Y-80730285D02*
X149600000Y-79980285D01*
X149528571Y-80087428D01*
X149457142Y-80158857D01*
X149385714Y-80194571D01*
X77368857Y-90763285D02*
X77118857Y-90406142D01*
X76940285Y-90763285D02*
X76940285Y-90013285D01*
X77226000Y-90013285D01*
X77297428Y-90049000D01*
X77333142Y-90084714D01*
X77368857Y-90156142D01*
X77368857Y-90263285D01*
X77333142Y-90334714D01*
X77297428Y-90370428D01*
X77226000Y-90406142D01*
X76940285Y-90406142D01*
X78083142Y-90763285D02*
X77654571Y-90763285D01*
X77868857Y-90763285D02*
X77868857Y-90013285D01*
X77797428Y-90120428D01*
X77726000Y-90191857D01*
X77654571Y-90227571D01*
X78797428Y-90763285D02*
X78368857Y-90763285D01*
X78583142Y-90763285D02*
X78583142Y-90013285D01*
X78511714Y-90120428D01*
X78440285Y-90191857D01*
X78368857Y-90227571D01*
X114469714Y-94432428D02*
X114434000Y-94503857D01*
X114362571Y-94575285D01*
X114255428Y-94682428D01*
X114219714Y-94753857D01*
X114219714Y-94825285D01*
X114398285Y-94789571D02*
X114362571Y-94861000D01*
X114291142Y-94932428D01*
X114148285Y-94968142D01*
X113898285Y-94968142D01*
X113755428Y-94932428D01*
X113684000Y-94861000D01*
X113648285Y-94789571D01*
X113648285Y-94646714D01*
X113684000Y-94575285D01*
X113755428Y-94503857D01*
X113898285Y-94468142D01*
X114148285Y-94468142D01*
X114291142Y-94503857D01*
X114362571Y-94575285D01*
X114398285Y-94646714D01*
X114398285Y-94789571D01*
X113648285Y-94218142D02*
X113648285Y-93753857D01*
X113934000Y-94003857D01*
X113934000Y-93896714D01*
X113969714Y-93825285D01*
X114005428Y-93789571D01*
X114076857Y-93753857D01*
X114255428Y-93753857D01*
X114326857Y-93789571D01*
X114362571Y-93825285D01*
X114398285Y-93896714D01*
X114398285Y-94111000D01*
X114362571Y-94182428D01*
X114326857Y-94218142D01*
X82508285Y-81024000D02*
X82151142Y-81274000D01*
X82508285Y-81452571D02*
X81758285Y-81452571D01*
X81758285Y-81166857D01*
X81794000Y-81095428D01*
X81829714Y-81059714D01*
X81901142Y-81024000D01*
X82008285Y-81024000D01*
X82079714Y-81059714D01*
X82115428Y-81095428D01*
X82151142Y-81166857D01*
X82151142Y-81452571D01*
X82008285Y-80381142D02*
X82508285Y-80381142D01*
X81722571Y-80559714D02*
X82258285Y-80738285D01*
X82258285Y-80274000D01*
X116064000Y-103464285D02*
X115814000Y-103107142D01*
X115635428Y-103464285D02*
X115635428Y-102714285D01*
X115921142Y-102714285D01*
X115992571Y-102750000D01*
X116028285Y-102785714D01*
X116064000Y-102857142D01*
X116064000Y-102964285D01*
X116028285Y-103035714D01*
X115992571Y-103071428D01*
X115921142Y-103107142D01*
X115635428Y-103107142D01*
X116742571Y-102714285D02*
X116385428Y-102714285D01*
X116349714Y-103071428D01*
X116385428Y-103035714D01*
X116456857Y-103000000D01*
X116635428Y-103000000D01*
X116706857Y-103035714D01*
X116742571Y-103071428D01*
X116778285Y-103142857D01*
X116778285Y-103321428D01*
X116742571Y-103392857D01*
X116706857Y-103428571D01*
X116635428Y-103464285D01*
X116456857Y-103464285D01*
X116385428Y-103428571D01*
X116349714Y-103392857D01*
X122811000Y-103463285D02*
X122561000Y-103106142D01*
X122382428Y-103463285D02*
X122382428Y-102713285D01*
X122668142Y-102713285D01*
X122739571Y-102749000D01*
X122775285Y-102784714D01*
X122811000Y-102856142D01*
X122811000Y-102963285D01*
X122775285Y-103034714D01*
X122739571Y-103070428D01*
X122668142Y-103106142D01*
X122382428Y-103106142D01*
X123239571Y-103034714D02*
X123168142Y-102999000D01*
X123132428Y-102963285D01*
X123096714Y-102891857D01*
X123096714Y-102856142D01*
X123132428Y-102784714D01*
X123168142Y-102749000D01*
X123239571Y-102713285D01*
X123382428Y-102713285D01*
X123453857Y-102749000D01*
X123489571Y-102784714D01*
X123525285Y-102856142D01*
X123525285Y-102891857D01*
X123489571Y-102963285D01*
X123453857Y-102999000D01*
X123382428Y-103034714D01*
X123239571Y-103034714D01*
X123168142Y-103070428D01*
X123132428Y-103106142D01*
X123096714Y-103177571D01*
X123096714Y-103320428D01*
X123132428Y-103391857D01*
X123168142Y-103427571D01*
X123239571Y-103463285D01*
X123382428Y-103463285D01*
X123453857Y-103427571D01*
X123489571Y-103391857D01*
X123525285Y-103320428D01*
X123525285Y-103177571D01*
X123489571Y-103106142D01*
X123453857Y-103070428D01*
X123382428Y-103034714D01*
X99744571Y-83550000D02*
X99780285Y-83442857D01*
X99780285Y-83264285D01*
X99744571Y-83192857D01*
X99708857Y-83157142D01*
X99637428Y-83121428D01*
X99566000Y-83121428D01*
X99494571Y-83157142D01*
X99458857Y-83192857D01*
X99423142Y-83264285D01*
X99387428Y-83407142D01*
X99351714Y-83478571D01*
X99316000Y-83514285D01*
X99244571Y-83550000D01*
X99173142Y-83550000D01*
X99101714Y-83514285D01*
X99066000Y-83478571D01*
X99030285Y-83407142D01*
X99030285Y-83228571D01*
X99066000Y-83121428D01*
X99030285Y-82871428D02*
X99780285Y-82692857D01*
X99244571Y-82550000D01*
X99780285Y-82407142D01*
X99030285Y-82228571D01*
X99780285Y-81550000D02*
X99780285Y-81978571D01*
X99780285Y-81764285D02*
X99030285Y-81764285D01*
X99137428Y-81835714D01*
X99208857Y-81907142D01*
X99244571Y-81978571D01*
X85369857Y-83778285D02*
X85119857Y-83421142D01*
X84941285Y-83778285D02*
X84941285Y-83028285D01*
X85227000Y-83028285D01*
X85298428Y-83064000D01*
X85334142Y-83099714D01*
X85369857Y-83171142D01*
X85369857Y-83278285D01*
X85334142Y-83349714D01*
X85298428Y-83385428D01*
X85227000Y-83421142D01*
X84941285Y-83421142D01*
X86084142Y-83778285D02*
X85655571Y-83778285D01*
X85869857Y-83778285D02*
X85869857Y-83028285D01*
X85798428Y-83135428D01*
X85727000Y-83206857D01*
X85655571Y-83242571D01*
X86548428Y-83028285D02*
X86619857Y-83028285D01*
X86691285Y-83064000D01*
X86727000Y-83099714D01*
X86762714Y-83171142D01*
X86798428Y-83314000D01*
X86798428Y-83492571D01*
X86762714Y-83635428D01*
X86727000Y-83706857D01*
X86691285Y-83742571D01*
X86619857Y-83778285D01*
X86548428Y-83778285D01*
X86477000Y-83742571D01*
X86441285Y-83706857D01*
X86405571Y-83635428D01*
X86369857Y-83492571D01*
X86369857Y-83314000D01*
X86405571Y-83171142D01*
X86441285Y-83099714D01*
X86477000Y-83064000D01*
X86548428Y-83028285D01*
X89330571Y-83550000D02*
X89366285Y-83442857D01*
X89366285Y-83264285D01*
X89330571Y-83192857D01*
X89294857Y-83157142D01*
X89223428Y-83121428D01*
X89152000Y-83121428D01*
X89080571Y-83157142D01*
X89044857Y-83192857D01*
X89009142Y-83264285D01*
X88973428Y-83407142D01*
X88937714Y-83478571D01*
X88902000Y-83514285D01*
X88830571Y-83550000D01*
X88759142Y-83550000D01*
X88687714Y-83514285D01*
X88652000Y-83478571D01*
X88616285Y-83407142D01*
X88616285Y-83228571D01*
X88652000Y-83121428D01*
X88616285Y-82871428D02*
X89366285Y-82692857D01*
X88830571Y-82550000D01*
X89366285Y-82407142D01*
X88616285Y-82228571D01*
X88687714Y-81978571D02*
X88652000Y-81942857D01*
X88616285Y-81871428D01*
X88616285Y-81692857D01*
X88652000Y-81621428D01*
X88687714Y-81585714D01*
X88759142Y-81550000D01*
X88830571Y-81550000D01*
X88937714Y-81585714D01*
X89366285Y-82014285D01*
X89366285Y-81550000D01*
X117987000Y-89886285D02*
X117987000Y-90422000D01*
X117951285Y-90529142D01*
X117879857Y-90600571D01*
X117772714Y-90636285D01*
X117701285Y-90636285D01*
X118737000Y-90636285D02*
X118308428Y-90636285D01*
X118522714Y-90636285D02*
X118522714Y-89886285D01*
X118451285Y-89993428D01*
X118379857Y-90064857D01*
X118308428Y-90100571D01*
X128294000Y-96871285D02*
X128294000Y-97407000D01*
X128258285Y-97514142D01*
X128186857Y-97585571D01*
X128079714Y-97621285D01*
X128008285Y-97621285D01*
X129008285Y-96871285D02*
X128651142Y-96871285D01*
X128615428Y-97228428D01*
X128651142Y-97192714D01*
X128722571Y-97157000D01*
X128901142Y-97157000D01*
X128972571Y-97192714D01*
X129008285Y-97228428D01*
X129044000Y-97299857D01*
X129044000Y-97478428D01*
X129008285Y-97549857D01*
X128972571Y-97585571D01*
X128901142Y-97621285D01*
X128722571Y-97621285D01*
X128651142Y-97585571D01*
X128615428Y-97549857D01*
X78615000Y-83579857D02*
X78579285Y-83615571D01*
X78472142Y-83651285D01*
X78400714Y-83651285D01*
X78293571Y-83615571D01*
X78222142Y-83544142D01*
X78186428Y-83472714D01*
X78150714Y-83329857D01*
X78150714Y-83222714D01*
X78186428Y-83079857D01*
X78222142Y-83008428D01*
X78293571Y-82937000D01*
X78400714Y-82901285D01*
X78472142Y-82901285D01*
X78579285Y-82937000D01*
X78615000Y-82972714D01*
X79257857Y-82901285D02*
X79115000Y-82901285D01*
X79043571Y-82937000D01*
X79007857Y-82972714D01*
X78936428Y-83079857D01*
X78900714Y-83222714D01*
X78900714Y-83508428D01*
X78936428Y-83579857D01*
X78972142Y-83615571D01*
X79043571Y-83651285D01*
X79186428Y-83651285D01*
X79257857Y-83615571D01*
X79293571Y-83579857D01*
X79329285Y-83508428D01*
X79329285Y-83329857D01*
X79293571Y-83258428D01*
X79257857Y-83222714D01*
X79186428Y-83187000D01*
X79043571Y-83187000D01*
X78972142Y-83222714D01*
X78936428Y-83258428D01*
X78900714Y-83329857D01*
X79049571Y-92104714D02*
X78978142Y-92069000D01*
X78906714Y-91997571D01*
X78799571Y-91890428D01*
X78728142Y-91854714D01*
X78656714Y-91854714D01*
X78692428Y-92033285D02*
X78621000Y-91997571D01*
X78549571Y-91926142D01*
X78513857Y-91783285D01*
X78513857Y-91533285D01*
X78549571Y-91390428D01*
X78621000Y-91319000D01*
X78692428Y-91283285D01*
X78835285Y-91283285D01*
X78906714Y-91319000D01*
X78978142Y-91390428D01*
X79013857Y-91533285D01*
X79013857Y-91783285D01*
X78978142Y-91926142D01*
X78906714Y-91997571D01*
X78835285Y-92033285D01*
X78692428Y-92033285D01*
X79692428Y-91283285D02*
X79335285Y-91283285D01*
X79299571Y-91640428D01*
X79335285Y-91604714D01*
X79406714Y-91569000D01*
X79585285Y-91569000D01*
X79656714Y-91604714D01*
X79692428Y-91640428D01*
X79728142Y-91711857D01*
X79728142Y-91890428D01*
X79692428Y-91961857D01*
X79656714Y-91997571D01*
X79585285Y-92033285D01*
X79406714Y-92033285D01*
X79335285Y-91997571D01*
X79299571Y-91961857D01*
X39002857Y-80516000D02*
X39038571Y-80551714D01*
X39074285Y-80658857D01*
X39074285Y-80730285D01*
X39038571Y-80837428D01*
X38967142Y-80908857D01*
X38895714Y-80944571D01*
X38752857Y-80980285D01*
X38645714Y-80980285D01*
X38502857Y-80944571D01*
X38431428Y-80908857D01*
X38360000Y-80837428D01*
X38324285Y-80730285D01*
X38324285Y-80658857D01*
X38360000Y-80551714D01*
X38395714Y-80516000D01*
X39074285Y-79801714D02*
X39074285Y-80230285D01*
X39074285Y-80016000D02*
X38324285Y-80016000D01*
X38431428Y-80087428D01*
X38502857Y-80158857D01*
X38538571Y-80230285D01*
X70303428Y-101685285D02*
X70303428Y-100935285D01*
X70482000Y-100935285D01*
X70589142Y-100971000D01*
X70660571Y-101042428D01*
X70696285Y-101113857D01*
X70732000Y-101256714D01*
X70732000Y-101363857D01*
X70696285Y-101506714D01*
X70660571Y-101578142D01*
X70589142Y-101649571D01*
X70482000Y-101685285D01*
X70303428Y-101685285D01*
X71446285Y-101685285D02*
X71017714Y-101685285D01*
X71232000Y-101685285D02*
X71232000Y-100935285D01*
X71160571Y-101042428D01*
X71089142Y-101113857D01*
X71017714Y-101149571D01*
X111889000Y-106638285D02*
X111639000Y-106281142D01*
X111460428Y-106638285D02*
X111460428Y-105888285D01*
X111746142Y-105888285D01*
X111817571Y-105924000D01*
X111853285Y-105959714D01*
X111889000Y-106031142D01*
X111889000Y-106138285D01*
X111853285Y-106209714D01*
X111817571Y-106245428D01*
X111746142Y-106281142D01*
X111460428Y-106281142D01*
X112174714Y-105959714D02*
X112210428Y-105924000D01*
X112281857Y-105888285D01*
X112460428Y-105888285D01*
X112531857Y-105924000D01*
X112567571Y-105959714D01*
X112603285Y-106031142D01*
X112603285Y-106102571D01*
X112567571Y-106209714D01*
X112139000Y-106638285D01*
X112603285Y-106638285D01*
X74519285Y-99377428D02*
X75126428Y-99377428D01*
X75197857Y-99341714D01*
X75233571Y-99306000D01*
X75269285Y-99234571D01*
X75269285Y-99091714D01*
X75233571Y-99020285D01*
X75197857Y-98984571D01*
X75126428Y-98948857D01*
X74519285Y-98948857D01*
X74590714Y-98627428D02*
X74555000Y-98591714D01*
X74519285Y-98520285D01*
X74519285Y-98341714D01*
X74555000Y-98270285D01*
X74590714Y-98234571D01*
X74662142Y-98198857D01*
X74733571Y-98198857D01*
X74840714Y-98234571D01*
X75269285Y-98663142D01*
X75269285Y-98198857D01*
X128891000Y-100415285D02*
X128641000Y-100058142D01*
X128462428Y-100415285D02*
X128462428Y-99665285D01*
X128748142Y-99665285D01*
X128819571Y-99701000D01*
X128855285Y-99736714D01*
X128891000Y-99808142D01*
X128891000Y-99915285D01*
X128855285Y-99986714D01*
X128819571Y-100022428D01*
X128748142Y-100058142D01*
X128462428Y-100058142D01*
X129605285Y-100415285D02*
X129176714Y-100415285D01*
X129391000Y-100415285D02*
X129391000Y-99665285D01*
X129319571Y-99772428D01*
X129248142Y-99843857D01*
X129176714Y-99879571D01*
X127893000Y-89886285D02*
X127893000Y-90422000D01*
X127857285Y-90529142D01*
X127785857Y-90600571D01*
X127678714Y-90636285D01*
X127607285Y-90636285D01*
X128571571Y-90136285D02*
X128571571Y-90636285D01*
X128393000Y-89850571D02*
X128214428Y-90386285D01*
X128678714Y-90386285D01*
X77599000Y-85738857D02*
X77563285Y-85774571D01*
X77456142Y-85810285D01*
X77384714Y-85810285D01*
X77277571Y-85774571D01*
X77206142Y-85703142D01*
X77170428Y-85631714D01*
X77134714Y-85488857D01*
X77134714Y-85381714D01*
X77170428Y-85238857D01*
X77206142Y-85167428D01*
X77277571Y-85096000D01*
X77384714Y-85060285D01*
X77456142Y-85060285D01*
X77563285Y-85096000D01*
X77599000Y-85131714D01*
X78241857Y-85310285D02*
X78241857Y-85810285D01*
X78063285Y-85024571D02*
X77884714Y-85560285D01*
X78349000Y-85560285D01*
X111889000Y-101178285D02*
X111639000Y-100821142D01*
X111460428Y-101178285D02*
X111460428Y-100428285D01*
X111746142Y-100428285D01*
X111817571Y-100464000D01*
X111853285Y-100499714D01*
X111889000Y-100571142D01*
X111889000Y-100678285D01*
X111853285Y-100749714D01*
X111817571Y-100785428D01*
X111746142Y-100821142D01*
X111460428Y-100821142D01*
X112139000Y-100428285D02*
X112639000Y-100428285D01*
X112317571Y-101178285D01*
X54623857Y-90295000D02*
X54659571Y-90330714D01*
X54695285Y-90437857D01*
X54695285Y-90509285D01*
X54659571Y-90616428D01*
X54588142Y-90687857D01*
X54516714Y-90723571D01*
X54373857Y-90759285D01*
X54266714Y-90759285D01*
X54123857Y-90723571D01*
X54052428Y-90687857D01*
X53981000Y-90616428D01*
X53945285Y-90509285D01*
X53945285Y-90437857D01*
X53981000Y-90330714D01*
X54016714Y-90295000D01*
X54695285Y-89937857D02*
X54695285Y-89795000D01*
X54659571Y-89723571D01*
X54623857Y-89687857D01*
X54516714Y-89616428D01*
X54373857Y-89580714D01*
X54088142Y-89580714D01*
X54016714Y-89616428D01*
X53981000Y-89652142D01*
X53945285Y-89723571D01*
X53945285Y-89866428D01*
X53981000Y-89937857D01*
X54016714Y-89973571D01*
X54088142Y-90009285D01*
X54266714Y-90009285D01*
X54338142Y-89973571D01*
X54373857Y-89937857D01*
X54409571Y-89866428D01*
X54409571Y-89723571D01*
X54373857Y-89652142D01*
X54338142Y-89616428D01*
X54266714Y-89580714D01*
X124303285Y-102806428D02*
X124910428Y-102806428D01*
X124981857Y-102770714D01*
X125017571Y-102735000D01*
X125053285Y-102663571D01*
X125053285Y-102520714D01*
X125017571Y-102449285D01*
X124981857Y-102413571D01*
X124910428Y-102377857D01*
X124303285Y-102377857D01*
X124303285Y-102092142D02*
X124303285Y-101627857D01*
X124589000Y-101877857D01*
X124589000Y-101770714D01*
X124624714Y-101699285D01*
X124660428Y-101663571D01*
X124731857Y-101627857D01*
X124910428Y-101627857D01*
X124981857Y-101663571D01*
X125017571Y-101699285D01*
X125053285Y-101770714D01*
X125053285Y-101985000D01*
X125017571Y-102056428D01*
X124981857Y-102092142D01*
X54877857Y-80008000D02*
X54913571Y-80043714D01*
X54949285Y-80150857D01*
X54949285Y-80222285D01*
X54913571Y-80329428D01*
X54842142Y-80400857D01*
X54770714Y-80436571D01*
X54627857Y-80472285D01*
X54520714Y-80472285D01*
X54377857Y-80436571D01*
X54306428Y-80400857D01*
X54235000Y-80329428D01*
X54199285Y-80222285D01*
X54199285Y-80150857D01*
X54235000Y-80043714D01*
X54270714Y-80008000D01*
X54520714Y-79579428D02*
X54485000Y-79650857D01*
X54449285Y-79686571D01*
X54377857Y-79722285D01*
X54342142Y-79722285D01*
X54270714Y-79686571D01*
X54235000Y-79650857D01*
X54199285Y-79579428D01*
X54199285Y-79436571D01*
X54235000Y-79365142D01*
X54270714Y-79329428D01*
X54342142Y-79293714D01*
X54377857Y-79293714D01*
X54449285Y-79329428D01*
X54485000Y-79365142D01*
X54520714Y-79436571D01*
X54520714Y-79579428D01*
X54556428Y-79650857D01*
X54592142Y-79686571D01*
X54663571Y-79722285D01*
X54806428Y-79722285D01*
X54877857Y-79686571D01*
X54913571Y-79650857D01*
X54949285Y-79579428D01*
X54949285Y-79436571D01*
X54913571Y-79365142D01*
X54877857Y-79329428D01*
X54806428Y-79293714D01*
X54663571Y-79293714D01*
X54592142Y-79329428D01*
X54556428Y-79365142D01*
X54520714Y-79436571D01*
X137672000Y-89886285D02*
X137672000Y-90422000D01*
X137636285Y-90529142D01*
X137564857Y-90600571D01*
X137457714Y-90636285D01*
X137386285Y-90636285D01*
X137957714Y-89886285D02*
X138457714Y-89886285D01*
X138136285Y-90636285D01*
X112424714Y-93289428D02*
X112389000Y-93360857D01*
X112317571Y-93432285D01*
X112210428Y-93539428D01*
X112174714Y-93610857D01*
X112174714Y-93682285D01*
X112353285Y-93646571D02*
X112317571Y-93718000D01*
X112246142Y-93789428D01*
X112103285Y-93825142D01*
X111853285Y-93825142D01*
X111710428Y-93789428D01*
X111639000Y-93718000D01*
X111603285Y-93646571D01*
X111603285Y-93503714D01*
X111639000Y-93432285D01*
X111710428Y-93360857D01*
X111853285Y-93325142D01*
X112103285Y-93325142D01*
X112246142Y-93360857D01*
X112317571Y-93432285D01*
X112353285Y-93503714D01*
X112353285Y-93646571D01*
X112353285Y-92610857D02*
X112353285Y-93039428D01*
X112353285Y-92825142D02*
X111603285Y-92825142D01*
X111710428Y-92896571D01*
X111781857Y-92968000D01*
X111817571Y-93039428D01*
X76583000Y-83579857D02*
X76547285Y-83615571D01*
X76440142Y-83651285D01*
X76368714Y-83651285D01*
X76261571Y-83615571D01*
X76190142Y-83544142D01*
X76154428Y-83472714D01*
X76118714Y-83329857D01*
X76118714Y-83222714D01*
X76154428Y-83079857D01*
X76190142Y-83008428D01*
X76261571Y-82937000D01*
X76368714Y-82901285D01*
X76440142Y-82901285D01*
X76547285Y-82937000D01*
X76583000Y-82972714D01*
X77261571Y-82901285D02*
X76904428Y-82901285D01*
X76868714Y-83258428D01*
X76904428Y-83222714D01*
X76975857Y-83187000D01*
X77154428Y-83187000D01*
X77225857Y-83222714D01*
X77261571Y-83258428D01*
X77297285Y-83329857D01*
X77297285Y-83508428D01*
X77261571Y-83579857D01*
X77225857Y-83615571D01*
X77154428Y-83651285D01*
X76975857Y-83651285D01*
X76904428Y-83615571D01*
X76868714Y-83579857D01*
X45098857Y-88390000D02*
X45134571Y-88425714D01*
X45170285Y-88532857D01*
X45170285Y-88604285D01*
X45134571Y-88711428D01*
X45063142Y-88782857D01*
X44991714Y-88818571D01*
X44848857Y-88854285D01*
X44741714Y-88854285D01*
X44598857Y-88818571D01*
X44527428Y-88782857D01*
X44456000Y-88711428D01*
X44420285Y-88604285D01*
X44420285Y-88532857D01*
X44456000Y-88425714D01*
X44491714Y-88390000D01*
X44491714Y-88104285D02*
X44456000Y-88068571D01*
X44420285Y-87997142D01*
X44420285Y-87818571D01*
X44456000Y-87747142D01*
X44491714Y-87711428D01*
X44563142Y-87675714D01*
X44634571Y-87675714D01*
X44741714Y-87711428D01*
X45170285Y-88140000D01*
X45170285Y-87675714D01*
X83833857Y-82167000D02*
X83869571Y-82202714D01*
X83905285Y-82309857D01*
X83905285Y-82381285D01*
X83869571Y-82488428D01*
X83798142Y-82559857D01*
X83726714Y-82595571D01*
X83583857Y-82631285D01*
X83476714Y-82631285D01*
X83333857Y-82595571D01*
X83262428Y-82559857D01*
X83191000Y-82488428D01*
X83155285Y-82381285D01*
X83155285Y-82309857D01*
X83191000Y-82202714D01*
X83226714Y-82167000D01*
X83155285Y-81917000D02*
X83155285Y-81417000D01*
X83905285Y-81738428D01*
X114258285Y-100709000D02*
X113901142Y-100959000D01*
X114258285Y-101137571D02*
X113508285Y-101137571D01*
X113508285Y-100851857D01*
X113544000Y-100780428D01*
X113579714Y-100744714D01*
X113651142Y-100709000D01*
X113758285Y-100709000D01*
X113829714Y-100744714D01*
X113865428Y-100780428D01*
X113901142Y-100851857D01*
X113901142Y-101137571D01*
X114258285Y-100351857D02*
X114258285Y-100209000D01*
X114222571Y-100137571D01*
X114186857Y-100101857D01*
X114079714Y-100030428D01*
X113936857Y-99994714D01*
X113651142Y-99994714D01*
X113579714Y-100030428D01*
X113544000Y-100066142D01*
X113508285Y-100137571D01*
X113508285Y-100280428D01*
X113544000Y-100351857D01*
X113579714Y-100387571D01*
X113651142Y-100423285D01*
X113829714Y-100423285D01*
X113901142Y-100387571D01*
X113936857Y-100351857D01*
X113972571Y-100280428D01*
X113972571Y-100137571D01*
X113936857Y-100066142D01*
X113901142Y-100030428D01*
X113829714Y-99994714D01*
X40483285Y-84391428D02*
X41090428Y-84391428D01*
X41161857Y-84355714D01*
X41197571Y-84320000D01*
X41233285Y-84248571D01*
X41233285Y-84105714D01*
X41197571Y-84034285D01*
X41161857Y-83998571D01*
X41090428Y-83962857D01*
X40483285Y-83962857D01*
X41233285Y-83212857D02*
X41233285Y-83641428D01*
X41233285Y-83427142D02*
X40483285Y-83427142D01*
X40590428Y-83498571D01*
X40661857Y-83570000D01*
X40697571Y-83641428D01*
X49278000Y-92668285D02*
X49028000Y-92311142D01*
X48849428Y-92668285D02*
X48849428Y-91918285D01*
X49135142Y-91918285D01*
X49206571Y-91954000D01*
X49242285Y-91989714D01*
X49278000Y-92061142D01*
X49278000Y-92168285D01*
X49242285Y-92239714D01*
X49206571Y-92275428D01*
X49135142Y-92311142D01*
X48849428Y-92311142D01*
X49528000Y-91918285D02*
X49992285Y-91918285D01*
X49742285Y-92204000D01*
X49849428Y-92204000D01*
X49920857Y-92239714D01*
X49956571Y-92275428D01*
X49992285Y-92346857D01*
X49992285Y-92525428D01*
X49956571Y-92596857D01*
X49920857Y-92632571D01*
X49849428Y-92668285D01*
X49635142Y-92668285D01*
X49563714Y-92632571D01*
X49528000Y-92596857D01*
X81282000Y-83651285D02*
X81032000Y-83294142D01*
X80853428Y-83651285D02*
X80853428Y-82901285D01*
X81139142Y-82901285D01*
X81210571Y-82937000D01*
X81246285Y-82972714D01*
X81282000Y-83044142D01*
X81282000Y-83151285D01*
X81246285Y-83222714D01*
X81210571Y-83258428D01*
X81139142Y-83294142D01*
X80853428Y-83294142D01*
X81924857Y-82901285D02*
X81782000Y-82901285D01*
X81710571Y-82937000D01*
X81674857Y-82972714D01*
X81603428Y-83079857D01*
X81567714Y-83222714D01*
X81567714Y-83508428D01*
X81603428Y-83579857D01*
X81639142Y-83615571D01*
X81710571Y-83651285D01*
X81853428Y-83651285D01*
X81924857Y-83615571D01*
X81960571Y-83579857D01*
X81996285Y-83508428D01*
X81996285Y-83329857D01*
X81960571Y-83258428D01*
X81924857Y-83222714D01*
X81853428Y-83187000D01*
X81710571Y-83187000D01*
X81639142Y-83222714D01*
X81603428Y-83258428D01*
X81567714Y-83329857D01*
D12*
X110454000Y-87503000D02*
X110454000Y-86853000D01*
X110454000Y-87503000D02*
X110454000Y-89178000D01*
X113574000Y-87503000D02*
X113574000Y-86853000D01*
X113574000Y-87503000D02*
X113574000Y-88153000D01*
X114899000Y-98298000D02*
X114899000Y-97648000D01*
X118019000Y-98298000D02*
X118019000Y-98948000D01*
X114899000Y-98298000D02*
X114899000Y-99973000D01*
X118019000Y-98298000D02*
X118019000Y-97648000D01*
X85569248Y-79275000D02*
X86091752Y-79275000D01*
X85569248Y-80745000D02*
X86091752Y-80745000D01*
X126666000Y-79057000D02*
X109046000Y-79057000D01*
X109046000Y-79057000D02*
X109046000Y-85027000D01*
X124856000Y-79817000D02*
X126656000Y-79817000D01*
X109806000Y-84267000D02*
X117856000Y-84267000D01*
X109056000Y-79817000D02*
X110856000Y-79817000D01*
X123356000Y-79817000D02*
X123356000Y-79067000D01*
X125906000Y-84267000D02*
X117856000Y-84267000D01*
X109806000Y-81317000D02*
X109806000Y-84267000D01*
X110856000Y-79067000D02*
X109056000Y-79067000D01*
X110856000Y-79817000D02*
X110856000Y-79067000D01*
X109056000Y-81317000D02*
X109806000Y-81317000D01*
X109046000Y-85027000D02*
X126666000Y-85027000D01*
X125906000Y-81317000D02*
X125906000Y-84267000D01*
X124856000Y-79067000D02*
X124856000Y-79817000D01*
X112356000Y-79067000D02*
X112356000Y-79817000D01*
X112356000Y-79817000D02*
X123356000Y-79817000D01*
X126656000Y-81317000D02*
X125906000Y-81317000D01*
X108756000Y-78767000D02*
X108756000Y-80017000D01*
X109056000Y-79067000D02*
X109056000Y-79817000D01*
X126666000Y-85027000D02*
X126666000Y-79057000D01*
X110006000Y-78767000D02*
X108756000Y-78767000D01*
X126656000Y-79817000D02*
X126656000Y-79067000D01*
X126656000Y-79067000D02*
X124856000Y-79067000D01*
X123356000Y-79067000D02*
X112356000Y-79067000D01*
X147828000Y-79373000D02*
X147828000Y-84807000D01*
X127508000Y-84707000D02*
X127508000Y-79373000D01*
X127508000Y-79373000D02*
X147828000Y-79373000D01*
X147828000Y-84707000D02*
X127508000Y-84707000D01*
X77639936Y-88165000D02*
X78094064Y-88165000D01*
X77639936Y-89635000D02*
X78094064Y-89635000D01*
X118019000Y-94361000D02*
X118019000Y-95011000D01*
X114899000Y-94361000D02*
X114899000Y-93711000D01*
X118019000Y-94361000D02*
X118019000Y-93711000D01*
X114899000Y-94361000D02*
X114899000Y-96036000D01*
X80037000Y-81110064D02*
X80037000Y-80655936D01*
X81507000Y-81110064D02*
X81507000Y-80655936D01*
X115961936Y-104040000D02*
X116416064Y-104040000D01*
X115961936Y-105510000D02*
X116416064Y-105510000D01*
X119914936Y-103986000D02*
X120369064Y-103986000D01*
X119914936Y-102516000D02*
X120369064Y-102516000D01*
X100228000Y-79350000D02*
X100228000Y-79100000D01*
X100228000Y-83850000D02*
X100228000Y-81250000D01*
X106528000Y-85750000D02*
X106528000Y-86000000D01*
X106528000Y-79100000D02*
X106528000Y-79350000D01*
X100228000Y-79100000D02*
X106528000Y-79100000D01*
X106528000Y-86000000D02*
X100228000Y-86000000D01*
X106528000Y-81250000D02*
X106528000Y-83850000D01*
X100228000Y-86000000D02*
X100228000Y-85750000D01*
X85624936Y-85317000D02*
X86079064Y-85317000D01*
X85624936Y-83847000D02*
X86079064Y-83847000D01*
X96114000Y-79100000D02*
X96114000Y-79350000D01*
X89814000Y-79100000D02*
X96114000Y-79100000D01*
X89814000Y-86000000D02*
X89814000Y-85750000D01*
X89814000Y-83850000D02*
X89814000Y-81250000D01*
X96114000Y-86000000D02*
X89814000Y-86000000D01*
X96114000Y-81250000D02*
X96114000Y-83850000D01*
X96114000Y-85750000D02*
X96114000Y-86000000D01*
X89814000Y-79350000D02*
X89814000Y-79100000D01*
X118610000Y-85925000D02*
X117610000Y-85925000D01*
X116110000Y-86675000D02*
X116110000Y-85925000D01*
X121160000Y-88175000D02*
X121160000Y-91125000D01*
X115260000Y-85625000D02*
X114010000Y-85625000D01*
X121160000Y-91125000D02*
X118110000Y-91125000D01*
X120110000Y-86675000D02*
X121910000Y-86675000D01*
X114300000Y-85915000D02*
X114300000Y-91885000D01*
X116110000Y-85925000D02*
X114310000Y-85925000D01*
X115060000Y-88175000D02*
X115060000Y-91125000D01*
X118610000Y-86675000D02*
X118610000Y-85925000D01*
X114310000Y-88175000D02*
X115060000Y-88175000D01*
X114010000Y-85625000D02*
X114010000Y-86875000D01*
X114300000Y-91885000D02*
X121920000Y-91885000D01*
X117610000Y-85925000D02*
X117610000Y-86675000D01*
X121920000Y-85915000D02*
X114300000Y-85915000D01*
X121920000Y-91885000D02*
X121920000Y-85915000D01*
X120110000Y-85925000D02*
X120110000Y-86675000D01*
X121910000Y-85925000D02*
X120110000Y-85925000D01*
X121910000Y-88175000D02*
X121160000Y-88175000D01*
X115060000Y-91125000D02*
X118110000Y-91125000D01*
X114310000Y-85925000D02*
X114310000Y-86675000D01*
X117610000Y-86675000D02*
X118610000Y-86675000D01*
X121910000Y-86675000D02*
X121910000Y-85925000D01*
X114310000Y-86675000D02*
X116110000Y-86675000D01*
X131594000Y-95050000D02*
X131594000Y-98000000D01*
X132354000Y-98760000D02*
X132354000Y-92790000D01*
X124734000Y-92790000D02*
X124734000Y-98760000D01*
X129044000Y-92800000D02*
X128044000Y-92800000D01*
X132344000Y-92800000D02*
X130544000Y-92800000D01*
X128044000Y-93550000D02*
X129044000Y-93550000D01*
X126544000Y-92800000D02*
X124744000Y-92800000D01*
X130544000Y-92800000D02*
X130544000Y-93550000D01*
X126544000Y-93550000D02*
X126544000Y-92800000D01*
X125694000Y-92500000D02*
X124444000Y-92500000D01*
X132354000Y-92790000D02*
X124734000Y-92790000D01*
X125494000Y-95050000D02*
X125494000Y-98000000D01*
X124734000Y-98760000D02*
X132354000Y-98760000D01*
X125494000Y-98000000D02*
X128544000Y-98000000D01*
X128044000Y-92800000D02*
X128044000Y-93550000D01*
X131594000Y-98000000D02*
X128544000Y-98000000D01*
X130544000Y-93550000D02*
X132344000Y-93550000D01*
X124744000Y-92800000D02*
X124744000Y-93550000D01*
X132344000Y-95050000D02*
X131594000Y-95050000D01*
X124744000Y-95050000D02*
X125494000Y-95050000D01*
X124744000Y-93550000D02*
X126544000Y-93550000D01*
X132344000Y-93550000D02*
X132344000Y-92800000D01*
X129044000Y-93550000D02*
X129044000Y-92800000D01*
X124444000Y-92500000D02*
X124444000Y-93750000D01*
X79475000Y-80637748D02*
X79475000Y-81160252D01*
X78005000Y-80637748D02*
X78005000Y-81160252D01*
X77645500Y-94336000D02*
X76995500Y-94336000D01*
X77645500Y-91216000D02*
X75970500Y-91216000D01*
X77645500Y-94336000D02*
X78295500Y-94336000D01*
X77645500Y-91216000D02*
X78295500Y-91216000D01*
X41248000Y-80786248D02*
X41248000Y-81308752D01*
X39778000Y-80786248D02*
X39778000Y-81308752D01*
X69923000Y-99751000D02*
X67063000Y-99751000D01*
X69923000Y-101671000D02*
X69923000Y-99751000D01*
X67063000Y-101671000D02*
X69923000Y-101671000D01*
X111786936Y-103786000D02*
X112241064Y-103786000D01*
X111786936Y-105256000D02*
X112241064Y-105256000D01*
X55565000Y-97750000D02*
X55565000Y-96750000D01*
X75005000Y-79510000D02*
X75005000Y-97750000D01*
X75005000Y-79510000D02*
X74585000Y-79510000D01*
X75005000Y-97750000D02*
X74585000Y-97750000D01*
X56185000Y-97750000D02*
X55565000Y-97750000D01*
X74585000Y-79510000D02*
X74585000Y-79130000D01*
X56185000Y-79510000D02*
X55565000Y-79510000D01*
X55565000Y-79510000D02*
X55565000Y-80510000D01*
X125994936Y-101065000D02*
X126449064Y-101065000D01*
X125994936Y-99595000D02*
X126449064Y-99595000D01*
X129806000Y-86692000D02*
X129806000Y-85942000D01*
X133106000Y-88192000D02*
X132356000Y-88192000D01*
X123756000Y-91142000D02*
X128056000Y-91142000D01*
X122996000Y-91902000D02*
X133116000Y-91902000D01*
X129806000Y-85942000D02*
X126306000Y-85942000D01*
X133106000Y-86692000D02*
X133106000Y-85942000D01*
X124806000Y-85942000D02*
X123006000Y-85942000D01*
X133106000Y-85942000D02*
X131306000Y-85942000D01*
X132356000Y-91142000D02*
X128056000Y-91142000D01*
X133116000Y-85932000D02*
X122996000Y-85932000D01*
X123006000Y-88192000D02*
X123756000Y-88192000D01*
X131306000Y-86692000D02*
X133106000Y-86692000D01*
X123756000Y-88192000D02*
X123756000Y-91142000D01*
X131306000Y-85942000D02*
X131306000Y-86692000D01*
X124806000Y-86692000D02*
X124806000Y-85942000D01*
X123956000Y-85642000D02*
X122706000Y-85642000D01*
X126306000Y-85942000D02*
X126306000Y-86692000D01*
X123006000Y-86692000D02*
X124806000Y-86692000D01*
X132356000Y-88192000D02*
X132356000Y-91142000D01*
X133116000Y-91902000D02*
X133116000Y-85932000D01*
X122996000Y-85932000D02*
X122996000Y-91902000D01*
X126306000Y-86692000D02*
X129806000Y-86692000D01*
X122706000Y-85642000D02*
X122706000Y-86892000D01*
X123006000Y-85942000D02*
X123006000Y-86692000D01*
X78090752Y-87603000D02*
X77568248Y-87603000D01*
X78090752Y-86133000D02*
X77568248Y-86133000D01*
X111786936Y-101754000D02*
X112241064Y-101754000D01*
X111786936Y-103224000D02*
X112241064Y-103224000D01*
X52729000Y-86591000D02*
X54144000Y-86591000D01*
X52729000Y-87032000D02*
X54245000Y-87032000D01*
X52729000Y-86191000D02*
X53979000Y-86191000D01*
X50678000Y-84991000D02*
X52700000Y-84991000D01*
X52729000Y-87072000D02*
X54250000Y-87072000D01*
X52729000Y-86231000D02*
X53999000Y-86231000D01*
X52729000Y-87352000D02*
X54269000Y-87352000D01*
X52729000Y-86391000D02*
X54071000Y-86391000D01*
X49120000Y-87152000D02*
X50649000Y-87152000D01*
X49788000Y-85631000D02*
X50649000Y-85631000D01*
X52729000Y-87312000D02*
X54268000Y-87312000D01*
X51171000Y-84831000D02*
X52207000Y-84831000D01*
X49685000Y-85751000D02*
X50649000Y-85751000D01*
X49109000Y-87392000D02*
X50649000Y-87392000D01*
X49465000Y-86071000D02*
X50649000Y-86071000D01*
X52729000Y-87392000D02*
X54269000Y-87392000D01*
X52729000Y-85791000D02*
X53724000Y-85791000D01*
X50774000Y-84951000D02*
X52604000Y-84951000D01*
X52729000Y-87192000D02*
X54262000Y-87192000D01*
X49379000Y-86231000D02*
X50649000Y-86231000D01*
X52729000Y-85511000D02*
X53474000Y-85511000D01*
X52729000Y-87272000D02*
X54267000Y-87272000D01*
X49360000Y-86271000D02*
X50649000Y-86271000D01*
X50084000Y-85351000D02*
X53294000Y-85351000D01*
X50306000Y-85191000D02*
X53072000Y-85191000D01*
X49153000Y-86912000D02*
X50649000Y-86912000D01*
X49128000Y-87072000D02*
X50649000Y-87072000D01*
X49904000Y-85511000D02*
X50649000Y-85511000D01*
X49442000Y-86111000D02*
X50649000Y-86111000D01*
X52729000Y-85991000D02*
X53864000Y-85991000D01*
X52729000Y-85911000D02*
X53811000Y-85911000D01*
X52729000Y-86071000D02*
X53913000Y-86071000D01*
X49209000Y-86671000D02*
X50649000Y-86671000D01*
X49178000Y-86792000D02*
X50649000Y-86792000D01*
X52729000Y-87232000D02*
X54265000Y-87232000D01*
X49221000Y-86631000D02*
X50649000Y-86631000D01*
X49567000Y-85911000D02*
X50649000Y-85911000D01*
X52729000Y-85951000D02*
X53838000Y-85951000D01*
X49139000Y-86992000D02*
X50649000Y-86992000D01*
X52729000Y-86471000D02*
X54103000Y-86471000D01*
X52729000Y-85671000D02*
X53626000Y-85671000D01*
X49863000Y-85551000D02*
X50649000Y-85551000D01*
X49113000Y-87232000D02*
X50649000Y-87232000D01*
X52729000Y-86992000D02*
X54239000Y-86992000D01*
X49825000Y-85591000D02*
X50649000Y-85591000D01*
X52729000Y-86952000D02*
X54232000Y-86952000D01*
X52729000Y-87152000D02*
X54258000Y-87152000D01*
X50884000Y-84911000D02*
X52494000Y-84911000D01*
X50036000Y-85391000D02*
X50649000Y-85391000D01*
X49124000Y-87112000D02*
X50649000Y-87112000D01*
X49514000Y-85991000D02*
X50649000Y-85991000D01*
X49109000Y-87352000D02*
X50649000Y-87352000D01*
X52729000Y-86671000D02*
X54169000Y-86671000D01*
X52729000Y-85551000D02*
X53515000Y-85551000D01*
X52729000Y-85471000D02*
X53432000Y-85471000D01*
X49324000Y-86351000D02*
X50649000Y-86351000D01*
X49421000Y-86151000D02*
X50649000Y-86151000D01*
X50214000Y-90196775D02*
X50214000Y-89696775D01*
X49234000Y-86591000D02*
X50649000Y-86591000D01*
X52729000Y-86351000D02*
X54054000Y-86351000D01*
X49964000Y-89946775D02*
X50464000Y-89946775D01*
X49341000Y-86311000D02*
X50649000Y-86311000D01*
X52729000Y-86511000D02*
X54117000Y-86511000D01*
X52729000Y-85591000D02*
X53553000Y-85591000D01*
X52729000Y-86792000D02*
X54200000Y-86792000D01*
X49110000Y-87312000D02*
X50649000Y-87312000D01*
X49990000Y-85431000D02*
X50649000Y-85431000D01*
X52729000Y-86431000D02*
X54087000Y-86431000D01*
X50135000Y-85311000D02*
X53243000Y-85311000D01*
X49624000Y-85831000D02*
X50649000Y-85831000D01*
X49594000Y-85871000D02*
X50649000Y-85871000D01*
X52729000Y-86311000D02*
X54037000Y-86311000D01*
X49146000Y-86952000D02*
X50649000Y-86952000D01*
X49654000Y-85791000D02*
X50649000Y-85791000D01*
X52729000Y-86551000D02*
X54131000Y-86551000D01*
X49169000Y-86832000D02*
X50649000Y-86832000D01*
X49161000Y-86872000D02*
X50649000Y-86872000D01*
X49752000Y-85671000D02*
X50649000Y-85671000D01*
X52729000Y-86031000D02*
X53889000Y-86031000D01*
X52729000Y-86872000D02*
X54217000Y-86872000D01*
X49489000Y-86031000D02*
X50649000Y-86031000D01*
X49133000Y-87032000D02*
X50649000Y-87032000D01*
X49718000Y-85711000D02*
X50649000Y-85711000D01*
X49116000Y-87192000D02*
X50649000Y-87192000D01*
X52729000Y-85631000D02*
X53590000Y-85631000D01*
X49111000Y-87272000D02*
X50649000Y-87272000D01*
X49946000Y-85471000D02*
X50649000Y-85471000D01*
X52729000Y-86712000D02*
X54180000Y-86712000D01*
X52729000Y-85711000D02*
X53660000Y-85711000D01*
X52729000Y-85431000D02*
X53388000Y-85431000D01*
X52729000Y-86832000D02*
X54209000Y-86832000D01*
X52729000Y-87112000D02*
X54254000Y-87112000D01*
X52729000Y-85831000D02*
X53754000Y-85831000D01*
X52729000Y-86111000D02*
X53936000Y-86111000D01*
X49399000Y-86191000D02*
X50649000Y-86191000D01*
X50189000Y-85271000D02*
X53189000Y-85271000D01*
X50246000Y-85231000D02*
X53132000Y-85231000D01*
X51405000Y-84791000D02*
X51973000Y-84791000D01*
X49188000Y-86752000D02*
X50649000Y-86752000D01*
X52729000Y-86151000D02*
X53957000Y-86151000D01*
X49540000Y-85951000D02*
X50649000Y-85951000D01*
X50511000Y-85071000D02*
X52867000Y-85071000D01*
X50591000Y-85031000D02*
X52787000Y-85031000D01*
X49198000Y-86712000D02*
X50649000Y-86712000D01*
X49275000Y-86471000D02*
X50649000Y-86471000D01*
X52729000Y-86752000D02*
X54190000Y-86752000D01*
X49261000Y-86511000D02*
X50649000Y-86511000D01*
X52729000Y-85391000D02*
X53342000Y-85391000D01*
X52729000Y-85751000D02*
X53693000Y-85751000D01*
X49247000Y-86551000D02*
X50649000Y-86551000D01*
X49291000Y-86431000D02*
X50649000Y-86431000D01*
X50370000Y-85151000D02*
X53008000Y-85151000D01*
X50438000Y-85111000D02*
X52940000Y-85111000D01*
X52729000Y-86912000D02*
X54225000Y-86912000D01*
X51012000Y-84871000D02*
X52366000Y-84871000D01*
X52729000Y-85871000D02*
X53784000Y-85871000D01*
X49307000Y-86391000D02*
X50649000Y-86391000D01*
X52729000Y-86631000D02*
X54157000Y-86631000D01*
X52729000Y-86271000D02*
X54018000Y-86271000D01*
X54309000Y-87392000D02*
G75*
G03*
X54309000Y-87392000I-2620000J0D01*
G01*
X118553000Y-99922000D02*
X123753000Y-99922000D01*
X123753000Y-94622000D02*
X118553000Y-94622000D01*
X118553000Y-98272000D02*
X118553000Y-99922000D01*
X123753000Y-99922000D02*
X123753000Y-94622000D01*
X118553000Y-94622000D02*
X118553000Y-96272000D01*
X118553000Y-98272000D02*
G75*
G03*
X118553000Y-96272000I0J1000000D01*
G01*
X54239000Y-82232888D02*
X52729000Y-82232888D01*
X50649000Y-83193888D02*
X49489000Y-83193888D01*
X54267000Y-81952888D02*
X52729000Y-81952888D01*
X50649000Y-82993888D02*
X49379000Y-82993888D01*
X54254000Y-82112888D02*
X52729000Y-82112888D01*
X50649000Y-82833888D02*
X49307000Y-82833888D01*
X54269000Y-81832888D02*
X52729000Y-81832888D01*
X50649000Y-82152888D02*
X49128000Y-82152888D01*
X50649000Y-83233888D02*
X49514000Y-83233888D01*
X50649000Y-83833888D02*
X50036000Y-83833888D01*
X50649000Y-83273888D02*
X49540000Y-83273888D01*
X54071000Y-82833888D02*
X52729000Y-82833888D01*
X54269000Y-81872888D02*
X52729000Y-81872888D01*
X50649000Y-82352888D02*
X49161000Y-82352888D01*
X53590000Y-83593888D02*
X52729000Y-83593888D01*
X50649000Y-83073888D02*
X49421000Y-83073888D01*
X50649000Y-82032888D02*
X49116000Y-82032888D01*
X52604000Y-84273888D02*
X50774000Y-84273888D01*
X50649000Y-82913888D02*
X49341000Y-82913888D01*
X54144000Y-82633888D02*
X52729000Y-82633888D01*
X53072000Y-84033888D02*
X50306000Y-84033888D01*
X52787000Y-84193888D02*
X50591000Y-84193888D01*
X53957000Y-83073888D02*
X52729000Y-83073888D01*
X54054000Y-82873888D02*
X52729000Y-82873888D01*
X53388000Y-83793888D02*
X52729000Y-83793888D01*
X53626000Y-83553888D02*
X52729000Y-83553888D01*
X53838000Y-83273888D02*
X52729000Y-83273888D01*
X50649000Y-81912888D02*
X49110000Y-81912888D01*
X53432000Y-83753888D02*
X52729000Y-83753888D01*
X50649000Y-83433888D02*
X49654000Y-83433888D01*
X54245000Y-82192888D02*
X52729000Y-82192888D01*
X53164000Y-79028113D02*
X53164000Y-79528113D01*
X50649000Y-82112888D02*
X49124000Y-82112888D01*
X50649000Y-81952888D02*
X49111000Y-81952888D01*
X53414000Y-79278113D02*
X52914000Y-79278113D01*
X53008000Y-84073888D02*
X50370000Y-84073888D01*
X54209000Y-82392888D02*
X52729000Y-82392888D01*
X53189000Y-83953888D02*
X50189000Y-83953888D01*
X50649000Y-82953888D02*
X49360000Y-82953888D01*
X54103000Y-82753888D02*
X52729000Y-82753888D01*
X52867000Y-84153888D02*
X50511000Y-84153888D01*
X53889000Y-83193888D02*
X52729000Y-83193888D01*
X54268000Y-81912888D02*
X52729000Y-81912888D01*
X53913000Y-83153888D02*
X52729000Y-83153888D01*
X50649000Y-82192888D02*
X49133000Y-82192888D01*
X53693000Y-83473888D02*
X52729000Y-83473888D01*
X53724000Y-83433888D02*
X52729000Y-83433888D01*
X50649000Y-83553888D02*
X49752000Y-83553888D01*
X53784000Y-83353888D02*
X52729000Y-83353888D01*
X50649000Y-82753888D02*
X49275000Y-82753888D01*
X50649000Y-83033888D02*
X49399000Y-83033888D01*
X50649000Y-81832888D02*
X49109000Y-81832888D01*
X54180000Y-82512888D02*
X52729000Y-82512888D01*
X54037000Y-82913888D02*
X52729000Y-82913888D01*
X54262000Y-82032888D02*
X52729000Y-82032888D01*
X50649000Y-82392888D02*
X49169000Y-82392888D01*
X53515000Y-83673888D02*
X52729000Y-83673888D01*
X50649000Y-83153888D02*
X49465000Y-83153888D01*
X52366000Y-84353888D02*
X51012000Y-84353888D01*
X50649000Y-81992888D02*
X49113000Y-81992888D01*
X50649000Y-82512888D02*
X49198000Y-82512888D01*
X50649000Y-83713888D02*
X49904000Y-83713888D01*
X54157000Y-82593888D02*
X52729000Y-82593888D01*
X54087000Y-82793888D02*
X52729000Y-82793888D01*
X54190000Y-82472888D02*
X52729000Y-82472888D01*
X52494000Y-84313888D02*
X50884000Y-84313888D01*
X53243000Y-83913888D02*
X50135000Y-83913888D01*
X50649000Y-82873888D02*
X49324000Y-82873888D01*
X50649000Y-83633888D02*
X49825000Y-83633888D01*
X54200000Y-82432888D02*
X52729000Y-82432888D01*
X53811000Y-83313888D02*
X52729000Y-83313888D01*
X54232000Y-82272888D02*
X52729000Y-82272888D01*
X50649000Y-83313888D02*
X49567000Y-83313888D01*
X50649000Y-83393888D02*
X49624000Y-83393888D01*
X50649000Y-82272888D02*
X49146000Y-82272888D01*
X53754000Y-83393888D02*
X52729000Y-83393888D01*
X53936000Y-83113888D02*
X52729000Y-83113888D01*
X50649000Y-81872888D02*
X49109000Y-81872888D01*
X54217000Y-82352888D02*
X52729000Y-82352888D01*
X53132000Y-83993888D02*
X50246000Y-83993888D01*
X50649000Y-82232888D02*
X49139000Y-82232888D01*
X50649000Y-82432888D02*
X49178000Y-82432888D01*
X50649000Y-82072888D02*
X49120000Y-82072888D01*
X53660000Y-83513888D02*
X52729000Y-83513888D01*
X50649000Y-82472888D02*
X49188000Y-82472888D01*
X50649000Y-83793888D02*
X49990000Y-83793888D01*
X54169000Y-82553888D02*
X52729000Y-82553888D01*
X50649000Y-83513888D02*
X49718000Y-83513888D01*
X54131000Y-82673888D02*
X52729000Y-82673888D01*
X54117000Y-82713888D02*
X52729000Y-82713888D01*
X50649000Y-82312888D02*
X49153000Y-82312888D01*
X53474000Y-83713888D02*
X52729000Y-83713888D01*
X51973000Y-84433888D02*
X51405000Y-84433888D01*
X50649000Y-83753888D02*
X49946000Y-83753888D01*
X50649000Y-82553888D02*
X49209000Y-82553888D01*
X50649000Y-83593888D02*
X49788000Y-83593888D01*
X52940000Y-84113888D02*
X50438000Y-84113888D01*
X54258000Y-82072888D02*
X52729000Y-82072888D01*
X54018000Y-82953888D02*
X52729000Y-82953888D01*
X54265000Y-81992888D02*
X52729000Y-81992888D01*
X54250000Y-82152888D02*
X52729000Y-82152888D01*
X53294000Y-83873888D02*
X50084000Y-83873888D01*
X53342000Y-83833888D02*
X52729000Y-83833888D01*
X50649000Y-82793888D02*
X49291000Y-82793888D01*
X53864000Y-83233888D02*
X52729000Y-83233888D01*
X50649000Y-83113888D02*
X49442000Y-83113888D01*
X53999000Y-82993888D02*
X52729000Y-82993888D01*
X50649000Y-82593888D02*
X49221000Y-82593888D01*
X54225000Y-82312888D02*
X52729000Y-82312888D01*
X53553000Y-83633888D02*
X52729000Y-83633888D01*
X53979000Y-83033888D02*
X52729000Y-83033888D01*
X50649000Y-82633888D02*
X49234000Y-82633888D01*
X50649000Y-83353888D02*
X49594000Y-83353888D01*
X52207000Y-84393888D02*
X51171000Y-84393888D01*
X50649000Y-82673888D02*
X49247000Y-82673888D01*
X50649000Y-82713888D02*
X49261000Y-82713888D01*
X52700000Y-84233888D02*
X50678000Y-84233888D01*
X50649000Y-83673888D02*
X49863000Y-83673888D01*
X50649000Y-83473888D02*
X49685000Y-83473888D01*
X54309000Y-81832888D02*
G75*
G03*
X54309000Y-81832888I-2620000J0D01*
G01*
X141702000Y-85942000D02*
X139902000Y-85942000D01*
X134852000Y-88192000D02*
X134852000Y-91142000D01*
X134102000Y-88192000D02*
X134852000Y-88192000D01*
X140952000Y-88192000D02*
X140952000Y-91142000D01*
X134092000Y-85932000D02*
X134092000Y-91902000D01*
X133802000Y-85642000D02*
X133802000Y-86892000D01*
X135052000Y-85642000D02*
X133802000Y-85642000D01*
X137402000Y-86692000D02*
X138402000Y-86692000D01*
X134102000Y-86692000D02*
X135902000Y-86692000D01*
X138402000Y-85942000D02*
X137402000Y-85942000D01*
X141712000Y-91902000D02*
X141712000Y-85932000D01*
X140952000Y-91142000D02*
X137902000Y-91142000D01*
X134092000Y-91902000D02*
X141712000Y-91902000D01*
X139902000Y-85942000D02*
X139902000Y-86692000D01*
X134852000Y-91142000D02*
X137902000Y-91142000D01*
X141712000Y-85932000D02*
X134092000Y-85932000D01*
X141702000Y-86692000D02*
X141702000Y-85942000D01*
X139902000Y-86692000D02*
X141702000Y-86692000D01*
X138402000Y-86692000D02*
X138402000Y-85942000D01*
X135902000Y-86692000D02*
X135902000Y-85942000D01*
X141702000Y-88192000D02*
X140952000Y-88192000D01*
X135902000Y-85942000D02*
X134102000Y-85942000D01*
X134102000Y-85942000D02*
X134102000Y-86692000D01*
X137402000Y-85942000D02*
X137402000Y-86692000D01*
X113574000Y-91488500D02*
X113574000Y-90838500D01*
X113574000Y-91488500D02*
X113574000Y-92138500D01*
X110454000Y-91488500D02*
X110454000Y-90838500D01*
X110454000Y-91488500D02*
X110454000Y-93163500D01*
X77443000Y-80637748D02*
X77443000Y-81160252D01*
X75973000Y-80637748D02*
X75973000Y-81160252D01*
X47356752Y-87657000D02*
X46834248Y-87657000D01*
X47356752Y-89127000D02*
X46834248Y-89127000D01*
X85590748Y-82777000D02*
X86113252Y-82777000D01*
X85590748Y-81307000D02*
X86113252Y-81307000D01*
X116104936Y-102081000D02*
X116559064Y-102081000D01*
X116104936Y-100611000D02*
X116559064Y-100611000D01*
X48495000Y-85095000D02*
X47235000Y-85095000D01*
X41675000Y-81335000D02*
X41675000Y-85095000D01*
X41675000Y-85095000D02*
X42935000Y-85095000D01*
X48495000Y-79085000D02*
X48495000Y-85095000D01*
X49011064Y-90070000D02*
X48556936Y-90070000D01*
X49011064Y-91540000D02*
X48556936Y-91540000D01*
X81618064Y-85317000D02*
X81163936Y-85317000D01*
X81618064Y-83847000D02*
X81163936Y-83847000D01*
%LPC*%
D13*
X111064000Y-88440500D03*
X112964000Y-88440500D03*
X112014000Y-86565500D03*
X115509000Y-99235500D03*
X117409000Y-99235500D03*
X116459000Y-97360500D03*
D14*
X84793000Y-80010000D03*
X86868000Y-80010000D03*
D15*
X111606000Y-81517000D03*
D16*
X114106000Y-81517000D03*
X116606000Y-81517000D03*
X119106000Y-81517000D03*
X121606000Y-81517000D03*
X124106000Y-81517000D03*
D17*
X138824800Y-80503000D03*
D18*
X128664800Y-80503000D03*
D17*
X131204800Y-80503000D03*
X146444800Y-80503000D03*
D19*
X76867000Y-88900000D03*
X78867000Y-88900000D03*
D13*
X115509000Y-95298500D03*
X117409000Y-95298500D03*
X116459000Y-93423500D03*
D20*
X80772000Y-81883000D03*
X80772000Y-79883000D03*
D19*
X115189000Y-104775000D03*
X117189000Y-104775000D03*
X119142000Y-103251000D03*
X121142000Y-103251000D03*
D21*
X107353000Y-80300000D03*
X99403000Y-80300000D03*
X99403000Y-84800000D03*
X107353000Y-84800000D03*
D19*
X84852000Y-84582000D03*
X86852000Y-84582000D03*
D21*
X96939000Y-80300000D03*
X88989000Y-80300000D03*
X96939000Y-84800000D03*
X88989000Y-84800000D03*
D22*
X75819000Y-103251000D03*
D23*
X116860000Y-88375000D03*
D24*
X119360000Y-88375000D03*
D23*
X127294000Y-95250000D03*
D24*
X129794000Y-95250000D03*
D22*
X135255000Y-94488000D03*
D25*
X78740000Y-79861500D03*
X78740000Y-81936500D03*
D26*
X76708000Y-91826000D03*
X76708000Y-93726000D03*
X78583000Y-92776000D03*
D25*
X40513000Y-80010000D03*
X40513000Y-82085000D03*
D27*
X69088000Y-100711000D03*
X67038000Y-100711000D03*
D19*
X111014000Y-104521000D03*
X113014000Y-104521000D03*
D28*
X73540000Y-80130000D03*
X72270000Y-80130000D03*
X71000000Y-80130000D03*
X69730000Y-80130000D03*
X68460000Y-80130000D03*
X67190000Y-80130000D03*
X65920000Y-80130000D03*
X64650000Y-80130000D03*
X63380000Y-80130000D03*
X62110000Y-80130000D03*
X60840000Y-80130000D03*
X59570000Y-80130000D03*
X58300000Y-80130000D03*
X57030000Y-80130000D03*
D29*
X56030000Y-82915000D03*
X56030000Y-84185000D03*
X56030000Y-85455000D03*
X56030000Y-86725000D03*
X56030000Y-87995000D03*
X56030000Y-89265000D03*
X56030000Y-90535000D03*
X56030000Y-91805000D03*
X56030000Y-93075000D03*
X56030000Y-94345000D03*
D28*
X57030000Y-97130000D03*
X58300000Y-97130000D03*
X59570000Y-97130000D03*
X60840000Y-97130000D03*
X62110000Y-97130000D03*
X63380000Y-97130000D03*
X64650000Y-97130000D03*
X65920000Y-97130000D03*
X67190000Y-97130000D03*
X68460000Y-97130000D03*
X69730000Y-97130000D03*
X71000000Y-97130000D03*
X72270000Y-97130000D03*
X73540000Y-97130000D03*
D30*
X66040000Y-87630000D03*
D19*
X125222000Y-100330000D03*
X127222000Y-100330000D03*
D15*
X125556000Y-88392000D03*
D16*
X128056000Y-88392000D03*
X130556000Y-88392000D03*
D31*
X78867000Y-86868000D03*
X76792000Y-86868000D03*
D19*
X111014000Y-102489000D03*
X113014000Y-102489000D03*
D32*
X51689000Y-88392000D03*
D33*
X51689000Y-86392000D03*
D32*
X119883000Y-101082000D03*
D34*
X122423000Y-101082000D03*
X122423000Y-93462000D03*
X119883000Y-93462000D03*
D32*
X51689000Y-80832888D03*
D33*
X51689000Y-82832888D03*
D23*
X136652000Y-88392000D03*
D24*
X139152000Y-88392000D03*
D13*
X111064000Y-92426000D03*
X112964000Y-92426000D03*
X112014000Y-90551000D03*
D25*
X76708000Y-79861500D03*
X76708000Y-81936500D03*
D22*
X144272000Y-87122000D03*
X52451000Y-92710000D03*
D31*
X48133000Y-88392000D03*
X46058000Y-88392000D03*
D14*
X84814500Y-82042000D03*
X86889500Y-82042000D03*
D19*
X115332000Y-101346000D03*
X117332000Y-101346000D03*
D35*
X47385000Y-80035000D03*
X45085000Y-80035000D03*
D36*
X45085000Y-86335000D03*
D35*
X42785000Y-80035000D03*
D37*
X49784000Y-90805000D03*
X47784000Y-90805000D03*
X82391000Y-84582000D03*
X80391000Y-84582000D03*
M02*
