G04 #@! TF.GenerationSoftware,KiCad,Pcbnew,(6.0.8)*
G04 #@! TF.CreationDate,2022-10-23T10:36:42+02:00*
G04 #@! TF.ProjectId,ControlPanelESP,436f6e74-726f-46c5-9061-6e656c455350,rev?*
G04 #@! TF.SameCoordinates,Original*
G04 #@! TF.FileFunction,Copper,L2,Inr*
G04 #@! TF.FilePolarity,Positive*
%FSLAX46Y46*%
G04 Gerber Fmt 4.6, Leading zero omitted, Abs format (unit mm)*
G04 Created by KiCad (PCBNEW (6.0.8)) date 2022-10-23 10:36:42*
%MOMM*%
%LPD*%
G01*
G04 APERTURE LIST*
G04 #@! TA.AperFunction,ComponentPad*
%ADD10R,1.700000X1.700000*%
G04 #@! TD*
G04 #@! TA.AperFunction,ComponentPad*
%ADD11O,1.700000X1.700000*%
G04 #@! TD*
G04 #@! TA.AperFunction,ComponentPad*
%ADD12C,2.000000*%
G04 #@! TD*
G04 #@! TA.AperFunction,ComponentPad*
%ADD13R,1.600000X1.600000*%
G04 #@! TD*
G04 #@! TA.AperFunction,ComponentPad*
%ADD14C,1.600000*%
G04 #@! TD*
G04 #@! TA.AperFunction,ComponentPad*
%ADD15C,3.800000*%
G04 #@! TD*
G04 #@! TA.AperFunction,ComponentPad*
%ADD16O,1.600000X1.600000*%
G04 #@! TD*
G04 #@! TA.AperFunction,ComponentPad*
%ADD17C,2.500000*%
G04 #@! TD*
G04 #@! TA.AperFunction,ComponentPad*
%ADD18R,2.300000X2.300000*%
G04 #@! TD*
G04 #@! TA.AperFunction,ComponentPad*
%ADD19C,2.300000*%
G04 #@! TD*
G04 #@! TA.AperFunction,ViaPad*
%ADD20C,0.600000*%
G04 #@! TD*
G04 #@! TA.AperFunction,ViaPad*
%ADD21C,0.800000*%
G04 #@! TD*
G04 #@! TA.AperFunction,Conductor*
%ADD22C,0.250000*%
G04 #@! TD*
G04 #@! TA.AperFunction,Conductor*
%ADD23C,0.400000*%
G04 #@! TD*
G04 APERTURE END LIST*
D10*
X45720000Y-87426800D03*
D11*
X48260000Y-87426800D03*
X50800000Y-87426800D03*
X53340000Y-87426800D03*
D12*
X139184000Y-91832000D03*
X134184000Y-86332000D03*
D13*
X116265888Y-81788000D03*
D14*
X118265888Y-81788000D03*
D15*
X77470000Y-104902000D03*
X112141000Y-104902000D03*
D10*
X124455000Y-80314800D03*
D11*
X126995000Y-80314800D03*
D13*
X124460000Y-84531200D03*
D14*
X126460000Y-84531200D03*
D15*
X112141000Y-91821000D03*
X134366000Y-95123000D03*
D10*
X43180000Y-83769200D03*
D11*
X45720000Y-83769200D03*
X48260000Y-83769200D03*
D10*
X66050000Y-99949000D03*
D11*
X68590000Y-99949000D03*
X71130000Y-99949000D03*
X73670000Y-99949000D03*
D15*
X77470000Y-91821000D03*
D13*
X117358000Y-95499000D03*
D16*
X117358000Y-98039000D03*
X124978000Y-98039000D03*
X124978000Y-95499000D03*
D10*
X117475000Y-101473000D03*
D11*
X114935000Y-101473000D03*
D17*
X140589000Y-80518000D03*
D18*
X130429000Y-80518000D03*
D19*
X132969000Y-80518000D03*
D17*
X148209000Y-80518000D03*
D10*
X123190000Y-101473000D03*
D11*
X120650000Y-101473000D03*
D15*
X52451000Y-92710000D03*
D10*
X43180000Y-80264000D03*
D11*
X45720000Y-80264000D03*
X48260000Y-80264000D03*
X50800000Y-80264000D03*
D20*
X49911000Y-91186000D03*
D21*
X70538692Y-103034500D03*
D20*
X69596000Y-102934500D03*
X54483000Y-89225811D03*
D21*
X74676000Y-105664000D03*
X75719500Y-99722500D03*
D20*
X78740000Y-86360000D03*
X126746000Y-91694000D03*
X115316000Y-94869000D03*
X128524000Y-82550000D03*
X120015000Y-79502000D03*
X75946000Y-89662000D03*
X131191000Y-83312000D03*
X124079000Y-87884000D03*
X43053000Y-85852000D03*
X54737000Y-82042000D03*
X120777000Y-80264000D03*
X49276000Y-85344000D03*
X124079000Y-87122000D03*
X40894000Y-82169000D03*
X75184000Y-88900000D03*
X41783000Y-81280000D03*
X75184000Y-89662000D03*
X130175000Y-85090000D03*
X128651000Y-80264000D03*
X127762000Y-82550000D03*
X41783000Y-82169000D03*
X120777000Y-79502000D03*
X123317000Y-87122000D03*
X120015000Y-80264000D03*
X128524000Y-83312000D03*
X123317000Y-87884000D03*
X75946000Y-88900000D03*
X40894000Y-81280000D03*
X83058000Y-81026000D03*
X82169000Y-81788000D03*
X81280000Y-81788000D03*
X113919000Y-82042000D03*
X82169000Y-81026000D03*
X83058000Y-81788000D03*
X114681000Y-82042000D03*
X81280000Y-81026000D03*
X83058000Y-82550000D03*
X75565000Y-86068500D03*
X114681000Y-81280000D03*
X81280000Y-82550000D03*
X82169000Y-82550000D03*
X113919000Y-81280000D03*
X71000000Y-82416000D03*
X98806000Y-83820000D03*
X57023000Y-95504000D03*
X86360000Y-82804000D03*
X58039000Y-85598000D03*
X68453000Y-95504000D03*
X58928000Y-85598000D03*
X69723000Y-95504000D03*
X67183000Y-95504000D03*
X54530498Y-86614000D03*
X70993000Y-95504000D03*
X54530498Y-85725000D03*
X122428000Y-94488000D03*
X128270000Y-95631000D03*
X60452000Y-85598000D03*
X71501000Y-86143503D03*
X56007000Y-81026000D03*
X61341000Y-85598000D03*
X71501000Y-85344000D03*
X129286000Y-98298000D03*
X69485000Y-93075000D03*
X71501000Y-86943006D03*
X123825000Y-89662000D03*
X71501000Y-87757000D03*
X68834000Y-82042000D03*
X64643000Y-81788000D03*
D22*
X69406500Y-103124000D02*
X69596000Y-102934500D01*
X53340000Y-90170000D02*
X66294000Y-103124000D01*
X49911000Y-91186000D02*
X50927000Y-90170000D01*
X50927000Y-90170000D02*
X53340000Y-90170000D01*
X66294000Y-103124000D02*
X69406500Y-103124000D01*
D23*
X66050000Y-100975000D02*
X66050000Y-99949000D01*
X67310000Y-102235000D02*
X66050000Y-100975000D01*
X71247000Y-102235000D02*
X67310000Y-102235000D01*
X74676000Y-105664000D02*
X71247000Y-102235000D01*
X124460000Y-84531200D02*
X123367800Y-84531200D01*
X126746000Y-91694000D02*
X126492000Y-91694000D01*
X124968000Y-86868000D02*
X124460000Y-86360000D01*
X115316000Y-92583000D02*
X115316000Y-94869000D01*
X124968000Y-90170000D02*
X124968000Y-86868000D01*
X124460000Y-84531200D02*
X124460000Y-86360000D01*
X126492000Y-91694000D02*
X124968000Y-90170000D01*
X123367800Y-84531200D02*
X115316000Y-92583000D01*
D22*
X67056359Y-94741641D02*
X58039000Y-85724282D01*
X58039000Y-85724282D02*
X58039000Y-85598000D01*
X67690641Y-94741641D02*
X67056359Y-94741641D01*
X68453000Y-95504000D02*
X67690641Y-94741641D01*
X69723000Y-95504000D02*
X68511121Y-94292121D01*
X58928000Y-85977564D02*
X58928000Y-85598000D01*
X68511121Y-94292121D02*
X67242557Y-94292121D01*
X67242557Y-94292121D02*
X58928000Y-85977564D01*
X54530498Y-86614000D02*
X58293000Y-86614000D01*
X58293000Y-86614000D02*
X58737500Y-87058500D01*
X58737500Y-87058500D02*
X67183000Y-95504000D01*
X59176193Y-84963000D02*
X57790807Y-84963000D01*
X57028808Y-85725000D02*
X57152904Y-85600904D01*
X57790807Y-84963000D02*
X57152904Y-85600904D01*
X59691077Y-85477884D02*
X59176193Y-84963000D01*
X69331601Y-93842601D02*
X67428755Y-93842601D01*
X59691077Y-86104923D02*
X59691077Y-85477884D01*
X54530498Y-85725000D02*
X57028808Y-85725000D01*
X67428755Y-93842601D02*
X59691077Y-86104923D01*
X57152904Y-85600904D02*
X57028807Y-85725000D01*
X70993000Y-95504000D02*
X69331601Y-93842601D01*
X117475000Y-100711718D02*
X120147718Y-98039000D01*
X117475000Y-101473000D02*
X117475000Y-100711718D01*
X120147718Y-98039000D02*
X124978000Y-98039000D01*
X122428000Y-95123000D02*
X118237000Y-99314000D01*
X118237000Y-99314000D02*
X117094000Y-99314000D01*
X122428000Y-94488000D02*
X122428000Y-95123000D01*
X117094000Y-99314000D02*
X114935000Y-101473000D01*
X71501000Y-86143503D02*
X71421503Y-86223000D01*
X71421503Y-86223000D02*
X61077000Y-86223000D01*
X61077000Y-86223000D02*
X60452000Y-85598000D01*
X70358000Y-85598000D02*
X70612000Y-85344000D01*
X61341000Y-85598000D02*
X70358000Y-85598000D01*
X70612000Y-85344000D02*
X71501000Y-85344000D01*
X71501000Y-86943006D02*
X71957006Y-86943006D01*
X72517000Y-90043000D02*
X69485000Y-93075000D01*
X71957006Y-86943006D02*
X72517000Y-87503000D01*
X72517000Y-87503000D02*
X72517000Y-90043000D01*
G04 #@! TA.AperFunction,Conductor*
G36*
X125545121Y-79268002D02*
G01*
X125591614Y-79321658D01*
X125603000Y-79374000D01*
X125603000Y-83869367D01*
X125583771Y-83931495D01*
X125585708Y-83932560D01*
X125486082Y-84113778D01*
X125423553Y-84310896D01*
X125400501Y-84516406D01*
X125417806Y-84722478D01*
X125474807Y-84921266D01*
X125477625Y-84926748D01*
X125477626Y-84926752D01*
X125566514Y-85099709D01*
X125566517Y-85099713D01*
X125569334Y-85105195D01*
X125573163Y-85110026D01*
X125575747Y-85113286D01*
X125602383Y-85179097D01*
X125603000Y-85191549D01*
X125603000Y-85599000D01*
X125582998Y-85667121D01*
X125529342Y-85713614D01*
X125477000Y-85725000D01*
X122936000Y-85725000D01*
X122936000Y-86664891D01*
X122915998Y-86733012D01*
X122909963Y-86741595D01*
X122832645Y-86842358D01*
X122829485Y-86849987D01*
X122801636Y-86917219D01*
X122757087Y-86972499D01*
X122685227Y-86995000D01*
X120395000Y-86995000D01*
X120326879Y-86974998D01*
X120280386Y-86921342D01*
X120269000Y-86869000D01*
X120269000Y-82930000D01*
X120289002Y-82861879D01*
X120342658Y-82815386D01*
X120395000Y-82804000D01*
X122174000Y-82804000D01*
X123063000Y-82169000D01*
X123063000Y-79374000D01*
X123083002Y-79305879D01*
X123136658Y-79259386D01*
X123189000Y-79248000D01*
X125477000Y-79248000D01*
X125545121Y-79268002D01*
G37*
G04 #@! TD.AperFunction*
G04 #@! TA.AperFunction,Conductor*
G36*
X114903821Y-80792002D02*
G01*
X114950314Y-80845658D01*
X114960963Y-80911609D01*
X114958257Y-80936517D01*
X114957888Y-80943328D01*
X114957888Y-81269885D01*
X114962363Y-81285124D01*
X114963753Y-81286329D01*
X114971436Y-81288000D01*
X116639888Y-81288000D01*
X116708009Y-81308002D01*
X116754502Y-81361658D01*
X116765888Y-81414000D01*
X116765888Y-82162000D01*
X116745886Y-82230121D01*
X116692230Y-82276614D01*
X116639888Y-82288000D01*
X114976004Y-82288000D01*
X114960765Y-82292475D01*
X114959560Y-82293865D01*
X114957889Y-82301548D01*
X114957889Y-82545500D01*
X114937887Y-82613621D01*
X114884231Y-82660114D01*
X114831889Y-82671500D01*
X86991773Y-82671500D01*
X86991773Y-82669742D01*
X86929678Y-82656527D01*
X86879250Y-82606551D01*
X86873155Y-82593886D01*
X86847516Y-82531989D01*
X86847516Y-82531988D01*
X86844355Y-82524358D01*
X86755474Y-82408526D01*
X86748924Y-82403500D01*
X86748921Y-82403497D01*
X86646196Y-82324673D01*
X86646194Y-82324672D01*
X86639643Y-82319645D01*
X86504754Y-82263772D01*
X86360000Y-82244715D01*
X86351812Y-82245793D01*
X86223432Y-82262694D01*
X86223430Y-82262695D01*
X86215246Y-82263772D01*
X86184243Y-82276614D01*
X86087986Y-82316485D01*
X86087984Y-82316486D01*
X86080358Y-82319645D01*
X86005009Y-82377462D01*
X85977216Y-82398789D01*
X85964526Y-82408526D01*
X85875645Y-82524358D01*
X85872486Y-82531984D01*
X85872485Y-82531986D01*
X85846849Y-82593877D01*
X85802300Y-82649157D01*
X85734937Y-82671578D01*
X85728227Y-82671458D01*
X85728227Y-82671500D01*
X83515108Y-82671500D01*
X83504301Y-82671725D01*
X83503636Y-82671753D01*
X83503627Y-82671753D01*
X83498964Y-82671947D01*
X83498958Y-82671948D01*
X83493817Y-82672162D01*
X83411050Y-82689396D01*
X83406243Y-82691254D01*
X83406241Y-82691255D01*
X83349029Y-82713373D01*
X83349021Y-82713377D01*
X83344830Y-82714997D01*
X83280430Y-82751163D01*
X83276854Y-82753907D01*
X83245502Y-82777963D01*
X83179282Y-82803563D01*
X83168799Y-82804000D01*
X82947201Y-82804000D01*
X82879080Y-82783998D01*
X82870498Y-82777963D01*
X82849228Y-82761642D01*
X82849196Y-82761618D01*
X82848171Y-82760832D01*
X82830493Y-82748401D01*
X82812860Y-82737069D01*
X82724701Y-82701166D01*
X82719004Y-82699997D01*
X82719002Y-82699997D01*
X82676367Y-82691253D01*
X82655153Y-82686902D01*
X82652371Y-82686586D01*
X82652370Y-82686586D01*
X82618141Y-82682700D01*
X82618140Y-82682700D01*
X82609190Y-82681684D01*
X82509442Y-82699069D01*
X82503672Y-82701300D01*
X82503671Y-82701300D01*
X82447416Y-82723048D01*
X82447412Y-82723050D01*
X82443224Y-82724669D01*
X82378824Y-82760836D01*
X82356501Y-82777965D01*
X82290282Y-82803563D01*
X82279800Y-82804000D01*
X82058201Y-82804000D01*
X81990080Y-82783998D01*
X81981498Y-82777963D01*
X81960228Y-82761642D01*
X81960196Y-82761618D01*
X81959171Y-82760832D01*
X81941493Y-82748401D01*
X81923860Y-82737069D01*
X81835701Y-82701166D01*
X81830004Y-82699997D01*
X81830002Y-82699997D01*
X81787367Y-82691253D01*
X81766153Y-82686902D01*
X81763371Y-82686586D01*
X81763370Y-82686586D01*
X81729141Y-82682700D01*
X81729140Y-82682700D01*
X81720190Y-82681684D01*
X81620442Y-82699069D01*
X81614672Y-82701300D01*
X81614671Y-82701300D01*
X81558416Y-82723048D01*
X81558412Y-82723050D01*
X81554224Y-82724669D01*
X81489824Y-82760836D01*
X81467501Y-82777965D01*
X81401282Y-82803563D01*
X81390800Y-82804000D01*
X81169201Y-82804000D01*
X81101080Y-82783998D01*
X81092498Y-82777963D01*
X81058083Y-82751556D01*
X81058045Y-82751527D01*
X81057570Y-82751163D01*
X81048872Y-82744772D01*
X81040289Y-82738736D01*
X80970278Y-82704981D01*
X80917605Y-82657381D01*
X80899000Y-82591485D01*
X80899000Y-80898000D01*
X80919002Y-80829879D01*
X80972658Y-80783386D01*
X81025000Y-80772000D01*
X114835700Y-80772000D01*
X114903821Y-80792002D01*
G37*
G04 #@! TD.AperFunction*
G04 #@! TA.AperFunction,Conductor*
G36*
X44238931Y-79268002D02*
G01*
X44259905Y-79284905D01*
X44286095Y-79311095D01*
X44320121Y-79373407D01*
X44323000Y-79400190D01*
X44323000Y-80772000D01*
X44404373Y-80830123D01*
X44404373Y-80830124D01*
X44416613Y-80838867D01*
X44416614Y-80838868D01*
X44653380Y-81007986D01*
X44767500Y-81089500D01*
X45212000Y-81407000D01*
X54282498Y-81407000D01*
X54350619Y-81427002D01*
X54397112Y-81480658D01*
X54407216Y-81550932D01*
X54377722Y-81615512D01*
X54359201Y-81632963D01*
X54348075Y-81641500D01*
X54348073Y-81641502D01*
X54341526Y-81646526D01*
X54252645Y-81762358D01*
X54249486Y-81769984D01*
X54249485Y-81769986D01*
X54221554Y-81837418D01*
X54196772Y-81897246D01*
X54195695Y-81905430D01*
X54195694Y-81905432D01*
X54193175Y-81924568D01*
X54177715Y-82042000D01*
X54178793Y-82050188D01*
X54195478Y-82176923D01*
X54196772Y-82186754D01*
X54199931Y-82194380D01*
X54249378Y-82313754D01*
X54252645Y-82321642D01*
X54272322Y-82347285D01*
X54316797Y-82405246D01*
X54341526Y-82437474D01*
X54348076Y-82442500D01*
X54348079Y-82442503D01*
X54423769Y-82500582D01*
X54457357Y-82526355D01*
X54592246Y-82582228D01*
X54737000Y-82601285D01*
X54745188Y-82600207D01*
X54873566Y-82583306D01*
X54881754Y-82582228D01*
X55016643Y-82526355D01*
X55050231Y-82500582D01*
X55125921Y-82442503D01*
X55125924Y-82442500D01*
X55132474Y-82437474D01*
X55157204Y-82405246D01*
X55201678Y-82347285D01*
X55221355Y-82321642D01*
X55224623Y-82313754D01*
X55274069Y-82194380D01*
X55277228Y-82186754D01*
X55278523Y-82176923D01*
X55295207Y-82050188D01*
X55296285Y-82042000D01*
X55280825Y-81924568D01*
X55278306Y-81905432D01*
X55278305Y-81905430D01*
X55277228Y-81897246D01*
X55252446Y-81837418D01*
X55224515Y-81769986D01*
X55224514Y-81769984D01*
X55221355Y-81762358D01*
X55154687Y-81675474D01*
X55137501Y-81653077D01*
X55137500Y-81653076D01*
X55132474Y-81646526D01*
X55114795Y-81632960D01*
X55072930Y-81575625D01*
X55068708Y-81504754D01*
X55103472Y-81442851D01*
X55166185Y-81409570D01*
X55191501Y-81407000D01*
X55549892Y-81407000D01*
X55618013Y-81427002D01*
X55626596Y-81433038D01*
X55727357Y-81510355D01*
X55862246Y-81566228D01*
X56007000Y-81585285D01*
X56015188Y-81584207D01*
X56030517Y-81582189D01*
X56151754Y-81566228D01*
X56286643Y-81510355D01*
X56387403Y-81433038D01*
X56453624Y-81407437D01*
X56464108Y-81407000D01*
X64012056Y-81407000D01*
X64080177Y-81427002D01*
X64126670Y-81480658D01*
X64136774Y-81550932D01*
X64128464Y-81581219D01*
X64105933Y-81635613D01*
X64105932Y-81635618D01*
X64102772Y-81643246D01*
X64101695Y-81651430D01*
X64101694Y-81651432D01*
X64099843Y-81665495D01*
X64083715Y-81788000D01*
X64084793Y-81796188D01*
X64100092Y-81912395D01*
X64102772Y-81932754D01*
X64105931Y-81940380D01*
X64148024Y-82042000D01*
X64158645Y-82067642D01*
X64247526Y-82183474D01*
X64254076Y-82188500D01*
X64254079Y-82188503D01*
X64356804Y-82267327D01*
X64363357Y-82272355D01*
X64498246Y-82328228D01*
X64643000Y-82347285D01*
X64651188Y-82346207D01*
X64779566Y-82329306D01*
X64787754Y-82328228D01*
X64922643Y-82272355D01*
X64929196Y-82267327D01*
X65031921Y-82188503D01*
X65031924Y-82188500D01*
X65038474Y-82183474D01*
X65127355Y-82067642D01*
X65137977Y-82042000D01*
X65180069Y-81940380D01*
X65183228Y-81932754D01*
X65185909Y-81912395D01*
X65201207Y-81796188D01*
X65202285Y-81788000D01*
X65186157Y-81665495D01*
X65184306Y-81651432D01*
X65184305Y-81651430D01*
X65183228Y-81643246D01*
X65180068Y-81635618D01*
X65180067Y-81635613D01*
X65157536Y-81581219D01*
X65149946Y-81510629D01*
X65181725Y-81447142D01*
X65242782Y-81410914D01*
X65273944Y-81407000D01*
X68379498Y-81407000D01*
X68447619Y-81427002D01*
X68494112Y-81480658D01*
X68504216Y-81550932D01*
X68474722Y-81615512D01*
X68456201Y-81632963D01*
X68445075Y-81641500D01*
X68445073Y-81641502D01*
X68438526Y-81646526D01*
X68349645Y-81762358D01*
X68346486Y-81769984D01*
X68346485Y-81769986D01*
X68318554Y-81837418D01*
X68293772Y-81897246D01*
X68292695Y-81905430D01*
X68292694Y-81905432D01*
X68290175Y-81924568D01*
X68274715Y-82042000D01*
X68275793Y-82050188D01*
X68292478Y-82176923D01*
X68293772Y-82186754D01*
X68296931Y-82194380D01*
X68346378Y-82313754D01*
X68349645Y-82321642D01*
X68369322Y-82347285D01*
X68413797Y-82405246D01*
X68438526Y-82437474D01*
X68445076Y-82442500D01*
X68445079Y-82442503D01*
X68520769Y-82500582D01*
X68554357Y-82526355D01*
X68689246Y-82582228D01*
X68834000Y-82601285D01*
X68842188Y-82600207D01*
X68970566Y-82583306D01*
X68978754Y-82582228D01*
X69113643Y-82526355D01*
X69147231Y-82500582D01*
X69222921Y-82442503D01*
X69222924Y-82442500D01*
X69229474Y-82437474D01*
X69254204Y-82405246D01*
X69298678Y-82347285D01*
X69318355Y-82321642D01*
X69321623Y-82313754D01*
X69371069Y-82194380D01*
X69374228Y-82186754D01*
X69375523Y-82176923D01*
X69392207Y-82050188D01*
X69393285Y-82042000D01*
X69377825Y-81924568D01*
X69375306Y-81905432D01*
X69375305Y-81905430D01*
X69374228Y-81897246D01*
X69349446Y-81837418D01*
X69321515Y-81769986D01*
X69321514Y-81769984D01*
X69318355Y-81762358D01*
X69251687Y-81675474D01*
X69234501Y-81653077D01*
X69234500Y-81653076D01*
X69229474Y-81646526D01*
X69211795Y-81632960D01*
X69169930Y-81575625D01*
X69165708Y-81504754D01*
X69200472Y-81442851D01*
X69263185Y-81409570D01*
X69288501Y-81407000D01*
X69343937Y-81407000D01*
X69392154Y-81416591D01*
X69516558Y-81468121D01*
X69557434Y-81495434D01*
X70404888Y-82342888D01*
X70438914Y-82405200D01*
X70440084Y-82416083D01*
X70440715Y-82416000D01*
X70459772Y-82560754D01*
X70476114Y-82600207D01*
X70508945Y-82679466D01*
X70515645Y-82695642D01*
X70604526Y-82811474D01*
X70611076Y-82816500D01*
X70611079Y-82816503D01*
X70713804Y-82895327D01*
X70720357Y-82900355D01*
X70855246Y-82956228D01*
X71000000Y-82975285D01*
X71008188Y-82974207D01*
X71136566Y-82957306D01*
X71144754Y-82956228D01*
X71182505Y-82940591D01*
X71230723Y-82931000D01*
X80822892Y-82931000D01*
X80891013Y-82951002D01*
X80899596Y-82957038D01*
X80921971Y-82974207D01*
X81000357Y-83034355D01*
X81135246Y-83090228D01*
X81280000Y-83109285D01*
X81288188Y-83108207D01*
X81416566Y-83091306D01*
X81424754Y-83090228D01*
X81559643Y-83034355D01*
X81647798Y-82966711D01*
X81714016Y-82941111D01*
X81783564Y-82955375D01*
X81801197Y-82966707D01*
X81889357Y-83034355D01*
X82024246Y-83090228D01*
X82169000Y-83109285D01*
X82177188Y-83108207D01*
X82305566Y-83091306D01*
X82313754Y-83090228D01*
X82448643Y-83034355D01*
X82536798Y-82966711D01*
X82603016Y-82941111D01*
X82672564Y-82955375D01*
X82690197Y-82966707D01*
X82778357Y-83034355D01*
X82913246Y-83090228D01*
X83058000Y-83109285D01*
X83066188Y-83108207D01*
X83194566Y-83091306D01*
X83202754Y-83090228D01*
X83337643Y-83034355D01*
X83416029Y-82974207D01*
X83438404Y-82957038D01*
X83504624Y-82931437D01*
X83515108Y-82931000D01*
X85728227Y-82931000D01*
X85796348Y-82951002D01*
X85844636Y-83008781D01*
X85855229Y-83034355D01*
X85875645Y-83083642D01*
X85964526Y-83199474D01*
X85971076Y-83204500D01*
X85971079Y-83204503D01*
X86073804Y-83283327D01*
X86080357Y-83288355D01*
X86215246Y-83344228D01*
X86360000Y-83363285D01*
X86368188Y-83362207D01*
X86496566Y-83345306D01*
X86504754Y-83344228D01*
X86639643Y-83288355D01*
X86646196Y-83283327D01*
X86748921Y-83204503D01*
X86748924Y-83204500D01*
X86755474Y-83199474D01*
X86844355Y-83083642D01*
X86864771Y-83034355D01*
X86875364Y-83008781D01*
X86919913Y-82953501D01*
X86991773Y-82931000D01*
X120269000Y-82931000D01*
X120269000Y-85598000D01*
X109520867Y-85598000D01*
X109467617Y-85586195D01*
X109363576Y-85537680D01*
X109363575Y-85537680D01*
X109358594Y-85535357D01*
X109353286Y-85533935D01*
X109353284Y-85533934D01*
X109234775Y-85502180D01*
X109165325Y-85483571D01*
X108971547Y-85466617D01*
X108966000Y-85465514D01*
X108953834Y-85467934D01*
X108953833Y-85467934D01*
X108953648Y-85467971D01*
X108953103Y-85468079D01*
X108928524Y-85470500D01*
X80936476Y-85470500D01*
X80911897Y-85468079D01*
X80911352Y-85467971D01*
X80911167Y-85467934D01*
X80911166Y-85467934D01*
X80899000Y-85465514D01*
X80893453Y-85466617D01*
X80699675Y-85483571D01*
X80630225Y-85502180D01*
X80511716Y-85533934D01*
X80511714Y-85533935D01*
X80506406Y-85535357D01*
X80501425Y-85537680D01*
X80501424Y-85537680D01*
X80397383Y-85586195D01*
X80344133Y-85598000D01*
X79375000Y-85598000D01*
X79375000Y-86715810D01*
X79354998Y-86783931D01*
X79338095Y-86804905D01*
X79311905Y-86831095D01*
X79249593Y-86865121D01*
X79222810Y-86868000D01*
X78130190Y-86868000D01*
X78062069Y-86847998D01*
X78041095Y-86831095D01*
X78014905Y-86804905D01*
X77980879Y-86742593D01*
X77978000Y-86715810D01*
X77978000Y-85598000D01*
X77216000Y-84836000D01*
X71748622Y-84836000D01*
X71700406Y-84826410D01*
X71645754Y-84803772D01*
X71501000Y-84784715D01*
X71492812Y-84785793D01*
X71364432Y-84802694D01*
X71364430Y-84802695D01*
X71356246Y-84803772D01*
X71339255Y-84810810D01*
X71301596Y-84826409D01*
X71253377Y-84836000D01*
X59638077Y-84836000D01*
X59569956Y-84815998D01*
X59548982Y-84799095D01*
X59482671Y-84732784D01*
X59467529Y-84714036D01*
X59466414Y-84712811D01*
X59460764Y-84704060D01*
X59452586Y-84697613D01*
X59452584Y-84697611D01*
X59434393Y-84683271D01*
X59429952Y-84679325D01*
X59429890Y-84679398D01*
X59425926Y-84676039D01*
X59422249Y-84672362D01*
X59406501Y-84661108D01*
X59401831Y-84657602D01*
X59361546Y-84625844D01*
X59352912Y-84622812D01*
X59345459Y-84617486D01*
X59296343Y-84602797D01*
X59290701Y-84600964D01*
X59249826Y-84586610D01*
X59249825Y-84586610D01*
X59242342Y-84583982D01*
X59236777Y-84583500D01*
X59234069Y-84583500D01*
X59231435Y-84583386D01*
X59231337Y-84583357D01*
X59231344Y-84583193D01*
X59230640Y-84583149D01*
X59224415Y-84581287D01*
X59170558Y-84583403D01*
X59165611Y-84583500D01*
X57844727Y-84583500D01*
X57820779Y-84580951D01*
X57819114Y-84580872D01*
X57808931Y-84578680D01*
X57798590Y-84579904D01*
X57775584Y-84582627D01*
X57769653Y-84582977D01*
X57769661Y-84583072D01*
X57764483Y-84583500D01*
X57759283Y-84583500D01*
X57754154Y-84584354D01*
X57754151Y-84584354D01*
X57740242Y-84586669D01*
X57734364Y-84587506D01*
X57693806Y-84592306D01*
X57693805Y-84592306D01*
X57683466Y-84593530D01*
X57675214Y-84597493D01*
X57666181Y-84598996D01*
X57657012Y-84603943D01*
X57657010Y-84603944D01*
X57621075Y-84623334D01*
X57615782Y-84626031D01*
X57576725Y-84644785D01*
X57576721Y-84644788D01*
X57569575Y-84648219D01*
X57565299Y-84651814D01*
X57563376Y-84653737D01*
X57561444Y-84655509D01*
X57561365Y-84655552D01*
X57561252Y-84655428D01*
X57560712Y-84655904D01*
X57554993Y-84658990D01*
X57547926Y-84666635D01*
X57518390Y-84698587D01*
X57514960Y-84702153D01*
X57418018Y-84799095D01*
X57355706Y-84833121D01*
X57328923Y-84836000D01*
X54991000Y-84836000D01*
X54690007Y-85136993D01*
X54627695Y-85171019D01*
X54584466Y-85172820D01*
X54538686Y-85166793D01*
X54530498Y-85165715D01*
X54522310Y-85166793D01*
X54393930Y-85183694D01*
X54393928Y-85183695D01*
X54385744Y-85184772D01*
X54339795Y-85203805D01*
X54258484Y-85237485D01*
X54258482Y-85237486D01*
X54250856Y-85240645D01*
X54135024Y-85329526D01*
X54046143Y-85445358D01*
X54042984Y-85452984D01*
X54042983Y-85452986D01*
X54022606Y-85502180D01*
X53990270Y-85580246D01*
X53989193Y-85588430D01*
X53989192Y-85588432D01*
X53986517Y-85608752D01*
X53971213Y-85725000D01*
X53972291Y-85733188D01*
X53987933Y-85852000D01*
X53990270Y-85869754D01*
X54004159Y-85903285D01*
X54042876Y-85996754D01*
X54046143Y-86004642D01*
X54051171Y-86011195D01*
X54051173Y-86011198D01*
X54113785Y-86092796D01*
X54139386Y-86159016D01*
X54125121Y-86228565D01*
X54113785Y-86246204D01*
X54051173Y-86327802D01*
X54051171Y-86327805D01*
X54046143Y-86334358D01*
X54042984Y-86341984D01*
X54042983Y-86341986D01*
X54014278Y-86411285D01*
X53990270Y-86469246D01*
X53989193Y-86477430D01*
X53989192Y-86477432D01*
X53979410Y-86551734D01*
X53971213Y-86614000D01*
X53990270Y-86758754D01*
X53993429Y-86766380D01*
X54035522Y-86868000D01*
X54046143Y-86893642D01*
X54051170Y-86900193D01*
X54129531Y-87002315D01*
X54135024Y-87009474D01*
X54141574Y-87014500D01*
X54141577Y-87014503D01*
X54237047Y-87087760D01*
X54250855Y-87098355D01*
X54385744Y-87154228D01*
X54390844Y-87154899D01*
X54450234Y-87191100D01*
X54481255Y-87254960D01*
X54483000Y-87275855D01*
X54483000Y-88493810D01*
X54462998Y-88561931D01*
X54446095Y-88582905D01*
X54419905Y-88609095D01*
X54357593Y-88643121D01*
X54330810Y-88646000D01*
X52349190Y-88646000D01*
X52281069Y-88625998D01*
X52260095Y-88609095D01*
X52233905Y-88582905D01*
X52199879Y-88520593D01*
X52197000Y-88493810D01*
X52197000Y-86106000D01*
X51054000Y-84963000D01*
X49733108Y-84963000D01*
X49664987Y-84942998D01*
X49656404Y-84936962D01*
X49608110Y-84899905D01*
X49555643Y-84859645D01*
X49420754Y-84803772D01*
X49276000Y-84784715D01*
X49267812Y-84785793D01*
X49139432Y-84802694D01*
X49139430Y-84802695D01*
X49131246Y-84803772D01*
X49114255Y-84810810D01*
X49003986Y-84856485D01*
X49003984Y-84856486D01*
X48996358Y-84859645D01*
X48978041Y-84873700D01*
X48895595Y-84936963D01*
X48829375Y-84962563D01*
X48818891Y-84963000D01*
X47142190Y-84963000D01*
X47074069Y-84942998D01*
X47053095Y-84926095D01*
X47026905Y-84899905D01*
X46992879Y-84837593D01*
X46990000Y-84810810D01*
X46990000Y-83820000D01*
X98246715Y-83820000D01*
X98247793Y-83828188D01*
X98261534Y-83932560D01*
X98265772Y-83964754D01*
X98321645Y-84099642D01*
X98410526Y-84215474D01*
X98417076Y-84220500D01*
X98417079Y-84220503D01*
X98519804Y-84299327D01*
X98526357Y-84304355D01*
X98661246Y-84360228D01*
X98806000Y-84379285D01*
X98814188Y-84378207D01*
X98942566Y-84361306D01*
X98950754Y-84360228D01*
X99085643Y-84304355D01*
X99092196Y-84299327D01*
X99194921Y-84220503D01*
X99194924Y-84220500D01*
X99201474Y-84215474D01*
X99290355Y-84099642D01*
X99346228Y-83964754D01*
X99350467Y-83932560D01*
X99364207Y-83828188D01*
X99365285Y-83820000D01*
X99346228Y-83675246D01*
X99290355Y-83540358D01*
X99201474Y-83424526D01*
X99194924Y-83419500D01*
X99194921Y-83419497D01*
X99092196Y-83340673D01*
X99092194Y-83340672D01*
X99085643Y-83335645D01*
X98950754Y-83279772D01*
X98806000Y-83260715D01*
X98797812Y-83261793D01*
X98669432Y-83278694D01*
X98669430Y-83278695D01*
X98661246Y-83279772D01*
X98652664Y-83283327D01*
X98533986Y-83332485D01*
X98533984Y-83332486D01*
X98526358Y-83335645D01*
X98410526Y-83424526D01*
X98321645Y-83540358D01*
X98265772Y-83675246D01*
X98246715Y-83820000D01*
X46990000Y-83820000D01*
X46990000Y-82931000D01*
X46609000Y-82677000D01*
X45903436Y-82677000D01*
X45878855Y-82674579D01*
X45841613Y-82667171D01*
X45841610Y-82667171D01*
X45835946Y-82666044D01*
X45830171Y-82665968D01*
X45830167Y-82665968D01*
X45728793Y-82664641D01*
X45632971Y-82663387D01*
X45627274Y-82664366D01*
X45627273Y-82664366D01*
X45599502Y-82669138D01*
X45564340Y-82675180D01*
X45543003Y-82677000D01*
X44129314Y-82677000D01*
X44104733Y-82674579D01*
X44061135Y-82665907D01*
X44055067Y-82664700D01*
X43767848Y-82664700D01*
X43730280Y-82658969D01*
X43624127Y-82625810D01*
X43589978Y-82609138D01*
X42306699Y-81720715D01*
X42262076Y-81665495D01*
X42254391Y-81594915D01*
X42267214Y-81559826D01*
X42267355Y-81559642D01*
X42323228Y-81424754D01*
X42324573Y-81414542D01*
X42341207Y-81288188D01*
X42342285Y-81280000D01*
X42323228Y-81135246D01*
X42280024Y-81030943D01*
X42270515Y-81007986D01*
X42270514Y-81007984D01*
X42267355Y-81000358D01*
X42212935Y-80929436D01*
X42183501Y-80891077D01*
X42183500Y-80891076D01*
X42178474Y-80884526D01*
X42171924Y-80879500D01*
X42171921Y-80879497D01*
X42110529Y-80832390D01*
X42086296Y-80813794D01*
X42044429Y-80756457D01*
X42037000Y-80713833D01*
X42037000Y-79400190D01*
X42057002Y-79332069D01*
X42073905Y-79311095D01*
X42100095Y-79284905D01*
X42162407Y-79250879D01*
X42189190Y-79248000D01*
X44170810Y-79248000D01*
X44238931Y-79268002D01*
G37*
G04 #@! TD.AperFunction*
M02*
