G04 #@! TF.GenerationSoftware,KiCad,Pcbnew,(6.0.8)*
G04 #@! TF.CreationDate,2022-10-23T10:36:42+02:00*
G04 #@! TF.ProjectId,ControlPanelESP,436f6e74-726f-46c5-9061-6e656c455350,rev?*
G04 #@! TF.SameCoordinates,Original*
G04 #@! TF.FileFunction,Paste,Top*
G04 #@! TF.FilePolarity,Positive*
%FSLAX46Y46*%
G04 Gerber Fmt 4.6, Leading zero omitted, Abs format (unit mm)*
G04 Created by KiCad (PCBNEW (6.0.8)) date 2022-10-23 10:36:42*
%MOMM*%
%LPD*%
G01*
G04 APERTURE LIST*
G04 Aperture macros list*
%AMRoundRect*
0 Rectangle with rounded corners*
0 $1 Rounding radius*
0 $2 $3 $4 $5 $6 $7 $8 $9 X,Y pos of 4 corners*
0 Add a 4 corners polygon primitive as box body*
4,1,4,$2,$3,$4,$5,$6,$7,$8,$9,$2,$3,0*
0 Add four circle primitives for the rounded corners*
1,1,$1+$1,$2,$3*
1,1,$1+$1,$4,$5*
1,1,$1+$1,$6,$7*
1,1,$1+$1,$8,$9*
0 Add four rect primitives between the rounded corners*
20,1,$1+$1,$2,$3,$4,$5,0*
20,1,$1+$1,$4,$5,$6,$7,0*
20,1,$1+$1,$6,$7,$8,$9,0*
20,1,$1+$1,$8,$9,$2,$3,0*%
G04 Aperture macros list end*
%ADD10RoundRect,0.150000X0.587500X0.150000X-0.587500X0.150000X-0.587500X-0.150000X0.587500X-0.150000X0*%
%ADD11R,1.200000X0.600000*%
%ADD12RoundRect,0.250000X0.337500X0.475000X-0.337500X0.475000X-0.337500X-0.475000X0.337500X-0.475000X0*%
%ADD13RoundRect,0.250000X-0.337500X-0.475000X0.337500X-0.475000X0.337500X0.475000X-0.337500X0.475000X0*%
%ADD14RoundRect,0.250000X0.450000X-0.350000X0.450000X0.350000X-0.450000X0.350000X-0.450000X-0.350000X0*%
%ADD15RoundRect,0.250000X-0.475000X0.337500X-0.475000X-0.337500X0.475000X-0.337500X0.475000X0.337500X0*%
%ADD16R,1.550000X1.300000*%
%ADD17RoundRect,0.250000X-0.450000X0.350000X-0.450000X-0.350000X0.450000X-0.350000X0.450000X0.350000X0*%
%ADD18RoundRect,0.250000X0.475000X-0.337500X0.475000X0.337500X-0.475000X0.337500X-0.475000X-0.337500X0*%
%ADD19RoundRect,0.250000X-0.350000X-0.450000X0.350000X-0.450000X0.350000X0.450000X-0.350000X0.450000X0*%
%ADD20R,0.900000X2.000000*%
%ADD21R,2.000000X0.900000*%
%ADD22R,5.000000X5.000000*%
%ADD23RoundRect,0.250000X0.350000X0.450000X-0.350000X0.450000X-0.350000X-0.450000X0.350000X-0.450000X0*%
%ADD24R,2.000000X1.500000*%
%ADD25R,2.000000X3.800000*%
G04 APERTURE END LIST*
D10*
X69898500Y-103947000D03*
X69898500Y-102047000D03*
X68023500Y-102997000D03*
D11*
X51175600Y-82870000D03*
X51175600Y-83820000D03*
X51175600Y-84770000D03*
X53675600Y-84770000D03*
X53675600Y-82870000D03*
D12*
X49551500Y-89662000D03*
X47476500Y-89662000D03*
D13*
X51413500Y-89662000D03*
X53488500Y-89662000D03*
D14*
X131572000Y-98520000D03*
X131572000Y-96520000D03*
D15*
X79502000Y-80242500D03*
X79502000Y-82317500D03*
D10*
X129715500Y-95692000D03*
X129715500Y-93792000D03*
X127840500Y-94742000D03*
D16*
X107353000Y-80264000D03*
X99403000Y-80264000D03*
X99403000Y-84764000D03*
X107353000Y-84764000D03*
X88989000Y-80300000D03*
X96939000Y-80300000D03*
X88989000Y-84800000D03*
X96939000Y-84800000D03*
D17*
X39624000Y-79772000D03*
X39624000Y-81772000D03*
D14*
X74041000Y-104362000D03*
X74041000Y-102362000D03*
D18*
X121539000Y-83968500D03*
X121539000Y-81893500D03*
D19*
X115348000Y-92710000D03*
X117348000Y-92710000D03*
D15*
X77724000Y-80242500D03*
X77724000Y-82317500D03*
D12*
X86995000Y-80010000D03*
X84920000Y-80010000D03*
D18*
X112649000Y-81809500D03*
X112649000Y-79734500D03*
D20*
X73540000Y-80130000D03*
X72270000Y-80130000D03*
X71000000Y-80130000D03*
X69730000Y-80130000D03*
X68460000Y-80130000D03*
X67190000Y-80130000D03*
X65920000Y-80130000D03*
X64650000Y-80130000D03*
X63380000Y-80130000D03*
X62110000Y-80130000D03*
X60840000Y-80130000D03*
X59570000Y-80130000D03*
X58300000Y-80130000D03*
X57030000Y-80130000D03*
D21*
X56030000Y-82915000D03*
X56030000Y-84185000D03*
X56030000Y-85455000D03*
X56030000Y-86725000D03*
X56030000Y-87995000D03*
X56030000Y-89265000D03*
X56030000Y-90535000D03*
X56030000Y-91805000D03*
X56030000Y-93075000D03*
X56030000Y-94345000D03*
D20*
X57030000Y-97130000D03*
X58300000Y-97130000D03*
X59570000Y-97130000D03*
X60840000Y-97130000D03*
X62110000Y-97130000D03*
X63380000Y-97130000D03*
X64650000Y-97130000D03*
X65920000Y-97130000D03*
X67190000Y-97130000D03*
X68460000Y-97130000D03*
X69730000Y-97130000D03*
X71000000Y-97130000D03*
X72270000Y-97130000D03*
X73540000Y-97130000D03*
D22*
X66040000Y-87630000D03*
D14*
X72009000Y-102362000D03*
X72009000Y-104362000D03*
D19*
X127794000Y-91821000D03*
X129794000Y-91821000D03*
D23*
X125222000Y-92456000D03*
X123222000Y-92456000D03*
D10*
X129715500Y-99349600D03*
X129715500Y-97449600D03*
X127840500Y-98399600D03*
D18*
X111506000Y-86911000D03*
X111506000Y-84836000D03*
D14*
X129794000Y-89376000D03*
X129794000Y-87376000D03*
D18*
X109474000Y-84836000D03*
X109474000Y-82761000D03*
D23*
X63865000Y-99695000D03*
X61865000Y-99695000D03*
D24*
X121513600Y-90553600D03*
D25*
X115213600Y-88253600D03*
D24*
X121513600Y-88253600D03*
X121513600Y-85953600D03*
D10*
X127683500Y-89977000D03*
X127683500Y-88077000D03*
X125808500Y-89027000D03*
D23*
X78724000Y-87630000D03*
X76724000Y-87630000D03*
X112903000Y-88646000D03*
X110903000Y-88646000D03*
M02*
